<?xml version="1.0" encoding="UTF-8"?>
<svg width="30px" height="31px" viewBox="0 0 30 31" version="1.1" xmlns="http://www.w3.org/2000/svg" xmlns:xlink="http://www.w3.org/1999/xlink">
    <title>ic_fzzx_aqsm</title>
    <g id="个人信息" stroke="none" stroke-width="1" fill="none" fill-rule="evenodd">
        <g id="反诈中心切图" transform="translate(-44.000000, -364.000000)">
            <g id="编组-47备份-2" transform="translate(31.000000, 364.050051)">
                <g id="ic_fzzx_aqsm-2" transform="translate(13.000000, 0.000000)">
                    <g id="ic_fzzx_aqsm" transform="translate(0.473079, 1.000458)">
                        <path d="M28.2944693,13.434953 C28.678238,13.434953 28.9893439,13.6675128 28.9893439,13.9543899 C28.9893439,14.241267 28.678238,14.4738268 28.2944693,14.4738268 L0.694874638,14.4738268 C0.311105973,14.4738268 0,14.241267 0,13.9543899 C0,13.6675128 0.311105973,13.434953 0.694874638,13.434953 L28.2944693,13.434953 Z" id="形状" fill="#0C273D" fill-rule="nonzero"></path>
                        <path d="M8.63585151,0 C8.91199388,0 9.13585151,0.223857625 9.13585151,0.5 C9.13585151,0.745459889 8.95897635,0.94960837 8.72572714,0.991944331 L8.63585151,1 L3.98190558,1 C2.65642218,1 1.57186691,2.03153594 1.48722326,3.33562431 L1.48190558,3.5 L1.48190558,8.15657177 C1.48190558,8.43271415 1.25804796,8.65657177 0.981905583,8.65657177 C0.736445695,8.65657177 0.532297213,8.47969661 0.489961253,8.2464474 L0.481905583,8.15657177 L0.481905583,3.5 C0.481905583,1.6314366 1.94618318,0.104873551 3.78987038,0.00517886273 L3.98190558,0 L8.63585151,0 Z" id="路径-64" fill="#0C273D" fill-rule="nonzero"></path>
                        <path d="M8.63585151,19.3425115 C8.91199388,19.3425115 9.13585151,19.5663691 9.13585151,19.8425115 C9.13585151,20.0879714 8.95897635,20.2921198 8.72572714,20.3344558 L8.63585151,20.3425115 L3.98190558,20.3425115 C2.65642218,20.3425115 1.57186691,21.3740474 1.48722326,22.6781358 L1.48190558,22.8425115 L1.48190558,27.4990832 C1.48190558,27.7752256 1.25804796,27.9990832 0.981905583,27.9990832 C0.736445695,27.9990832 0.532297213,27.8222081 0.489961253,27.5889589 L0.481905583,27.4990832 L0.481905583,22.8425115 C0.481905583,20.9739481 1.94618318,19.447385 3.78987038,19.3476903 L3.98190558,19.3425115 L8.63585151,19.3425115 Z" id="路径-64备份-2" fill="#0C273D" fill-rule="nonzero" transform="translate(4.808879, 23.670797) scale(1, -1) translate(-4.808879, -23.670797) "></path>
                        <path d="M27.8186518,0 C28.0947942,0 28.3186518,0.223857625 28.3186518,0.5 C28.3186518,0.745459889 28.1417766,0.94960837 27.9085274,0.991944331 L27.8186518,1 L23.1647059,1 C21.8392225,1 20.7546672,2.03153594 20.6700236,3.33562431 L20.6647059,3.5 L20.6647059,8.15657177 C20.6647059,8.43271415 20.4408483,8.65657177 20.1647059,8.65657177 C19.919246,8.65657177 19.7150975,8.47969661 19.6727615,8.2464474 L19.6647059,8.15657177 L19.6647059,3.5 C19.6647059,1.6314366 21.1289835,0.104873551 22.9726707,0.00517886273 L23.1647059,0 L27.8186518,0 Z" id="路径-64备份" fill="#0C273D" fill-rule="nonzero" transform="translate(23.991679, 4.328286) scale(-1, 1) translate(-23.991679, -4.328286) "></path>
                        <path d="M27.8186518,19.3425115 C28.0947942,19.3425115 28.3186518,19.5663691 28.3186518,19.8425115 C28.3186518,20.0879714 28.1417766,20.2921198 27.9085274,20.3344558 L27.8186518,20.3425115 L23.1647059,20.3425115 C21.8392225,20.3425115 20.7546672,21.3740474 20.6700236,22.6781358 L20.6647059,22.8425115 L20.6647059,27.4990832 C20.6647059,27.7752256 20.4408483,27.9990832 20.1647059,27.9990832 C19.919246,27.9990832 19.7150975,27.8222081 19.6727615,27.5889589 L19.6647059,27.4990832 L19.6647059,22.8425115 C19.6647059,20.9739481 21.1289835,19.447385 22.9726707,19.3476903 L23.1647059,19.3425115 L27.8186518,19.3425115 Z" id="路径-64备份-3" fill="#0C273D" fill-rule="nonzero" transform="translate(23.991679, 23.670797) scale(-1, -1) translate(-23.991679, -23.670797) "></path>
                        <rect id="矩形" fill="#0A59F7" opacity="0.906754267" x="3.91588462" y="6.01934242" width="22" height="16" rx="2"></rect>
                    </g>
                </g>
            </g>
        </g>
    </g>
</svg>