<?xml version="1.0" encoding="UTF-8"?>
<svg width="48px" height="48px" viewBox="0 0 48 48" version="1.1" xmlns="http://www.w3.org/2000/svg" xmlns:xlink="http://www.w3.org/1999/xlink">
    <title>ic_fzzx_dhsb</title>
    <defs>
        <linearGradient x1="50%" y1="0%" x2="35.9608375%" y2="89.4781092%" id="linearGradient-1">
            <stop stop-color="#0A59F7" offset="0%"></stop>
            <stop stop-color="#6094FF" offset="100%"></stop>
        </linearGradient>
        <linearGradient x1="50%" y1="0%" x2="33.5333926%" y2="100%" id="linearGradient-2">
            <stop stop-color="#FFFFFF" offset="0%"></stop>
            <stop stop-color="#E3ECFF" offset="100%"></stop>
        </linearGradient>
    </defs>
    <g id="个人信息" stroke="none" stroke-width="1" fill="none" fill-rule="evenodd">
        <g id="反诈中心切图" transform="translate(-39.000000, -231.000000)">
            <g id="ic_fzzx_dhsb-2" transform="translate(39.000000, 231.000000)">
                <g id="ic_fzzx_dhsb" transform="translate(1.000000, 1.000000)">
                    <circle id="椭圆形备份-4" fill="url(#linearGradient-1)" cx="23" cy="23" r="23"></circle>
                    <path d="M33.590463,28.8884074 L29.2331656,24.5309263 C28.6858301,23.984922 27.7998351,23.984922 27.2524996,24.5309263 L26.2621796,25.5212724 C25.7019883,26.0814637 23.8879905,25.5238984 22.3010313,23.9367816 C20.714072,22.3496648 20.1554826,20.5365335 20.7165404,19.9756332 L21.7068866,18.9853133 C22.2528909,18.4379778 22.2528909,17.5519827 21.7068866,17.0046472 L17.3494055,12.6473499 C16.802133,12.1013667 15.9161957,12.1013667 15.3689232,12.6473499 L14.378577,13.6376698 C13.6468332,14.3694399 13.2011065,15.3319248 13.0535288,16.4985502 C12.9166387,17.5805941 13.0428675,18.794145 13.4285127,20.1048294 C14.202114,22.7377784 15.946787,25.5058582 18.3397254,27.8980875 C20.7326637,30.2903168 23.5002183,32.0356989 26.1322745,32.8093001 C27.1019545,33.094477 28.0180655,33.2378625 28.8671099,33.2378625 C29.158664,33.2383312 29.4499586,33.2204394 29.7392626,33.1842841 C30.905888,33.0367063 31.868373,32.5909797 32.6001431,31.8592358 L33.590463,30.8688897 C34.1364461,30.3216172 34.1364461,29.4356799 33.590463,28.8884074 L33.590463,28.8884074 Z" id="路径" fill="url(#linearGradient-2)"></path>
                    <path d="M16.3692278,14.8410225 C16.5910502,14.6224349 16.9403997,14.6003919 17.1879137,14.7764064 L17.2588835,14.835154 L19.5226235,17.0061495 C19.7699621,17.2433547 19.7726648,17.6305679 19.5286602,17.8710142 C19.3068378,18.0896017 18.9574883,18.1116447 18.7099742,17.9356302 L18.6390045,17.8768826 L16.3752644,15.7058871 C16.1279258,15.4686819 16.1252231,15.0814688 16.3692278,14.8410225 Z" id="路径-2" fill="#69D9CB" fill-rule="nonzero" transform="translate(17.948944, 16.356018) rotate(2.000000) translate(-17.948944, -16.356018) "></path>
                    <path d="M28.8043334,27.0306247 C29.0010419,26.8363678 29.3108394,26.8167783 29.5303309,26.973201 L29.5932658,27.0254095 L31.600714,28.9547552 C31.8200499,29.1655576 31.8224466,29.5096707 31.6060672,29.7233533 C31.4093587,29.9176103 31.0995611,29.9371997 30.8800697,29.7807771 L30.8171348,29.7285686 L28.8096866,27.7992228 C28.5903507,27.5884205 28.587954,27.2443074 28.8043334,27.0306247 Z" id="路径-2备份" fill="#69D9CB" fill-rule="nonzero"></path>
                </g>
            </g>
        </g>
    </g>
</svg>