<?xml version="1.0" encoding="UTF-8"?>
<svg width="32px" height="33px" viewBox="0 0 32 33" version="1.1" xmlns="http://www.w3.org/2000/svg" xmlns:xlink="http://www.w3.org/1999/xlink">
    <title>ic_fzzx_bjcx</title>
    <g id="个人信息" stroke="none" stroke-width="1" fill="none" fill-rule="evenodd">
        <g id="反诈中心切图" transform="translate(-135.000000, -364.000000)">
            <g id="ic_fzzx_bjcx-2" transform="translate(135.000000, 364.300051)">
                <g id="ic_fzzx_bjcx" transform="translate(3.035249, 1.372320)">
                    <path d="M0,2 L0,27.7817283 C-8.20543045e-16,28.334013 0.44771525,28.7817283 1,28.7817283 C1.12649909,28.7817283 1.25184957,28.7577271 1.36940137,28.7109982 L12.7529831,24.1858215 L12.7529831,24.1858215 L23.6457913,28.6846858 C24.1562524,28.8955125 24.7409717,28.6526109 24.9517984,28.1421498 C25.0017969,28.0210918 25.0275269,27.8913909 25.0275269,27.7604142 L25.0275269,2 C25.0275269,0.8954305 24.1320964,-2.02906125e-16 23.0275269,0 L2,0 C0.8954305,2.02906125e-16 -1.3527075e-16,0.8954305 0,2 Z" id="路径-65" stroke="#454451" stroke-linejoin="round"></path>
                    <path d="M9.73873711,9.44155693 L12.2389034,5.29489747 C12.3244539,5.15300745 12.5088308,5.10733521 12.6507208,5.19288568 C12.6976316,5.22116985 12.735903,5.26175821 12.7613841,5.31024873 L14.932333,9.44155693 L14.932333,9.44155693 L19.6847386,10.4166487 C19.8470429,10.44995 19.9516204,10.6085197 19.918319,10.770824 C19.9071891,10.8250693 19.8812623,10.8751757 19.84341,10.9155939 L16.6444931,14.3313656 L16.6444931,14.3313656 L17.1862259,19.1121133 C17.2048812,19.2767451 17.0865439,19.4253287 16.921912,19.4439841 C16.8694178,19.4499325 16.8162835,19.4419131 16.7678831,19.4207369 L12.6163118,17.6043377 C12.5368076,17.569553 12.446136,17.5708999 12.3677001,17.6080308 L8.09295706,19.6316597 C7.94320394,19.7025516 7.7643358,19.638622 7.69344389,19.4888688 C7.67049522,19.4403917 7.66096237,19.3866488 7.66583801,19.3332362 L8.09660721,14.6141701 L8.09660721,14.6141701 L4.45732387,10.9244327 C4.34097586,10.8064717 4.34228347,10.6165267 4.46024449,10.5001787 C4.50255783,10.458444 4.55631393,10.4302177 4.61469347,10.4190805 L9.73873711,9.44155693 L9.73873711,9.44155693 Z" id="路径-66" fill="#2169F8"></path>
                </g>
            </g>
        </g>
    </g>
</svg>