<?xml version="1.0" encoding="UTF-8"?>
<svg width="114px" height="89px" viewBox="0 0 114 89" version="1.1" xmlns="http://www.w3.org/2000/svg" xmlns:xlink="http://www.w3.org/1999/xlink">
    <title>ic_rlql_zprl</title>
    <g id="页面-1" stroke="none" stroke-width="1" fill="none" fill-rule="evenodd">
        <g id="日历清理切图" transform="translate(-34.000000, -288.000000)" fill="#FFFFFF" fill-rule="nonzero">
            <g id="ic_rlql_zprl-2" transform="translate(34.000000, 288.907932)">
                <g id="ic_rlql_zprl" transform="translate(24.000000, 22.000000)">
                    <path d="M13.7327143,0 L16.1464286,0 C16.6964286,0.0540512821 16.973,0.370410256 16.9761429,0.949076923 C16.9855714,2.62148718 16.984,4.32410256 16.9714286,6.05692308 C16.9682857,6.4734359 16.7608571,6.68169231 16.3491429,6.68169231 L12.837,6.67215385 C12.441,6.66897436 12.2445714,6.46866667 12.2476772,6.07123077 L12.2854286,0.562769231 C12.2864959,0.43237821 12.3402818,0.308201655 12.434035,0.219678848 C12.5277881,0.131156042 12.6531603,0.0861695593 12.7804286,0.0953846154 C13.2958571,0.130358974 13.6132857,0.0985641026 13.7327143,0 Z" id="路径"></path>
                    <path d="M51.447,0 L54.3132857,0 C54.7501429,1.91405128 54.8727143,3.96323077 54.681,6.14753846 C54.6539339,6.4525551 54.4013843,6.68519919 54.1011429,6.68173143 L50.4334286,6.66738462 C50.172305,6.66476897 49.962,6.4498722 49.962,6.18569231 L49.9997143,0.562769231 C50.0007816,0.43237821 50.0545675,0.308201655 50.1483207,0.219678848 C50.2420739,0.131156042 50.367446,0.0861695593 50.4947143,0.0953846154 C51.0101429,0.130358974 51.3275714,0.0985641026 51.447,0 Z" id="路径"></path>
                    <path d="M66,4.46876923 L66,15.252 C44.2765714,15.2551795 22.5515714,15.2488205 0.825,15.2329231 C0.375571429,15.2329231 0.100571429,15.1041538 0,14.8466154 L0,4.54030769 C0.289142857,3.41158974 1.03557143,2.84723077 2.23928571,2.84723077 C3.99928571,2.84405128 5.65085714,2.85358974 7.194,2.87584615 C7.37959203,2.87845393 7.52869632,3.02929603 7.52871429,3.21446154 L7.55228571,9.63861538 C7.55201975,10.0807151 7.89811666,10.4435011 8.33485714,10.4589231 C12.3577143,10.6178974 16.5581429,10.6115385 20.9361429,10.4398462 C21.3458855,10.4245728 21.6716218,10.0845454 21.6762857,9.66723077 L21.7187143,3.20015385 C21.7212929,3.00976474 21.8725075,2.85678766 22.0581429,2.85676923 L44.781,2.86153846 C44.9047803,2.86153846 45.0234909,2.9112831 45.1110168,2.99982912 C45.1985427,3.08837514 45.2477143,3.20846932 45.2477143,3.33369231 L45.2618571,9.64815385 C45.2641207,10.0857708 45.6073993,10.4435739 46.0397143,10.4589231 C50.2197143,10.6210769 54.4201429,10.6147179 58.641,10.4398462 C59.053346,10.42457 59.3811904,10.0824089 59.3858571,9.66246154 L59.4471429,3.17630769 C59.447142,3.01402134 59.5765464,2.88099724 59.7394286,2.87584615 C61.0971429,2.83769231 63.393,2.72323077 64.3264286,2.89492308 C65.1498571,3.04435897 65.7077143,3.56897436 66,4.46876923 Z" id="路径"></path>
                    <path d="M66,19.1198462 L66,59.9635385 C65.6857143,61.0382051 64.9974286,61.7170256 63.9351429,62 L2.00828571,62 C0.933428571,61.6884103 0.264,60.9921026 0,59.9110769 L0,19.1389231 L66,19.1198462 Z M49.9525714,28.1384615 C49.9525714,26.8320107 48.9056853,25.7729231 47.6142857,25.7729231 C46.3228862,25.7729231 45.276,26.8320107 45.276,28.1384615 C45.276,29.4449124 46.3228862,30.504 47.6142857,30.504 C48.2344376,30.504 48.8291898,30.2547743 49.2677034,29.8111498 C49.706217,29.3675253 49.9525714,28.7658413 49.9525714,28.1384615 L49.9525714,28.1384615 Z M47.1381429,40.5384615 C47.1381429,32.9025726 41.0193465,26.7124615 33.4714286,26.7124615 C25.9235107,26.7124615 19.8047143,32.9025726 19.8047143,40.5384615 C19.8047143,48.1743505 25.9235107,54.3644615 33.4714286,54.3644615 C41.0193465,54.3644615 47.1381429,48.1743505 47.1381429,40.5384615 L47.1381429,40.5384615 Z M10.362,31.9586154 C10.362,31.5804167 10.213492,31.217708 9.94914609,30.9502811 C9.68480017,30.6828542 9.32627016,30.5326154 8.95242857,30.5326154 C8.17394377,30.5326154 7.54285714,31.1710573 7.54285714,31.9586154 C7.54285714,32.7461734 8.17394377,33.3846154 8.95242857,33.3846154 C9.32627016,33.3846154 9.68480017,33.2343765 9.94914609,32.9669497 C10.213492,32.6995228 10.362,32.3368141 10.362,31.9586154 Z M61.2857143,39.1076923 C61.2857143,37.0005136 59.5971882,35.2923077 57.5142857,35.2923077 C55.4313832,35.2923077 53.7428571,37.0005136 53.7428571,39.1076923 C53.7428571,41.214871 55.4313832,42.9230769 57.5142857,42.9230769 C59.5971882,42.9230769 61.2857143,41.214871 61.2857143,39.1076923 Z M15.0762857,40.5432308 C15.0762857,39.7556727 14.4451991,39.1172308 13.6667143,39.1172308 C13.2928727,39.1172308 12.9343427,39.2674696 12.6699968,39.5348965 C12.4056508,39.8023234 12.2571429,40.1650321 12.2571429,40.5432308 C12.2571429,41.3307888 12.8882295,41.9692308 13.6667143,41.9692308 C14.4451991,41.9692308 15.0762857,41.3307888 15.0762857,40.5432308 Z M13.1905714,48.6461538 C13.1905714,47.0710377 11.9283982,45.7941538 10.3714286,45.7941538 C9.6237454,45.7941538 8.90668538,46.0946316 8.37799354,46.6294853 C7.8493017,47.1643391 7.55228571,47.8897564 7.55228571,48.6461538 C7.55228571,50.22127 8.81445896,51.4981538 10.3714286,51.4981538 C11.9283982,51.4981538 13.1905714,50.22127 13.1905714,48.6461538 L13.1905714,48.6461538 Z M52.7905714,51.9893846 C52.7905714,51.2018266 52.1594848,50.5633846 51.381,50.5633846 C50.6025152,50.5633846 49.9714286,51.2018266 49.9714286,51.9893846 C49.9714286,52.7769427 50.6025152,53.4153846 51.381,53.4153846 C52.1594848,53.4153846 52.7905714,52.7769427 52.7905714,51.9893846 L52.7905714,51.9893846 Z" id="形状"></path>
                    <path d="M31.5527143,46.3283077 C31.3515714,47.126359 30.8581429,47.5333333 30.0724286,47.5492308 C29.0352857,47.5683077 28.0012857,47.5730769 26.9704286,47.5635385 C26.8918571,47.5635385 26.8525714,47.5237949 26.8525714,47.4443077 L26.862,46.1518462 C26.862,46.0859968 26.9147664,46.0326154 26.9798571,46.0326154 L29.5774286,46.0278462 C29.840395,46.0278462 30.0535714,45.8143204 30.0535714,45.5509231 L30.0535714,41.2633846 C30.0535801,40.8701436 29.7398448,40.5506216 29.3511429,40.548 L27.2391429,40.5432308 C26.9298585,40.5424593 26.6367499,40.4033329 26.4384821,40.1631906 C26.2402143,39.9230482 26.1570937,39.6064853 26.2114286,39.2984615 L26.7535714,36.2890769 C26.7724286,36.1841538 26.8352857,36.1316923 26.9421429,36.1316923 L28.1678571,36.1412308 C28.237,36.1412308 28.2652857,36.1762051 28.2527143,36.2461538 L27.7388571,38.7356923 C27.7074286,38.8914872 27.7687143,38.9773333 27.9227143,38.9932308 L28.9692857,39.1124615 C29.1327143,39.1315385 29.227,39.0584103 29.2521429,38.8930769 L29.8037143,35.4592308 C29.8300011,35.3004907 29.7860375,35.1380817 29.683473,35.0150391 C29.5809086,34.8919964 29.4300968,34.8207409 29.271,34.8201538 L26.532,34.8201538 C26.4597143,34.8201538 26.4235714,34.7835897 26.4235714,34.7104615 L26.4188571,33.4084615 C26.4188571,33.3226154 26.4612857,33.2796923 26.5461429,33.2796923 C27.533,33.2796923 28.5512857,33.2781026 29.601,33.2749231 C30.8455714,33.2717436 31.383,33.9187692 31.2132857,35.216 C31.0498571,36.4750769 30.877,37.6864615 30.6947143,38.8501538 C30.6664286,39.0250256 30.7214286,39.1649231 30.8597143,39.2698462 C31.35,39.6386667 31.592,40.114 31.5857143,40.6958462 C31.5731429,42.2665128 31.5872857,43.9277949 31.6281429,45.6796923 C31.6344286,46.0008205 31.7334286,46.0342051 31.9251429,45.7798462 C32.1451429,45.4905128 32.2567143,45.0151795 32.2598571,44.3538462 C32.2787143,41.4636923 32.2818571,38.6418974 32.2692857,35.8884615 C32.2598571,33.6230769 34.5368571,34.1238462 35.9275714,34.0904615 C36.1632857,34.0841026 36.2607143,33.9632821 36.2198571,33.728 C36.2104286,33.6548718 36.212,33.5817436 36.2245714,33.5086154 C36.2591429,33.3432821 36.3597143,33.2606154 36.5262857,33.2606154 L37.4738571,33.2606154 C37.7127143,33.2637949 37.7991429,33.3798462 37.7331429,33.6087692 C37.7174286,33.6691795 37.7111429,33.7295897 37.7142857,33.79 C37.7218461,33.9556833 37.8589601,34.0859886 38.0254286,34.0856923 L40.326,34.0904615 C41.1274286,34.0904615 41.5297143,34.4974359 41.5328571,35.3113846 L41.5375881,36.58 C41.5407143,37.4766154 41.0991429,37.9249231 40.2128571,37.9249231 L34.0324286,37.9249231 C33.8124286,37.9249231 33.7024286,38.0362051 33.7024286,38.2587692 C33.715,40.4049231 33.7118571,42.5987692 33.693,44.8403077 C33.6835714,46.0803077 33.1162857,46.9308205 31.9911429,47.3918462 C31.9250717,47.419472 31.8492397,47.4069233 31.795313,47.35944 C31.7413862,47.3119567 31.7186395,47.2377055 31.7365714,47.1676923 C31.8057143,46.8815385 31.8088571,46.6017436 31.746,46.3283077 C31.7359348,46.2824828 31.6957589,46.2498787 31.6493571,46.2498787 C31.6029554,46.2498787 31.5627795,46.2824828 31.5527143,46.3283077 L31.5527143,46.3283077 Z M40.0236729,35.81058 C40.0232859,35.6967324 39.9782066,35.587704 39.8983531,35.5074834 C39.8184997,35.4272627 39.7104145,35.3824222 39.5978786,35.382825 L34.1482114,35.4020954 C34.0356837,35.4024868 33.9279185,35.4480851 33.8486234,35.5288589 C33.7693283,35.6096326 33.7249989,35.7189653 33.7253846,35.8328046 L33.7266129,36.1857277 C33.7269998,36.2995753 33.7720792,36.4086037 33.8519326,36.4888243 C33.931786,36.5690449 34.0398712,36.6138855 34.1524071,36.6134827 L39.6020743,36.5942123 C39.7146021,36.5938209 39.8223672,36.5482226 39.9016623,36.4674488 C39.9809574,36.386675 40.0252868,36.2773424 40.0249011,36.1635031 L40.0236729,35.81058 Z" id="形状"></path>
                    <path d="M37.488,44.2632308 L37.5021429,47.2964615 C37.5021429,47.4109231 37.4471429,47.4713333 37.3371429,47.4776923 L36.5592857,47.5253846 C36.443,47.5317436 36.3848571,47.4761026 36.3848571,47.3584615 L36.4084286,44.3538462 C36.4084286,44.1217436 36.2937143,44.0041026 36.0642857,44.0009231 L35.8332857,43.9961538 C35.5944286,43.9929744 35.475,44.1122051 35.475,44.3538462 L35.4797143,47.3393846 C35.4797143,47.4633846 35.4184286,47.5237949 35.2958571,47.5206154 L34.419,47.4967692 C34.3184286,47.4967692 34.2681429,47.4458974 34.2681429,47.3441538 L34.2350867,40.4478462 C34.2288571,39.3827179 34.7505714,38.8517436 35.8002857,38.8549089 L40.2081429,38.8549089 C40.9449696,38.8549089 41.5422857,39.4570656 41.5422857,40.1998462 L41.547,46.0135385 C41.547,46.8910769 41.1132857,47.3695897 40.2458571,47.4490769 C39.7304286,47.4935897 39.2165714,47.5253846 38.7042857,47.5444615 C38.3962857,47.5571795 38.2422857,47.4077436 38.2422857,47.0961538 L38.2422857,44.3347692 C38.2422857,44.1408205 38.148,44.0327179 37.9594286,44.0104615 L37.7897143,43.9913846 C37.7123396,43.983232 37.6351975,44.0082311 37.5776054,44.0601219 C37.5200133,44.1120127 37.4874246,44.1858816 37.488,44.2632308 L37.488,44.2632308 Z M36.399,40.4955385 C36.399,40.342768 36.2765819,40.2189231 36.1255714,40.2189231 L35.7578571,40.2189231 C35.6068467,40.2189231 35.4844286,40.342768 35.4844286,40.4955385 L35.4844286,42.222 C35.4844286,42.3747705 35.6068467,42.4986154 35.7578571,42.4986154 L36.1255714,42.4986154 C36.2765819,42.4986154 36.399,42.3747705 36.399,42.222 L36.399,40.4955385 Z M38.2438414,40.4254308 C38.2433061,40.363451 38.2184539,40.3042251 38.1747523,40.2607834 C38.1310507,40.2173416 38.07208,40.1932429 38.0108143,40.1937801 L37.7091471,40.19646 C37.5815859,40.1975877 37.479076,40.3031072 37.4801655,40.4321554 L37.4958729,42.2539538 C37.4964081,42.3159337 37.5212604,42.3751595 37.564962,42.4186013 C37.6086636,42.462043 37.6676343,42.4861417 37.7289,42.4856045 L38.0305671,42.4829246 C38.1581284,42.4817969 38.2606383,42.3762774 38.25954,42.2472292 L38.2438414,40.4254308 Z M40.2833829,40.4145569 C40.2822173,40.3013123 40.1905344,40.2104612 40.0785943,40.2116151 L39.5883086,40.2168246 C39.5345445,40.2173908 39.4832051,40.239542 39.445586,40.2784046 C39.4079669,40.3172671 39.3871501,40.369657 39.3877157,40.4240477 L39.4069029,42.2743662 C39.4080685,42.3876108 39.4997513,42.4784619 39.6116914,42.477308 L40.1019771,42.4720985 C40.1557412,42.4715322 40.2070806,42.449381 40.2446997,42.4105185 C40.2823188,42.371656 40.3031356,42.319266 40.30257,42.2648754 L40.2833829,40.4145569 Z M40.1798571,45.9610769 C40.2615714,45.9261026 40.3024286,45.8656923 40.3024286,45.7798462 L40.3024286,44.2918462 C40.3024286,44.0915385 40.205,43.9929744 40.0101429,43.9961538 L39.6235714,44.0009231 C39.4444286,44.0041026 39.3627143,44.0963077 39.3784286,44.2775385 C39.4475714,45.0278974 39.4412857,45.8370769 39.3595714,46.7050769 C39.3407143,46.927641 39.369,46.934 39.4444286,46.7241538 C39.5701429,46.3680513 39.8152857,46.1136923 40.1798571,45.9610769 Z" id="形状"></path>
                    <path d="M26.516128,42.293564 L29.0275863,42.2935129 C29.1932717,42.2935035 29.327589,42.4278153 29.3275924,42.5935007 C29.3275924,42.5935028 29.3275924,42.5935048 29.3275863,42.5935068 L29.3275863,43.4624299 C29.3275801,43.6281129 29.1932693,43.7624265 29.0275863,43.762436 L26.516128,43.7624871 C26.3504426,43.7624965 26.2161253,43.6281847 26.2161219,43.4624993 C26.2161219,43.4624972 26.2161219,43.4624952 26.216128,43.4624932 L26.216128,42.5935701 C26.2161341,42.4278871 26.350445,42.2935735 26.516128,42.293564 Z" id="矩形" transform="translate(27.771857, 43.028000) rotate(-0.100000) translate(-27.771857, -43.028000) "></path>
                </g>
            </g>
        </g>
    </g>
</svg>