<?xml version="1.0" encoding="UTF-8"?>
<svg width="33px" height="33px" viewBox="0 0 33 33" version="1.1" xmlns="http://www.w3.org/2000/svg" xmlns:xlink="http://www.w3.org/1999/xlink">
    <title>ic_sjss_gazp</title>
    <defs>
        <linearGradient x1="54.6545808%" y1="-9.89549153%" x2="52.3944955%" y2="70.8840891%" id="linearGradient-1">
            <stop stop-color="#0A59F7" offset="0%"></stop>
            <stop stop-color="#6094FF" offset="100%"></stop>
        </linearGradient>
    </defs>
    <g id="页面-1" stroke="none" stroke-width="1" fill="none" fill-rule="evenodd">
        <g id="手机瘦身切图" transform="translate(-312.000000, -209.000000)">
            <g id="ic_sjss_gazp-2" transform="translate(312.125392, 209.503777)">
                <g id="ic_sjss_gazp" transform="translate(5.250415, 5.501554)">
                    <g id="ty备份-5">
                        <circle id="椭圆形" stroke="#0C273D" cx="10.9983792" cy="10.5138824" r="7.5"></circle>
                        <rect id="矩形" fill="#0C273D" x="10.1696383" y="0" width="1" height="2.48622282" rx="0.5"></rect>
                        <path d="M18.031059,2.86545437 C18.3055848,2.86545437 18.528132,3.08800154 18.528132,3.36252739 L18.528132,4.85460417 C18.528132,5.12913002 18.3055848,5.35167719 18.031059,5.35167719 C17.7565331,5.35167719 17.533986,5.12913002 17.533986,4.85460417 L17.533986,3.36252739 C17.533986,3.08800154 17.7565331,2.86545437 18.031059,2.86545437 Z" id="矩形备份-11" fill="#0C273D" transform="translate(18.031059, 4.108566) rotate(53.000000) translate(-18.031059, -4.108566) "></path>
                        <path d="M20.2393669,8.9853128 C20.5138927,8.9853128 20.7364399,9.20785997 20.7364399,9.48238582 L20.7364399,10.9744626 C20.7364399,11.2489884 20.5138927,11.4715356 20.2393669,11.4715356 C19.964841,11.4715356 19.7422939,11.2489884 19.7422939,10.9744626 L19.7422939,9.48238582 C19.7422939,9.20785997 19.964841,8.9853128 20.2393669,8.9853128 Z" id="矩形备份-12" fill="#0C273D" transform="translate(20.239367, 10.228424) rotate(88.000000) translate(-20.239367, -10.228424) "></path>
                        <path d="M1.25980389,8.9853128 C1.53432973,8.9853128 1.7568769,9.20785997 1.7568769,9.48238582 L1.7568769,10.9744626 C1.7568769,11.2489884 1.53432973,11.4715356 1.25980389,11.4715356 C0.985278042,11.4715356 0.762730873,11.2489884 0.762730873,10.9744626 L0.762730873,9.48238582 C0.762730873,9.20785997 0.985278042,8.9853128 1.25980389,8.9853128 Z" id="矩形备份-16" fill="#0C273D" transform="translate(1.259804, 10.228424) rotate(88.000000) translate(-1.259804, -10.228424) "></path>
                        <path d="M3.46811178,2.79691108 C3.74263763,2.79691108 3.9651848,3.01945825 3.9651848,3.2939841 L3.9651848,4.78606088 C3.9651848,5.06058673 3.74263763,5.2831339 3.46811178,5.2831339 C3.19358594,5.2831339 2.97103877,5.06058673 2.97103877,4.78606088 L2.97103877,3.2939841 C2.97103877,3.01945825 3.19358594,2.79691108 3.46811178,2.79691108 Z" id="矩形备份-17" fill="#0C273D" transform="translate(3.468112, 4.040022) rotate(136.000000) translate(-3.468112, -4.040022) "></path>
                        <path d="M17.9037954,15.6164037 C18.1783212,15.6164037 18.4008684,15.8389509 18.4008684,16.1134767 L18.4008684,17.6055535 C18.4008684,17.8800794 18.1783212,18.1026265 17.9037954,18.1026265 C17.6292695,18.1026265 17.4067224,17.8800794 17.4067224,17.6055535 L17.4067224,16.1134767 C17.4067224,15.8389509 17.6292695,15.6164037 17.9037954,15.6164037 Z" id="矩形备份-13" fill="#0C273D" transform="translate(17.903795, 16.859515) rotate(142.000000) translate(-17.903795, -16.859515) "></path>
                        <path d="M10.9271701,18.493977 C11.2016959,18.493977 11.4242431,18.7165242 11.4242431,18.99105 L11.4242431,20.4831268 C11.4242431,20.7576526 11.2016959,20.9801998 10.9271701,20.9801998 C10.6526443,20.9801998 10.4300971,20.7576526 10.4300971,20.4831268 L10.4300971,18.99105 C10.4300971,18.7165242 10.6526443,18.493977 10.9271701,18.493977 Z" id="矩形备份-14" fill="#0C273D" transform="translate(10.927170, 19.737088) rotate(178.000000) translate(-10.927170, -19.737088) "></path>
                        <path d="M3.74562859,15.6322962 C4.02015443,15.6322962 4.2427016,15.8548434 4.2427016,16.1293692 L4.2427016,17.621446 C4.2427016,17.8959718 4.02015443,18.118519 3.74562859,18.118519 C3.47110274,18.118519 3.24855557,17.8959718 3.24855557,17.621446 L3.24855557,16.1293692 C3.24855557,15.8548434 3.47110274,15.6322962 3.74562859,15.6322962 Z" id="矩形备份-15" fill="#0C273D" transform="translate(3.745629, 16.875408) rotate(222.000000) translate(-3.745629, -16.875408) "></path>
                    </g>
                    <path d="M10.6037195,15.7228308 C13.4890957,15.7228308 15.8281552,13.3837712 15.8281552,10.4983951 C15.8281552,7.6130189 13.4890957,5.27395936 10.6037195,5.27395936" id="路径" fill="url(#linearGradient-1)"></path>
                </g>
            </g>
        </g>
    </g>
</svg>