<?xml version="1.0" encoding="UTF-8"?>
<svg width="57px" height="57px" viewBox="0 0 57 57" version="1.1" xmlns="http://www.w3.org/2000/svg" xmlns:xlink="http://www.w3.org/1999/xlink">
    <title>ic_yskj_xjan</title>
    <g id="页面-1" stroke="none" stroke-width="1" fill="none" fill-rule="evenodd">
        <g id="隐私空间切图" transform="translate(-305.000000, -89.000000)">
            <g id="ic_yskj_xjan" transform="translate(305.216797, 89.500000)">
                <path d="M26.1364444,30.0968889 C26.1219259,34.8071111 26.1271111,38.3185185 26.152,40.6311111 C26.1737778,42.6097778 28.8337778,43.2351111 29.6706667,41.4088889 C29.8635556,40.9857778 29.848,40.4444444 29.8511111,39.9777778 C29.8739259,36.5617778 29.8780741,33.2463704 29.8635556,30.0315556 C29.8635556,29.9894745 29.8802722,29.9491171 29.9100279,29.9193613 C29.9397837,29.8896055 29.9801412,29.8728889 30.0222222,29.8728889 C33.2557037,29.8583704 36.7007407,29.8594074 40.3573333,29.876 C43.1853333,29.8915556 43.1013333,26.1395556 40.6217778,26.1395556 C37.0377778,26.1354074 33.5211852,26.1354074 30.072,26.1395556 C29.9603158,26.1395556 29.8697778,26.0490176 29.8697778,25.9373333 C29.8677037,22.2060741 29.8708148,18.8108148 29.8791111,15.7515556 C29.8811852,15.2973333 29.8002963,14.896 29.6364444,14.5475556 C29.008,13.2004444 27.1662222,13.1413333 26.4195556,14.4355556 C26.2183704,14.784 26.1177778,15.1936296 26.1177778,15.6644444 C26.124,19.1945185 26.1260741,22.5794074 26.124,25.8191111 C26.124,25.902448 26.0908945,25.9823717 26.0319664,26.0412998 C25.9730383,26.1002279 25.8931147,26.1333333 25.8097778,26.1333333 C22.2631111,26.1291852 18.8004444,26.1312593 15.4217778,26.1395556 C12.9048889,26.1426667 12.852,29.8386667 15.4777778,29.8542222 C18.758963,29.8728889 22.2351111,29.876 25.9062222,29.8635556 C26.0597037,29.8635556 26.1364444,29.9413333 26.1364444,30.0968889" id="路径" stroke="#8CE0AA" stroke-width="2"></path>
                <path d="M27.2595556,0 L28.7715556,0 C33.4714074,0.186666667 37.742963,1.36162963 41.5862222,3.52488889 C47.9971852,7.13792593 52.3797037,12.5222222 54.7337778,19.6777778 C55.4472593,21.8514074 55.8693333,24.3797037 56,27.2626667 L56,28.7715556 C55.8133333,33.4734815 54.6383704,37.745037 52.4751111,41.5862222 C48.8641481,47.9971852 43.4798519,52.3797037 36.3222222,54.7337778 C34.1485926,55.4472593 31.6202963,55.8693333 28.7373333,56 L27.2284444,56 C22.5265185,55.8133333 18.254963,54.6383704 14.4137778,52.4751111 C8.00281481,48.8641481 3.6202963,43.4798519 1.26622222,36.3222222 C0.552740741,34.1485926 0.130666667,31.6202963 0,28.7373333 L0,27.2284444 C0.277925926,20.5955556 2.45881481,14.8638519 6.54266667,10.0333333 C11.8502222,3.75718519 18.7558519,0.412740741 27.2595556,0 Z" id="形状" fill="#0A59F7" fill-rule="nonzero"></path>
                <path d="M25.9062222,29.8635556 C22.2351111,29.876 18.758963,29.8728889 15.4777778,29.8542222 C12.852,29.8386667 12.9048889,26.1426667 15.4217778,26.1395556 C18.8004444,26.1312593 22.2631111,26.1291852 25.8097778,26.1333333 C25.8931147,26.1333333 25.9730383,26.1002279 26.0319664,26.0412998 C26.0908945,25.9823717 26.124,25.902448 26.124,25.8191111 C26.1260741,22.5794074 26.124,19.1945185 26.1177778,15.6644444 C26.1177778,15.1936296 26.2183704,14.784 26.4195556,14.4355556 C27.1662222,13.1413333 29.008,13.2004444 29.6364444,14.5475556 C29.8002963,14.896 29.8811852,15.2973333 29.8791111,15.7515556 C29.8708148,18.8108148 29.8677037,22.2060741 29.8697778,25.9373333 C29.8697778,26.0490176 29.9603158,26.1395556 30.072,26.1395556 C33.5211852,26.1354074 37.0377778,26.1354074 40.6217778,26.1395556 C43.1013333,26.1395556 43.1853333,29.8915556 40.3573333,29.876 C36.7007407,29.8594074 33.2557037,29.8583704 30.0222222,29.8728889 C29.9801412,29.8728889 29.9397837,29.8896055 29.9100279,29.9193613 C29.8802722,29.9491171 29.8635556,29.9894745 29.8635556,30.0315556 C29.8780741,33.2463704 29.8739259,36.5617778 29.8511111,39.9777778 C29.848,40.4444444 29.8635556,40.9857778 29.6706667,41.4088889 C28.8337778,43.2351111 26.1737778,42.6097778 26.152,40.6311111 C26.1271111,38.3185185 26.1219259,34.8071111 26.1364444,30.0968889 C26.1364444,29.9413333 26.0597037,29.8635556 25.9062222,29.8635556 Z" id="路径" fill="#FFFFFF" fill-rule="nonzero"></path>
            </g>
        </g>
    </g>
</svg>