<?xml version="1.0" encoding="UTF-8"?>
<svg width="33px" height="33px" viewBox="0 0 33 33" version="1.1" xmlns="http://www.w3.org/2000/svg" xmlns:xlink="http://www.w3.org/1999/xlink">
    <title>ic_sjss_jtulup</title>
    <defs>
        <linearGradient x1="68.6183233%" y1="33.4729465%" x2="59.5779819%" y2="55.7625783%" id="linearGradient-1">
            <stop stop-color="#0A59F7" offset="0%"></stop>
            <stop stop-color="#6094FF" offset="100%"></stop>
        </linearGradient>
        <path d="M2.97387371,12.7876272 L5.73793166,8.68314307 C5.79963009,8.59152407 5.92391842,8.56726866 6.01553743,8.62896709 C6.02103035,8.63266615 6.02633616,8.63663575 6.03143524,8.64086122 L7.4380941,9.80651933 C7.52779302,9.88085027 7.64063131,9.92152748 7.75712587,9.92152748 L8.05606785,9.92152748 C8.20223932,9.92152748 8.34109104,9.85756404 8.43608529,9.74646862 L11.2477275,6.45826366 C11.3195115,6.37431252 11.4457598,6.36444912 11.529711,6.43623314 C11.5442082,6.4486293 11.5568576,6.46303562 11.5672747,6.47901433 L15.6825312,12.7913608 C15.7730168,12.9301557 15.7338544,13.1160242 15.5950595,13.2065098 C15.5463231,13.2382829 15.4893996,13.2551995 15.4312208,13.2551995 L3.22271002,13.2551995 C3.0570246,13.2551995 2.92271002,13.1208849 2.92271002,12.9551995 C2.92271002,12.8954953 2.94052449,12.837149 2.97387371,12.7876272 Z" id="path-2"></path>
        <linearGradient x1="68.6183233%" y1="-4.86824439%" x2="59.5779819%" y2="69.1312113%" id="linearGradient-3">
            <stop stop-color="#0A59F7" offset="0%"></stop>
            <stop stop-color="#6094FF" offset="100%"></stop>
        </linearGradient>
        <ellipse id="path-4" cx="13.9617807" cy="4.40959513" rx="1.73939092" ry="1.66479462"></ellipse>
    </defs>
    <g id="页面-1" stroke="none" stroke-width="1" fill="none" fill-rule="evenodd">
        <g id="手机瘦身切图" transform="translate(-312.000000, -333.000000)">
            <g id="ic_sjss_jtulup-2" transform="translate(312.125392, 333.503777)">
                <g id="ic_sjss_jtulup" transform="translate(6.340562, 8.000000)">
                    <path d="M16.3188754,0.5 C17.0092313,0.5 17.6342313,0.779822031 18.0866423,1.23223305 C18.5390533,1.68464406 18.8188754,2.30964406 18.8188754,3 L18.8188754,3 L18.8188754,15.5 L3,15.5 C2.30964406,15.5 1.68464406,15.220178 1.23223305,14.767767 C0.779822031,14.3153559 0.5,13.6903559 0.5,13 L0.5,13 L0.5,0.5 Z" id="矩形备份-25" stroke="#0C273D"></path>
                    <g id="路径-18" transform="translate(9.321962, 9.755199) scale(-1, 1) translate(-9.321962, -9.755199) ">
                        <use fill="#D8D8D8" xlink:href="#path-2"></use>
                        <use fill="url(#linearGradient-1)" xlink:href="#path-2"></use>
                    </g>
                    <g id="椭圆形">
                        <use fill="#D8D8D8" xlink:href="#path-4"></use>
                        <use fill="url(#linearGradient-3)" xlink:href="#path-4"></use>
                    </g>
                </g>
            </g>
        </g>
    </g>
</svg>