<?xml version="1.0" encoding="UTF-8"?>
<svg width="39px" height="39px" viewBox="0 0 39 39" version="1.1" xmlns="http://www.w3.org/2000/svg" xmlns:xlink="http://www.w3.org/1999/xlink">
    <title>ic_txlbf_bf</title>
    <defs>
        <linearGradient x1="56.6541401%" y1="-9.89549153%" x2="53.4231457%" y2="70.8840891%" id="linearGradient-1">
            <stop stop-color="#0A59F7" offset="0%"></stop>
            <stop stop-color="#6094FF" offset="100%"></stop>
        </linearGradient>
    </defs>
    <g id="个人信息" stroke="none" stroke-width="1" fill="none" fill-rule="evenodd">
        <g id="通讯录备份" transform="translate(-577.000000, -61.000000)" fill-rule="nonzero">
            <g id="ic_txlbf_bf-2" transform="translate(577.710227, 61.108631)">
                <g id="ic_txlbf_bf" transform="translate(0.000000, 4.686682)">
                    <path d="M32.1397797,13.0376847 C36.5164377,14.0384069 39.2240312,18.6667473 37.448332,23.2300407 C36.0945353,26.7075505 33.1226732,28.1085616 29.7659991,27.9934786 C28.6069265,27.9534497 27.4957623,27.9517818 26.4325064,27.988475 C26.3313487,27.9926609 26.2330967,27.951476 26.1610771,27.8746983 C26.0890574,27.7979206 26.0496934,27.6923977 26.0523306,27.5831824 L26.0616031,27.3480127 C26.0677849,27.0878249 26.1914193,26.9593989 26.4325064,26.9627347 C27.9779364,26.9894206 29.4692765,26.9860848 30.9065265,26.9527274 C38.6908578,26.7675938 39.2703941,15.0091075 31.3562466,13.9783636 C31.0549905,13.9394106 30.8337551,13.6524564 30.850891,13.3228905 C31.0394334,9.86706305 30.0333585,6.91993605 27.832666,4.48150953 C25.2317072,1.59942947 21.1471355,0.333515841 17.577192,1.27419475 C13.6394361,2.31161014 10.9766601,4.95351685 9.58886385,9.19991489 C9.50231976,9.46010267 9.33232245,9.59853592 9.07887192,9.61521462 C5.52438272,9.87873814 3.03778571,11.6333378 1.61908089,14.8790136 C-0.606338432,19.982697 2.67151878,25.7518607 7.50253323,26.752583 C8.42979128,26.946056 9.47913831,27.0144386 10.6505743,26.957731 C10.9132974,26.9443881 11.0384773,27.0794856 11.0261138,27.3630236 L11.0168412,27.6132041 C11.008161,27.7877765 10.8815319,27.9287087 10.7201187,27.9434425 C8.17634075,28.1502584 5.99882976,27.6198756 4.1875857,26.3522941 C-3.26756904,21.1335276 -0.0963465038,9.6502399 8.41124612,8.64951766 C8.59978859,8.62616747 8.73269558,8.52109164 8.80996708,8.33429015 C10.9735692,2.99043339 14.6408748,0.215097043 19.8118839,0.00828111293 C26.3861435,-0.246903058 31.778149,5.42719204 31.8476934,12.6524066 C31.8507842,12.8625583 31.9481463,12.9909843 32.1397797,13.0376847 Z" id="路径" fill="#2F3254"></path>
                    <path d="M20.7274971,18.4801068 L20.7274971,26.8513866 C20.7274971,27.8578273 20.2192946,28.4449177 19.2028897,28.6126578 C19.0454185,28.6406145 18.8915262,28.6266361 18.7412128,28.5707228 C17.9180679,28.2701884 17.5064955,27.6900872 17.5064955,26.8304191 L17.5064955,18.4172043 C17.5064955,18.242475 17.4170232,18.1551104 17.2380787,18.1551104 L15.0853759,18.1498685 C14.8643205,18.149341 14.665271,18.019079 14.5807499,17.8196311 C14.4962287,17.6201832 14.5428155,17.390673 14.6988557,17.2377816 L18.3117459,13.7047556 C18.8485795,13.1805678 19.3854131,13.1805678 19.9222467,13.7047556 L23.5351369,17.2377816 C23.6911771,17.390673 23.7377639,17.6201832 23.6532427,17.8196311 C23.5687216,18.019079 23.3696721,18.149341 23.1486167,18.1498685 L21.0657023,18.1551104 C20.8402322,18.1551104 20.7274971,18.2634425 20.7274971,18.4801068 Z" id="路径" fill="url(#linearGradient-1)"></path>
                </g>
            </g>
        </g>
    </g>
</svg>