<?xml version="1.0" encoding="UTF-8"?>
<svg width="36px" height="37px" viewBox="0 0 36 37" version="1.1" xmlns="http://www.w3.org/2000/svg" xmlns:xlink="http://www.w3.org/1999/xlink">
    <title>ic_txlbf_lxrwzd</title>
    <defs>
        <linearGradient x1="51.206301%" y1="-9.89549153%" x2="50.6205676%" y2="70.8840891%" id="linearGradient-1">
            <stop stop-color="#0A59F7" offset="0%"></stop>
            <stop stop-color="#6094FF" offset="100%"></stop>
        </linearGradient>
        <path d="M9.53122267,16.8711868 C9.88588792,16.8718058 10.1728712,17.1757936 10.1722178,17.5501624 C10.1715644,17.9245313 9.88352175,18.2275154 9.52885651,18.2268964 C9.17419126,18.2262774 8.88720795,17.9222897 8.88786135,17.5479208 C8.88851474,17.1735519 9.17655742,16.8705678 9.53122267,16.8711868 Z M9.33244598,11.6651014 L9.55199443,11.6678875 C10.1539231,11.6733762 10.4173812,11.9743405 10.3423689,12.5707805 L10.3423689,12.5707805 L9.93894858,15.8420524 C9.92251588,15.9780037 9.82495079,16.0907455 9.69195657,16.1274654 C9.50168125,16.1805229 9.35165647,16.1466759 9.24188224,16.0259242 C9.16504029,15.941764 9.11838624,15.8420524 9.10192011,15.7267895 C8.9537249,14.5979445 8.81742191,13.4809918 8.69301112,12.3759313 C8.638124,11.8984134 8.85126896,11.661484 9.33244598,11.6651014 L9.33244598,11.6651014 Z" id="path-2"></path>
    </defs>
    <g id="个人信息" stroke="none" stroke-width="1" fill="none" fill-rule="evenodd">
        <g id="通讯录备份" transform="translate(-171.000000, -474.000000)">
            <g id="ic_txlbf_lxrwzd-2" transform="translate(171.000000, 474.305920)">
                <g id="ic_txlbf_lxrwzd" transform="translate(0.500000, 0.000000)">
                    <rect id="矩形" fill="#F7F7F7" x="0" y="0" width="35" height="36" rx="6"></rect>
                    <g id="ril-2" transform="translate(6.500000, 7.000000)" fill-rule="nonzero">
                        <g id="Incomplete_contact_Normal@3x" transform="translate(1.485722, 1.008357)">
                            <g id="编组" fill="#0C273D">
                                <path d="M11.8068011,0.00100315317 L11.9737779,0.0054623747 L12.1343441,0.013626605 C13.4194949,0.095837208 14.0646481,0.563670217 14.102066,1.78382082 C14.1295813,2.64413302 14.1360017,3.49987885 14.1213302,4.35080905 C14.087594,6.53616889 13.146931,8.04784742 11.3091295,8.86234899 C8.92002968,9.92200793 6.13527435,8.72220221 5.20326111,6.27745847 L5.17186048,6.19266507 C4.2556068,3.63328203 5.73482055,0.872529763 8.33648546,0.207603887 L8.42265958,0.186445568 C8.96960585,0.0570418771 9.57392331,-0.00135423764 10.2354046,0.0108992768 L10.4636998,0.0172702601 L10.5888709,0.0190667162 L10.8443417,0.0165096141 L11.4673107,0.00187019557 L11.6334008,9.93312773e-05 C11.692273,-0.000175338121 11.7500724,0.000117624223 11.8068011,0.00100315317 Z M11.4712642,0.276279588 L10.7531864,0.292542974 L10.670086,0.29340665 L10.5857953,0.293507032 L10.488304,0.292330438 L10.3923459,0.289701153 C9.68874656,0.264508337 9.0532673,0.319260081 8.48571233,0.45353958 C5.98980784,1.04143999 4.5591593,3.6669716 5.43017627,6.09999468 C6.27596002,8.45266497 8.92815125,9.61818688 11.1978966,8.61146631 C12.9350395,7.84157595 13.8147991,6.42777137 13.8469314,4.34632554 C13.861529,3.49966182 13.8551424,2.64841845 13.827765,1.79241324 C13.7965455,0.774384827 13.292576,0.376396872 12.1920381,0.292198454 L12.0417536,0.282804606 C11.9391926,0.277745854 11.8318745,0.275058882 11.7197124,0.274528601 L11.4712642,0.276279588 Z" id="路径"></path>
                                <path d="M6.31689712,10.3496941 C10.7406467,9.17635888 15.1619141,10.3153234 17.4697727,13.6672756 C18.3620284,14.956494 19.0380792,16.4565382 19.0284544,17.4680229 C19.0101983,19.3664847 17.40568,20.1899777 15.2450314,19.9080061 C14.9859288,19.873785 14.8333435,19.7103007 14.8187616,19.4524234 C14.8157789,19.4106657 14.8202436,19.3689952 14.8308977,19.3319118 C14.8932393,19.0873408 15.0636958,18.9468118 15.316047,18.9323926 C15.5930758,18.9175783 15.8689463,18.9128375 16.1435604,18.9181685 L16.3492838,18.9240553 C17.4802621,18.9653695 18.2594598,18.0152087 17.9364573,16.946815 C16.6348219,12.6700128 13.2992428,10.6612514 8.57064354,10.9869676 C5.22794035,11.2155515 2.7849608,12.930691 1.49493541,15.9860062 L1.33417301,16.3727918 C1.30946304,16.4316644 1.28626037,16.4881054 1.26455722,16.5423472 L1.20393857,16.6987078 C1.01681985,17.1994684 0.978876676,17.503567 1.0823416,17.8435247 C1.33686955,18.6713138 1.94392429,18.9826986 3.02458153,18.9706243 C6.22144311,18.9395158 9.48690697,18.9294513 12.820522,18.9404299 C13.1167393,18.9404299 13.3269206,19.0898652 13.4254717,19.3718114 C13.447904,19.439108 13.447904,19.507676 13.423731,19.5732794 C13.3389837,19.7986242 13.123596,19.9483972 12.8816489,19.9503508 L9.8545746,19.9648418 L7.81593151,19.9723069 L4.72705915,19.9802112 L2.64719565,19.9832851 C0.831723325,19.9832851 -0.416047006,18.3981511 0.12892505,16.69761 C1.16653503,13.4573023 3.33230993,11.1401206 6.31689712,10.3496941 Z M17.2439221,13.8231802 C15.0088294,10.5769146 10.7079361,9.46895965 6.38720492,10.6149707 C3.49959885,11.3797132 1.40098533,13.6250383 0.390277944,16.781333 C-0.0963491019,18.2998133 1.01280234,19.7088496 2.64705136,19.7088496 L5.76019521,19.7035808 L7.81501262,19.6978731 L10.8662781,19.6860192 L12.8797896,19.6759217 C13.0081059,19.6748854 13.1221387,19.595591 13.1665382,19.4775408 C13.1683011,19.4727557 13.1683011,19.4681408 13.165765,19.4604865 C13.1063274,19.2904674 12.999993,19.2148655 12.8200701,19.2148648 C9.48718239,19.2038893 6.22290941,19.2139501 3.02744979,19.2450448 C1.83812902,19.2583333 1.11642312,18.888139 0.819911199,17.9238056 C0.682606792,17.4726625 0.747727819,17.0953436 1.00862589,16.4431764 L1.18909698,16.0071088 C2.4876186,12.8180925 4.99397212,10.9995684 8.41628611,10.7232808 L8.55185253,10.7131761 C13.4015385,10.3791192 16.8579704,12.4606609 18.1990764,16.867153 C18.5778868,18.1201413 17.6543206,19.2463464 16.3390863,19.1983012 C16.004799,19.1856525 15.668675,19.1883632 15.3312026,19.2064089 C15.1988431,19.2139723 15.1296258,19.271037 15.0958019,19.4035017 C15.0928473,19.4138428 15.0918233,19.4234003 15.0926292,19.4348924 C15.0998727,19.5628623 15.1521993,19.6189264 15.2807553,19.6359057 C17.2995775,19.8993683 18.7377124,19.1612689 18.7541101,17.4653913 C18.7629617,16.526124 18.1064655,15.0694681 17.2439221,13.8231802 Z" id="路径"></path>
                                <path d="M10.0248902,0.76456529 L11.9449003,0.779033478 L12.4536557,0.783775848 C12.935136,0.786854492 13.3293918,1.16830059 13.3500698,1.65091446 C13.401502,2.91835127 13.3877187,4.08533503 13.3086241,5.15218959 C13.2170192,6.35970909 12.3346355,7.55965173 11.1893151,8.10869707 C8.26572311,9.51405316 5.07770599,6.96701302 5.74301024,3.81828919 C6.15704075,1.84555557 7.79325511,0.74960794 10.0248902,0.76456529 Z M6.01155587,3.87484082 C5.39919788,6.77298339 8.29453219,9.12006081 10.9889665,7.8993764 L11.0705507,7.86129079 L11.1477993,7.82297527 C12.1701327,7.2987242 12.9531261,6.21034621 13.0349573,5.13166459 C13.1132234,4.07598286 13.1268836,2.91941219 13.0758728,1.66235205 C13.0614625,1.3260281 12.7868599,1.06034757 12.4514397,1.05820208 L11.1464341,1.04685425 L10.0231039,1.03899504 C7.91307555,1.02485275 6.39650742,2.04066051 6.01155587,3.87484082 Z" id="路径"></path>
                            </g>
                            <path d="M11.2534949,8.73691568 C8.89609343,9.78251517 6.16820393,8.55853256 5.30098755,6.14624396 C4.39809455,3.62418113 5.89102401,0.92373518 8.45425218,0.31997694 C9.034226,0.182759159 9.68189393,0.126957261 10.397256,0.152571247 C11.755712,0.199225292 13.9017981,-0.270059521 13.9649183,1.78820721 C13.9923619,2.64627573 13.9987653,3.49977034 13.9841288,4.34869101 C13.9511965,6.48197013 13.0409852,7.94471168 11.2534949,8.73691568 Z M11.1299989,7.98496223 C12.1948089,7.47451208 13.0812358,6.3356045 13.1717995,5.14180979 C13.250471,4.08065895 13.2641928,2.91888173 13.2129649,1.65647814 C13.1954272,1.24716435 12.8609979,0.923601031 12.4527783,0.920990825 C11.7026545,0.913672543 10.8930696,0.907269047 10.0240236,0.901780335 C7.9767343,0.888058557 6.29718865,1.84583867 5.87730223,3.84647393 C5.24061173,6.85977642 8.28684648,9.35165134 11.1299989,7.98496223 Z" id="形状" fill="#0C273D"></path>
                            <path d="M1.31618317,16.0588565 C1.08291294,16.6351712 0.759078973,17.2526512 0.951183867,17.883853 C1.25580734,18.8745654 2.04343741,19.1188131 3.02591673,19.1078356 C6.22217626,19.0767329 9.48704468,19.0666703 12.820522,19.0776477 C13.0583661,19.0776477 13.216624,19.1901663 13.2952955,19.4152035 C13.3081025,19.4536244 13.3081025,19.4902158 13.2952955,19.5249777 C13.2305612,19.6971076 13.0658509,19.8116413 12.8808978,19.813135 C9.53827265,19.8314307 6.1270386,19.8424082 2.64719565,19.8460673 C0.951183867,19.8460673 -0.26456568,18.3750927 0.259606247,16.7394567 C1.22013072,13.739876 3.25369825,11.3028882 6.35207576,10.4823259 C10.3149253,9.43123765 14.9062323,10.1859355 17.3569419,13.7453647 C18.029309,14.7168666 18.9020141,16.3360364 18.8911392,17.466711 C18.8718262,19.4865567 17.0084087,19.9997512 15.2629985,19.7719697 C15.069064,19.7463557 14.9666081,19.6365815 14.9556307,19.442647 C14.9538011,19.417033 14.9565455,19.391419 14.9638637,19.3658051 C15.0114326,19.1791889 15.1312694,19.0803921 15.3233743,19.0694146 C15.665504,19.0511189 16.0058041,19.0483746 16.3442746,19.0611816 C17.5463024,19.1050913 18.4244962,18.0869353 18.06773,16.9068624 C16.6845747,12.3622095 13.1031906,10.537213 8.56128205,10.8500695 C5.15004799,11.0833397 2.62249645,12.8507048 1.31618317,16.0588565 Z" id="路径-9" fill="#0C273D"></path>
                            <g id="形状结合">
                                <use fill="#0C273D" xlink:href="#path-2"></use>
                                <use fill="url(#linearGradient-1)" xlink:href="#path-2"></use>
                            </g>
                        </g>
                    </g>
                </g>
            </g>
        </g>
    </g>
</svg>