<?xml version="1.0" encoding="UTF-8"?>
<svg width="57px" height="57px" viewBox="0 0 57 57" version="1.1" xmlns="http://www.w3.org/2000/svg" xmlns:xlink="http://www.w3.org/1999/xlink">
    <title>ic_yskj_bij</title>
    <g id="页面-1" stroke="none" stroke-width="1" fill="none" fill-rule="evenodd">
        <g id="隐私空间切图" transform="translate(-124.000000, -486.000000)">
            <g id="ic_yskj_bij" transform="translate(124.320501, 486.868793)">
                <g id="编组" transform="translate(15.400000, 14.484039)" stroke="#8CE0AA">
                    <path d="M25.5795556,8.99862799 C26.2328889,8.34840577 26.3262222,7.48351688 25.6448889,6.79907243 C23.7014815,4.84944281 21.616,2.76085021 19.3884444,0.533294657 C18.7662222,-0.0920386761 17.8888889,-0.222705343 17.2262222,0.439961324 C11.5432593,6.12085021 5.94637037,11.7167021 0.435555556,17.2275169 C0.156669243,17.5064081 -2.2105774e-15,17.8846642 -2.2105774e-15,18.2790724 L-2.2105774e-15,24.6381835 C-2.2105774e-15,25.4543377 0.661623647,26.1159613 1.47777778,26.1159613 L7.84,26.1159613 C8.23259265,26.1159613 8.60862119,25.9603638 8.88533333,25.6835169 C10.7063704,23.8604058 16.2711111,18.2987761 25.5795556,8.99862799" id="路径"></path>
                    <path d="M7.24266667,23.3159613 C7.27897094,23.3161249 7.31378266,23.3015264 7.33911111,23.2755169 L22.6644444,7.95018355 C22.7150276,7.89824164 22.7150276,7.81545878 22.6644444,7.76351688 L18.3524444,3.45151688 C18.3005025,3.40093371 18.2177197,3.40093371 18.1657778,3.45151688 L2.84044444,18.7799613 C2.8144349,18.8052898 2.79999864,18.8401015 2.79999864,18.8764058 L2.79999864,23.1852947 C2.79999864,23.2591781 2.85989435,23.3190724 2.93377778,23.3190724 L7.24266667,23.3159613" id="路径"></path>
                </g>
                <path d="M27.2595556,0 L28.7715556,0 C33.4714074,0.186666667 37.742963,1.36162963 41.5862222,3.52488889 C47.9971852,7.13792593 52.3797037,12.5222222 54.7337778,19.6777778 C55.4472593,21.8514074 55.8693333,24.3797037 56,27.2626667 L56,28.7715556 C55.8133333,33.4734815 54.6383704,37.745037 52.4751111,41.5862222 C48.8641481,47.9971852 43.4798519,52.3797037 36.3222222,54.7337778 C34.1485926,55.4472593 31.6202963,55.8693333 28.7373333,56 L27.2284444,56 C22.5265185,55.8133333 18.254963,54.6383704 14.4137778,52.4751111 C8.00281481,48.8641481 3.6202963,43.4798519 1.26622222,36.3222222 C0.552740741,34.1485926 0.130666667,31.6202963 0,28.7373333 L0,27.2284444 C0.277925926,20.5955556 2.45881481,14.8638519 6.54266667,10.0333333 C11.8502222,3.75718519 18.7558519,0.412740741 27.2595556,0 Z M40.9795556,23.4826667 C41.6328889,22.8324444 41.7262222,21.9675556 41.0448889,21.2831111 C39.1014815,19.3334815 37.016,17.2448889 34.7884444,15.0173333 C34.1662222,14.392 33.2888889,14.2613333 32.6262222,14.924 C26.9432593,20.6048889 21.3463704,26.2007407 15.8355556,31.7115556 C15.5566692,31.9904468 15.4,32.3687029 15.4,32.7631111 L15.4,39.1222222 C15.4,39.9383764 16.0616236,40.6 16.8777778,40.6 L23.24,40.6 C23.6325927,40.6 24.0086212,40.4444024 24.2853333,40.1675556 C26.1063704,38.3444444 31.6711111,32.7828148 40.9795556,23.4826667 Z" id="形状" fill="#0A59F7" fill-rule="nonzero"></path>
                <path d="M41.0448889,21.2831111 C41.7262222,21.9675556 41.6328889,22.8324444 40.9795556,23.4826667 C31.6711111,32.7828148 26.1063704,38.3444444 24.2853333,40.1675556 C24.0086212,40.4444024 23.6325927,40.6 23.24,40.6 L16.8777778,40.6 C16.0616236,40.6 15.4,39.9383764 15.4,39.1222222 L15.4,32.7631111 C15.4,32.3687029 15.5566692,31.9904468 15.8355556,31.7115556 C21.3463704,26.2007407 26.9432593,20.6048889 32.6262222,14.924 C33.2888889,14.2613333 34.1662222,14.392 34.7884444,15.0173333 C37.016,17.2448889 39.1014815,19.3334815 41.0448889,21.2831111 Z M22.6426667,37.8 C22.6789709,37.8001636 22.7137827,37.7855651 22.7391111,37.7595556 L38.0644444,22.4342222 C38.1150276,22.3822803 38.1150276,22.2994975 38.0644444,22.2475556 L33.7524444,17.9355556 C33.7005025,17.8849724 33.6177197,17.8849724 33.5657778,17.9355556 L18.2404444,33.264 C18.2144349,33.2893285 18.1999986,33.3241402 18.1999986,33.3604444 L18.1999986,37.6693333 C18.1999986,37.7432168 18.2598944,37.8031111 18.3337778,37.8031111 L22.6426667,37.8 Z" id="形状" fill="#FFFFFF" fill-rule="nonzero"></path>
                <path d="M22.6426667,37.8 L18.3337778,37.8031111 C18.2598944,37.8031111 18.1999986,37.7432168 18.1999986,37.6693333 L18.1999986,33.3604444 C18.1999986,33.3241402 18.2144349,33.2893285 18.2404444,33.264 L33.5657778,17.9355556 C33.6177197,17.8849724 33.7005025,17.8849724 33.7524444,17.9355556 L38.0644444,22.2475556 C38.1150276,22.2994975 38.1150276,22.3822803 38.0644444,22.4342222 L22.7391111,37.7595556 C22.7137827,37.7855651 22.6789709,37.8001636 22.6426667,37.8 L22.6426667,37.8 Z" id="路径" fill="#0A59F7" fill-rule="nonzero"></path>
            </g>
        </g>
    </g>
</svg>