<?xml version="1.0" encoding="UTF-8"?>
<svg width="185px" height="185px" viewBox="0 0 185 185" version="1.1" xmlns="http://www.w3.org/2000/svg" xmlns:xlink="http://www.w3.org/1999/xlink">
    <title>ic_txlbf_bjjc</title>
    <defs>
        <linearGradient x1="50%" y1="0%" x2="50%" y2="100%" id="linearGradient-1">
            <stop stop-color="#FFFFFF" stop-opacity="0.784" offset="0%"></stop>
            <stop stop-color="#FFFFFF" stop-opacity="0" offset="100%"></stop>
        </linearGradient>
    </defs>
    <g id="个人信息" stroke="none" stroke-width="1" fill="none" fill-rule="evenodd">
        <g id="通讯录备份" transform="translate(-60.000000, -131.000000)" fill-rule="nonzero">
            <g id="ic_txlbf_bjjc" transform="translate(60.499512, 131.347290)">
                <g id="circle_Normal@3x">
                    <path d="M90.9935356,0.134258293 L93.1077105,0.134258293 C93.1010725,0.147518372 93.0944346,0.161883457 93.0877967,0.177353548 L90.9802598,0.197243666 C90.9846851,0.177353548 90.9891103,0.156358424 90.9935356,0.134258293 Z" id="路径" fill-opacity="0.2" fill="#333434"></path>
                    <path d="M90.9802598,0.197243666 L93.0877967,0.177353548 C126.549509,0.455815194 156.8383,19.0265549 172.822391,48.1125369 C179.562084,60.3736893 183.256082,73.6403977 183.904385,87.9126621 C185.142355,115.215163 174.312602,141.370668 154.113437,159.875107 C129.689241,182.248175 95.0094721,189.746749 63.4462024,179.473503 C41.1560951,172.223555 22.3874,156.599868 11.1726484,136.073267 C4.43074279,123.732554 0.727894423,110.494576 0.0641032608,96.359332 C0.00657469341,95.1349848 -0.0122327228,93.1625481 0.00768101202,90.442022 C0.0209568353,88.3226195 0.103930731,86.3546029 0.256602698,84.5379721 C1.59303557,68.605988 6.70975911,54.0254268 15.6067733,40.7962886 C22.2491102,30.9175302 30.5077786,22.6399263 40.3827784,15.9634768 C54.4839154,6.43169051 70.1383236,1.19285455 87.3460032,0.24696896 C87.9721795,0.211608751 89.1835984,0.195033653 90.9802598,0.197243666 Z M33.8311597,30.1219255 C32.3265664,31.1142214 31.0565126,32.3706138 30.0209984,33.8911028 C30.0807396,33.7187218 30.1083976,33.587226 30.1039723,33.4966155 C30.0973344,33.3485446 30.0364869,33.3220244 29.9214297,33.417055 C28.5518073,34.5331116 27.2861788,35.6569032 26.1245443,36.7884299 C13.4439205,49.1645031 5.27707652,64.045626 1.62401249,81.4317988 C1.27552213,83.0992536 1.06642792,84.8296939 0.7146186,86.4971487 C0.455740046,87.723706 0.300855442,88.9491582 0.249964786,90.1735054 C0.185798307,91.6652643 0.193542537,93.0896177 0.273197477,94.4465657 C0.321875495,95.2642705 0.434719993,96.1040755 0.61173097,96.9659806 C1.05315209,99.1306884 1.32198751,101.345121 1.79327924,103.513144 C5.51714766,120.673896 13.8023677,135.456673 26.6489393,147.861476 C27.894654,149.065933 29.1204551,150.060439 30.3263423,150.844994 L33.2271097,153.739006 C34.0457855,155.018604 35.0536417,156.270576 36.2506785,157.494923 C51.2899736,172.878824 69.5099346,181.619426 90.9105617,183.716728 C91.3707902,183.760929 92.2846094,183.725568 93.6520192,183.610648 C96.6169531,183.365336 99.4646171,182.964219 102.195011,182.407296 C120.066482,178.762984 135.286107,170.39035 147.853887,157.289392 C149.086325,156.003164 150.073162,154.764452 150.814395,153.573255 L153.439689,150.997485 C154.218537,150.540012 155.115762,149.843858 156.131362,148.909023 C162.955135,142.619325 168.514386,135.663309 172.809115,128.040974 C178.818638,117.379871 182.441831,106.011564 183.678696,93.9360527 C183.811454,92.6255149 183.80371,91.3006121 183.655463,89.9613442 C183.20851,85.9148103 182.58344,82.2185634 181.780253,78.8726036 C177.9015,62.7107781 169.999066,48.7600707 158.072951,37.0204813 C156.745369,35.7121536 155.361365,34.4723362 153.920938,33.3010293 C153.83907,33.2325189 153.747246,33.2192588 153.645464,33.2612491 C153.598999,33.2811392 153.544789,33.3065543 153.482836,33.3374945 C152.814619,32.2811083 151.956116,31.4081531 150.907326,30.7186291 C150.940515,30.4622675 150.879668,30.2445812 150.724783,30.0655702 C139.539902,17.1259437 125.762917,8.27152639 109.393827,3.5023182 C104.041457,1.94204898 98.623815,0.925442969 93.1409,0.452500174 C91.8929726,0.346419547 90.6981485,0.392829822 89.5564277,0.591730997 C88.6105253,0.760796996 87.7077693,0.744221898 86.7651859,0.883452721 C67.2275994,3.75425969 50.5741854,12.1666744 36.8049441,26.1206969 C35.6809244,27.2588536 34.481675,28.5937015 33.207196,30.1252405 C33.1983454,30.1362906 33.1994518,30.1462357 33.2105149,30.1550757 L33.2702561,30.2147461 C33.3045181,30.2465698 33.3571246,30.2479899 33.3930575,30.2180611 C33.5413042,30.0876703 33.6873383,30.0556251 33.8311597,30.1219255 Z" id="形状" fill-opacity="0.482" fill="#FFFFFF"></path>
                    <path d="M150.907326,30.7186291 C136.708833,19.8674649 120.688233,13.9170048 102.845527,12.8672485 C101.136265,12.767798 99.3407095,12.8606185 97.6082145,12.8473584 C97.4909448,12.8451484 97.4400541,12.9026088 97.4555426,13.0197394 C97.471031,13.1346601 97.4666057,13.2562108 97.4422667,13.3843916 C93.970639,12.8959787 90.5012238,12.8749836 87.0340213,13.3214062 C86.7331027,13.3258263 86.5284337,13.2540008 86.4200145,13.10593 C86.3580607,13.0219495 86.2739804,12.9744342 86.1677739,12.9633841 C85.7661802,12.9202889 85.4641552,12.7876881 85.0526047,12.7876881 C68.5905839,12.7611679 52.3841227,17.8033127 38.6536025,26.7638107 C37.6778295,27.4002944 36.0703485,28.5196661 33.8311597,30.1219255 C33.6873383,30.0556251 33.5413042,30.0876703 33.3930575,30.2180611 C33.3571246,30.2479899 33.3045181,30.2465698 33.2702561,30.2147461 L33.2105149,30.1550757 C33.1994518,30.1462357 33.1983454,30.1362906 33.207196,30.1252405 C34.481675,28.5937015 35.6809244,27.2588536 36.8049441,26.1206969 C50.5741854,12.1666744 67.2275994,3.75425969 86.7651859,0.883452721 C87.7077693,0.744221898 88.6105253,0.760796996 89.5564277,0.591730997 C90.6981485,0.392829822 91.8929726,0.346419547 93.1409,0.452500174 C98.623815,0.925442969 104.041457,1.94204898 109.393827,3.5023182 C125.762917,8.27152639 139.539902,17.1259437 150.724783,30.0655702 C150.879668,30.2445812 150.940515,30.4622675 150.907326,30.7186291 Z" id="路径" fill-opacity="0.357" fill="#FFFFFF"></path>
                    <path d="M87.0340213,13.3214062 C85.6621862,13.617548 84.2881385,13.8926946 82.9118782,14.1468461 C81.4382618,14.4208877 80.0631078,14.7081894 78.7864161,15.0087512 C63.3576969,18.6552728 50.0055377,25.9317408 38.7299385,36.8381552 C26.7330195,48.4451438 18.7763761,62.4267914 14.8600083,78.7830981 C14.5148369,80.2284467 14.1917918,81.7876109 13.8908732,83.4605908 C13.6098682,85.0142299 13.3211191,86.5822342 13.0246257,88.1646036 C12.7037933,87.4839195 12.550015,86.6220144 12.5632908,85.5788883 C12.7602156,68.4004568 17.4974718,52.7590893 26.7750596,38.654786 C27.8371255,37.0370564 28.9191051,35.449162 30.0209984,33.8911028 C31.0565126,32.3706138 32.3265664,31.1142214 33.8311597,30.1219255 C36.0703485,28.5196661 37.6778295,27.4002944 38.6536025,26.7638107 C52.3841227,17.8033127 68.5905839,12.7611679 85.0526047,12.787584 C85.4641552,12.787584 85.7661802,12.9202889 86.1677739,12.9633841 C86.2739804,12.9744342 86.3580607,13.0219495 86.4200145,13.10593 C86.5284337,13.2540008 86.7331027,13.3258263 87.0340213,13.3214062 Z" id="路径" fill-opacity="0.2" fill="#FFFFFF"></path>
                    <path d="M150.907326,30.7186291 C151.956116,31.4081531 152.814619,32.2811083 153.482836,33.3374945 C162.404189,44.9577432 168.029819,57.9791402 170.359726,72.4016854 C170.970414,76.1852278 171.324436,80.0737457 171.421792,84.0672393 C171.443918,85.0020749 171.412941,85.9789006 171.328861,86.9977167 C171.251419,87.9657024 171.166232,88.9425282 171.073301,89.928194 C170.8454,88.4342252 170.62303,86.9513064 170.406191,85.4794377 C170.169439,83.8661282 169.911667,82.3765794 169.632875,81.0107913 C167.626013,71.1872832 163.956354,61.9836838 158.623898,53.3999931 C146.881432,34.4977514 128.424719,20.9293762 106.838231,15.3999235 C104.875621,14.8960405 101.743633,14.2241966 97.4422667,13.3843916 C97.4666057,13.2562108 97.471031,13.1346601 97.4555426,13.0197394 C97.4400541,12.9026088 97.4909448,12.8451484 97.6082145,12.8473584 C99.3407095,12.8606185 101.136265,12.767798 102.845527,12.8672485 C120.688233,13.9170048 136.708833,19.8674649 150.907326,30.7186291 Z" id="路径" fill-opacity="0.2" fill="#FFFFFF"></path>
                    <path d="M153.439689,150.997485 C154.696467,149.174224 155.907886,147.383009 157.073946,145.623838 C164.9974,133.672088 169.620705,120.720306 170.943862,106.768494 C171.191677,104.136368 171.355413,101.899835 171.435068,100.058894 C171.466044,99.3317996 171.473789,98.6223854 171.4583,97.9306513 C171.442812,97.212397 171.397453,96.4963528 171.322223,95.7825186 C171.22708,94.8940933 171.155169,93.995723 171.106491,93.0874077 L171.073301,89.928194 C171.166232,88.9425282 171.251419,87.9657024 171.328861,86.9977167 C171.412941,85.9789006 171.443918,85.0020749 171.421792,84.0672393 C171.324436,80.0737457 170.970414,76.1852278 170.359726,72.4016854 C168.029819,57.9791402 162.404189,44.9577432 153.482836,33.3374945 C153.544789,33.3065543 153.598999,33.2811392 153.645464,33.2612491 C153.747246,33.2192588 153.83907,33.2325189 153.920938,33.3010293 C155.361365,34.4723362 156.745369,35.7121536 158.072951,37.0204813 C169.999066,48.7600707 177.9015,62.7107781 181.780253,78.8726036 C182.58344,82.2185634 183.20851,85.9148103 183.655463,89.9613442 C183.80371,91.3006121 183.811454,92.6255149 183.678696,93.9360527 C182.441831,106.011564 178.818638,117.379871 172.809115,128.040974 C168.514386,135.663309 162.955135,142.619325 156.131362,148.909023 C155.115762,149.843858 154.218537,150.540012 153.439689,150.997485 Z" id="路径" fill-opacity="0.357" fill="#FFFFFF"></path>
                    <path d="M30.0209984,33.8911028 C28.9191051,35.449162 27.8371255,37.0370564 26.7750596,38.654786 C17.4974718,52.7590893 12.7602156,68.4004568 12.5632908,85.5788883 C12.550015,86.6220144 12.7037933,87.4839195 13.0246257,88.1646036 C12.7745977,90.7945191 12.7768103,93.4586899 13.0312636,96.1571158 C12.7192818,96.9527205 12.5677161,97.7903155 12.5765667,98.6699006 C12.7248134,114.860456 16.9885653,129.772519 25.3678224,143.40609 C25.8523899,144.195065 26.6777036,145.435987 27.8437634,147.128857 C28.6735023,148.333314 29.5010287,149.572026 30.3263423,150.844994 C29.1204551,150.060439 27.894654,149.065933 26.6489393,147.861476 C13.8023677,135.456673 5.51714766,120.673896 1.79327924,103.513144 C1.32198751,101.345121 1.05315209,99.1306884 0.61173097,96.9659806 C0.434719993,96.1040755 0.321875495,95.2642705 0.273197477,94.4465657 C0.193542537,93.0896177 0.185798307,91.6652643 0.249964786,90.1735054 C0.300855442,88.9491582 0.455740046,87.723706 0.7146186,86.4971487 C1.06642792,84.8296939 1.27552213,83.0992536 1.62401249,81.4317988 C5.27707652,64.045626 13.4439205,49.1645031 26.1245443,36.7884299 C27.2861788,35.6569032 28.5518073,34.5331116 29.9214297,33.417055 C30.0364869,33.3220244 30.0973344,33.3485446 30.1039723,33.4966155 C30.1083976,33.587226 30.0807396,33.7187218 30.0209984,33.8911028 Z" id="路径" fill-opacity="0.357" fill="#FFFFFF"></path>
                    <path d="M171.106491,93.0874077 C171.155169,93.995723 171.22708,94.8940933 171.322223,95.7825186 C171.397453,96.4963528 171.442812,97.212397 171.4583,97.9306513 C171.473789,98.6223854 171.466044,99.3317996 171.435068,100.058894 C171.355413,101.899835 171.191677,104.136368 170.943862,106.768494 C169.620705,120.720306 164.9974,133.672088 157.073946,145.623838 C155.907886,147.383009 154.696467,149.174224 153.439689,150.997485 L150.814395,153.573255 C149.546554,154.44179 148.307477,155.29375 147.097165,156.129135 C145.557169,157.192152 144.30371,158.019801 143.336788,158.612085 C129.647201,167.016765 114.549271,171.269935 98.0429977,171.371862 C96.8570242,171.378225 95.918866,171.261095 95.2285232,171.020203 C95.3502183,170.942853 95.4597438,170.897548 95.5570998,170.884287 C115.76069,168.252162 132.903097,159.827592 146.98432,145.610578 C157.591703,134.89975 165.095862,121.294909 168.78986,106.848054 C169.670489,103.407064 170.308835,99.8677277 170.704897,96.2300462 C170.801147,95.348251 171.053388,94.164789 171.106491,93.0874077 Z" id="路径" fill-opacity="0.2" fill="#FFFFFF"></path>
                    <path d="M13.0312636,96.1571158 C13.6773537,100.119669 14.3942481,103.66453 15.181947,106.791699 C20.3396043,127.288465 33.1242221,145.172995 50.6947741,156.99104 C61.8774426,164.513925 74.4407967,169.139482 88.3848363,170.867712 C88.3538594,170.914123 88.3815174,170.968268 88.4678102,171.030148 C88.5518904,171.089819 88.5541031,171.151699 88.4744481,171.215789 C88.359391,171.31082 88.2277391,171.360545 88.0794924,171.364965 C81.6982467,171.504196 75.3678916,170.972688 69.0884273,169.770441 C58.069494,167.659878 47.777412,163.403393 38.2121813,157.000985 C36.5947435,155.918079 34.933053,154.830753 33.2271097,153.739006 L30.3263423,150.844994 C29.5010287,149.572026 28.6735023,148.333314 27.8437634,147.128857 C26.6777036,145.435987 25.8523899,144.195065 25.3678224,143.40609 C16.9885653,129.772519 12.7248134,114.860456 12.5762004,98.6699006 C12.5677161,97.7903155 12.7192818,96.9527205 13.0312636,96.1571158 Z" id="路径" fill-opacity="0.2" fill="#FFFFFF"></path>
                    <path d="M150.814395,153.573255 C150.073162,154.764452 149.086325,156.003164 147.853887,157.289392 C135.286107,170.39035 120.066482,178.762984 102.195011,182.407296 C99.4646171,182.964219 96.6169531,183.365336 93.6520192,183.610648 C92.2846094,183.725568 91.3707902,183.760929 90.9105617,183.716728 C69.5099346,181.619426 51.2899736,172.878824 36.2506785,157.494923 C35.0536417,156.270576 34.0457855,155.018604 33.2271097,153.739006 C34.933053,154.830753 36.5947435,155.918079 38.2121813,157.000985 C47.777412,163.403393 58.069494,167.659878 69.0884273,169.770441 C75.3678916,170.972688 81.6982467,171.504196 88.0794924,171.364965 C88.2277391,171.360545 88.359391,171.31082 88.4744481,171.215789 C88.5541031,171.151699 88.5518904,171.089819 88.4678102,171.030148 C88.3815174,170.968268 88.3538594,170.914123 88.3848363,170.867712 C90.6240252,171.179324 92.9052541,171.230154 95.2285232,171.020203 C95.918866,171.261095 96.8570242,171.378225 98.0429977,171.371595 C114.549271,171.269935 129.647201,167.016765 143.336788,158.612085 C144.30371,158.019801 145.557169,157.192152 147.097165,156.129135 C148.307477,155.29375 149.546554,154.44179 150.814395,153.573255 Z" id="路径" fill-opacity="0.357" fill="#FFFFFF"></path>
                </g>
                <g id="head_icon_Normal@3x" transform="translate(30.132963, 41.500000)" fill="url(#linearGradient-1)">
                    <path d="M110.779942,107.183375 C110.388363,107.500469 109.974438,107.752655 109.538167,107.939932 C109.048693,108.148491 108.621999,108.418766 108.258085,108.750757 C108.233861,108.772666 108.200845,108.782099 108.168703,108.776295 C108.104859,108.763526 108.086769,108.737988 108.114435,108.699681 C108.186792,108.59753 108.172959,108.584761 108.072936,108.661375 C108.026117,108.697553 107.980362,108.736924 107.935671,108.779487 C107.884595,108.830562 107.827135,108.840139 107.763291,108.808217 C107.563245,108.706066 107.370647,108.733732 107.185498,108.891215 C107.155704,108.916753 107.129102,108.91356 107.105692,108.881638 C106.954594,108.651798 106.76306,108.627324 106.531092,108.808217 C106.454479,108.869933 106.369353,108.910368 106.275714,108.929521 C106.216126,108.94229 106.179948,108.918881 106.167179,108.859292 C106.135256,108.703938 106.062899,108.685848 105.950107,108.805025 C105.754318,109.011455 105.522349,109.030608 105.254203,108.862485 C105.132898,108.783743 105.012658,108.787999 104.893481,108.875254 C104.818996,108.930585 104.73919,108.94229 104.654064,108.910368 C104.260357,108.759269 103.859201,108.717771 103.450596,108.785871 C103.377885,108.798309 103.304218,108.788264 103.239909,108.757141 C103.007941,108.644349 102.811087,108.684784 102.649348,108.878446 C102.621096,108.911784 102.580187,108.931784 102.536527,108.933603 C102.492866,108.935422 102.450435,108.918895 102.419508,108.888022 L102.330125,108.795448 C102.236487,108.701809 102.143912,108.702874 102.052402,108.79864 C101.826818,109.034865 101.601234,109.031673 101.375651,108.789064 C101.279884,108.686912 101.195822,108.696489 101.123465,108.817794 C101.10644,108.84546 101.092607,108.875254 101.081966,108.907176 C101.050044,108.99443 100.99684,109.010391 100.922355,108.955059 L100.740398,108.820986 C100.644631,108.748629 100.53716,108.71245 100.417983,108.71245 L91.3648363,108.776295 C91.2754541,108.776295 91.2020329,108.811409 91.1445729,108.881638 C91.1254196,108.90292 91.103074,108.919945 91.0775362,108.932714 C91.0413577,108.947611 91.0062432,108.944418 90.9721928,108.923137 C90.931758,108.897599 90.8998357,108.865677 90.8764261,108.82737 C90.8019409,108.695425 90.7114945,108.682656 90.6050871,108.789064 C90.3582217,109.033801 90.1166768,109.034865 89.8804522,108.792256 C89.8017107,108.711386 89.7229692,108.710322 89.6442277,108.789064 L89.5612298,108.872061 C89.520795,108.912496 89.4718476,108.928457 89.4143875,108.919945 C89.3399023,108.907176 89.2888267,108.875254 89.2611608,108.824178 C89.235623,108.777359 89.1962522,108.753949 89.1430485,108.753949 L86.2572781,108.760334 C86.1721521,108.760334 86.1061795,108.795448 86.0593602,108.865677 C86.0402069,108.891215 86.0167972,108.91356 85.9891313,108.932714 C85.9401838,108.966764 85.8954927,108.962508 85.8550579,108.919945 L85.7305611,108.795448 C85.6475633,108.714578 85.5645655,108.714578 85.4815677,108.795448 C85.2708809,109.004007 85.029336,109.02316 84.7569329,108.852908 C84.6675197,108.794514 84.5491353,108.805037 84.4696327,108.878446 C84.373866,108.9657 84.2727789,108.96038 84.1663714,108.862485 C84.1231003,108.823415 84.0677303,108.800815 84.0099525,108.79864 L82.5000305,108.725219 C82.3872386,108.720963 82.2989204,108.76459 82.235076,108.8561 C82.2159226,108.881638 82.1935771,108.903984 82.1680393,108.923137 C82.1105792,108.959315 82.0573755,108.953995 82.0084281,108.907176 L81.8998925,108.795448 C81.8147665,108.71245 81.7317687,108.71245 81.650899,108.795448 C81.4168026,109.035929 81.180578,109.033801 80.9422253,108.789064 C80.9085481,108.754573 80.8613177,108.736781 80.8132545,108.740478 C80.7651914,108.744175 80.7212378,108.768982 80.6932318,108.808217 C80.5804399,108.972084 80.4612635,108.982725 80.3357027,108.840139 C80.2569612,108.752885 80.1590663,108.709258 80.0420181,108.709258 L70.9377956,108.773102 C70.8462851,108.775231 70.7717999,108.810345 70.7143399,108.878446 C70.6973147,108.899727 70.6749691,108.916753 70.6473032,108.929521 C70.6111246,108.946547 70.5760102,108.944418 70.5419598,108.923137 C70.4993968,108.897599 70.4674746,108.865677 70.4461931,108.82737 C70.3823486,108.71245 70.3067776,108.686652 70.21948,108.749975 L70.174854,108.789064 C69.9301169,109.033801 69.6885719,109.034865 69.4502192,108.792256 C69.3714777,108.711386 69.2927362,108.710322 69.2139946,108.789064 L69.1309968,108.872061 C69.090562,108.912496 69.0416145,108.928457 68.9841545,108.919945 C68.9096693,108.907176 68.8585937,108.875254 68.8309278,108.824178 C68.80539,108.777359 68.7660192,108.753949 68.7128155,108.753949 L65.7919306,108.760334 C65.7238298,108.760334 65.6738183,108.790128 65.6418961,108.849716 C65.6248709,108.877382 65.6046535,108.90292 65.5812438,108.926329 C65.5364835,108.966773 65.4686561,108.96536 65.4280171,108.923137 L65.2971359,108.792256 C65.2162662,108.713514 65.1353966,108.713514 65.0545269,108.792256 C64.841712,109.005071 64.5991029,109.025288 64.3266998,108.852908 C64.2372867,108.794514 64.1189022,108.805037 64.0393997,108.878446 C63.943633,108.9657 63.8425459,108.96038 63.7361384,108.862485 C63.6928673,108.823415 63.6374973,108.800815 63.5797194,108.79864 L62.0697975,108.725219 C61.9570056,108.720963 61.8686874,108.765654 61.8048429,108.859292 C61.7856896,108.889087 61.76228,108.916753 61.734614,108.94229 C61.7010147,108.973868 61.6475614,108.972461 61.6133095,108.939098 L61.463275,108.792256 C61.3845335,108.711386 61.3057919,108.711386 61.2270504,108.792256 C60.9823133,109.041249 60.7343839,109.032737 60.4832622,108.766718 C60.4515183,108.731831 60.4044507,108.715196 60.357313,108.722203 C60.3101753,108.72921 60.2689651,108.758968 60.2470377,108.801832 C60.1555273,108.976341 60.0469916,108.993366 59.9214308,108.852908 C59.8363049,108.759269 59.7298974,108.71245 59.6022084,108.71245 L50.4916014,108.773102 C50.4171162,108.773102 50.3553999,108.800768 50.3064524,108.8561 C50.2851709,108.87951 50.2628254,108.900791 50.2394157,108.919945 C50.1904683,108.962508 50.1425849,108.961444 50.0957656,108.916753 L50.0031912,108.820986 C49.9074244,108.725219 49.8105936,108.724155 49.7126988,108.817794 C49.4786024,109.034865 49.2476982,109.026352 49.0199862,108.792256 C48.9412447,108.711386 48.8625031,108.710322 48.7837616,108.789064 L48.6784182,108.894407 C48.6124456,108.96038 48.546473,108.96038 48.4805003,108.894407 L48.375157,108.789064 C48.3198251,108.73586 48.2538525,108.71245 48.1772391,108.718835 C47.3387483,108.810345 46.45131,108.808217 45.5149243,108.71245 C45.4149013,108.701809 45.3287113,108.732668 45.2563542,108.805025 L45.1861253,108.875254 C45.1073838,108.953995 45.0286422,108.953995 44.9499007,108.875254 L44.8700951,108.795448 C44.7870973,108.71245 44.7030354,108.713514 44.6179094,108.79864 C44.4050945,109.011455 44.1720621,109.026352 43.9188124,108.843331 C43.827302,108.779487 43.7389838,108.782679 43.6538578,108.852908 C43.5474503,108.944418 43.4346584,108.955059 43.3154821,108.88483 C43.2197153,108.829498 43.1165001,108.79864 43.0058363,108.792256 L41.5693356,108.722027 C41.4884659,108.717771 41.4299418,108.751821 41.3937633,108.824178 C41.3724818,108.864613 41.3426877,108.898663 41.304381,108.926329 C41.257045,108.957808 41.1940004,108.951101 41.1543465,108.910368 L41.033042,108.792256 C40.9543004,108.711386 40.8755589,108.711386 40.7968174,108.792256 C40.5520802,109.041249 40.3041508,109.032737 40.0530292,108.766718 C40.0205497,108.732417 39.9735519,108.715836 39.926739,108.722162 C39.879926,108.728488 39.839015,108.756949 39.8168047,108.79864 C39.7231661,108.975277 39.6135664,108.992302 39.4880056,108.849716 C39.4028796,108.756077 39.2975362,108.709258 39.1719754,108.709258 L30.1188284,108.773102 C30.0209336,108.775231 29.9336794,108.807153 29.8570661,108.868869 C29.7315053,108.968892 29.6219056,108.943354 29.528267,108.792256 C29.5082565,108.759641 29.4743592,108.738039 29.4363442,108.733677 C29.3983293,108.729314 29.3604199,108.742676 29.3335413,108.76991 C29.0696508,109.044441 28.8036322,109.036993 28.5354854,108.747565 C28.5102574,108.719388 28.4724875,108.705887 28.4351144,108.711686 C28.3977414,108.717485 28.3658391,108.741798 28.3503364,108.776295 C28.3333112,108.816729 28.3088375,108.85078 28.2769152,108.878446 C28.1939174,108.957187 28.1109196,108.956123 28.0279218,108.875254 L27.9608851,108.808217 C27.9289628,108.774167 27.8895921,108.757141 27.8427728,108.757141 L24.9729635,108.757141 C24.9004899,108.757069 24.8311196,108.791166 24.7846223,108.849716 C24.737803,108.907176 24.6771507,108.94229 24.6026655,108.955059 C24.581384,108.959315 24.5611666,108.959315 24.5420133,108.955059 C24.4866814,108.940162 24.4590154,108.906112 24.4590154,108.852908 C24.4605325,108.807826 24.4343584,108.766754 24.3925714,108.748647 C24.3507844,108.730539 24.3015082,108.738915 24.267482,108.76991 C24.0440263,108.986981 23.8078018,109.022096 23.5588083,108.875254 C23.5418187,108.864639 23.5236023,108.856067 23.5045405,108.849716 C23.3704671,108.807153 23.2661878,108.811409 23.1917025,108.862485 C23.1597803,108.885894 23.1236018,108.895471 23.0831669,108.891215 L21.2348693,108.699681 C21.1093085,108.686912 21.0135418,108.732668 20.9475691,108.836947 C20.8773402,108.945483 20.7794453,108.986981 20.6538845,108.961444 C20.5708867,108.944418 20.5474771,108.896535 20.5836556,108.817794 C20.6091934,108.762462 20.5783352,108.726283 20.4910811,108.709258 C20.4381796,108.699782 20.3849289,108.727057 20.3601999,108.776295 C20.2537925,109.014647 20.1005657,109.062531 19.9005197,108.919945 C19.8217782,108.862485 19.7866637,108.784807 19.7951763,108.686912 C19.8270985,108.332576 19.7217552,108.048468 19.7632541,107.716476 C19.9122245,106.541738 20.1410006,105.387217 20.4495822,104.252913 L21.672204,101.150072 C22.627743,99.1645085 23.8790948,97.4130416 25.4262593,95.8956712 C27.1032409,94.1952799 29.014319,92.8428411 31.1594934,91.8383546 C33.2472079,90.8487652 35.4360094,90.2347941 37.725898,89.9964414 C38.01107,89.9666473 38.6218488,89.9230202 39.5582345,89.8655602 C40.234986,89.8208691 40.7776641,89.5208 41.4033399,89.2845755 C44.6338705,88.0204548 47.7963004,86.6020433 50.8906294,85.029341 C52.2356197,84.3121547 53.1060328,83.8067192 53.5018686,83.5130346 C55.5917111,81.963742 57.428304,80.1526869 59.011647,78.0798695 C59.6713733,77.2626602 60.2885366,76.4199131 60.8631369,75.5516282 C61.2717416,74.9323368 61.648424,74.2683542 61.6356551,73.5086049 C61.620758,72.4275051 61.620758,71.3474693 61.6356551,70.2684976 C61.6397572,70.1183292 61.5707276,69.9755094 61.4505061,69.8854308 C60.1778728,68.9149947 59.0063267,67.7753708 57.9358676,66.466559 C55.8673065,63.9255487 54.5169958,61.0653161 53.8849354,57.8858611 C53.7444776,57.0878051 53.6401983,56.330184 53.5720975,55.6129977 C53.5050608,54.8915551 53.0581494,54.3073781 52.3143613,54.1956503 C50.8459383,53.9753868 49.5403187,53.1677542 48.7646083,51.9164024 C48.4687955,51.4354407 48.2219302,50.5171442 48.0240123,49.1615132 C47.8686574,48.0953104 47.7079822,47.0248513 47.5419865,45.9501359 C47.3185308,44.6051456 47.1025237,43.2495145 46.8939651,41.8832426 C46.7513791,40.9553696 46.7801091,40.2924511 46.9801551,39.8944871 C47.4462198,38.9559733 48.2070332,38.4409612 49.2625952,38.3494508 C49.3775153,38.33881 49.4349753,38.2770937 49.4349753,38.1643018 L49.4637053,33.1844325 L49.4637053,22.9757004 C49.4253986,19.97501 49.8903992,17.0700862 50.8587072,14.2609292 C51.8376558,11.2517261 53.3858844,8.64474322 55.5033929,6.43998058 C56.0822496,5.76748541 56.7292069,5.25460143 57.4442651,4.90132865 C57.9168738,4.6667002 58.4571338,4.5677652 59.0046868,4.48503911 L59.4743962,4.41531376 C60.3336427,4.28454311 61.1683135,4.10949751 61.7441907,3.42652121 C62.3422006,2.71571935 62.9231854,2.02619899 63.4871449,1.35796011 C64.7193434,-0.100886213 68.2882497,-0.088117317 70.0024739,0.0714938784 C72.6137131,0.314102896 75.4750098,0.554583763 78.586364,0.792936482 C80.9847883,0.978085469 83.0576057,1.31965343 84.8048162,1.81764036 C87.5558038,2.60023178 90.1288214,3.7739865 92.523869,5.33890452 L93.0343694,5.68023129 L93.0343694,5.68023129 C97.0438736,8.42660792 99.7945704,12.0271043 101.28646,16.4817203 L101.436303,16.9455895 L101.436303,16.9455895 C102.021544,19.0971484 102.27373,21.2614762 102.19286,23.4385729 L102.189668,29.7623685 L102.208821,38.1228029 C102.210949,38.2483637 102.27373,38.3185926 102.397162,38.3334897 C103.491031,38.4590505 104.258229,38.9921519 104.698756,39.9327938 C104.894545,40.3435266 104.907314,41.0713537 104.737062,42.116275 C104.556879,43.2356815 104.380006,44.3508317 104.206444,45.4617256 L103.948583,47.1248743 L103.948583,47.1248743 C103.820894,47.8867517 103.705974,48.646501 103.603823,49.4041222 C103.461237,50.4362746 103.276088,51.1768705 103.048376,51.62591 C102.403547,52.8932229 101.292653,53.7008556 99.8880742,54.0264624 C99.0485193,54.221188 98.3877289,54.3584537 98.2281177,55.2905831 C98.1401542,55.7985014 98.0578658,56.3087843 97.9812524,56.8214318 L97.8705887,57.5921765 L97.8705887,57.5921765 C97.3257825,60.4396402 96.2234011,63.0338542 94.5634447,65.3748184 C93.3206055,67.1156445 91.8521825,68.634079 90.1581757,69.9301219 C90.0709216,69.9982227 90.0283586,70.087605 90.0304868,70.1982687 C90.0432556,71.2538308 90.0421916,72.3604684 90.0272945,73.5181816 C90.0153769,74.5103248 90.7487088,75.527495 91.3396646,76.3412974 L91.4637953,76.5124876 L91.4637953,76.5124876 C93.6791987,79.5770226 96.3127834,82.4532163 99.5880051,84.416434 C103.037735,86.312615 106.618346,87.9491618 110.329839,89.3260744 C111.140663,89.6985005 112.264326,89.9081232 113.700827,89.9549425 C115.924743,90.0315559 118.362538,90.7678955 121.014212,92.1639614 C121.797371,92.4278519 122.679489,92.9513767 123.660566,93.7345356 C123.74782,93.8026364 123.757396,93.8803138 123.689296,93.9675679 L122.006994,96.0935891 L118.090135,100.486089 L118.090135,100.486089 L114.262658,104.214607 C113.124099,105.236118 111.963193,106.225708 110.779942,107.183375 Z M37.7482436,10.1461525 C40.3999176,10.3504549 43.2654706,10.5983843 46.3449026,10.8899407 C46.4257722,10.8984533 46.4491819,10.9399522 46.4151315,11.0144374 C45.3641531,13.3992743 44.6495483,15.8956311 44.271317,18.5035081 L44.183767,19.1578006 L44.0241558,29.7591762 L44.0050024,38.4962931 C44.0028743,38.6027005 43.9486065,38.6612246 43.842199,38.6718654 C42.7568429,38.7718884 41.9300569,39.2730676 41.361841,40.1754028 C41.1341291,40.7351061 41.0426186,41.1437108 41.0873098,41.4012168 C41.5789123,44.2103739 42.0045421,46.7833063 42.3641993,49.1200142 C42.6621402,51.0438612 43.029246,52.3569293 43.4655166,53.0592185 C44.4253119,54.6021268 45.7256111,55.5076543 47.3664142,55.7758011 C48.1293557,55.90349 48.4390014,56.5483193 48.5092304,57.256993 C48.6011664,58.1763535 48.743497,59.099119 48.9362222,60.0252896 L49.0902151,60.7205559 C49.6541747,63.0061882 50.6799426,65.0747493 52.167519,66.9262392 C53.3124633,68.2818703 54.6159547,69.4683135 56.0779933,70.4855689 C56.1631192,70.5472852 56.216323,70.6292189 56.2376044,70.7313701 C56.3333712,71.1974348 56.3376275,71.6783965 56.2503733,72.1742553 C56.0939544,73.068078 56.1258766,73.9044407 56.1418377,74.7950711 C56.1439659,74.9078631 56.1045951,75.0046938 56.0237254,75.0855635 C55.6087363,75.4856556 55.1628891,75.8442487 54.6861836,76.161343 C52.8577487,77.3743881 50.9938446,78.5342294 49.0944714,79.640867 L47.9505912,80.2984652 L47.9505912,80.2984652 C45.529644,81.8200919 42.9450733,83.0931537 40.1968788,84.1176507 L39.4433145,84.3908962 L39.4433145,84.3908962 C37.6237468,85.0740321 35.7541677,85.6943876 33.8345771,86.2519628 C33.2003886,86.4349836 32.4310626,86.5701211 31.5265992,86.6573752 C30.9376339,86.7132391 30.3522598,86.7888549 29.770477,86.8842226 L29.1898913,86.9861743 L29.1898913,86.9861743 C24.4630783,88.0695957 20.3906331,90.8819889 17.394611,94.7335117 L17.1169004,95.0976152 L17.1169004,95.0976152 C15.0398268,97.8429278 13.5150078,100.857451 12.5424436,104.141186 C12.4402924,104.485946 12.3700635,104.840283 12.3317568,105.204196 C12.2891938,105.610673 12.1466078,105.991611 11.9039988,106.347012 C11.8252573,106.459804 11.7337469,106.471509 11.6294675,106.382127 C9.78010582,104.815809 8.18825017,103.395269 6.85390057,102.120508 C4.55975566,99.9242578 2.33158337,97.4502842 0.169383709,94.6985872 C-0.0285341732,94.4772597 -0.0530078899,94.3070077 0.0959625592,94.1878314 C2.94023406,91.9213524 6.66875159,90.475275 10.4036536,90.3380094 C11.0293294,90.3167279 11.4836893,90.2507552 11.7667332,90.1400915 C14.7525266,88.9845064 17.6351048,87.7171935 20.4144677,86.3381528 C22.2765984,85.4762523 23.925914,84.4100496 25.3624148,83.1395444 C26.7031488,81.8690393 27.9193862,80.4995753 29.0111267,79.0311523 C29.5389077,78.3501445 30.013485,77.6404067 30.4348586,76.9019389 C30.6881084,76.4550276 30.8094129,76.018757 30.7987721,75.5931271 C30.7753625,74.650357 30.7732343,73.7575984 30.7923877,72.9148513 C30.7961833,72.6859785 30.6906596,72.4690027 30.5082797,72.3306743 C28.3482082,70.6813586 26.6552655,68.648976 25.4294515,66.2335266 C24.6399081,64.699131 24.1695871,63.4169211 24.0184885,62.3868968 C23.8354677,61.1312887 23.5960509,59.9320766 23.3002382,58.7892605 C22.9235557,58.6126241 22.4127999,58.4487566 21.7679707,58.297658 C20.8486102,58.0805868 20.0548105,57.4836409 19.3865716,56.5068204 C19.0460678,56.0088334 18.7864335,55.1118185 18.607669,53.8157756 C18.3203689,51.7429582 17.9894416,49.6031041 17.6148874,47.3962133 C17.3169465,45.6511309 18.0330687,44.6136582 19.7632541,44.283795 C19.8675334,44.2646417 19.9207371,44.2018613 19.9228653,44.0954538 L19.9420186,41.2128756 L19.9611719,31.9905407 C19.748357,28.2492543 20.3484951,24.6835402 21.7615862,21.2933984 C22.7447912,18.9460498 24.153626,16.9179235 25.9880907,15.2090197 C26.5435376,14.6950716 27.0734468,14.3694648 27.8715028,14.2258147 C28.5312291,14.1066383 29.1941476,13.9746931 29.8602583,13.8299789 C30.2310171,13.7491299 30.5652463,13.548368 30.811541,13.2585708 C31.3457065,12.632895 31.8798719,11.9997706 32.4140374,11.3591976 C33.4547024,10.1142303 36.2798206,10.0312325 37.7482436,10.1461525 Z" id="形状结合"></path>
                </g>
            </g>
        </g>
    </g>
</svg>