<?xml version="1.0" encoding="UTF-8"?>
<svg width="20px" height="20px" viewBox="0 0 20 20" version="1.1" xmlns="http://www.w3.org/2000/svg" xmlns:xlink="http://www.w3.org/1999/xlink">
    <title>ic_yskj_srgb</title>
    <g id="页面-1" stroke="none" stroke-width="1" fill="none" fill-rule="evenodd">
        <g id="附近派出所" transform="translate(-322.000000, -283.000000)">
            <g id="ic_yskj_srgb-2" transform="translate(322.000000, 283.000000)">
                <g id="ic_yskj_srgb" transform="translate(1.250000, 1.250000)">
                    <circle id="椭圆形" fill="#B8C0C7" cx="8.75" cy="8.75" r="8.75"></circle>
                    <path d="M5.31458032,5.31434501 C5.53154569,5.0973945 5.86832701,5.07329959 6.11190641,5.242053 L6.19846379,5.31437528 L12.18545,11.3017715 C12.4295193,11.5458576 12.4295057,11.9415857 12.1854197,12.185655 C11.9684543,12.4026055 11.631673,12.4267004 11.3880936,12.257947 L11.3015362,12.1856247 L5.31455005,6.19822848 C5.07048072,5.95414244 5.07049428,5.55841433 5.31458032,5.31434501 Z" id="路径-52" fill="#FFFFFF" fill-rule="nonzero"></path>
                    <path d="M5.31458032,5.31434501 C5.53154569,5.0973945 5.86832701,5.07329959 6.11190641,5.242053 L6.19846379,5.31437528 L12.18545,11.3017715 C12.4295193,11.5458576 12.4295057,11.9415857 12.1854197,12.185655 C11.9684543,12.4026055 11.631673,12.4267004 11.3880936,12.257947 L11.3015362,12.1856247 L5.31455005,6.19822848 C5.07048072,5.95414244 5.07049428,5.55841433 5.31458032,5.31434501 Z" id="路径-52" fill="#FFFFFF" fill-rule="nonzero" transform="translate(8.750000, 8.750000) scale(-1, 1) translate(-8.750000, -8.750000) "></path>
                </g>
            </g>
        </g>
    </g>
</svg>