<?xml version="1.0" encoding="UTF-8"?>
<svg width="36px" height="37px" viewBox="0 0 36 37" version="1.1" xmlns="http://www.w3.org/2000/svg" xmlns:xlink="http://www.w3.org/1999/xlink">
    <title>ic_txlbf_lxrgsd</title>
    <defs>
        <linearGradient x1="-6.4893278%" y1="50%" x2="87.0880551%" y2="50%" id="linearGradient-1">
            <stop stop-color="#0A59F7" offset="0%"></stop>
            <stop stop-color="#6094FF" offset="100%"></stop>
        </linearGradient>
    </defs>
    <g id="个人信息" stroke="none" stroke-width="1" fill="none" fill-rule="evenodd">
        <g id="通讯录备份" transform="translate(-171.000000, -646.000000)">
            <g id="ic_txlbf_lxrgsd-2" transform="translate(171.000000, 646.473556)">
                <g id="ic_txlbf_lxrgsd" transform="translate(0.500000, 0.000000)">
                    <rect id="矩形" fill="#F7F7F7" x="0" y="0" width="35" height="36" rx="6"></rect>
                    <g id="Attribution_icon_Normal@2x" transform="translate(9.334114, 7.907475)" fill-rule="nonzero">
                        <g id="编组" fill="#0C273D">
                            <path d="M4.44546158,0.940972189 C7.0613793,-0.403463611 9.71828914,-0.306832879 12.4000288,1.22831719 C12.6395482,1.36397417 12.7452044,1.58090656 12.7048975,1.85455993 C12.6718926,2.07184226 12.4740086,2.16393921 12.16657,2.15347853 C12.0820562,2.15123592 11.9999227,2.127079 11.9283718,2.0832623 C8.59112795,0.0365538106 4.52167469,0.894268189 2.32855556,4.10192569 C0.250494202,7.14534563 0.539974963,11.2598421 3.04782705,13.9484403 L3.44328977,14.371626 L4.24405153,15.2248407 C4.51315759,15.5107659 4.78444885,15.7982111 5.05792455,16.0871756 L5.8849042,16.958626 C6.57951372,17.6886314 7.28777116,18.428127 8.00966446,19.1771004 C8.05282464,19.2217141 8.11499967,19.2412605 8.1749897,19.2305237 L8.199267,19.2242155 L8.2382096,19.2092268 C8.27581967,19.1924355 8.31014743,19.170753 8.3413695,19.1441102 L8.37156289,19.1158115 L9.21002994,18.2417074 L10.0370882,17.3761615 L10.8527358,16.5191758 L11.6569706,15.6707524 C11.7900586,15.5300622 11.922671,15.3897288 12.0548077,15.2497522 L12.84192,14.4141761 C12.972154,14.2756274 13.1019122,14.1374356 13.2311947,13.9996008 C16.0876107,10.9494453 16.0712992,6.45787213 13.2857537,3.19347663 C13.2234338,3.11951407 13.1859705,3.02835338 13.1787434,2.93008543 C13.1572719,2.51568531 13.3747705,2.32101067 13.7579669,2.42795217 C13.8519699,2.45486366 13.9356855,2.50748488 13.998147,2.57892095 C17.1250576,6.09180549 17.110224,11.2429641 13.9497144,14.6088029 C12.3309883,16.33533 10.7225264,18.0404707 9.12428126,19.724275 C8.50732329,20.3735626 7.70138411,20.3225333 7.10360286,19.6602854 C6.13022261,18.5822406 5.14836408,17.5395473 4.15804858,16.5322244 L3.73310994,16.1026802 C3.65172549,16.0209828 3.5719251,15.9400806 3.49370861,15.8599728 L3.26381071,15.622032 C3.22628629,15.5827721 3.18915781,15.5437107 3.15242525,15.5048475 L2.93678074,15.2740476 C2.0229076,14.2842195 1.37664905,13.4283112 0.997666976,12.7045512 C-1.18158432,8.54563351 0.316680578,3.06600572 4.44546158,0.940972189 Z M8.28110699,19.4677077 C8.12021032,19.5209335 7.94304638,19.4773456 7.82504731,19.3553723 L6.96478007,18.4605916 C6.39564062,17.8671121 5.83524513,17.2797141 5.28359292,16.6983969 L4.46267199,15.8309817 L3.65486547,14.9726871 C3.38778231,14.688109 3.1228848,14.4050508 2.86017285,14.1235126 C0.270009059,11.3466704 -0.0288207376,7.09929261 2.11665427,3.95714222 C4.38720156,0.636238185 8.60895248,-0.253575812 12.0624723,1.86444391 C12.0954325,1.88462825 12.1336698,1.89587453 12.1743359,1.8969572 C12.3689547,1.90357689 12.4431098,1.86906445 12.4510817,1.81659112 C12.4758761,1.64825011 12.4207042,1.53497154 12.2730402,1.45133729 C9.66507218,-0.0415810121 7.10020041,-0.134864356 4.56284113,1.16919676 C0.565024722,3.22682442 -0.890151891,8.54886474 1.2250071,12.5854677 C1.57866367,13.2608624 2.17913527,14.0635107 3.02612707,14.991837 L3.23413814,15.2170476 L3.45161468,15.4470793 C3.56271917,15.5632996 3.67737287,15.6813261 3.79557527,15.801156 L3.91496055,15.921587 C5.05250532,17.0642712 6.17888003,18.2531747 7.29409845,19.4883091 C7.79550706,20.0437912 8.42856336,20.0838742 8.9381888,19.5475435 C10.5360225,17.8641726 12.1441234,16.1594147 13.7625582,14.4331982 C16.8313932,11.16499 16.8457942,6.16406627 13.8057015,2.74870867 C13.775269,2.71390723 13.7342179,2.68810368 13.6881573,2.67491434 C13.4819664,2.61737267 13.422293,2.67078399 13.4348636,2.9139936 C13.4379141,2.95529474 13.4543407,2.99526622 13.4814966,3.02749928 C16.3494843,6.38850514 16.3663302,11.0272763 13.41845,14.1750996 L12.6366533,15.0068103 L11.843435,15.8470908 L11.0387787,16.6959579 L10.2226684,17.5534284 L9.39508782,18.4195189 L8.55602073,19.2942464 C8.49151371,19.3604968 8.41703374,19.4118269 8.33339095,19.4477034 L8.28211222,19.4673705 L8.24751544,19.3663944 L8.28110699,19.4677077 Z" id="路径"></path>
                        </g>
                        <path d="M8.24080556,19.3458803 C8.32635244,19.3167944 8.40077823,19.2697436 8.46408292,19.204728 C10.1527783,17.447595 11.7730363,15.7417902 13.3248567,14.0873136 C16.2762241,10.9357665 16.1607358,6.36499663 13.383884,3.11079328 C13.3388873,3.05739014 13.3119423,2.99182406 13.3068918,2.92344561 C13.2897825,2.59323465 13.4283684,2.46919167 13.7226497,2.55131668 C13.7930939,2.57148367 13.8554772,2.61069606 13.9022981,2.66423856 C16.9794194,6.12118802 16.976853,11.1975399 13.8561028,14.5210363 C12.2375558,16.2473723 10.6292745,17.9523216 9.03125874,19.6358843 C8.44355167,20.2543882 7.72239146,20.1542984 7.19884455,19.5742905 C6.08502416,18.3407045 4.96008268,17.1533138 3.8240201,16.0121184 C2.48948876,14.6724542 1.58525823,13.5500792 1.11132851,12.6449932 C-0.962327888,8.68759445 0.3106097,3.21344954 4.5041178,1.05510173 C7.08078985,-0.269163983 9.69168066,-0.174206946 12.3367902,1.33997285 C12.5301262,1.44947285 12.6105402,1.61457833 12.5780324,1.83528929 C12.5575012,1.97045336 12.4214816,2.03375805 12.1699738,2.02520336 C12.107863,2.02355523 12.0476776,2.00585363 11.9954582,1.97387523 C8.59753605,-0.110046785 4.45278967,0.767664213 2.22258249,4.02956678 C0.123262031,7.10412168 0.390168299,11.2873642 2.95400832,14.0359854 C4.52978187,15.7246809 6.18425854,17.4681263 7.91743835,19.2663217 C8.00101838,19.3527165 8.12668117,19.3836336 8.24080556,19.3458803 Z" id="路径" fill="#0C273D"></path>
                        <ellipse id="椭圆形" fill="url(#linearGradient-1)" transform="translate(8.166380, 8.700426) rotate(90.300000) translate(-8.166380, -8.700426) " cx="8.16637977" cy="8.70042648" rx="3.58013697" ry="3.46978149"></ellipse>
                    </g>
                </g>
            </g>
        </g>
    </g>
</svg>