<?xml version="1.0" encoding="UTF-8"?>
<svg width="71px" height="71px" viewBox="0 0 71 71" version="1.1" xmlns="http://www.w3.org/2000/svg" xmlns:xlink="http://www.w3.org/1999/xlink">
    <title>ic_shzx_luyin_filled</title>
    <g id="页面-1" stroke="none" stroke-width="1" fill="none" fill-rule="evenodd">
        <g id="守护中心切图二" transform="translate(-458.000000, -1551.000000)" fill-rule="nonzero">
            <g id="ic_shzx_luyin_filled" transform="translate(458.643517, 1551.094215)">
                <path d="M34.0744444,0 L35.9644444,0 C41.8392593,0.233333333 47.1787037,1.70203704 51.9827778,4.40611111 C59.9964815,8.92240741 65.4746296,15.6527778 68.4172222,24.5972222 C69.3090741,27.3142593 69.8366667,30.4746296 70,34.0783333 L70,35.9644444 C69.7666667,41.8418519 68.297963,47.1812963 65.5938889,51.9827778 C61.0801852,59.9964815 54.3498148,65.4746296 45.4027778,68.4172222 C42.6857407,69.3090741 39.5253704,69.8366667 35.9216667,70 L34.0355556,70 C25.817037,69.6551852 18.7081481,66.9757407 12.7088889,61.9616667 C4.76,55.3194444 0.523703704,46.6407407 0,35.9255556 L0,34.0355556 C0.347407407,25.7444444 3.07351852,18.5798148 8.17833333,12.5416667 C14.8127778,4.69648148 23.4448148,0.515925926 34.0744444,0 Z" id="形状" fill-opacity="0.445450789" fill="#C7DAFF"></path>
                <path d="M38.1461111,14.1827778 C34.2611111,12.2772222 29.9483333,14.1283333 28.2527778,18.0366667 C27.8587037,18.9492593 27.6785185,20.8159259 27.7122222,23.6366667 C27.7614815,27.7511111 27.7731481,31.4701852 27.7472222,34.7938889 C27.7290741,37.2257407 28.4874074,39.1494444 30.0222222,40.565 C34.8211111,44.9827778 42.2333333,41.5955556 42.245,35.1672222 C42.2527778,29.9587037 42.2527778,25.3075926 42.245,21.2138889 C42.2372222,17.8642593 40.8709259,15.5205556 38.1461111,14.1827778 Z" id="路径" fill="#0A59F7"></path>
                <path d="M36.75,53.4916667 L36.75,50.0655556 C36.75,49.91 36.8264815,49.8192593 36.9794444,49.7933333 C41.9805556,48.9377778 45.64,46.3361111 47.9577778,41.9883333 C49.6377778,38.8422222 49.7544444,35.2955556 49.5483333,31.7294444 C49.4809259,30.5575926 48.9118519,29.9807407 47.8411111,29.9988889 C47.8151852,29.9988889 47.7944444,30.0001852 47.7788889,30.0027778 C46.6692593,30.0209259 46.1118519,30.6301852 46.1066667,31.8305556 C46.0988889,33.1735185 46.0768519,34.487963 46.0405556,35.7738889 C45.9601852,38.6257407 44.8725926,41.0925926 42.7777778,43.1744444 C40.2733333,45.6607407 37.2062963,46.702963 33.5766667,46.3011111 C28.0855556,45.6944444 24.0527778,40.9033333 23.9361111,35.4083333 C23.9101852,34.1690741 23.8933333,32.9311111 23.8855556,31.6944444 C23.87,29.3922222 20.4866667,29.2988889 20.4322222,31.8111111 C20.3738889,34.4011111 20.2766667,37.205 21.0855556,39.655 C22.8588889,45.045 27.3777778,49.0972222 33.1372222,49.77 C33.2124074,49.7777778 33.25,49.8192593 33.25,49.8944444 L33.2538889,53.6588889 C33.2539101,53.685362 33.243135,53.710699 33.2240523,53.7290477 C33.2049696,53.7473964 33.1792297,53.75717 33.1527778,53.7561111 C31.4753704,53.7146296 29.6164815,53.7340741 27.5761111,53.8144444 C25.3361111,53.9 25.445,57.2133333 27.7277778,57.2327778 C32.7055556,57.2716667 37.5485185,57.2742593 42.2566667,57.2405556 C43.3507407,57.2327778 43.925,56.6818519 43.9794444,55.5877778 C43.982037,55.5748148 43.9833333,55.5527778 43.9833333,55.5216667 C44.0403704,54.3783333 43.3987037,53.795 42.0583333,53.7716667 C40.4198148,53.7431481 38.7462963,53.7444444 37.0377778,53.7755556 C36.8459259,53.7781481 36.75,53.6835185 36.75,53.4916667 Z" id="路径" fill="#0A59F7"></path>
            </g>
        </g>
    </g>
</svg>