<?xml version="1.0" encoding="UTF-8"?>
<svg width="39px" height="39px" viewBox="0 0 39 39" version="1.1" xmlns="http://www.w3.org/2000/svg" xmlns:xlink="http://www.w3.org/1999/xlink">
    <title>ic_txlbf_hf</title>
    <defs>
        <linearGradient x1="59.8448735%" y1="-9.89549153%" x2="55.0645817%" y2="70.8840891%" id="linearGradient-1">
            <stop stop-color="#0A59F7" offset="0%"></stop>
            <stop stop-color="#6094FF" offset="100%"></stop>
        </linearGradient>
    </defs>
    <g id="个人信息" stroke="none" stroke-width="1" fill="none" fill-rule="evenodd">
        <g id="通讯录备份" transform="translate(-581.000000, -174.000000)" fill-rule="nonzero">
            <g id="ic_txlbf_hf-2" transform="translate(581.122850, 174.716224)">
                <g id="ic_txlbf_hf" transform="translate(0.344110, 1.469829)">
                    <path d="M34.6091779,13.1705643 C33.3821537,9.2855449 31.4062101,6.37010866 28.6813471,4.42425557 C22.9374027,0.321915808 16.9794814,-0.144487123 10.8075831,3.02504677 C6.84566574,5.0611714 4.10742918,8.52826702 2.59287343,13.4263336 C2.50594528,13.7071784 2.32205882,13.8058084 2.04121405,13.7222237 L1.91583691,13.6871181 C1.71962166,13.6311687 1.60537349,13.4273142 1.66006756,13.2307453 C4.66410365,2.30287449 16.3141468,-3.08834218 26.4044983,1.83145648 C30.8478639,4.0029884 34.2330465,8.11535834 35.5469988,12.8546139 C35.6071798,13.0685909 35.6807344,13.073606 35.7676626,12.8696592 L36.3594426,11.4854956 C36.4101384,11.368961 36.5091236,11.280321 36.6305253,11.2427443 C36.751927,11.2051675 36.8836788,11.222389 36.9913434,11.2899073 L37.146811,11.3851939 C37.2945227,11.476927 37.3521136,11.6646305 37.2822183,11.8265214 L36.0735828,14.6750899 C35.9431905,14.9860252 35.7225268,15.074625 35.4115915,14.9408894 L32.5078571,13.6871181 C32.382213,13.6322054 32.3159829,13.4933359 32.3523895,13.3611375 L32.4075554,13.1705643 C32.5045137,12.8295385 32.716819,12.7275651 33.0444713,12.8646441 L34.3483934,13.4112884 C34.6058345,13.5182769 34.6927626,13.4380355 34.6091779,13.1705643 Z" id="路径" fill="#2F3355"></path>
                    <path d="M18.8049726,18.4917665 L21.9143254,18.4917665 C22.7434862,18.4917665 23.2516815,18.8963167 23.4389114,19.7054172 C23.5291829,20.0832203 23.4639868,20.4743969 23.243323,20.8789471 C23.0430724,21.2551802 22.64972,21.4904203 22.2202457,21.4907875 L16.9995419,21.5008263 C16.1769298,21.5035821 15.5078216,20.8367192 15.5050465,20.0113374 L15.4799491,12.1125781 C15.4766276,11.3168512 15.8561024,10.8002974 16.6183954,10.5629167 C17.009572,10.4392113 17.4308392,10.5027357 17.8821969,10.7534899 C18.2469807,10.9543386 18.4736895,11.3366696 18.4739769,11.7514919 L18.4890222,18.1808312 C18.4890222,18.3881214 18.594339,18.4917665 18.8049726,18.4917665 Z" id="路径" fill="url(#linearGradient-1)"></path>
                    <path d="M2.7032053,21.8667222 C7.48258158,38.1256287 29.9301033,38.0604325 34.6442835,21.7212847 C34.7512719,21.3601986 34.9836376,21.2398365 35.3413803,21.3601986 L35.4767876,21.4053343 C35.612034,21.4507895 35.6888144,21.5933816 35.6523156,21.7313149 C34.027428,28.0954581 29.2330064,32.90994 22.8688632,34.5147673 C13.5809253,36.8568121 4.64905839,31.4505501 1.7503391,22.2829743 C1.65338078,21.9820691 1.56310925,21.9837408 1.47952449,22.2879893 C1.33575872,22.799528 1.09336293,23.2859913 0.752337128,23.7473792 C0.691885075,23.8277664 0.585531787,23.8584453 0.491552693,23.8226054 L0.285934197,23.7473792 C0.173178141,23.7035655 0.0828195402,23.616369 0.0355491579,23.5057563 C-0.0117212244,23.3951437 -0.0118544698,23.2705892 0.0351799329,23.1606142 L1.26889091,20.2970005 C1.35830316,20.092845 1.59551204,19.9988566 1.80048995,20.0863669 L4.81455621,21.3752438 C4.88451995,21.4049041 4.93947802,21.4616502 4.96688387,21.5325274 C4.99428972,21.6034046 4.99180382,21.6823624 4.95999368,21.7513752 L4.8496618,21.9820691 C4.72929976,22.2428536 4.53538313,22.3164082 4.26791191,22.2027329 L2.95395957,21.6460584 C2.71323547,21.5457567 2.62965072,21.6193113 2.7032053,21.8667222 Z" id="路径" fill="#2F3355"></path>
                </g>
            </g>
        </g>
    </g>
</svg>