<?xml version="1.0" encoding="UTF-8"?>
<svg width="43px" height="43px" viewBox="0 0 43 43" version="1.1" xmlns="http://www.w3.org/2000/svg" xmlns:xlink="http://www.w3.org/1999/xlink">
    <title>ic_rlql_rlfzp</title>
    <g id="页面-1" stroke="none" stroke-width="1" fill="none" fill-rule="evenodd">
        <g id="日历清理切图" transform="translate(-474.000000, -334.000000)" fill-rule="nonzero">
            <g id="ic_rlql_rlfzp-2" transform="translate(474.888361, 334.502258)">
                <g id="ic_rlql_rlfzp" transform="translate(1.000000, 1.000000)">
                    <path d="M19.3606061,0 L20.7515152,0 C27.440404,0.442424242 32.659596,3.30606061 36.4090909,8.59090909 C38.5989899,11.6818182 39.7959596,15.2474747 40,19.2878788 L40,20.7575758 C39.5353535,27.6040404 36.5686869,32.8949495 31.1,36.630303 C28.0777778,38.6929293 24.5909091,39.8161616 20.6393939,40 L19.2424242,40 C12.4141414,39.5393939 7.13131313,36.5848485 3.39393939,31.1363636 C1.33535354,28.1323232 0.204040404,24.6575758 0,20.7121212 L0,19.2515152 C0.24040404,14.7444444 1.71010101,10.8272727 4.40909091,7.5 C8.18282828,2.84747475 13.1666667,0.347474747 19.3606061,0 Z M39.5424242,20 C39.5424242,9.20701712 30.7929829,0.457575758 20,0.457575758 C9.20701712,0.457575758 0.457575758,9.20701712 0.457575758,20 C0.457575758,30.7929829 9.20701712,39.5424242 20,39.5424242 C25.1829732,39.5424242 30.1536652,37.4834962 33.8185807,33.8185807 C37.4834962,30.1536652 39.5424242,25.1829732 39.5424242,20 Z" id="形状" fill="#CFD6DC"></path>
                    <path d="M22.3787879,10.930303 C24.3767677,11.7424242 26.3090909,12.5272727 28.1757576,13.2848485 C28.7437663,13.5154129 29.1111638,14.0719298 29.1,14.6848485 C29.069697,16.3252525 29.0737374,18.0161616 29.1121212,19.7575758 C29.1575758,21.8121212 28.6939394,23.8090909 27.4848485,25.3727273 C25.9454545,27.3606061 23.4757576,29.8515152 21.069697,30.7060606 C19.4636364,31.2787879 17.8575758,30.3727273 16.5848485,29.3909091 C15.1151515,28.2545455 13.7333333,26.9212121 12.5969697,25.4818182 C11.3575758,23.9060606 10.8545455,21.9333333 10.8909091,19.8272727 C10.9191919,18.140404 10.9252525,16.4111111 10.9090909,14.6393939 C10.9036026,14.0421231 11.2646094,13.5030198 11.8181818,13.2818182 C14.3878788,12.2535354 16.7979798,11.2888889 19.0484848,10.3878788 C20.1757576,9.93636364 21.3393939,10.5090909 22.3787879,10.930303 Z M16.3393939,27.4454545 C17.4848485,28.4969697 19.3636364,30.0363636 20.9454545,29.3060606 C22.9333333,28.3878788 24.630303,26.6060606 26.0909091,24.9636364 C27.0393939,23.9 27.6909091,22.2909091 27.7090909,20.9030303 C27.7333333,19.0020202 27.7383838,16.9414141 27.7242424,14.7212121 C27.7242424,14.6080808 27.6717172,14.5313131 27.5666667,14.4909091 L20.4545455,11.6454545 C20.1629589,11.5268596 19.8357876,11.5268596 19.5424242,11.6454545 L12.4242424,14.4939394 C12.3131313,14.5363636 12.2585859,14.6171717 12.2606061,14.7363636 C12.2868687,16.4656566 12.2848485,18.230303 12.2545455,20.030303 C12.2424242,20.8545455 12.3323232,21.6262626 12.5242424,22.3454545 C13.0818182,24.4424242 14.7333333,25.9666667 16.3393939,27.4454545 Z" id="形状" fill="#768491"></path>
                    <path d="M20.8848485,23.2848485 C19.6909091,22.6545455 18.6151515,23.5969697 17.5878788,24.0515152 C17.4673104,24.1048293 17.3271872,24.087479 17.2232635,24.0063678 C17.1193399,23.9252567 17.0684755,23.7935435 17.0909091,23.6636364 C17.1939394,23.0636364 17.2838384,22.4757576 17.3606061,21.9 C17.5212121,20.6818182 16.3848485,19.9 15.6242424,19.1454545 C15.5233151,19.0462191 15.4879056,18.898069 15.5330518,18.7639204 C15.5781979,18.6297718 15.6959742,18.5331746 15.8363636,18.5151515 C16.5010101,18.430303 17.1444444,18.3191919 17.7666667,18.1818182 C18.8,17.9545455 19.2515152,16.5272727 19.6878788,15.7 C19.7648518,15.5527944 19.9366827,15.4815164 20.0969697,15.530303 C20.210101,15.5646465 20.2949495,15.640404 20.3515152,15.7575758 C20.8515152,16.8060606 21.2393939,18.0575758 22.5636364,18.2666667 C23.0767677,18.3474747 23.5959596,18.4282828 24.1212121,18.5090909 C24.2545455,18.5292929 24.359596,18.5909091 24.4363636,18.6939394 C24.5321566,18.8229214 24.5179183,19.0028421 24.4030303,19.1151515 C23.9787879,19.5353535 23.5626263,19.9545455 23.1545455,20.3727273 C22.230303,21.3212121 22.7878788,22.5909091 22.8969697,23.7272727 C22.9087875,23.8470644 22.8551016,23.963922 22.7565175,24.0329937 C22.6579334,24.1020653 22.5297676,24.1126198 22.4212121,24.0606061 C21.920202,23.820202 21.4080808,23.5616162 20.8848485,23.2848485 Z" id="路径" fill="#768491"></path>
                </g>
            </g>
        </g>
    </g>
</svg>