<?xml version="1.0" encoding="UTF-8"?>
<svg width="39px" height="39px" viewBox="0 0 39 39" version="1.1" xmlns="http://www.w3.org/2000/svg" xmlns:xlink="http://www.w3.org/1999/xlink">
    <title>ic_txlbf_yh</title>
    <defs>
        <linearGradient x1="68.519013%" y1="-9.89549153%" x2="59.5268928%" y2="70.8840891%" id="linearGradient-1">
            <stop stop-color="#0A59F7" offset="0%"></stop>
            <stop stop-color="#6094FF" offset="100%"></stop>
        </linearGradient>
        <path d="M22.216081,2.82059669 C22.2587346,4.35612307 22.2551801,5.77612953 22.2054177,7.08061607 C22.1449919,8.63391475 21.5585061,9.93484682 20.4459604,10.9834123 C18.5692059,12.7570874 16.418758,13.124974 13.9946169,12.0870719 C11.9543573,10.0077132 11.5224905,7.77373562 12.6990165,5.38513902 C13.3672548,4.03089005 14.5544442,3.13161187 16.2605846,2.68730447 C17.6823683,2.32119517 19.6675338,2.36562591 22.216081,2.82059669 Z" id="path-2"></path>
    </defs>
    <g id="个人信息" stroke="none" stroke-width="1" fill="none" fill-rule="evenodd">
        <g id="通讯录备份" transform="translate(-581.000000, -274.000000)">
            <g id="ic_txlbf_yh-2" transform="translate(581.245701, 274.431123)">
                <g id="ic_txlbf_yh" transform="translate(2.245701, 2.919560)">
                    <path d="M13.9946169,12.0870719 C16.418758,13.124974 18.5692059,12.7570874 20.4459604,10.9834123 C21.5585061,9.93484682 22.1449919,8.63391475 22.2054177,7.08061607 C22.2551801,5.77612953 22.2587346,4.35612307 22.216081,2.82059669" id="路径" stroke="#3F8D7C" stroke-width="2"></path>
                    <path d="M10.3744001,9.66115346 C8.46032385,5.02791587 11.4514013,0.282712801 16.4845155,0.0481184917 C17.9311804,-0.0194162335 19.3742909,-0.0158617743 20.8138469,0.0587818694 C22.3955812,0.136979972 23.2095524,0.956282824 23.2557604,2.51669042 C23.3197406,4.84663844 23.5969885,7.8270525 22.5679725,9.96505973 C20.1420541,15.0035057 12.587051,15.0141691 10.3744001,9.66115346 Z M13.9946169,12.0870719 C16.418758,13.124974 18.5692059,12.7570874 20.4459604,10.9834123 C21.5585061,9.93484682 22.1449919,8.63391475 22.2054177,7.08061607 C22.2551801,5.77612953 22.2587346,4.35612307 22.216081,2.82059669 C22.3511505,1.65828852 21.9246154,1.07713444 20.9364757,1.07713444 C18.5852009,1.08246613 15.1675884,0.639935953 13.1895318,2.15413558 C12.4288776,2.73706689 11.8317284,3.53326576 11.3980844,4.54273218 C10.1007068,7.58179482 10.9662176,10.0965747 13.9946169,12.0870719 Z" id="形状" fill="#2F3255" fill-rule="nonzero"></path>
                    <g id="路径" fill-rule="nonzero">
                        <use fill="#4EE7A3" xlink:href="#path-2"></use>
                        <use fill="url(#linearGradient-1)" xlink:href="#path-2"></use>
                    </g>
                    <path d="M8.32169994,18.5437471 C4.64283464,19.897996 1.20922703,23.4329057 1.09726156,27.591623 C1.06527143,28.9209908 1.05460805,30.316116 1.06527143,31.7769988 C1.06882589,32.0329198 0.942642586,32.1608804 0.686721522,32.1608804 L0.484117346,32.1555487 C0.222047018,32.1555487 0.00959703991,31.9454858 0.00959703991,31.68636 C-0.00106633777,30.5631509 -0.00284356738,29.4043972 0.00426535107,28.2100989 C0.0415871729,23.4222424 3.44320465,19.092911 7.93248665,17.568048 C9.33649804,17.088196 10.9822127,16.8749285 12.8696305,16.9282453 C14.8459098,16.9851167 16.8666199,16.9940028 18.9317607,16.9549038 C19.0466981,16.9520291 19.1579284,16.996257 19.2402366,17.0775614 C19.3225448,17.1588658 19.3689996,17.2703605 19.3689996,17.3867706 L19.3689996,17.6053698 C19.3719041,17.8044907 19.2135771,17.969907 19.0117361,17.978588 C17.184744,18.0567862 15.3470886,18.0674495 13.4987698,18.0105782 C11.2096981,17.9359345 9.4840081,18.1136575 8.32169994,18.5437471 Z" id="路径" fill="#2F3255" fill-rule="nonzero"></path>
                    <path d="M31.7651358,20.1165953 C31.4274621,19.6154165 30.9973726,19.3612727 30.4748671,19.3541638 C27.8481217,19.3292826 25.0063315,19.3239509 21.9494966,19.3381687 C19.8754696,19.3488321 20.2913414,21.5721463 20.2593512,22.862415 C20.2557968,23.1183361 20.1242818,23.2551828 19.8648063,23.2729551 L19.6728655,23.2836184 C19.3849543,23.3013907 19.2321125,23.1663213 19.2143402,22.8784101 C19.1023748,20.6924177 19.2463304,18.2611676 22.114779,18.2664905 C24.6633262,18.2736082 27.3042894,18.2753854 30.0376686,18.2718309 C32.8634637,18.2664905 33.3273206,20.5964473 33.0180826,22.8997368 C32.9902166,23.1128218 32.8030487,23.2672353 32.5915475,23.2516283 L32.3996067,23.2356332 C32.1330223,23.2178609 31.9997301,23.0756826 31.9997301,22.8090981 L31.9890667,20.8630317 C31.9889501,20.5985778 31.9111214,20.3391489 31.7651358,20.1165953 L31.7651358,20.1165953 Z" id="路径" fill="#2F3255" fill-rule="nonzero"></path>
                    <rect id="矩形" fill="#2F3255" fill-rule="nonzero" x="18.7291565" y="24.6005456" width="14.7794415" height="1.04501101" rx="0.522505506"></rect>
                    <path d="M21.5069664,31.0039039 C21.6450266,31.0428511 21.7865299,31.0643453 21.9281698,31.0678841 C24.707757,31.0714386 27.4873441,31.0714386 30.2669312,31.0678841 C32.4102701,31.0625525 32.0317202,28.5726538 31.9890667,27.2343999 C31.9819578,26.9535976 32.1188044,26.809642 32.3996067,26.8025331 L32.6555278,26.7972014 C32.8625715,26.7936782 33.0359669,26.9506713 33.0500728,27.1544245 C33.2153551,29.7189669 33.1033896,32.1395536 29.824401,32.1395536 C27.0590317,32.1431081 24.4767171,32.1324447 22.0774571,32.1075635 C19.1077065,32.080905 18.9477558,29.2764367 19.2676571,26.9358253 C19.2890359,26.7688966 19.4326167,26.6435483 19.6035535,26.6425824 L19.8541429,26.6425824 C20.1242818,26.6425824 20.2593512,26.7776519 20.2593512,27.0477908 C20.2540196,28.3593862 19.8274844,30.5293836 21.5069664,31.0039039 Z" id="路径" fill="#2F3255" fill-rule="nonzero"></path>
                </g>
            </g>
        </g>
    </g>
</svg>