<?xml version="1.0" encoding="UTF-8"?>
<svg width="139px" height="118px" viewBox="0 0 139 118" version="1.1" xmlns="http://www.w3.org/2000/svg" xmlns:xlink="http://www.w3.org/1999/xlink">
    <title>ic_rlql_rlq</title>
    <g id="页面-1" stroke="none" stroke-width="1" fill="none" fill-rule="evenodd">
        <g id="日历清理切图" transform="translate(-124.000000, -129.000000)" fill-rule="nonzero">
            <g id="ic_rlql_rlq-2" transform="translate(124.000000, 129.000000)">
                <g id="ic_rlql_rlq" transform="translate(0.500000, 0.000000)">
                    <g id="calendar_ani_frame04_Normal@2x" transform="translate(13.758093, 41.291426)">
                        <path d="M2.12840704,0.013490376 L7.71224038,0.013490376 C8.8775612,0.013490376 9.82224038,0.958169554 9.82224038,2.12349038 L9.82224038,7.71715704 C9.82224038,8.88247786 8.8775612,9.82715704 7.71224038,9.82715704 L2.12840704,9.82715704 C0.96308622,9.82715704 0.0184070426,8.88247786 0.0184070426,7.71715704 L0.0184070426,2.12349038 C0.0184070426,0.958169554 0.96308622,0.013490376 2.12840704,0.013490376 Z" id="矩形" fill-opacity="0.503156755" fill="#FFFFFF" transform="translate(4.920324, 4.920324) rotate(-0.100000) translate(-4.920324, -4.920324) "></path>
                        <path d="M18.890157,0.00857370929 L24.393657,0.00857370929 C25.5865921,0.00857370929 26.553657,0.97563865 26.553657,2.16857371 L26.553657,7.68190704 C26.553657,8.8748421 25.5865921,9.84190704 24.393657,9.84190704 L18.890157,9.84190704 C17.697222,9.84190704 16.730157,8.8748421 16.730157,7.68190704 L16.730157,2.16857371 C16.730157,0.97563865 17.697222,0.00857370929 18.890157,0.00857370929 Z" id="矩形" fill-opacity="0.503156755" fill="#FFFFFF" transform="translate(21.641907, 4.925240) rotate(-0.100000) translate(-21.641907, -4.925240) "></path>
                        <path d="M35.5968237,0.013490376 L41.1203237,0.013490376 C42.3077359,0.013490376 43.2703237,0.976078164 43.2703237,2.16349038 L43.2703237,7.68699038 C43.2703237,8.87440259 42.3077359,9.83699038 41.1203237,9.83699038 L35.5968237,9.83699038 C34.4094115,9.83699038 33.4468237,8.87440259 33.4468237,7.68699038 L33.4468237,2.16349038 C33.4468237,0.976078164 34.4094115,0.013490376 35.5968237,0.013490376 Z" id="矩形" fill-opacity="0.503156755" fill="#FFFFFF" transform="translate(38.358574, 4.925240) rotate(-0.100000) translate(-38.358574, -4.925240) "></path>
                        <path d="M52.2985737,0.00857370929 L57.851907,0.00857370929 C59.0337964,0.00857370929 59.991907,0.966684345 59.991907,2.14857371 L59.991907,7.70190704 C59.991907,8.88379641 59.0337964,9.84190704 57.851907,9.84190704 L52.2985737,9.84190704 C51.1166843,9.84190704 50.1585737,8.88379641 50.1585737,7.70190704 L50.1585737,2.14857371 C50.1585737,0.966684345 51.1166843,0.00857370929 52.2985737,0.00857370929 Z" id="矩形" fill-opacity="0.902" fill="#E6E6E6" transform="translate(55.075240, 4.925240) rotate(0.100000) translate(-55.075240, -4.925240) "></path>
                        <path d="M68.9850737,0.00857370929 L74.588907,0.00857370929 C75.748705,0.00857370929 76.688907,0.948775735 76.688907,2.10857371 L76.688907,7.72224038 C76.688907,8.88203835 75.748705,9.82224038 74.588907,9.82224038 L68.9850737,9.82224038 C67.8252757,9.82224038 66.8850737,8.88203835 66.8850737,7.72224038 L66.8850737,2.10857371 C66.8850737,0.948775735 67.8252757,0.00857370929 68.9850737,0.00857370929 Z" id="矩形" fill-opacity="0.503156755" fill="#FFFFFF" transform="translate(71.786990, 4.915407) rotate(-0.100000) translate(-71.786990, -4.915407) "></path>
                        <path d="M85.7568237,0.013490376 L91.2603237,0.013490376 C92.4532588,0.013490376 93.4203237,0.980555316 93.4203237,2.17349038 L93.4203237,7.67699038 C93.4203237,8.86992544 92.4532588,9.83699038 91.2603237,9.83699038 L85.7568237,9.83699038 C84.5638886,9.83699038 83.5968237,8.86992544 83.5968237,7.67699038 L83.5968237,2.17349038 C83.5968237,0.980555316 84.5638886,0.013490376 85.7568237,0.013490376 Z" id="矩形" fill-opacity="0.503156755" fill="#FFFFFF" transform="translate(88.508574, 4.925240) rotate(-0.100000) translate(-88.508574, -4.925240) "></path>
                        <path d="M102.48349,0.00857370929 L107.96699,0.00857370929 C109.165448,0.00857370929 110.13699,0.980115802 110.13699,2.17857371 L110.13699,7.67190704 C110.13699,8.87036495 109.165448,9.84190704 107.96699,9.84190704 L102.48349,9.84190704 C101.285032,9.84190704 100.31349,8.87036495 100.31349,7.67190704 L100.31349,2.17857371 C100.31349,0.980115802 101.285032,0.00857370929 102.48349,0.00857370929 Z" id="矩形" fill-opacity="0.503156755" fill="#FFFFFF" transform="translate(105.225240, 4.925240) rotate(-0.100000) translate(-105.225240, -4.925240) "></path>
                        <path d="M2.17349038,17.7134904 L7.67699038,17.7134904 C8.86992544,17.7134904 9.83699038,18.6805553 9.83699038,19.8734904 L9.83699038,25.3769904 C9.83699038,26.5699254 8.86992544,27.5369904 7.67699038,27.5369904 L2.17349038,27.5369904 C0.980555316,27.5369904 0.013490376,26.5699254 0.013490376,25.3769904 L0.013490376,19.8734904 C0.013490376,18.6805553 0.980555316,17.7134904 2.17349038,17.7134904 Z" id="矩形" fill-opacity="0.503156755" fill="#FFFFFF" transform="translate(4.925240, 22.625240) rotate(-0.100000) translate(-4.925240, -22.625240) "></path>
                        <path d="M18.880157,17.7134904 L24.403657,17.7134904 C25.5910693,17.7134904 26.553657,18.6760782 26.553657,19.8634904 L26.553657,25.3869904 C26.553657,26.5744026 25.5910693,27.5369904 24.403657,27.5369904 L18.880157,27.5369904 C17.6927448,27.5369904 16.730157,26.5744026 16.730157,25.3869904 L16.730157,19.8634904 C16.730157,18.6760782 17.6927448,17.7134904 18.880157,17.7134904 Z" id="矩形" fill-opacity="0.671907438" fill="#FFFFFF" transform="translate(21.641907, 22.625240) rotate(-0.100000) translate(-21.641907, -22.625240) "></path>
                        <path d="M35.581907,17.7085737 L41.1352404,17.7085737 C42.3171297,17.7085737 43.2752404,18.6666843 43.2752404,19.8485737 L43.2752404,25.401907 C43.2752404,26.5837964 42.3171297,27.541907 41.1352404,27.541907 L35.581907,27.541907 C34.4000177,27.541907 33.441907,26.5837964 33.441907,25.401907 L33.441907,19.8485737 C33.441907,18.6666843 34.4000177,17.7085737 35.581907,17.7085737 Z" id="矩形" fill-opacity="0.902" fill="#E6E6E6" transform="translate(38.358574, 22.625240) rotate(0.100000) translate(-38.358574, -22.625240) "></path>
                        <path d="M52.3334904,17.7085737 L57.8169904,17.7085737 C59.0154483,17.7085737 59.9869904,18.6801158 59.9869904,19.8785737 L59.9869904,25.371907 C59.9869904,26.5703649 59.0154483,27.541907 57.8169904,27.541907 L52.3334904,27.541907 C51.1350325,27.541907 50.1634904,26.5703649 50.1634904,25.371907 L50.1634904,19.8785737 C50.1634904,18.6801158 51.1350325,17.7085737 52.3334904,17.7085737 Z" id="矩形" fill-opacity="0.503156755" fill="#FFFFFF" transform="translate(55.075240, 22.625240) rotate(-0.100000) translate(-55.075240, -22.625240) "></path>
                        <path d="M69.0352404,17.7134904 L74.5387404,17.7134904 C75.7316754,17.7134904 76.6987404,18.6805553 76.6987404,19.8734904 L76.6987404,25.3769904 C76.6987404,26.5699254 75.7316754,27.5369904 74.5387404,27.5369904 L69.0352404,27.5369904 C67.8423053,27.5369904 66.8752404,26.5699254 66.8752404,25.3769904 L66.8752404,19.8734904 C66.8752404,18.6805553 67.8423053,17.7134904 69.0352404,17.7134904 Z" id="矩形" fill-opacity="0.503156755" fill="#FFFFFF" transform="translate(71.786990, 22.625240) rotate(-0.100000) translate(-71.786990, -22.625240) "></path>
                        <path d="M85.7668237,17.7085737 L91.2503237,17.7085737 C92.4487816,17.7085737 93.4203237,18.6801158 93.4203237,19.8785737 L93.4203237,25.371907 C93.4203237,26.5703649 92.4487816,27.541907 91.2503237,27.541907 L85.7668237,27.541907 C84.5683658,27.541907 83.5968237,26.5703649 83.5968237,25.371907 L83.5968237,19.8785737 C83.5968237,18.6801158 84.5683658,17.7085737 85.7668237,17.7085737 Z" id="矩形" fill-opacity="0.503156755" fill="#FFFFFF" transform="translate(88.508574, 22.625240) rotate(-0.100000) translate(-88.508574, -22.625240) "></path>
                        <path d="M102.48349,17.7085737 L107.96699,17.7085737 C109.165448,17.7085737 110.13699,18.6801158 110.13699,19.8785737 L110.13699,25.371907 C110.13699,26.5703649 109.165448,27.541907 107.96699,27.541907 L102.48349,27.541907 C101.285032,27.541907 100.31349,26.5703649 100.31349,25.371907 L100.31349,19.8785737 C100.31349,18.6801158 101.285032,17.7085737 102.48349,17.7085737 Z" id="矩形" fill-opacity="0.503156755" fill="#FFFFFF" transform="translate(105.225240, 22.625240) rotate(-0.100000) translate(-105.225240, -22.625240) "></path>
                        <path d="M2.16349038,35.4134904 L7.68699038,35.4134904 C8.87440259,35.4134904 9.83699038,36.3760782 9.83699038,37.5634904 L9.83699038,43.0869904 C9.83699038,44.2744026 8.87440259,45.2369904 7.68699038,45.2369904 L2.16349038,45.2369904 C0.976078164,45.2369904 0.013490376,44.2744026 0.013490376,43.0869904 L0.013490376,37.5634904 C0.013490376,36.3760782 0.976078164,35.4134904 2.16349038,35.4134904 Z" id="矩形" fill-opacity="0.671907438" fill="#FFFFFF" transform="translate(4.925240, 40.325240) rotate(-0.100000) translate(-4.925240, -40.325240) "></path>
                        <rect id="矩形" fill-opacity="0.902" fill="#E6E6E6" transform="translate(21.641907, 40.325240) rotate(0.100000) translate(-21.641907, -40.325240) " x="16.7252404" y="35.4085737" width="9.83333333" height="9.83333333" rx="2.15"></rect>
                        <path d="M35.6168237,35.4134904 L41.1003237,35.4134904 C42.2987816,35.4134904 43.2703237,36.3850325 43.2703237,37.5834904 L43.2703237,43.0669904 C43.2703237,44.2654483 42.2987816,45.2369904 41.1003237,45.2369904 L35.6168237,45.2369904 C34.4183658,45.2369904 33.4468237,44.2654483 33.4468237,43.0669904 L33.4468237,37.5834904 C33.4468237,36.3850325 34.4183658,35.4134904 35.6168237,35.4134904 Z" id="矩形" fill-opacity="0.503156755" fill="#FFFFFF" transform="translate(38.358574, 40.325240) rotate(-0.100000) translate(-38.358574, -40.325240) "></path>
                        <path d="M52.3234904,35.4134904 L57.8269904,35.4134904 C59.0199254,35.4134904 59.9869904,36.3805553 59.9869904,37.5734904 L59.9869904,43.0769904 C59.9869904,44.2699254 59.0199254,45.2369904 57.8269904,45.2369904 L52.3234904,45.2369904 C51.1305553,45.2369904 50.1634904,44.2699254 50.1634904,43.0769904 L50.1634904,37.5734904 C50.1634904,36.3805553 51.1305553,35.4134904 52.3234904,35.4134904 Z" id="矩形" fill-opacity="0.503156755" fill="#FFFFFF" transform="translate(55.075240, 40.325240) rotate(-0.100000) translate(-55.075240, -40.325240) "></path>
                        <path d="M68.990157,35.4085737 L74.5838237,35.4085737 C75.7491445,35.4085737 76.6938237,36.3532529 76.6938237,37.5185737 L76.6938237,43.1122404 C76.6938237,44.2775612 75.7491445,45.2222404 74.5838237,45.2222404 L68.990157,45.2222404 C67.8248362,45.2222404 66.880157,44.2775612 66.880157,43.1122404 L66.880157,37.5185737 C66.880157,36.3532529 67.8248362,35.4085737 68.990157,35.4085737 Z" id="矩形" fill-opacity="0.503156755" fill="#FFFFFF" transform="translate(71.786990, 40.315407) rotate(-0.100000) translate(-71.786990, -40.315407) "></path>
                        <path d="M85.7568237,35.4134904 L91.2603237,35.4134904 C92.4532588,35.4134904 93.4203237,36.3805553 93.4203237,37.5734904 L93.4203237,43.0769904 C93.4203237,44.2699254 92.4532588,45.2369904 91.2603237,45.2369904 L85.7568237,45.2369904 C84.5638886,45.2369904 83.5968237,44.2699254 83.5968237,43.0769904 L83.5968237,37.5734904 C83.5968237,36.3805553 84.5638886,35.4134904 85.7568237,35.4134904 Z" id="矩形" fill-opacity="0.503156755" fill="#FFFFFF" transform="translate(88.508574, 40.325240) rotate(-0.100000) translate(-88.508574, -40.325240) "></path>
                        <path d="M102.48349,35.4085737 L107.96699,35.4085737 C109.165448,35.4085737 110.13699,36.3801158 110.13699,37.5785737 L110.13699,43.071907 C110.13699,44.2703649 109.165448,45.241907 107.96699,45.241907 L102.48349,45.241907 C101.285032,45.241907 100.31349,44.2703649 100.31349,43.071907 L100.31349,37.5785737 C100.31349,36.3801158 101.285032,35.4085737 102.48349,35.4085737 Z" id="矩形" fill-opacity="0.503156755" fill="#FFFFFF" transform="translate(105.225240, 40.325240) rotate(-0.100000) translate(-105.225240, -40.325240) "></path>
                        <path d="M2.14857371,53.1085737 L7.70190704,53.1085737 C8.88379641,53.1085737 9.84190704,54.0666843 9.84190704,55.2485737 L9.84190704,60.801907 C9.84190704,61.9837964 8.88379641,62.941907 7.70190704,62.941907 L2.14857371,62.941907 C0.966684345,62.941907 0.00857370929,61.9837964 0.00857370929,60.801907 L0.00857370929,55.2485737 C0.00857370929,54.0666843 0.966684345,53.1085737 2.14857371,53.1085737 Z" id="矩形" fill-opacity="0.902" fill="#E6E6E6" transform="translate(4.925240, 58.025240) rotate(0.100000) translate(-4.925240, -58.025240) "></path>
                        <path d="M18.890157,53.1085737 L24.393657,53.1085737 C25.5865921,53.1085737 26.553657,54.0756386 26.553657,55.2685737 L26.553657,60.781907 C26.553657,61.9748421 25.5865921,62.941907 24.393657,62.941907 L18.890157,62.941907 C17.697222,62.941907 16.730157,61.9748421 16.730157,60.781907 L16.730157,55.2685737 C16.730157,54.0756386 17.697222,53.1085737 18.890157,53.1085737 Z" id="矩形" fill-opacity="0.503156755" fill="#FFFFFF" transform="translate(21.641907, 58.025240) rotate(-0.100000) translate(-21.641907, -58.025240) "></path>
                        <path d="M35.6168237,53.1085737 L41.1003237,53.1085737 C42.2987816,53.1085737 43.2703237,54.0801158 43.2703237,55.2785737 L43.2703237,60.771907 C43.2703237,61.9703649 42.2987816,62.941907 41.1003237,62.941907 L35.6168237,62.941907 C34.4183658,62.941907 33.4468237,61.9703649 33.4468237,60.771907 L33.4468237,55.2785737 C33.4468237,54.0801158 34.4183658,53.1085737 35.6168237,53.1085737 Z" id="矩形" fill-opacity="0.503156755" fill="#FFFFFF" transform="translate(38.358574, 58.025240) rotate(-0.100000) translate(-38.358574, -58.025240) "></path>
                        <path d="M52.3334904,53.1085737 L57.8169904,53.1085737 C59.0154483,53.1085737 59.9869904,54.0801158 59.9869904,55.2785737 L59.9869904,60.771907 C59.9869904,61.9703649 59.0154483,62.941907 57.8169904,62.941907 L52.3334904,62.941907 C51.1350325,62.941907 50.1634904,61.9703649 50.1634904,60.771907 L50.1634904,55.2785737 C50.1634904,54.0801158 51.1350325,53.1085737 52.3334904,53.1085737 Z" id="矩形" fill-opacity="0.503156755" fill="#FFFFFF" transform="translate(55.075240, 58.025240) rotate(-0.100000) translate(-55.075240, -58.025240) "></path>
                        <path d="M69.050157,53.1134904 L74.533657,53.1134904 C75.7321149,53.1134904 76.703657,54.0850325 76.703657,55.2834904 L76.703657,60.7669904 C76.703657,61.9654483 75.7321149,62.9369904 74.533657,62.9369904 L69.050157,62.9369904 C67.8516991,62.9369904 66.880157,61.9654483 66.880157,60.7669904 L66.880157,55.2834904 C66.880157,54.0850325 67.8516991,53.1134904 69.050157,53.1134904 Z" id="矩形" fill-opacity="0.503156755" fill="#FFFFFF" transform="translate(71.791907, 58.025240) rotate(-0.100000) translate(-71.791907, -58.025240) "></path>
                        <path d="M85.7568237,53.1085737 L91.2603237,53.1085737 C92.4532588,53.1085737 93.4203237,54.0756386 93.4203237,55.2685737 L93.4203237,60.781907 C93.4203237,61.9748421 92.4532588,62.941907 91.2603237,62.941907 L85.7568237,62.941907 C84.5638886,62.941907 83.5968237,61.9748421 83.5968237,60.781907 L83.5968237,55.2685737 C83.5968237,54.0756386 84.5638886,53.1085737 85.7568237,53.1085737 Z" id="矩形" fill-opacity="0.503156755" fill="#FFFFFF" transform="translate(88.508574, 58.025240) rotate(-0.100000) translate(-88.508574, -58.025240) "></path>
                        <rect id="矩形" fill-opacity="0.503156755" fill="#FFFFFF" transform="translate(105.225240, 58.025240) rotate(-0.100000) translate(-105.225240, -58.025240) " x="100.31349" y="53.1085737" width="9.8235" height="9.83333333" rx="2.17"></rect>
                    </g>
                    <g id="calendar_ani_border_Normal@2x" fill="#FFFFFF" fill-opacity="0.660472096">
                        <path d="M30.2965,0 L34.7805,0 C35.8293889,0.396611111 36.3571111,1.25702778 36.3636667,2.58125 C36.3735,4.87897222 36.38825,7.17177778 36.4079167,9.45966667 C36.4275833,12.5768333 32.78925,11.7606667 30.90125,11.7803333 C29.3574167,11.7967222 28.5756667,11.1083889 28.556,9.71533333 C28.5232222,7.316 28.5150278,4.98058333 28.5314167,2.70908333 C28.5445278,1.19147222 29.1328889,0.288444444 30.2965,0 Z" id="路径"></path>
                        <path d="M103.063167,0 L107.547167,0 C108.592778,0.393333333 109.1205,1.25375 109.130333,2.58125 C109.143444,4.87569444 109.156556,7.1685 109.169725,9.45966667 C109.1795,11.2591667 107.9405,11.8885 106.342583,11.8344167 C104.5185,11.7655833 101.411167,12.43425 101.34725,9.71533333 C101.294806,7.59788889 101.278417,5.26247222 101.298083,2.70908333 C101.311194,1.19147222 101.899556,0.288444444 103.063167,0 Z" id="路径"></path>
                        <path d="M137.666667,8.39275 L137.666667,21.6284167 L0,21.6284167 L0,8.23541667 C0.426111111,7.34713889 1.3275,6.89972222 2.70416667,6.89316667 C9.57111111,6.8735 16.4429722,6.87513889 23.31975,6.89808333 C23.5065833,6.89808333 23.5983611,6.9915 23.5950833,7.17833333 C23.5885278,9.06961111 23.5803333,11.0985556 23.5705,13.2651667 C23.5655833,14.9909167 24.9225833,16.0283333 26.5844167,16.0529167 C30.4816944,16.1086389 34.4068333,16.1086389 38.3598333,16.0529167 C39.8545,16.0283333 41.3196667,15.0400833 41.3098333,13.4716667 C41.2967222,11.0526667 41.2934444,8.94177778 41.3,7.139 C41.3,6.96855556 41.3852222,6.88333333 41.5556667,6.88333333 L96.1060833,6.88333333 C96.2863611,6.88333333 96.3748611,6.97183333 96.3715833,7.14883333 C96.3584722,9.05977778 96.3551944,11.1821389 96.36175,13.5159167 C96.36175,15.17775 97.9793333,16.0529167 99.5379167,16.0676667 C105.175694,16.1201111 109.145083,16.1037222 111.446083,16.0185 C112.930917,15.9644167 114.106,14.7844167 114.09125,13.2455 C114.068306,11.1018333 114.060111,9.07452778 114.066667,7.16358333 C114.066667,6.98330556 114.155167,6.89316667 114.332167,6.89316667 C121.218778,6.87677778 128.175861,6.87677778 135.203417,6.89316667 C136.504694,6.89644444 137.325778,7.39630556 137.666667,8.39275 Z" id="路径"></path>
                        <path d="M0,27.5333333 L137.666667,27.53825 L137.666667,114.553417 C137.217611,116.45125 136.050722,117.600111 134.166,118 L3.32366667,118 C1.54055556,117.518167 0.432666667,116.390611 0,114.617333 L0,27.5333333 Z M131.771583,33.5759167 C131.771583,33.4971701 131.707747,33.4333333 131.629,33.4333333 L6.02783333,33.4333333 C5.94908673,33.4333333 5.88525,33.4971701 5.88525,33.5759167 L5.88525,111.957417 C5.88525,112.036163 5.94908673,112.1 6.02783333,112.1 L131.629,112.1 C131.707747,112.1 131.771583,112.036163 131.771583,111.957417 L131.771583,33.5759167 Z" id="形状"></path>
                    </g>
                </g>
            </g>
        </g>
    </g>
</svg>