<?xml version="1.0" encoding="UTF-8"?>
<svg width="33px" height="33px" viewBox="0 0 33 33" version="1.1" xmlns="http://www.w3.org/2000/svg" xmlns:xlink="http://www.w3.org/1999/xlink">
    <title>ic_sjss_lpzp</title>
    <defs>
        <linearGradient x1="50%" y1="0%" x2="50%" y2="100%" id="linearGradient-1">
            <stop stop-color="#256CFA" offset="0%"></stop>
            <stop stop-color="#5F94FF" offset="100%"></stop>
        </linearGradient>
    </defs>
    <g id="页面-1" stroke="none" stroke-width="1" fill="none" fill-rule="evenodd">
        <g id="手机瘦身切图" transform="translate(-681.000000, -73.000000)" fill-rule="nonzero">
            <g id="ic_sjss_lpzp备份" transform="translate(681.610435, 73.496223)">
                <g id="ic_sjss_lpzp" transform="translate(6.195694, 7.725758)">
                    <path d="M15.6086112,1.54848414 C17.8177502,1.54848414 19.6086112,3.33934514 19.6086112,5.54848414 L19.6086112,12.5484841 C19.6086112,14.7576231 17.8177502,16.5484841 15.6086112,16.5484841 L5.60861124,16.5484841 C3.39947224,16.5484841 1.60861124,14.7576231 1.60861124,12.5484841 L1.60861124,5.54848414 C1.60861124,3.33934514 3.39947224,1.54848414 5.60861124,1.54848414 L15.6086112,1.54848414 Z M15.6086112,2.54848414 L5.60861124,2.54848414 C4.01093036,2.54848414 2.70495036,3.7974041 2.61370393,5.37221135 L2.60861124,5.54848414 L2.60861124,12.5484841 C2.60861124,14.146165 3.8575312,15.452145 5.43233845,15.5433914 L5.60861124,15.5484841 L15.6086112,15.5484841 C17.2062921,15.5484841 18.5122721,14.2995642 18.6035185,12.7247569 L18.6086112,12.5484841 L18.6086112,5.54848414 C18.6086112,3.95080326 17.3596913,2.64482326 15.784884,2.55357683 L15.6086112,2.54848414 Z" id="矩形备份-26" fill="#0C273D"></path>
                    <path d="M10.6086112,-0.5 C10.8847536,-0.5 11.1086112,-0.276142375 11.1086112,0 C11.1086112,0.245459889 10.9317361,0.44960837 10.6984869,0.491944331 L10.6086112,0.5 L3.64294947,0.5 C1.96700169,0.5 0.597435373,1.81177501 0.504975327,3.46460024 L0.5,3.64294947 L0.5,9.04848414 C0.5,9.67811377 -0.391975309,9.71309319 -0.491083676,9.15342241 L-0.5,9.04848414 L-0.5,3.64294947 C-0.5,1.42419765 1.24414907,-0.387186322 3.43617451,-0.494929747 L3.64294947,-0.5 L10.6086112,-0.5 Z" id="路径" fill="url(#linearGradient-1)"></path>
                </g>
            </g>
        </g>
    </g>
</svg>