<?xml version="1.0" encoding="UTF-8"?>
<svg width="43px" height="43px" viewBox="0 0 43 43" version="1.1" xmlns="http://www.w3.org/2000/svg" xmlns:xlink="http://www.w3.org/1999/xlink">
    <title>ic_rlql_gqrl</title>
    <g id="页面-1" stroke="none" stroke-width="1" fill="none" fill-rule="evenodd">
        <g id="日历清理切图" transform="translate(-474.000000, -107.000000)" fill-rule="nonzero">
            <g id="ic_rlql_gqrl-2" transform="translate(474.888361, 107.497742)">
                <g id="ic_rlql_gqrl" transform="translate(1.000000, 1.000000)">
                    <path d="M19.3575758,0 L20.6787879,0 C26.7616162,0.351515152 31.6787879,2.78282828 35.430303,7.29393939 C38.2343434,10.6656566 39.7575758,14.6636364 40,19.2878788 L40,20.7515152 C39.6262626,26.8060606 37.1949495,31.7 32.7060606,35.4333333 C29.3121212,38.2535354 25.289899,39.7757576 20.6393939,40 L19.2484848,40 C12.5575758,39.5575758 7.33838384,36.6939394 3.59090909,31.4090909 C1.38484848,28.2959596 0.187878788,24.7050505 0,20.6363636 L0,19.2484848 C0.246464646,14.7151515 1.72323232,10.7858586 4.43030303,7.46060606 C8.1979798,2.83636364 13.1737374,0.349494949 19.3575758,0 Z M39.5424242,20 C39.5424242,9.20701712 30.7929829,0.457575758 20,0.457575758 C9.20701712,0.457575758 0.457575758,9.20701712 0.457575758,20 C0.457575758,30.7929829 9.20701712,39.5424242 20,39.5424242 C25.1829732,39.5424242 30.1536652,37.4834962 33.8185807,33.8185807 C37.4834962,30.1536652 39.5424242,25.1829732 39.5424242,20 Z" id="形状" fill="#CFD6DC"></path>
                    <path d="M16.9878788,20.6666667 C17.2828351,20.2711593 17.2828351,19.7288407 16.9878788,19.3333333 C15.589899,17.4666667 14.1454545,15.5555556 12.6545455,13.6 C11.4666667,12.0424242 12.8909091,10.4424242 14.5454545,10.4484468 C18.2060606,10.4585859 21.8151515,10.4585859 25.3727273,10.4484468 C26.6272727,10.4424242 27.6121212,11.1606061 27.7272727,12.4484848 C27.7616162,12.8363636 27.6585859,13.1878788 27.4181818,13.5030303 C25.8242424,15.5959596 24.3626263,17.5262626 23.0333333,19.2939394 C22.719578,19.7119266 22.7208137,20.2877998 23.0363636,20.7060606 C24.6020202,22.7828283 26.0505051,24.6989899 27.3818182,26.4545455 C28.4939394,27.9181818 27.1272727,29.5454545 25.5575758,29.5424242 C22.2565657,29.5323232 18.7787879,29.540404 15.1242424,29.5668366 C13.6545455,29.5757576 12.4333333,29.2242424 12.2757576,27.5121212 C12.2434343,27.1505051 12.3343434,26.8282828 12.5484848,26.5454545 C14.1626263,24.420202 15.6424242,22.4606061 16.9878788,20.6666667 Z M22.1363636,21.7787879 C21.3454545,20.7515152 21.1969697,19.4969697 22.0030303,18.4242424 C23.4474747,16.4989899 24.8484848,14.6464646 26.2060606,12.8666667 C26.3538108,12.6711169 26.3786905,12.4089753 26.2703661,12.1891217 C26.1620417,11.969268 25.9390227,11.829269 25.6939394,11.8272727 C22.0393939,11.8131313 18.3020202,11.8121212 14.4818182,11.8242424 C14.1424242,11.8242424 13.7242424,11.930303 13.6121212,12.3 C13.5701891,12.4390922 13.5972621,12.5891216 13.6848485,12.7030303 C15.1717172,14.6727273 16.6171717,16.5909091 18.0212121,18.4575758 C18.9,19.6272727 18.5727273,20.9030303 17.6969697,22.0181818 C16.2646465,23.840404 14.9040404,25.6424242 13.6151515,27.4242424 C13.5811856,27.4705115 13.5849799,27.5350144 13.6242424,27.5787879 L13.6939394,27.6515152 C13.7282828,27.689899 13.7636364,27.6919192 13.8,27.6575758 C15.0808081,26.469697 16.4494949,25.2151515 17.9060606,23.8939394 C19.0393939,22.8666667 20.1727273,22.2363636 21.4272727,23.3606061 C23.059596,24.8232323 24.6646465,26.2707071 26.2424242,27.7030303 C26.2747475,27.7333333 26.3070707,27.7333333 26.3393939,27.7030303 L26.4030303,27.6424242 C26.4580117,27.5944316 26.4659412,27.5111724 26.4212121,27.4515152 C24.9949495,25.5282828 23.5666667,23.6373737 22.1363636,21.7787879 Z" id="形状" fill="#768491"></path>
                </g>
            </g>
        </g>
    </g>
</svg>