<?xml version="1.0" encoding="UTF-8"?>
<svg width="115px" height="89px" viewBox="0 0 115 89" version="1.1" xmlns="http://www.w3.org/2000/svg" xmlns:xlink="http://www.w3.org/1999/xlink">
    <title>ic_rlql_wfxzprl</title>
    <g id="页面-1" stroke="none" stroke-width="1" fill="none" fill-rule="evenodd">
        <g id="日历清理切图" transform="translate(-173.000000, -288.000000)" fill="#FFFFFF" fill-rule="nonzero">
            <g id="ic_rlql_wfxzprl-2" transform="translate(173.888361, 288.907932)">
                <g id="ic_rlql_wfxzprl" transform="translate(0.611639, 3.145533)">
                    <path d="M91.7968581,4.65334686 L93.3438485,0.105195341 C93.3912895,-0.0350651137 93.4387305,-0.0350651137 93.4861716,0.105195341 L95.0331619,4.66881676 C95.0724727,4.78097398 95.1592947,4.8711787 95.2713984,4.91633521 L99.2131297,6.45713756 C99.324513,6.50251595 99.324513,6.546863 99.2131297,6.59017873 L95.1940489,8.16501487 C95.1308594,8.19085381 95.0814097,8.24255114 95.0579137,8.30733798 L93.4737956,12.9823427 C93.4346052,13.0957887 93.3954148,13.0957887 93.3562244,12.9823427 L91.7937642,8.38159351 C91.7525111,8.26402225 91.6741302,8.18254743 91.5586216,8.13716904 L87.6168903,6.59017873 C87.5034444,6.54480035 87.5034444,6.49942197 87.6168903,6.45404358 L91.5400578,4.92252317 C91.6615428,4.87562324 91.7557239,4.77690334 91.7968581,4.65334686 L91.7968581,4.65334686 Z" id="路径"></path>
                    <path d="M109.896645,25.8409262 L108.823034,29.0431961 C108.80863,29.0820012 108.771606,29.1077504 108.730214,29.1077504 C108.688822,29.1077504 108.651799,29.0820012 108.637395,29.0431961 L107.566877,25.8502081 C107.556857,25.8229366 107.535363,25.801443 107.508092,25.7914225 L104.751355,24.7178112 C104.71255,24.7034074 104.686801,24.6663839 104.686801,24.6249918 C104.686801,24.5835997 104.71255,24.5465762 104.751355,24.5321724 L107.508092,23.4616551 C107.535363,23.4516345 107.556857,23.4301409 107.566877,23.4028694 L108.634301,20.2067875 C108.648705,20.1679824 108.685728,20.1422332 108.72712,20.1422332 C108.768512,20.1422332 108.805536,20.1679824 108.81994,20.2067875 L109.896645,23.4028694 C109.906665,23.4301409 109.928159,23.4516345 109.95543,23.4616551 L112.712167,24.5321724 C112.750972,24.5465762 112.776721,24.5835997 112.776721,24.6249918 C112.776721,24.6663839 112.750972,24.7034074 112.712167,24.7178112 L109.95543,25.7821405 C109.928159,25.7921611 109.906665,25.8136547 109.896645,25.8409262 Z" id="路径"></path>
                    <rect id="矩形" x="36.7951646" y="21.3763121" width="4.64097094" height="6.49735931" rx="1.6"></rect>
                    <rect id="矩形" x="73.9229321" y="21.3763121" width="4.64097094" height="6.49735931" rx="1.6"></rect>
                    <path d="M69.5418555,31.3265538 C69.6429255,31.4647516 69.8656922,31.5348819 70.2101553,31.5369445 C74.417969,31.5740723 78.4401438,31.5895422 82.2766798,31.5833542 C82.7893073,31.5833542 83.204874,31.1677875 83.204874,30.65516 L83.20178,24.4671988 C83.2017275,24.3687415 83.2417806,24.274445 83.3128515,24.2057043 C83.3839224,24.1369636 83.4799857,24.0996065 83.5792456,24.101991 C84.7467076,24.1351115 86.0142084,24.1495501 87.3817478,24.1454248 C88.7338173,24.1423308 89.7053272,24.7858788 89.7053272,26.2369557 C89.7012019,29.4897607 89.7012019,32.7415343 89.7053272,35.9922766 C89.7053272,36.1511009 89.6259151,36.2305131 89.4670907,36.2305131 L24.8895271,36.2305131 C24.8040892,36.2305131 24.7348281,36.161252 24.7348281,36.0758141 C24.7348281,33.0168986 24.7286401,29.7723442 24.7162293,26.342151 C24.7100763,24.9807996 25.5268871,24.1361429 26.9037085,24.1485188 C28.6239617,24.1629574 30.290586,24.1670827 31.9035812,24.1608947 C32.0419906,24.1608947 32.1541936,24.2730977 32.1541936,24.4115071 L32.1541936,30.6984758 C32.1541936,31.1888894 32.5531377,31.5864482 33.0452601,31.5864482 L45.1489123,31.5864482 C45.6615398,31.5864482 46.0771065,31.1708815 46.0771065,30.658254 L46.0771065,24.5043265 C46.0771065,24.269184 46.1946777,24.1516128 46.4298202,24.1516128 L68.988033,24.1639887 C69.150365,24.1639887 69.2819611,24.2955848 69.2819611,24.4579168 C69.2819611,26.3803101 69.2819611,28.4192434 69.2819611,30.5747165 C69.2819611,30.8469868 69.3685926,31.0975993 69.5418555,31.3265538 Z" id="路径"></path>
                    <path d="M87.7282736,81.7089343 L26.665472,81.7089343 C25.3742508,81.3335313 24.7286401,80.4569035 24.7286401,79.0790508 C24.7286401,66.1400238 24.7286401,53.1659317 24.7286401,40.1567745 C24.7286401,40.0103261 24.8018644,39.9371019 24.9483128,39.9371019 L89.4763727,39.9371019 C89.601112,39.9371019 89.7022333,40.0382231 89.7022333,40.1629625 C89.7001706,53.1143654 89.7001706,66.0863948 89.7022333,79.0790508 C89.7022333,80.4672168 89.0442467,81.3438446 87.7282736,81.7089343 Z M55.2878868,65.3294009 L45.3716789,56.1619363 C44.8188877,55.6524608 44.2774411,55.6627741 43.747339,56.1928761 L42.0920594,57.8481557 C41.7306194,58.2124569 41.732003,58.8005012 42.0951534,59.1630975 L54.7371582,71.7586926 C54.9179358,71.9390437 55.1635328,72.0392956 55.4188789,72.0370086 C55.674225,72.0346424 55.9179544,71.9299319 56.0954157,71.7463167 L74.1890144,53.00917 C74.5590926,52.6264552 74.5535825,52.0175851 74.1766385,51.6416306 L72.4068816,49.8749677 C72.0388353,49.5091893 71.4445162,49.5091893 71.0764699,49.8749677 L55.5539691,65.3263069 C55.4673376,65.4108757 55.3786435,65.411907 55.2878868,65.3294009 Z" id="形状"></path>
                    <path d="M9.0545343,54.1756007 L7.16101816,59.7385779 C7.11563977,59.874713 7.06923006,59.874713 7.02178903,59.7385779 L5.13136687,54.1756007 C5.09630175,54.0704054 5.02720285,53.9982125 4.92407016,53.9590221 L0.0572386416,52.05313 C-0.0190795472,52.0221902 -0.0190795472,51.9912504 0.0572386416,51.9603106 L4.92407016,50.0544185 C5.02720285,50.0131655 5.09630175,49.9409726 5.13136687,49.8378399 L7.01869505,44.2717688 C7.06819874,44.1315083 7.1166711,44.1315083 7.16411214,44.2717688 L9.06691022,49.8780617 C9.0903947,49.9506081 9.14589967,50.0095113 9.21851527,50.0389486 L14.1286625,51.9634046 C14.2049807,51.9922817 14.2049807,52.0211589 14.1286625,52.050036 L9.261831,53.9559281 C9.15869831,53.9971812 9.08959941,54.0704054 9.0545343,54.1756007 Z" id="路径"></path>
                </g>
            </g>
        </g>
    </g>
</svg>