<?xml version="1.0" encoding="UTF-8"?>
<svg width="43px" height="42px" viewBox="0 0 43 42" version="1.1" xmlns="http://www.w3.org/2000/svg" xmlns:xlink="http://www.w3.org/1999/xlink">
    <title>ic_rlql_ywcsq</title>
    <g id="页面-1" stroke="none" stroke-width="1" fill="none" fill-rule="evenodd">
        <g id="日历清理切图" transform="translate(-474.000000, -215.000000)">
            <g id="ic_rlql_ywcsq-2" transform="translate(474.888361, 215.000000)">
                <g id="ic_rlql_ywcsq" transform="translate(1.000000, 1.000000)">
                    <path d="M19.3575758,0 L20.7575758,0 C27.6020202,0.464646465 32.8929293,3.43131313 36.630303,8.9 C38.6767677,11.8979798 39.8,15.359596 40,19.2848485 L40,20.7515152 C39.6323232,26.7575758 37.2272727,31.6272727 32.7848485,35.3606061 C29.3707071,38.2292929 25.3212121,39.7757576 20.6363636,40 L19.2424242,40 C12.4161616,39.5393939 7.13333333,36.5848485 3.39393939,31.1363636 C1.33333333,28.1323232 0.202020202,24.6575758 0,20.7121212 L0,19.2484848 C0.250505051,14.640404 1.77373737,10.6555556 4.56969697,7.29393939 C8.33131313,2.77070707 13.2606061,0.339393939 19.3575758,0 Z M39.5424242,20 C39.5424242,9.20701712 30.7929829,0.457575758 20,0.457575758 C9.20701712,0.457575758 0.457575758,9.20701712 0.457575758,20 C0.457575758,30.7929829 9.20701712,39.5424242 20,39.5424242 C25.1829732,39.5424242 30.1536652,37.4834962 33.8185807,33.8185807 C37.4834962,30.1536652 39.5424242,25.1829732 39.5424242,20 Z" id="形状" fill="#CFD6DC" fill-rule="nonzero"></path>
                    <path d="M11.130303,12.9 C11.1241537,11.3969697 12.1848485,10.2363636 13.7060606,10.2333333 C17.6838384,10.2252525 21.8040404,10.2242424 26.0666667,10.230303 C27.9454545,10.2333333 28.8787879,11.3666667 28.8728991,13.1030303 C28.8606061,16.3353535 28.8575758,17.2242424 28.8636364,19.769697 C28.8636594,19.9961004 28.7555685,20.2089043 28.5727273,20.3424242 C28.3727273,20.4858586 28.1909091,20.5292929 28.0272727,20.4727273 C27.6757576,20.3515152 27.5,20.1050505 27.5,19.7333333 L27.5,12.7272727 C27.5,12.0996764 26.9912327,11.5909091 26.3636364,11.5909091 L13.6363636,11.5909091 C13.0087673,11.5909091 12.5,12.0996764 12.5,12.7272727 L12.5,27.2363636 C12.5,27.5473902 12.6238741,27.845678 12.8443714,28.065607 C13.0648687,28.2855361 13.3639273,28.4090909 13.6757576,28.4090909 L19.6606061,28.4090909 C20.0787879,28.4090909 20.3505051,28.6090909 20.4757576,29.0090909 C20.5020202,29.0939394 20.5,29.1767677 20.469697,29.2575758 C20.3444444,29.5969697 20.1010101,29.7666667 19.7393939,29.7666667 C14.5292929,29.7909091 13.9050505,29.8030303 13.8666667,29.8030303 C11.8030303,29.7242424 11.1151515,28.4424242 11.1241537,26.5545455 C11.1424242,21.9080808 11.1444444,17.3565657 11.130303,12.9 Z" id="路径" fill="#768491" fill-rule="nonzero"></path>
                    <circle id="椭圆形" fill="#768491" cx="25.2909091" cy="26.004663" r="5"></circle>
                    <path d="M25.0147758,27.016062 L28.4571215,23.5737162 C28.5746991,23.4557591 28.7487063,23.413269 28.9084047,23.4635192 C29.1707786,23.5474788 29.3325758,23.7180219 29.3937964,23.9751483 C29.4311729,24.1269166 29.3863798,24.2871763 29.2757282,24.3975703 L25.2797734,28.3961488 C25.1709826,28.5052597 25.0232383,28.5665846 24.8691583,28.5665846 C24.7150782,28.5665846 24.5673339,28.5052597 24.4585431,28.3961488 L22.1312865,26.0688922 C22.0296857,25.9672712 21.9673944,25.8324618 21.9554959,25.68845 C21.9380043,25.4540626 21.9939774,25.2887671 22.1234152,25.1925633 C22.4190232,24.9721692 22.6971395,24.9922845 22.9577643,25.2529093 L24.720917,27.016062 C24.8188699,27.1140149 24.9168229,27.1140149 25.0147758,27.016062 Z" id="路径" fill="#FFFFFF" fill-rule="nonzero"></path>
                    <circle id="椭圆形" fill="#768491" fill-rule="nonzero" cx="15.2272727" cy="16.1363636" r="1"></circle>
                    <rect id="矩形" fill="#768491" fill-rule="nonzero" x="17.2909091" y="15.4575758" width="6" height="1.35757576" rx="0.678787879"></rect>
                    <circle id="椭圆形" fill="#768491" fill-rule="nonzero" cx="15.2272727" cy="19.7727273" r="1"></circle>
                    <rect id="矩形" fill="#768491" fill-rule="nonzero" x="17.2909091" y="19.0939394" width="6" height="1.35757576" rx="0.678787879"></rect>
                </g>
            </g>
        </g>
    </g>
</svg>