<?xml version="1.0" encoding="UTF-8"?>
<svg width="33px" height="33px" viewBox="0 0 33 33" version="1.1" xmlns="http://www.w3.org/2000/svg" xmlns:xlink="http://www.w3.org/1999/xlink">
    <title>ic_sjss_livephoto</title>
    <defs>
        <linearGradient x1="61.7906086%" y1="-9.89549153%" x2="56.0655427%" y2="70.8840891%" id="linearGradient-1">
            <stop stop-color="#0A59F7" offset="0%"></stop>
            <stop stop-color="#6094FF" offset="100%"></stop>
        </linearGradient>
    </defs>
    <g id="页面-1" stroke="none" stroke-width="1" fill="none" fill-rule="evenodd">
        <g id="手机瘦身切图" transform="translate(-681.000000, -249.000000)">
            <g id="ic_sjss_livephoto-2备份-6" transform="translate(681.610435, 249.503777)">
                <g id="ic_sjss_livephoto" transform="translate(6.500000, 6.500000)">
                    <path d="M9.5,0 C14.7467051,0 19,4.25329488 19,9.5 C19,14.7467051 14.7467051,19 9.5,19 C4.25329488,19 0,14.7467051 0,9.5 C0,4.25329488 4.25329488,0 9.5,0 Z M9.5,1 C4.80557963,1 1,4.80557963 1,9.5 C1,14.1944204 4.80557963,18 9.5,18 C14.1944204,18 18,14.1944204 18,9.5 C18,4.80557963 14.1944204,1 9.5,1 Z" id="椭圆形备份-3" fill="#0C273D" fill-rule="nonzero"></path>
                    <path d="M7.28358078,5.80294819 L7.28358078,13.1970518 C7.28358078,13.4731942 7.50743841,13.6970518 7.78358078,13.6970518 C7.8776943,13.6970518 7.969897,13.6704899 8.04958642,13.6204204 L13.9337314,9.92336863 C14.1675514,9.77645777 14.2380052,9.46781439 14.0910943,9.23399436 C14.0511277,9.17038442 13.9973413,9.11659796 13.9337314,9.07663137 L8.04958642,5.37957956 C7.81576639,5.2326687 7.50712301,5.30312251 7.36021215,5.53694254 C7.3101427,5.61663196 7.28358078,5.70883467 7.28358078,5.80294819 Z" id="路径-2" fill="url(#linearGradient-1)"></path>
                </g>
            </g>
        </g>
    </g>
</svg>