<?xml version="1.0" encoding="UTF-8"?>
<svg width="33px" height="33px" viewBox="0 0 33 33" version="1.1" xmlns="http://www.w3.org/2000/svg" xmlns:xlink="http://www.w3.org/1999/xlink">
    <title>ic_sjss_zpzp</title>
    <defs>
        <linearGradient x1="82.7005156%" y1="70.7888165%" x2="39.3083897%" y2="37.8288967%" id="linearGradient-1">
            <stop stop-color="#6094FF" offset="0%"></stop>
            <stop stop-color="#0A59F7" offset="100%"></stop>
        </linearGradient>
        <linearGradient x1="50%" y1="76.5499672%" x2="61.1879244%" y2="50%" id="linearGradient-2">
            <stop stop-color="#6094FF" offset="0%"></stop>
            <stop stop-color="#0F5DF7" offset="100%"></stop>
        </linearGradient>
    </defs>
    <g id="页面-1" stroke="none" stroke-width="1" fill="none" fill-rule="evenodd">
        <g id="手机瘦身切图" transform="translate(-681.000000, -163.000000)" fill-rule="nonzero">
            <g id="ic_sjss_zpzp备份" transform="translate(681.610435, 163.500000)">
                <g id="ic_sjss_zpzp" transform="translate(6.193951, 7.750000)">
                    <path d="M7.67152926,-0.5 L7.50391309,-0.495157405 C6.22829076,-0.42124615 5.17753568,0.490849966 4.89419803,1.69858074 L4.862,1.852 L2,1.85267233 C0.619288125,1.85267233 -0.5,2.97196046 -0.5,4.35267233 L-0.5,14.5 C-0.5,15.8807119 0.619288125,17 2,17 L17.6120971,17 C18.992809,17 20.1120971,15.8807119 20.1120971,14.5 L20.1120971,4.35267233 L20.1067794,4.18829665 C20.0221358,2.88420827 18.9375805,1.85267233 17.6120971,1.85267233 L14.586,1.852 L14.5545034,1.69858074 C14.2588468,0.438339932 13.12759,-0.5 11.7771722,-0.5 L7.67152926,-0.5 Z M7.67152926,0.5 L11.7771722,0.5 C12.8003749,0.5 13.6298445,1.32946966 13.6298445,2.35267233 C13.6298445,2.62881471 13.8537022,2.85267233 14.1298445,2.85267233 L17.6120971,2.85267233 C18.4405242,2.85267233 19.1120971,3.52424521 19.1120971,4.35267233 L19.1120971,14.5 C19.1120971,15.3284271 18.4405242,16 17.6120971,16 L2,16 C1.17157288,16 0.5,15.3284271 0.5,14.5 L0.5,4.35267233 C0.5,3.52424521 1.17157288,2.85267233 2,2.85267233 L5.31885692,2.85267233 C5.5949993,2.85267233 5.81885692,2.62881471 5.81885692,2.35267233 C5.81885692,1.32946966 6.64832658,0.5 7.67152926,0.5 Z" id="路径-56" fill="#0C273D"></path>
                    <path d="M11.9127813,5.47224299 C13.1055562,6.17657227 13.8176562,7.32845574 14.0448345,8.88881934 L14.8935851,8.88856257 C15.0040421,8.88856257 15.0935851,8.97810562 15.0935851,9.08856257 C15.0935851,9.13067097 15.0802946,9.17170513 15.0556075,9.20581764 L13.6992798,11.0799833 C13.6345216,11.1694658 13.5094848,11.1895088 13.4200024,11.1247506 C13.4027977,11.1122997 13.387686,11.0971879 13.3752351,11.0799833 L12.0189074,9.20581764 C11.9541492,9.11633516 11.9741922,8.99129839 12.0636747,8.9265402 C12.0977872,8.90185308 12.1388213,8.88856257 12.1809297,8.88856257 L13.1248077,8.88775531 C12.9179191,7.65852778 12.3611235,6.79253801 11.4506286,6.2548941 C10.4435415,5.66021276 9.20701694,5.66021276 7.70304547,6.28340999 C7.47117345,6.37949027 7.20531557,6.26940931 7.10923529,6.03753729 C7.01315501,5.80566526 7.12323596,5.53980739 7.35510799,5.4437271 C9.10479306,4.7187141 10.6366873,4.7187141 11.9127813,5.47224299 Z" id="形状结合" fill="url(#linearGradient-1)"></path>
                    <path d="M6.1915223,7.30258142 C6.20955356,7.31380189 6.22568261,7.32782267 6.23930336,7.34411686 L7.72306229,9.11910451 C7.79390471,9.20385172 7.78263265,9.32998203 7.69788545,9.40082445 C7.66557811,9.42783101 7.62557102,9.44395154 7.58356519,9.44688887 L6.64221346,9.51424368 C6.93441389,10.7256585 7.55020587,11.5504694 8.49580273,12.0231986 C9.54191954,12.5461805 10.775432,12.4599249 12.2322678,11.733334 C12.4568728,11.6213132 12.7297619,11.7125807 12.8417827,11.9371857 C12.9538035,12.1617907 12.862536,12.4346798 12.6379311,12.5467006 C10.9430825,13.3919994 9.41491982,13.4988589 8.08937083,12.8361814 C6.85048576,12.2168295 6.05980108,11.1175731 5.72427696,9.57708417 L4.8775177,9.63611415 C4.76732982,9.64381923 4.67175868,9.56074051 4.6640536,9.45055263 C4.66111626,9.4085468 4.671512,9.36668551 4.69375942,9.330934 L5.91604797,7.36672108 C5.97440643,7.27293927 6.09774049,7.24422296 6.1915223,7.30258142 Z" id="形状结合备份-2" fill="url(#linearGradient-2)"></path>
                </g>
            </g>
        </g>
    </g>
</svg>