<?xml version="1.0" encoding="UTF-8"?>
<svg width="36px" height="37px" viewBox="0 0 36 37" version="1.1" xmlns="http://www.w3.org/2000/svg" xmlns:xlink="http://www.w3.org/1999/xlink">
    <title>ic_txlbf_cflxr</title>
    <defs>
        <linearGradient x1="63.7730682%" y1="-9.89549153%" x2="57.0853962%" y2="70.8840891%" id="linearGradient-1">
            <stop stop-color="#0A59F7" offset="0%"></stop>
            <stop stop-color="#6094FF" offset="100%"></stop>
        </linearGradient>
        <linearGradient x1="54.351035%" y1="-9.89549153%" x2="52.2383398%" y2="70.8840891%" id="linearGradient-2">
            <stop stop-color="#0A59F7" offset="0%"></stop>
            <stop stop-color="#6094FF" offset="100%"></stop>
        </linearGradient>
    </defs>
    <g id="个人信息" stroke="none" stroke-width="1" fill="none" fill-rule="evenodd">
        <g id="通讯录备份" transform="translate(-171.000000, -388.000000)">
            <g id="ic_txlbf_cflxr-2" transform="translate(171.000000, 388.473556)">
                <g id="ic_txlbf_cflxr" transform="translate(0.500000, 0.000000)">
                    <rect id="矩形" fill="#F7F7F7" x="0" y="0" width="35" height="36" rx="6"></rect>
                    <g id="srlj-2" transform="translate(6.500000, 7.000000)" fill-rule="nonzero">
                        <g id="ril-2" transform="translate(1.000000, 0.498265)">
                            <path d="M13.2986359,3.09400008 C13.3468104,4.49612991 13.3455426,5.37721512 13.2948327,5.73725569 C13.0235345,7.61859446 11.9003093,8.63659651 9.92515717,8.79126182 C7.63180014,7.20150521 7.95887925,4.10186013 10.5869219,3.19288446 C11.0331694,3.03821914 11.937074,3.00525768 13.2986359,3.09400008 Z" id="形状结合" fill="url(#linearGradient-1)"></path>
                            <g id="Incomplete_contact_Normal@3x">
                                <g id="编组">
                                    <path d="M13.8009829,3.17775342 C14.2396239,4.21223619 14.3524535,5.33292586 14.1394718,6.53982243 C13.8656381,8.10422408 12.9376462,8.9751673 11.3554961,9.15265209 C12.9427172,8.24240867 13.7312568,7.02410236 13.7211148,5.49773317 C13.7135083,4.39479198 13.740131,3.62146539 13.8009829,3.17775342 Z" id="路径" fill="url(#linearGradient-2)" transform="translate(12.799693, 6.165203) rotate(6.000000) translate(-12.799693, -6.165203) "></path>
                                    <path d="M11.8187271,0.00100416645 L11.9858725,0.00546789219 L12.1466009,0.0136403691 C13.4330498,0.0959340122 14.0788547,0.564239575 14.1163103,1.78562264 C14.1438534,2.64680383 14.1502803,3.50341405 14.135594,4.35520376 C14.1018237,6.54277101 13.1602105,8.05597647 11.3205527,8.87130076 C8.92903971,9.93203005 6.14147153,8.73101242 5.20851688,6.28379927 L5.17708453,6.19892022 C4.25990534,3.63695197 5.74061324,0.873411097 8.34490607,0.207813585 L8.43116723,0.186633895 C8.97866596,0.0570994946 9.58359384,-0.00135560554 10.2457433,0.0109102861 L10.4742691,0.0172877047 L10.5995666,0.0190859754 L10.8552955,0.0165262903 L11.4788937,0.00187208464 L11.6451516,9.94316109e-05 C11.7040832,-0.000175515229 11.761941,0.000117743034 11.8187271,0.00100416645 Z M11.4828512,0.276558656 L10.7640481,0.292838468 L10.6808638,0.293703017 L10.596488,0.293803501 L10.4988982,0.292625719 L10.4028432,0.289993778 C9.69853307,0.264775514 9.06241192,0.319582563 8.49428366,0.453997696 C5.99585809,1.04249194 4.56376446,3.67067558 5.43566123,6.10615622 C6.28229931,8.46120292 8.93716949,9.62790211 11.2092075,8.62016467 C12.9481051,7.84949665 13.8287533,6.434264 13.860918,4.35071572 C13.8755304,3.5031968 13.8691374,2.65109359 13.8417323,1.79422374 C13.8104812,0.775167026 13.3060027,0.376777067 12.2043531,0.292493601 L12.0539168,0.283090264 C11.9512523,0.278026403 11.8438258,0.275336717 11.7315504,0.2748059 L11.4828512,0.276558656 Z" id="路径" fill="#0C273D"></path>
                                    <path d="M6.32327775,10.3601482 C10.7514957,9.18562783 15.177229,10.3257428 17.4874188,13.6810807 C18.3805757,14.9716014 19.0573094,16.4731608 19.0476748,17.4856672 C19.0294003,19.3860466 17.4232613,20.2103714 15.2604303,19.928115 C15.001066,19.8938593 14.8483265,19.7302099 14.8337299,19.4720721 C14.8307442,19.4302723 14.8352134,19.3885597 14.8458783,19.3514387 C14.9082829,19.1066207 15.0789115,18.9659498 15.3315175,18.9515161 C15.6088262,18.9366867 15.8849754,18.9319411 16.1598668,18.9372776 L16.3657981,18.9431703 C17.4979188,18.9845263 18.2779035,18.0334057 17.9545747,16.9639328 C16.6516245,12.6828106 13.3126763,10.6720202 8.57930067,10.9980654 C5.23322104,11.2268802 2.78777386,12.9437522 1.49644543,16.0021535 L1.33552064,16.3893298 C1.31078572,16.4482619 1.28755961,16.5047599 1.26583454,16.5590565 L1.20515466,16.715575 C1.01784693,17.2168414 0.97986543,17.5212471 1.08343486,17.8615483 C1.33821991,18.6901736 1.94588783,19.0018728 3.02763663,18.9897864 C6.22772733,18.9586464 9.49648961,18.9485718 12.8334719,18.9595615 C13.1299884,18.9595615 13.340382,19.1091477 13.4390327,19.3913787 C13.4614876,19.4587433 13.4614876,19.5273805 13.4372901,19.5930502 C13.3524573,19.8186226 13.136852,19.9685469 12.8946605,19.9705024 L9.86452861,19.9850081 L7.82382631,19.9924808 L4.73183391,20.000393 L2.64986956,20.00347 C0.832563441,20.00347 -0.416467251,18.4167349 0.129055276,16.7144761 C1.16771333,13.4708954 3.33567587,11.1513732 6.32327775,10.3601482 Z M17.26134,13.8371428 C15.0239897,10.5875982 10.718752,9.47852415 6.39365657,10.6256928 C3.50313377,11.3912077 1.40240045,13.6388008 0.39067216,16.7982837 C-0.0964464232,18.3182977 1.01382536,19.7287573 2.64972512,19.7287573 L5.76601353,19.7234832 L7.82290649,19.7177697 L10.877254,19.7059038 L12.8927994,19.6957962 C13.0212452,19.6947588 13.1353933,19.6153844 13.1798376,19.4972148 C13.1816022,19.492425 13.1816022,19.4878054 13.1790636,19.4801434 C13.119566,19.3099525 13.0131242,19.2342742 12.8330196,19.2342735 C9.4967653,19.2232869 6.22919511,19.2333579 3.03050779,19.2644841 C1.8399857,19.277786 1.11755081,18.9072178 0.820739384,17.9419102 C0.683296287,17.4903115 0.748483092,17.1126114 1.00964469,16.4597855 L1.19029808,16.0232775 C2.49013132,12.83104 4.99901649,11.010679 8.42478732,10.7341123 L8.56049068,10.7239974 C13.4150752,10.389603 16.8749984,12.4732473 18.2174591,16.8841904 C18.5966521,18.1384442 17.6721531,19.265787 16.3555903,19.2176933 C16.0209653,19.2050318 15.6845018,19.2077452 15.3466885,19.2258092 C15.2141953,19.2333802 15.1449081,19.2905025 15.1110501,19.423101 C15.1080925,19.4334526 15.1070674,19.4430197 15.1078741,19.4545234 C15.115125,19.5826225 15.1675044,19.6387433 15.2961902,19.6557397 C17.3170517,19.9194685 18.7566392,19.1806235 18.7730535,17.4830329 C18.781914,16.5428169 18.1247546,15.0846896 17.26134,13.8371428 Z" id="路径" fill="#0C273D"></path>
                                    <path d="M10.0350163,0.76533757 L11.9569658,0.779820372 L12.466235,0.784567532 C12.9482016,0.787649286 13.3428557,1.16948068 13.3635546,1.65258203 C13.4150387,2.92129907 13.4012415,4.08946159 13.3220671,5.15739377 C13.2303696,6.36613298 12.3470946,7.56728767 11.2006173,8.11688759 C8.27407223,9.52366321 5.08283493,6.97405034 5.7488112,3.82214601 C6.16325992,1.84741975 7.801127,0.750365112 10.0350163,0.76533757 Z M6.01762809,3.87875476 C5.40465156,6.77982472 8.30291042,9.12927289 11.0000663,7.90735548 L11.0817329,7.8692314 L11.1590596,7.83087718 C12.1824257,7.30609657 12.9662099,6.21661922 13.0481238,5.13684804 C13.1264689,4.08009997 13.140143,2.92236106 13.0890807,1.66403118 C13.0746558,1.32736751 12.7997758,1.06141862 12.4640168,1.05927096 L11.157693,1.04791166 L10.0332282,1.04004451 C7.92106847,1.02588795 6.40296848,2.04272176 6.01762809,3.87875476 Z" id="路径" fill="#0C273D"></path>
                                </g>
                                <path d="M11.264862,8.74574075 C8.90507929,9.7923964 6.17443438,8.56717745 5.30634203,6.15245222 C4.40253702,3.62784188 5.89697448,0.924668237 8.46279174,0.320300146 C9.04335139,0.182943762 9.69167352,0.127085499 10.4077581,0.152725357 C11.7675863,0.199426528 13.9158402,-0.270332306 13.9790241,1.79001346 C14.0064954,2.64894871 14.0129054,3.50330542 13.998254,4.35308359 C13.9652885,6.48851751 13.0541578,7.95273656 11.264862,8.74574075 Z M11.1412412,7.99302777 C12.2071268,7.48206202 13.094449,6.34200403 13.1851042,5.14700349 C13.2638552,4.08478078 13.2775909,2.92183006 13.2263111,1.65815133 C13.2087557,1.24842409 12.8739887,0.924533951 12.4653568,0.921921109 C11.7144752,0.914595435 10.9040725,0.90818547 10.0341488,0.902691215 C7.98479152,0.888955577 6.30354938,1.84770314 5.88323884,3.85035922 C5.24590522,6.86670542 8.29521695,9.36109735 11.1412412,7.99302777 Z" id="形状" fill="#0C273D"></path>
                                <path d="M1.31751263,16.0750774 C1.08400678,16.6519742 0.759845711,17.270078 0.952144649,17.9019173 C1.25707582,18.8936304 2.04550147,19.1381248 3.02897318,19.1271363 C6.22846122,19.0960022 9.49662745,19.0859294 12.8334719,19.0969179 C13.0715563,19.0969179 13.229974,19.2095501 13.308725,19.4348146 C13.3215449,19.4732744 13.3215449,19.5099027 13.308725,19.5446997 C13.2439253,19.7170035 13.0790486,19.8316528 12.8939087,19.8331481 C9.54790717,19.8514623 6.13322746,19.8624508 2.64986956,19.8661136 C0.952144649,19.8661136 -0.264832915,18.3936532 0.259868473,16.7563651 C1.22136316,13.7537545 3.25698478,11.3143051 6.35849193,10.492914 C10.3253443,9.44076406 14.9212889,10.1962242 17.3744739,13.7592488 C18.0475202,14.731732 18.9211068,16.3525373 18.910221,17.4843539 C18.8908884,19.5062399 17.0255887,20.0199528 15.2784155,19.7919412 C15.0842852,19.7663013 14.9817257,19.6564162 14.9707372,19.4622858 C14.9689058,19.436646 14.9716529,19.4110061 14.9789786,19.3853663 C15.0265955,19.1985616 15.1465534,19.099665 15.3388523,19.0886765 C15.6813276,19.0703623 16.0219714,19.0676152 16.3607838,19.0804351 C17.5640258,19.1243891 18.4431066,18.1052048 18.08598,16.9239399 C16.7014277,12.3746964 13.116426,10.5478565 8.56992972,10.8610291 C5.15525,11.0945349 2.62514541,12.8636851 1.31751263,16.0750774 Z" id="路径-9" fill="#0C273D"></path>
                            </g>
                        </g>
                    </g>
                </g>
            </g>
        </g>
    </g>
</svg>