<?xml version="1.0" encoding="UTF-8"?>
<svg width="57px" height="57px" viewBox="0 0 57 57" version="1.1" xmlns="http://www.w3.org/2000/svg" xmlns:xlink="http://www.w3.org/1999/xlink">
    <title>ic_yskj_luy</title>
    <g id="页面-1" stroke="none" stroke-width="1" fill="none" fill-rule="evenodd">
        <g id="隐私空间切图" transform="translate(-31.000000, -486.000000)">
            <g id="ic_yskj_luy" transform="translate(31.316716, 486.868793)">
                <g id="编组" transform="translate(16.315761, 23.957880)" stroke="#8CE0AA">
                    <path d="M13.0842386,18.8354529 L13.0842386,16.094564 C13.0842386,15.9701196 13.1454237,15.897527 13.2677941,15.8767863 C17.268683,15.1923418 20.1962386,13.1110085 22.0504608,9.63278626 C23.3944608,7.11589737 23.4877941,4.27856404 23.3229052,1.42567515 C23.2689793,0.488193667 22.81372,0.0267121857 21.9571274,0.0412307042 C21.9363867,0.0412307042 21.9197941,0.0422677412 21.9073497,0.0443418153 C21.019646,0.0588603338 20.57372,0.546267741 20.5695719,1.50656404 C20.5633497,2.58093441 20.54572,3.63248996 20.516683,4.6612307 C20.4523867,6.94271219 19.5823126,8.91619367 17.9064608,10.5816751 C15.9029052,12.5707122 13.4492756,13.40449 10.5455719,13.0830085 C6.152683,12.5976751 2.92646078,8.76478626 2.83312744,4.36878626 C2.8123867,3.37737885 2.79890522,2.38700848 2.792683,1.39767515 C2.78023856,-0.444102629 0.0735718887,-0.518769296 0.0300163331,1.49100848 C-0.0166503336,3.56300848 -0.0944281113,5.80611959 0.552683,7.76611959 C1.97134967,12.0781196 5.58646078,15.3198974 10.1940163,15.8581196 C10.2541645,15.8643418 10.2842386,15.897527 10.2842386,15.9576751 L10.2873497,18.9692307 C10.2873666,18.9904092 10.2787465,19.0106788 10.2634804,19.0253577 C10.2482142,19.0400367 10.2276223,19.0478556 10.2064608,19.0470085 C8.86453485,19.0138233 7.37742374,19.0293789 5.74512744,19.0936751 C3.95312744,19.1621196 4.04023856,21.8127863 5.86646078,21.8283418 C9.848683,21.8594529 13.7230534,21.861527 17.4895719,21.834564 C18.3648311,21.8283418 18.8242386,21.3876011 18.8677941,20.5123418 C18.8698682,20.5019714 18.8709052,20.4843418 18.8709052,20.4594529 C18.9165349,19.5447863 18.4032015,19.0781196 17.3309052,19.0594529 C16.0200904,19.0366381 14.6812756,19.0376751 13.3144608,19.062564 C13.1609793,19.0646381 13.0842386,18.9889344 13.0842386,18.8354529" id="路径"></path>
                </g>
                <path d="M27.2595556,0 L28.7715556,0 C33.4714074,0.186666667 37.742963,1.36162963 41.5862222,3.52488889 C47.9971852,7.13792593 52.3797037,12.5222222 54.7337778,19.6777778 C55.4472593,21.8514074 55.8693333,24.3797037 56,27.2626667 L56,28.7715556 C55.8133333,33.4734815 54.6383704,37.745037 52.4751111,41.5862222 C48.8641481,47.9971852 43.4798519,52.3797037 36.3222222,54.7337778 C34.1485926,55.4472593 31.6202963,55.8693333 28.7373333,56 L27.2284444,56 C20.6536296,55.7241481 14.9665185,53.5805926 10.1671111,49.5693333 C3.808,44.2555556 0.418962963,37.3125926 0,28.7404444 L0,27.2284444 C0.277925926,20.5955556 2.45881481,14.8638519 6.54266667,10.0333333 C11.8502222,3.75718519 18.7558519,0.412740741 27.2595556,0 Z M30.5168889,11.3462222 C27.4088889,9.82177778 23.9586667,11.3026667 22.6022222,14.4293333 C22.286963,15.1594074 22.1428148,16.6527407 22.1697778,18.9093333 C22.2091852,22.2008889 22.2185185,25.1761481 22.1977778,27.8351111 C22.1832593,29.7805926 22.7899259,31.3195556 24.0177778,32.452 C27.8568889,35.9862222 33.7866667,33.2764444 33.796,28.1337778 C33.8022222,23.966963 33.8022222,20.2460741 33.796,16.9711111 C33.7897778,14.2914074 32.6967407,12.4164444 30.5168889,11.3462222 Z M29.4,42.7933333 L29.4,40.0524444 C29.4,39.928 29.4611852,39.8554074 29.5835556,39.8346667 C33.5844444,39.1502222 36.512,37.0688889 38.3662222,33.5906667 C39.7102222,31.0737778 39.8035556,28.2364444 39.6386667,25.3835556 C39.5847407,24.4460741 39.1294815,23.9845926 38.2728889,23.9991111 C38.2521481,23.9991111 38.2355556,24.0001481 38.2231111,24.0022222 C37.3354074,24.0167407 36.8894815,24.5041481 36.8853333,25.4644444 C36.8791111,26.5388148 36.8614815,27.5903704 36.8324444,28.6191111 C36.7681481,30.9005926 35.8980741,32.8740741 34.2222222,34.5395556 C32.2186667,36.5285926 29.765037,37.3623704 26.8613333,37.0408889 C22.4684444,36.5555556 19.2422222,32.7226667 19.1488889,28.3266667 C19.1281481,27.3352593 19.1146667,26.3448889 19.1084444,25.3555556 C19.096,23.5137778 16.3893333,23.4391111 16.3457778,25.4488889 C16.2991111,27.5208889 16.2213333,29.764 16.8684444,31.724 C18.2871111,36.036 21.9022222,39.2777778 26.5097778,39.816 C26.5699259,39.8222222 26.6,39.8554074 26.6,39.9155556 L26.6031111,42.9271111 C26.6031281,42.9482896 26.594508,42.9685592 26.5792418,42.9832382 C26.5639757,42.9979171 26.5433838,43.005736 26.5222222,43.0048889 C25.1802963,42.9717037 23.6931852,42.9872593 22.0608889,43.0515556 C20.2688889,43.12 20.356,45.7706667 22.1822222,45.7862222 C26.1644444,45.8173333 30.0388148,45.8194074 33.8053333,45.7924444 C34.6805926,45.7862222 35.14,45.3454815 35.1835556,44.4702222 C35.1856296,44.4598519 35.1866667,44.4422222 35.1866667,44.4173333 C35.2322963,43.5026667 34.718963,43.036 33.6466667,43.0173333 C32.3358519,42.9945185 30.997037,42.9955556 29.6302222,43.0204444 C29.4767407,43.0225185 29.4,42.9468148 29.4,42.7933333 Z" id="形状" fill="#0A59F7" fill-rule="nonzero"></path>
                <rect id="矩形" fill="#0A59F7" fill-rule="nonzero" x="25.0102222" y="13.5644444" width="5.97955556" height="17.6711111" rx="2.98977778"></rect>
                <path d="M29.6302222,43.0204444 C30.997037,42.9955556 32.3358519,42.9945185 33.6466667,43.0173333 C34.718963,43.036 35.2322963,43.5026667 35.1866667,44.4173333 C35.1866667,44.4422222 35.1856296,44.4598519 35.1835556,44.4702222 C35.14,45.3454815 34.6805926,45.7862222 33.8053333,45.7924444 C30.0388148,45.8194074 26.1644444,45.8173333 22.1822222,45.7862222 C20.356,45.7706667 20.2688889,43.12 22.0608889,43.0515556 C23.6931852,42.9872593 25.1802963,42.9717037 26.5222222,43.0048889 C26.5433838,43.005736 26.5639757,42.9979171 26.5792418,42.9832382 C26.594508,42.9685592 26.6031281,42.9482896 26.6031111,42.9271111 L26.6,39.9155556 C26.6,39.8554074 26.5699259,39.8222222 26.5097778,39.816 C21.9022222,39.2777778 18.2871111,36.036 16.8684444,31.724 C16.2213333,29.764 16.2991111,27.5208889 16.3457778,25.4488889 C16.3893333,23.4391111 19.096,23.5137778 19.1084444,25.3555556 C19.1146667,26.3448889 19.1281481,27.3352593 19.1488889,28.3266667 C19.2422222,32.7226667 22.4684444,36.5555556 26.8613333,37.0408889 C29.765037,37.3623704 32.2186667,36.5285926 34.2222222,34.5395556 C35.8980741,32.8740741 36.7681481,30.9005926 36.8324444,28.6191111 C36.8614815,27.5903704 36.8791111,26.5388148 36.8853333,25.4644444 C36.8894815,24.5041481 37.3354074,24.0167407 38.2231111,24.0022222 C38.2355556,24.0001481 38.2521481,23.9991111 38.2728889,23.9991111 C39.1294815,23.9845926 39.5847407,24.4460741 39.6386667,25.3835556 C39.8035556,28.2364444 39.7102222,31.0737778 38.3662222,33.5906667 C36.512,37.0688889 33.5844444,39.1502222 29.5835556,39.8346667 C29.4611852,39.8554074 29.4,39.928 29.4,40.0524444 L29.4,42.7933333 C29.4,42.9468148 29.4767407,43.0225185 29.6302222,43.0204444 Z" id="路径" fill="#FFFFFF" fill-rule="nonzero"></path>
            </g>
        </g>
    </g>
</svg>