<?xml version="1.0" encoding="UTF-8"?>
<svg width="74px" height="74px" viewBox="0 0 74 74" version="1.1" xmlns="http://www.w3.org/2000/svg" xmlns:xlink="http://www.w3.org/1999/xlink">
    <title>ic_shzx_jt</title>
    <g id="页面-1" stroke="none" stroke-width="1" fill="none" fill-rule="evenodd">
        <g id="守护中心切图二" transform="translate(-529.000000, -215.000000)">
            <g id="ic_shzx_jt-2" transform="translate(529.500000, 215.500000)">
                <g id="ic_shzx_jt" transform="translate(6.500000, 6.500000)">
                    <path d="M16.3578947,29.6552632 C15.6842105,31.2184211 15.4921053,34.9736842 18.3421053,34.3421053 C19.945614,33.9859649 21.622807,33.6008772 23.3736842,33.1868421 C24.2447368,32.9789474 24.7078947,32.2447368 24.6736842,31.3815789 C24.6342105,30.4447368 25.3447368,29.5736842 26.2421053,29.4315789 C28.2824561,29.1052632 30.6412281,29.0780702 33.3184211,29.35 C34.1552632,29.4342105 34.7947368,29.8236842 35.1289474,30.6 C35.3157895,31.0342105 35.2342105,31.4894737 35.3210526,31.9394737 C35.4491228,32.6289474 35.9105263,33.0710526 36.7052632,33.2657895 C38.1859649,33.6289474 39.6105263,33.9885965 40.9789474,34.3447368 C43.6105263,35.0342105 43.8789474,31.6105263 43.4263158,29.9842105 C42.9421053,28.2552632 41.6973684,27.1736842 40.0605263,26.4657895 C33.5473684,23.6552632 25.0526316,23.7131579 18.7684211,27.0552632 C17.6491228,27.65 16.845614,28.5166667 16.3578947,29.6552632" id="路径" stroke="#FFA29D" stroke-width="2"></path>
                    <path d="M28.65,0 L31.3078947,0 C35.995614,0.254385965 40.2912281,1.44473684 44.1947368,3.57105263 C50.0157895,6.74473684 54.3798246,11.3947368 57.2868421,17.5210526 C58.8587719,20.8333333 59.7631579,24.545614 60,28.6578947 L60,31.3815789 C59.5087719,39.1763158 56.6087719,45.7508772 51.3,51.1052632 C45.9105263,56.5421053 39.2605263,59.5070175 31.35,60 L28.6263158,60 C23.9473684,59.7315789 19.6736842,58.5412281 15.8052632,56.4289474 C9.55789474,53.0166667 5.01578947,47.9578947 2.17894737,41.2526316 C0.935087719,38.3175439 0.20877193,34.9929825 0,31.2789474 L0,28.6184211 C0.498245614,20.7552632 3.44122807,14.1368421 8.82894737,8.76315789 C14.2026316,3.40701754 20.8096491,0.485964912 28.65,0 Z M16.3578947,29.6552632 C15.6842105,31.2184211 15.4921053,34.9736842 18.3421053,34.3421053 C19.945614,33.9859649 21.622807,33.6008772 23.3736842,33.1868421 C24.2447368,32.9789474 24.7078947,32.2447368 24.6736842,31.3815789 C24.6342105,30.4447368 25.3447368,29.5736842 26.2421053,29.4315789 C28.2824561,29.1052632 30.6412281,29.0780702 33.3184211,29.35 C34.1552632,29.4342105 34.7947368,29.8236842 35.1289474,30.6 C35.3157895,31.0342105 35.2342105,31.4894737 35.3210526,31.9394737 C35.4491228,32.6289474 35.9105263,33.0710526 36.7052632,33.2657895 C38.1859649,33.6289474 39.6105263,33.9885965 40.9789474,34.3447368 C43.6105263,35.0342105 43.8789474,31.6105263 43.4263158,29.9842105 C42.9421053,28.2552632 41.6973684,27.1736842 40.0605263,26.4657895 C33.5473684,23.6552632 25.0526316,23.7131579 18.7684211,27.0552632 C17.6491228,27.65 16.845614,28.5166667 16.3578947,29.6552632 Z" id="形状" fill="#FF453A" fill-rule="nonzero"></path>
                    <path d="M16.3578947,29.6552632 C16.845614,28.5166667 17.6491228,27.65 18.7684211,27.0552632 C25.0526316,23.7131579 33.5473684,23.6552632 40.0605263,26.4657895 C41.6973684,27.1736842 42.9421053,28.2552632 43.4263158,29.9842105 C43.8789474,31.6105263 43.6105263,35.0342105 40.9789474,34.3447368 C39.6105263,33.9885965 38.1859649,33.6289474 36.7052632,33.2657895 C35.9105263,33.0710526 35.4491228,32.6289474 35.3210526,31.9394737 C35.2342105,31.4894737 35.3157895,31.0342105 35.1289474,30.6 C34.7947368,29.8236842 34.1552632,29.4342105 33.3184211,29.35 C30.6412281,29.0780702 28.2824561,29.1052632 26.2421053,29.4315789 C25.3447368,29.5736842 24.6342105,30.4447368 24.6736842,31.3815789 C24.7078947,32.2447368 24.2447368,32.9789474 23.3736842,33.1868421 C21.622807,33.6008772 19.945614,33.9859649 18.3421053,34.3421053 C15.4921053,34.9736842 15.6842105,31.2184211 16.3578947,29.6552632 Z" id="路径" fill="#FFFFFF" fill-rule="nonzero"></path>
                </g>
            </g>
        </g>
    </g>
</svg>