<?xml version="1.0" encoding="UTF-8"?>
<svg width="73px" height="73px" viewBox="0 0 73 73" version="1.1" xmlns="http://www.w3.org/2000/svg" xmlns:xlink="http://www.w3.org/1999/xlink">
    <title>ic_shzx_mt_filled</title>
    <g id="页面-1" stroke="none" stroke-width="1" fill="none" fill-rule="evenodd">
        <g id="守护中心切图二" transform="translate(-394.000000, -116.000000)">
            <g id="ic_shzx_mt_filled" transform="translate(394.437744, 116.815918)">
                <g id="编组" transform="translate(0.929233, 0.929233)">
                    <path d="M70.1415331,35.0707666 C70.1415331,15.701717 54.4398161,-8.30864178e-16 35.0707666,-8.30864178e-16 C15.701717,-8.30864178e-16 -8.30864178e-16,15.701717 -8.30864178e-16,35.0707666 C-8.30864178e-16,54.4398161 15.701717,70.1415331 35.0707666,70.1415331 C54.4398161,70.1415331 70.1415331,54.4398161 70.1415331,35.0707666" id="路径" stroke="#CBCBCB"></path>
                    <path d="M45.6571676,47.0977913 C48.6475531,43.7768731 50.2284972,39.3365093 50.1661325,34.8587267 C50.1037679,30.4183629 48.6267648,26.4997835 45.7351234,23.1029883 C45.4461672,22.7641403 45.0948463,22.679948 44.6811607,22.8504114 C44.6042443,22.8836726 44.5418796,22.9325249 44.4940667,22.9969684 C44.186401,23.4252057 44.2030316,23.8399307 44.5439584,24.2411434 C47.7183196,27.9934171 49.0123863,32.3277609 48.4261585,37.244175 C48.0436553,40.4476397 46.7579039,43.3132958 44.5689043,45.8411434 C44.4751066,45.9512479 44.4135737,46.0861885 44.391165,46.2309225 C44.3100909,46.7610221 44.3880468,47.0998701 44.6250325,47.2474664 C45.0116934,47.4844521 45.3557384,47.4345604 45.6571676,47.0977913" id="路径" stroke="#94949E"></path>
                    <path d="M42.4734517,30.3185795 C44.2716327,35.0645301 43.5502815,39.3656128 40.309398,43.2218276 C40.0329147,43.5523603 39.9965353,43.9078389 40.2002599,44.2882633 C40.2459939,44.3714162 40.3062798,44.4400173 40.3811174,44.4940667 C40.8197488,44.80589 41.2105673,44.7549589 41.553573,44.3412733 C44.7861412,40.443482 45.7683846,36.0769164 44.5003032,31.2415764 C43.9556518,29.1689909 42.9172802,27.3115634 41.3851884,25.6692941 C41.0692074,25.3304461 40.741793,25.320052 40.402945,25.6381117 L40.3374621,25.7035946 C39.9196189,26.096492 39.9019489,26.5060199 40.2844521,26.9321784 C41.3300996,28.0983976 42.0597661,29.2271979 42.4734517,30.3185795" id="路径" stroke="#94949E"></path>
                    <path d="M25.6006929,39.077696 C27.3011693,40.4580338 29.0006063,41.8207016 30.6990039,43.1656994 C31.4317887,43.7456908 32.2487657,43.2374188 32.2518839,42.3518406 C32.2685145,37.5954959 32.2726722,32.7310524 32.2643569,27.7585102 C32.2612386,26.8978779 31.3912516,26.4207882 30.7021221,26.9695972 C28.951754,28.3644868 27.2585535,29.7198787 25.6225206,31.0357731 C25.3883577,31.2254488 25.0966345,31.328928 24.7961888,31.328887 L21.1291468,31.3320052 C20.4597661,31.3320052 20.1219576,31.6656561 20.1157211,32.332958 C20.0949329,34.166479 20.0938935,35.9729753 20.1126029,37.7524469 C20.1188393,38.4654829 20.4909485,38.8188826 21.2289303,38.8126462 C22.5656128,38.8043309 23.790039,38.8084885 24.9022087,38.8251191 C25.1566866,38.8290738 25.4025407,38.9179764 25.6006929,39.077696" id="路径" stroke="#94949E"></path>
                    <path d="M36.2058034,30.6428757 C39.0901689,33.6893893 38.8874838,37.7150282 35.9906453,40.630576 C35.6663491,40.9590299 35.6694673,41.2833261 36,41.6034647 L36.174621,41.7749675 C36.5093114,42.0992638 36.8419229,42.0992638 37.1724556,41.7749675 C40.7178865,38.2981377 40.858207,32.8692941 37.2597661,29.3519272 C36.9417064,29.0421828 36.589346,28.9974881 36.2026851,29.2178432 C36.1153746,29.267735 36.0509311,29.3373755 36.0093547,29.4267648 C35.7993937,29.8778692 35.8648766,30.2832395 36.2058034,30.6428757" id="路径" stroke="#94949E"></path>
                </g>
                <path d="M72,36 C72,55.882251 55.882251,72 36,72 C16.117749,72 0,55.882251 0,36 C0,16.117749 16.117749,0 36,0 C45.5477936,0 54.7045345,3.79284625 61.4558441,10.5441559 C68.2071537,17.2954655 72,26.4522064 72,36 Z M71.0707666,36 C71.0707666,16.6309505 55.3690495,0.929233434 36,0.929233434 C16.6309505,0.929233434 0.929233434,16.6309505 0.929233434,36 C0.929233434,55.3690495 16.6309505,71.0707666 36,71.0707666 C55.3690495,71.0707666 71.0707666,55.3690495 71.0707666,36 Z" id="形状" fill="#979797" fill-rule="nonzero"></path>
                <path d="M71.0707666,36 C71.0707666,55.3690495 55.3690495,71.0707666 36,71.0707666 C16.6309505,71.0707666 0.929233434,55.3690495 0.929233434,36 C0.929233434,16.6309505 16.6309505,0.929233434 36,0.929233434 C55.3690495,0.929233434 71.0707666,16.6309505 71.0707666,36 Z M46.586401,48.0270247 C49.5767865,44.7061065 51.1577306,40.2657427 51.095366,35.7879602 C51.0330013,31.3475964 49.5559983,27.4290169 46.6643569,24.0322217 C46.3754006,23.6933738 46.0240797,23.6091815 45.6103941,23.7796449 C45.5334777,23.812906 45.471113,23.8617583 45.4233001,23.9262018 C45.1156345,24.3544392 45.132265,24.7691641 45.4731919,25.1703768 C48.6475531,28.9226505 49.9416197,33.2569944 49.3553919,38.1734084 C48.9728887,41.3768731 47.6871373,44.2425292 45.4981377,46.7703768 C45.4043401,46.8804813 45.3428071,47.015422 45.3203984,47.1601559 C45.2393244,47.6902555 45.3172802,48.0291035 45.5542659,48.1766999 C45.9409268,48.4136856 46.2849718,48.3637939 46.586401,48.0270247 Z M43.4026851,31.2478129 C45.2008662,35.9937635 44.4795149,40.2948463 41.2386314,44.1510611 C40.9621481,44.4815938 40.9257687,44.8370723 41.1294933,45.2174968 C41.1752274,45.3006496 41.2355132,45.3692508 41.3103508,45.4233001 C41.7489822,45.7351234 42.1398008,45.6841923 42.4828064,45.2705067 C45.7153746,41.3727155 46.697618,37.0061498 45.4295366,32.1708099 C44.8848852,30.0982243 43.8465136,28.2407969 42.3144218,26.5985275 C41.9984409,26.2596795 41.6710264,26.2492854 41.3321784,26.5673452 L41.2666955,26.6328281 C40.8488523,27.0257254 40.8311823,27.4352534 41.2136856,27.8614119 C42.259333,29.027631 42.9889996,30.1564314 43.4026851,31.2478129 Z M26.5299264,40.0069294 C28.2304028,41.3872672 29.9298398,42.749935 31.6282373,44.0949329 C32.3610221,44.6749242 33.1779991,44.1666522 33.1811174,43.2810741 C33.1977479,38.5247293 33.2019056,33.6602858 33.1935903,28.6877436 C33.1904721,27.8271113 32.3204851,27.3500217 31.6313556,27.8988307 C29.8809874,29.2937202 28.1877869,30.6491122 26.551754,31.9650065 C26.3175911,32.1546823 26.0258679,32.2581614 25.7254223,32.2581204 L22.0583803,32.2612386 C21.3889996,32.2612386 21.051191,32.5948896 21.0449545,33.2621914 C21.0241663,35.0957124 21.0231269,36.9022087 21.0418363,38.6816804 C21.0480728,39.3947163 21.4201819,39.7481161 22.1581637,39.7418796 C23.4948463,39.7335643 24.7192724,39.737722 25.8314422,39.7543525 C26.08592,39.7583073 26.3317742,39.8472099 26.5299264,40.0069294 Z M37.1350368,31.5721091 C40.0194023,34.6186228 39.8167172,38.6442616 36.9198787,41.5598094 C36.5955825,41.8882633 36.5987007,42.2125595 36.9292334,42.5326981 L37.1038545,42.704201 C37.4385448,43.0284972 37.7711563,43.0284972 38.101689,42.704201 C41.64712,39.2273712 41.7874405,33.7985275 38.1889996,30.2811607 C37.8709398,29.9714162 37.5185795,29.9267215 37.1319186,30.1470767 C37.0446081,30.1969684 36.9801646,30.2666089 36.9385881,30.3559983 C36.7286271,30.8071026 36.79411,31.2124729 37.1350368,31.5721091 Z" id="形状" fill="#FFFFFF" fill-rule="nonzero"></path>
                <path d="M51.095366,35.7879602 C51.1577306,40.2657427 49.5767865,44.7061065 46.586401,48.0270247 C46.2849718,48.3637939 45.9409268,48.4136856 45.5542659,48.1766999 C45.3172802,48.0291035 45.2393244,47.6902555 45.3203984,47.1601559 C45.3428071,47.015422 45.4043401,46.8804813 45.4981377,46.7703768 C47.6871373,44.2425292 48.9728887,41.3768731 49.3553919,38.1734084 C49.9416197,33.2569944 48.6475531,28.9226505 45.4731919,25.1703768 C45.132265,24.7691641 45.1156345,24.3544392 45.4233001,23.9262018 C45.471113,23.8617583 45.5334777,23.812906 45.6103941,23.7796449 C46.0240797,23.6091815 46.3754006,23.6933738 46.6643569,24.0322217 C49.5559983,27.4290169 51.0330013,31.3475964 51.095366,35.7879602 Z" id="路径" fill="#0C273D" fill-rule="nonzero"></path>
                <path d="M43.4026851,31.2478129 C42.9889996,30.1564314 42.259333,29.027631 41.2136856,27.8614119 C40.8311823,27.4352534 40.8488523,27.0257254 41.2666955,26.6328281 L41.3321784,26.5673452 C41.6710264,26.2492854 41.9984409,26.2596795 42.3144218,26.5985275 C43.8465136,28.2407969 44.8848852,30.0982243 45.4295366,32.1708099 C46.697618,37.0061498 45.7153746,41.3727155 42.4828064,45.2705067 C42.1398008,45.6841923 41.7489822,45.7351234 41.3103508,45.4233001 C41.2355132,45.3692508 41.1752274,45.3006496 41.1294933,45.2174968 C40.9257687,44.8370723 40.9621481,44.4815938 41.2386314,44.1510611 C44.4795149,40.2948463 45.2008662,35.9937635 43.4026851,31.2478129 Z" id="路径" fill="#0C273D" fill-rule="nonzero"></path>
                <path d="M25.8314422,39.7543525 C24.7192724,39.737722 23.4948463,39.7335643 22.1581637,39.7418796 C21.4201819,39.7481161 21.0480728,39.3947163 21.0418363,38.6816804 C21.0231269,36.9022087 21.0241663,35.0957124 21.0449545,33.2621914 C21.051191,32.5948896 21.3889996,32.2612386 22.0583803,32.2612386 L25.7254223,32.2581204 C26.0258679,32.2581614 26.3175911,32.1546823 26.551754,31.9650065 C28.1877869,30.6491122 29.8809874,29.2937202 31.6313556,27.8988307 C32.3204851,27.3500217 33.1904721,27.8271113 33.1935903,28.6877436 C33.2019056,33.6602858 33.1977479,38.5247293 33.1811174,43.2810741 C33.1779991,44.1666522 32.3610221,44.6749242 31.6282373,44.0949329 C29.9298398,42.749935 28.2304028,41.3872672 26.5299264,40.0069294 C26.3317742,39.8472099 26.08592,39.7583073 25.8314422,39.7543525 L25.8314422,39.7543525 Z" id="路径" fill="#0C273D" fill-rule="nonzero"></path>
                <path d="M36.9198787,41.5598094 C39.8167172,38.6442616 40.0194023,34.6186228 37.1350368,31.5721091 C36.79411,31.2124729 36.7286271,30.8071026 36.9385881,30.3559983 C36.9801646,30.2666089 37.0446081,30.1969684 37.1319186,30.1470767 C37.5185795,29.9267215 37.8709398,29.9714162 38.1889996,30.2811607 C41.7874405,33.7985275 41.64712,39.2273712 38.101689,42.704201 C37.7711563,43.0284972 37.4385448,43.0284972 37.1038545,42.704201 L36.9292334,42.5326981 C36.5987007,42.2125595 36.5955825,41.8882633 36.9198787,41.5598094 Z" id="路径" fill="#0C273D" fill-rule="nonzero"></path>
            </g>
        </g>
    </g>
</svg>