<?xml version="1.0" encoding="UTF-8"?>
<svg width="73px" height="73px" viewBox="0 0 73 73" version="1.1" xmlns="http://www.w3.org/2000/svg" xmlns:xlink="http://www.w3.org/1999/xlink">
    <title>ic_shzx_tjtx</title>
    <g id="页面-1" stroke="none" stroke-width="1" fill="none" fill-rule="evenodd">
        <g id="守护中心切图二" transform="translate(-260.000000, -233.000000)" fill-rule="nonzero">
            <g id="ic_shzx_tjtx" transform="translate(260.437744, 233.877110)">
                <path d="M12.4331247,8.80787964 C17.0902034,4.70291275 22.6768263,1.9875832 29.1929933,0.661891007 C29.9322617,0.512165771 30.705842,0.378036914 31.5137345,0.259504435 C34.0216322,-0.119487569 36.6652184,0.0162009262 39.2994467,0.0583111489 C39.8203658,0.0676689761 40.3381656,0.165926162 40.8528461,0.353082708 C41.1834893,0.471615186 41.5562428,0.543358529 41.9711064,0.568312735 C42.3267039,0.593266941 42.6869802,0.644734991 43.0519355,0.722716884 C56.2137195,3.54878072 66.5166873,12.8738556 70.4189013,25.6753633 C72.1750536,31.4273078 72.4682655,37.2431974 71.2985371,43.1230322 C70.1537629,48.8687381 67.7004525,54.0716901 63.9386059,58.7318881 C57.7858345,66.3585173 48.4046127,71.3415603 38.4993525,71.9591769 C30.4703367,72.4551418 23.1026074,70.546145 16.3961645,66.2321866 C8.33907526,61.0479503 2.77584695,52.7990256 0.801345396,43.4458772 C-0.224896327,38.5922842 -0.265446912,33.8182326 0.679693642,29.1237226 C2.30171703,21.0572755 6.21952738,14.2853279 12.4331247,8.80787964 Z M50.0048011,36.0672305 C50.0048011,28.327873 43.7308123,22.0538841 35.9914548,22.0538841 C28.2520973,22.0538841 21.9781085,28.327873 21.9781085,36.0672305 C21.9781085,39.783801 23.4545104,43.3481504 26.0825226,45.9761627 C28.7105348,48.6041749 32.2748843,50.0805768 35.9914548,50.0805768 C43.7308123,50.0805768 50.0048011,43.8065879 50.0048011,36.0672305 L50.0048011,36.0672305 Z" id="形状" fill-opacity="0.102" fill="#0F1214"></path>
                <path d="M50.0048011,36.0672305 C50.0048011,43.8065879 43.7308123,50.0805768 35.9914548,50.0805768 C28.2520973,50.0805768 21.9781085,43.8065879 21.9781085,36.0672305 C21.9781085,28.327873 28.2520973,22.0538841 35.9914548,22.0538841 C43.7308123,22.0538841 50.0048011,28.327873 50.0048011,36.0672305 L50.0048011,36.0672305 Z M37.3062295,24.3512307 C33.2121801,23.7757243 28.7484965,25.8157307 26.3716084,29.2828057 C23.0823321,34.0786922 23.5315078,40.2735738 27.7144566,44.38166 C27.8523124,44.5186544 28.0702115,44.5326479 28.2244582,44.4144124 C31.7991482,41.6944039 35.762188,41.0206403 40.1135777,42.3931217 C41.3862422,42.792389 42.5980809,43.47707 43.7490936,44.4471648 C43.8993914,44.5726402 44.1196793,44.5624417 44.2544163,44.4237702 C51.3008602,37.1480595 47.1553427,25.7315102 37.3062295,24.3512307 Z" id="形状" fill-opacity="0.639" fill="#A4A3A3"></path>
                <path d="M37.3062295,24.3512307 C47.1553427,25.7315102 51.3008602,37.1480595 44.2544163,44.4237702 C44.1196793,44.5624417 43.8993914,44.5726402 43.7490936,44.4471648 C42.5980809,43.47707 41.3862422,42.792389 40.1135777,42.3931217 C35.762188,41.0206403 31.7991482,41.6944039 28.2244582,44.4144124 C28.0702115,44.5326479 27.8523124,44.5186544 27.7144566,44.38166 C23.5315078,40.2735738 23.0823321,34.0786922 26.3716084,29.2828057 C28.7484965,25.8157307 33.2121801,23.7757243 37.3062295,24.3512307 Z M35.9693236,38.8371127 C38.5352834,38.8504899 40.6274193,36.5676 40.6423256,33.7380672 C40.649358,32.3792702 40.1666765,31.0735653 39.3003885,30.1081937 C38.4341005,29.1428221 37.2551681,28.5968625 36.0229439,28.590361 C33.456984,28.5769838 31.3648481,30.8598738 31.3499418,33.6894065 C31.3429095,35.0482036 31.8255909,36.3539085 32.6918789,37.3192801 C33.5581669,38.2846516 34.7370994,38.8306113 35.9693236,38.8371127 L35.9693236,38.8371127 Z" id="形状" fill-opacity="0.102" fill="#0F1214"></path>
                <ellipse id="椭圆形" fill-opacity="0.639" fill="#A4A3A3" transform="translate(35.996134, 33.713737) rotate(90.300000) translate(-35.996134, -33.713737) " cx="35.9961337" cy="33.7137369" rx="5.12341043" ry="4.64616124"></ellipse>
            </g>
        </g>
    </g>
</svg>