<?xml version="1.0" encoding="UTF-8"?>
<svg width="73px" height="73px" viewBox="0 0 73 73" version="1.1" xmlns="http://www.w3.org/2000/svg" xmlns:xlink="http://www.w3.org/1999/xlink">
    <title>ic_shzx_jy</title>
    <g id="页面-1" stroke="none" stroke-width="1" fill="none" fill-rule="evenodd">
        <g id="守护中心切图二" transform="translate(-52.000000, -116.000000)" fill-rule="nonzero">
            <g id="ic_shzx_jy" transform="translate(52.437744, 116.877110)">
                <path d="M72,36 C72,45.5477936 68.2071537,54.7045345 61.4558441,61.4558441 C54.7045345,68.2071537 45.5477936,72 36,72 C26.4522064,72 17.2954655,68.2071537 10.5441559,61.4558441 C3.79284625,54.7045345 0,45.5477936 0,36 C0,16.117749 16.117749,0 36,0 C45.5477936,0 54.7045345,3.79284625 61.4558441,10.5441559 C68.2071537,17.2954655 72,26.4522064 72,36 Z M40.5646977,26.6367573 C40.5304001,23.1727005 36.8543218,20.8997055 33.814308,22.4992205 C32.1119002,23.3951152 31.2523818,24.8574398 31.2357526,26.8861944 C31.2357526,27.0150702 31.2804434,27.1241989 31.369825,27.2135805 L40.2684913,36.1028928 C40.461805,36.2941278 40.5595011,36.2546336 40.5615798,35.9844102 C40.5969167,33.0680755 40.597956,29.9521912 40.5646977,26.6367573 Z M47.5302269,46.6751568 C47.7021391,46.5032456 47.7987185,46.2700833 47.7987185,46.0269635 C47.7987185,45.7838436 47.7021391,45.5506813 47.5302269,45.3787701 L26.3780288,24.226572 C26.2061175,24.0546598 25.9729553,23.9580804 25.7298354,23.9580804 C25.4867156,23.9580804 25.2535533,24.0546598 25.0816421,24.226572 L25.068422,24.2397921 C24.8965098,24.4117033 24.7999304,24.6448656 24.7999304,24.8879854 C24.7999304,25.1311053 24.8965098,25.3642676 25.068422,25.5361788 L46.2206201,46.6883769 C46.3925313,46.8602891 46.6256936,46.9568685 46.8688134,46.9568685 C47.1119333,46.9568685 47.3450955,46.8602891 47.5170068,46.6883769 L47.5302269,46.6751568 Z M34.9835441,48.0072752 C34.9835441,48.1112073 34.9326174,48.1631734 34.8307639,48.1631734 L30.4063745,48.1631734 C29.8908713,48.1631734 29.5593279,48.4094925 29.4117443,48.9021306 C29.3389919,49.1515676 29.4023904,49.4197125 29.6019401,49.706565 C29.7447259,49.9116255 29.9787755,50.0339512 30.2286506,50.0339512 L41.3971938,50.0339512 C42.0020786,50.0339512 42.3429759,49.7335874 42.4198857,49.1328599 C42.4282002,49.0580288 42.4219643,48.984237 42.4011779,48.9114845 C42.2535943,48.4126104 41.9199723,48.1631734 41.4003118,48.1631734 L36.9665685,48.1631734 C36.8834228,48.1631734 36.84185,48.1216006 36.84185,48.0384549 L36.844968,45.3507708 C36.8444935,45.2868611 36.892428,45.232269 36.9572146,45.2229343 C38.4538368,45.0524857 39.8382124,44.5452971 41.1103412,43.7013684 C41.1286608,43.6892494 41.1404161,43.6694031 41.1422402,43.6475136 C41.1440643,43.6256241 41.1357561,43.6041058 41.1196951,43.5891218 L39.9099255,42.3762342 C39.8843695,42.3500454 39.8440536,42.343746 39.8101507,42.3606444 C36.893816,43.8988394 34.14793,43.7865928 31.5724926,42.0239044 C30.1756452,41.0656504 29.2225879,39.7082972 28.7133206,37.9518448 C28.2487442,36.3429759 28.4732375,34.5439113 28.4233501,32.8539754 C28.4046423,32.2865061 28.118829,31.9393729 27.5659103,31.8125758 C27.4765287,31.7917894 27.3892257,31.7949073 27.3040014,31.8219297 C26.8425429,31.965356 26.6003811,32.2781916 26.577516,32.7604365 C26.5068422,34.290317 26.5203534,35.5957041 26.6180495,36.676598 C27.0077949,41.0698077 30.3190715,44.7053525 34.8463537,45.2260523 C34.9357353,45.2364455 34.9804261,45.2863329 34.9804261,45.3757145 L34.9835441,48.0072752 Z M44.3966742,39.869392 C45.4131301,37.5620994 45.2821756,35.2766326 45.2697038,32.8446215 C45.2655465,32.2397367 44.9641434,31.8946821 44.3654945,31.8094578 C44.1119002,31.7741209 43.8572666,31.8936428 43.6015936,32.1680236 C43.4597691,32.3197098 43.3835663,32.5203025 43.3895721,32.7261389 C43.4301057,34.6125065 43.5797679,36.7202494 42.9218777,38.4881344 C42.8763404,38.6113271 42.9079756,38.7512521 43.0029447,38.8467002 L44.0973497,39.9255153 C44.2241469,40.0502338 44.3239217,40.0315261 44.3966742,39.869392 Z M32.5795947,39.2613892 C33.70414,40.4524511 35.2932617,40.8567469 37.34696,40.4742768 C37.7190369,40.403603 37.7710029,40.2341937 37.5028581,39.9660488 L31.45401,33.9203187 C31.3251342,33.7914429 31.2565391,33.8174259 31.2482245,33.9982678 C31.1578036,35.9625844 31.1297419,37.7304694 32.5795947,39.2613892 Z" id="形状" fill-opacity="0.102" fill="#0F1114"></path>
                <path d="M33.814308,22.4992205 C36.8543218,20.8997055 40.5304001,23.1727005 40.5646977,26.6367573 C40.597956,29.9521912 40.5969167,33.0680755 40.5615798,35.9844102 C40.5595011,36.2546336 40.461805,36.2941278 40.2684913,36.1028928 L31.369825,27.2135805 C31.2804434,27.1241989 31.2357526,27.0150702 31.2357526,26.8861944 C31.2523818,24.8574398 32.1119002,23.3951152 33.814308,22.4992205 Z" id="路径" fill-opacity="0.639" fill="#A3A3A3"></path>
                <path d="M21.3518102,34.5314395 L51.2468387,34.5314395 C51.7582737,34.5314395 52.1728737,34.9460394 52.1728737,35.4574745 C52.1728737,35.9689095 51.7582737,36.3835094 51.2468387,36.3835094 L21.3518102,36.3835094 C20.8403751,36.3835094 20.4257752,35.9689095 20.4257752,35.4574745 C20.4257752,34.9460394 20.8403751,34.5314395 21.3518102,34.5314395 Z" id="矩形" fill-opacity="0.639" fill="#A3A3A3" transform="translate(36.299324, 35.457474) rotate(45.000000) translate(-36.299324, -35.457474) "></path>
                <path d="M34.8463537,45.2260523 C30.3190715,44.7053525 27.0077949,41.0698077 26.6180495,36.676598 C26.5203534,35.5957041 26.5068422,34.290317 26.577516,32.7604365 C26.6003811,32.2781916 26.8425429,31.965356 27.3040014,31.8219297 C27.3892257,31.7949073 27.4765287,31.7917894 27.5659103,31.8125758 C28.118829,31.9393729 28.4046423,32.2865061 28.4233501,32.8539754 C28.4732375,34.5439113 28.2487442,36.3429759 28.7133206,37.9518448 C29.2225879,39.7082972 30.1756452,41.0656504 31.5724926,42.0239044 C34.14793,43.7865928 36.893816,43.8988394 39.8101507,42.3606444 C39.8440536,42.343746 39.8843695,42.3500454 39.9099255,42.3762342 L41.1196951,43.5891218 C41.1357561,43.6041058 41.1440643,43.6256241 41.1422402,43.6475136 C41.1404161,43.6694031 41.1286608,43.6892494 41.1103412,43.7013684 C39.8382124,44.5452971 38.4538368,45.0524857 36.9572146,45.2229343 C36.892428,45.232269 36.8444935,45.2868611 36.844968,45.3507708 L36.84185,48.0384549 C36.84185,48.1216006 36.8834228,48.1631734 36.9665685,48.1631734 L41.4003118,48.1631734 C41.9199723,48.1631734 42.2535943,48.4126104 42.4011779,48.9114845 C42.4219643,48.984237 42.4282002,49.0580288 42.4198857,49.1328599 C42.3429759,49.7335874 42.0020786,50.0339512 41.3971938,50.0339512 L30.2286506,50.0339512 C29.9787755,50.0339512 29.7447259,49.9116255 29.6019401,49.706565 C29.4023904,49.4197125 29.3389919,49.1515676 29.4117443,48.9021306 C29.5593279,48.4094925 29.8908713,48.1631734 30.4063745,48.1631734 L34.8307639,48.1631734 C34.9326174,48.1631734 34.9835441,48.1112073 34.9835441,48.0072752 L34.9804261,45.3757145 C34.9804261,45.2863329 34.9357353,45.2364455 34.8463537,45.2260523 Z" id="路径" fill-opacity="0.639" fill="#A3A3A3"></path>
                <path d="M44.3966742,39.869392 C44.3239217,40.0315261 44.2241469,40.0502338 44.0973497,39.9255153 L43.0029447,38.8467002 C42.9079756,38.7512521 42.8763404,38.6113271 42.9218777,38.4881344 C43.5797679,36.7202494 43.4301057,34.6125065 43.3895721,32.7261389 C43.3835663,32.5203025 43.4597691,32.3197098 43.6015936,32.1680236 C43.8572666,31.8936428 44.1119002,31.7741209 44.3654945,31.8094578 C44.9641434,31.8946821 45.2655465,32.2397367 45.2697038,32.8446215 C45.2821756,35.2766326 45.4131301,37.5620994 44.3966742,39.869392 Z" id="路径" fill-opacity="0.639" fill="#A3A3A3"></path>
                <path d="M32.5795947,39.2613892 C31.1297419,37.7304694 31.1578036,35.9625844 31.2482245,33.9982678 C31.2565391,33.8174259 31.3251342,33.7914429 31.45401,33.9203187 L37.5028581,39.9660488 C37.7710029,40.2341937 37.7190369,40.403603 37.34696,40.4742768 C35.2932617,40.8567469 33.70414,40.4524511 32.5795947,39.2613892 Z" id="路径" fill-opacity="0.639" fill="#A3A3A3"></path>
            </g>
        </g>
    </g>
</svg>