<?xml version="1.0" encoding="UTF-8"?>
<svg width="73px" height="74px" viewBox="0 0 73 74" version="1.1" xmlns="http://www.w3.org/2000/svg" xmlns:xlink="http://www.w3.org/1999/xlink">
    <title>ic_shzx_gd</title>
    <g id="页面-1" stroke="none" stroke-width="1" fill="none" fill-rule="evenodd">
        <g id="守护中心切图二" transform="translate(-709.000000, -215.000000)">
            <g id="ic_shzx_gd-2" transform="translate(709.000000, 215.500000)">
                <g id="ic_shzx_gd" transform="translate(6.500000, 6.500000)">
                    <path d="M32.87,33.54 C31.1833333,32.3933333 29.3016667,30.5666667 27.225,28.06 C25.345,25.79 28.97,24.875 27.88,22.995 C27.1033333,21.6583333 26.2666667,20.2316667 25.37,18.715 C24.58,17.385 23.5183333,17.1583333 22.185,18.035 C19.605,19.735 18.875,22.0883333 19.995,25.095 C22.47,31.735 28.355,37.625 34.98,40.355 C38.13,41.655 41.05,41.43 43.025,38.505 C43.625,37.615 43.535,36.445 42.585,35.835 C40.9416667,34.7883333 39.295,33.7583333 37.645,32.745 C35.71,31.56 34.875,34.895 32.87,33.54" id="路径" stroke="#9DE7AA" stroke-width="2"></path>
                    <path d="M28.815,0 L31.245,0 C41.4816667,0.73 49.3883333,5.19666667 54.965,13.4 C58.0083333,17.87 59.6866667,23.0116667 60,28.825 L60,31.245 C59.4233333,40.145 55.8616667,47.3766667 49.315,52.94 C44.235,57.2533333 38.19,59.6066667 31.18,60 L28.755,60 C19.8516667,59.4233333 12.62,55.8616667 7.06,49.315 C2.74666667,44.235 0.393333333,38.19 0,31.18 L0,28.76 C0.336666667,22.87 2.06166667,17.675 5.175,13.175 C10.7783333,5.08833333 18.6583333,0.696666667 28.815,0 Z M32.87,33.54 C31.1833333,32.3933333 29.3016667,30.5666667 27.225,28.06 C25.345,25.79 28.97,24.875 27.88,22.995 C27.1033333,21.6583333 26.2666667,20.2316667 25.37,18.715 C24.58,17.385 23.5183333,17.1583333 22.185,18.035 C19.605,19.735 18.875,22.0883333 19.995,25.095 C22.47,31.735 28.355,37.625 34.98,40.355 C38.13,41.655 41.05,41.43 43.025,38.505 C43.625,37.615 43.535,36.445 42.585,35.835 C40.9416667,34.7883333 39.295,33.7583333 37.645,32.745 C35.71,31.56 34.875,34.895 32.87,33.54 Z" id="形状" fill="#3ACE54" fill-rule="nonzero"></path>
                    <path d="M32.87,33.54 C34.875,34.895 35.71,31.56 37.645,32.745 C39.295,33.7583333 40.9416667,34.7883333 42.585,35.835 C43.535,36.445 43.625,37.615 43.025,38.505 C41.05,41.43 38.13,41.655 34.98,40.355 C28.355,37.625 22.47,31.735 19.995,25.095 C18.875,22.0883333 19.605,19.735 22.185,18.035 C23.5183333,17.1583333 24.58,17.385 25.37,18.715 C26.2666667,20.2316667 27.1033333,21.6583333 27.88,22.995 C28.97,24.875 25.345,25.79 27.225,28.06 C29.3016667,30.5666667 31.1833333,32.3933333 32.87,33.54 Z" id="路径" fill="#FFFFFF" fill-rule="nonzero"></path>
                </g>
            </g>
        </g>
    </g>
</svg>