<?xml version="1.0" encoding="UTF-8"?>
<svg width="73px" height="73px" viewBox="0 0 73 73" version="1.1" xmlns="http://www.w3.org/2000/svg" xmlns:xlink="http://www.w3.org/1999/xlink">
    <title>ic_shzx_bhjp</title>
    <g id="页面-1" stroke="none" stroke-width="1" fill="none" fill-rule="evenodd">
        <g id="守护中心切图二" transform="translate(-156.000000, -116.000000)" fill-rule="nonzero">
            <g id="ic_shzx_bhjp" transform="translate(156.437744, 116.877110)">
                <path d="M72,36 C72,45.5477936 68.2071537,54.7045345 61.4558441,61.4558441 C54.7045345,68.2071537 45.5477936,72 36,72 C16.117749,72 0,55.882251 0,36 C0,16.117749 16.117749,0 36,0 C45.5477936,0 54.7045345,3.79284625 61.4558441,10.5441559 C68.2071537,17.2954655 72,26.4522064 72,36 Z M30.3725643,26.6469213 C30.3725643,24.5893055 28.7045371,22.9212783 26.6469213,22.9212783 C24.5893055,22.9212783 22.9212783,24.5893055 22.9212783,26.6469213 C22.9212783,28.7045371 24.5893055,30.3725643 26.6469213,30.3725643 C28.7045371,30.3725643 30.3725643,28.7045371 30.3725643,26.6469213 Z M39.725643,26.6438036 C39.725643,24.5861878 38.0576158,22.9181606 36,22.9181606 C33.9423842,22.9181606 32.274357,24.5861878 32.274357,26.6438036 C32.274357,28.7014194 33.9423842,30.3694466 36,30.3694466 C38.0576158,30.3694466 39.725643,28.7014194 39.725643,26.6438036 L39.725643,26.6438036 Z M49.0818394,26.6469213 C49.0818394,25.6588193 48.6893175,24.7111874 47.9906239,24.0124938 C47.2919303,23.3138002 46.3442984,22.9212783 45.3561964,22.9212783 C43.2985806,22.9212783 41.6305534,24.5893055 41.6305534,26.6469213 C41.6305534,28.7045371 43.2985806,30.3725643 45.3561964,30.3725643 C46.3442984,30.3725643 47.2919303,29.9800423 47.9906239,29.2813487 C48.6893175,28.5826551 49.0818394,27.6350232 49.0818394,26.6469213 Z M30.3694466,36 C30.3694466,33.9423842 28.7014194,32.274357 26.6438036,32.274357 C24.5861878,32.274357 22.9181606,33.9423842 22.9181606,36 C22.9181606,38.0576158 24.5861878,39.725643 26.6438036,39.725643 C28.7014194,39.725643 30.3694466,38.0576158 30.3694466,36 Z M39.725643,36 C39.725643,33.9423842 38.0576158,32.274357 36,32.274357 C33.9423842,32.274357 32.274357,33.9423842 32.274357,36 C32.274357,38.0576158 33.9423842,39.725643 36,39.725643 C38.0576158,39.725643 39.725643,38.0576158 39.725643,36 Z M49.0787217,36 C49.0787217,33.9423842 47.4106945,32.274357 45.3530787,32.274357 C43.2954629,32.274357 41.6274357,33.9423842 41.6274357,36 C41.6274357,38.0576158 43.2954629,39.725643 45.3530787,39.725643 C47.4106945,39.725643 49.0787217,38.0576158 49.0787217,36 Z M30.3694466,45.3530787 C30.3694466,43.2954629 28.7014194,41.6274357 26.6438036,41.6274357 C24.5861878,41.6274357 22.9181606,43.2954629 22.9181606,45.3530787 C22.9181606,47.4106945 24.5861878,49.0787217 26.6438036,49.0787217 C28.7014194,49.0787217 30.3694466,47.4106945 30.3694466,45.3530787 Z M39.7225253,45.3530787 C39.7225253,43.2971848 38.055894,41.6305534 36,41.6305534 C33.944106,41.6305534 32.2774747,43.2971848 32.2774747,45.3530787 C32.2774747,47.4089727 33.944106,49.0756041 36,49.0756041 C38.055894,49.0756041 39.7225253,47.4089727 39.7225253,45.3530787 Z M49.0818394,45.3530787 C49.0818394,44.3649768 48.6893175,43.4173449 47.9906239,42.7186513 C47.2919303,42.0199577 46.3442984,41.6274357 45.3561964,41.6274357 C43.2985806,41.6274357 41.6305534,43.2954629 41.6305534,45.3530787 C41.6305534,47.4106945 43.2985806,49.0787217 45.3561964,49.0787217 C46.3442984,49.0787217 47.2919303,48.6861998 47.9906239,47.9875062 C48.6893175,47.2888126 49.0818394,46.3411807 49.0818394,45.3530787 Z" id="形状" fill-opacity="0.102" fill="#0F1214"></path>
                <circle id="椭圆形" fill-opacity="0.639" fill="#A3A3A3" cx="26.6469213" cy="26.6469213" r="3.72564302"></circle>
                <circle id="椭圆形" fill-opacity="0.639" fill="#A3A3A3" cx="36" cy="26.6438036" r="3.72564302"></circle>
                <circle id="椭圆形" fill-opacity="0.639" fill="#A3A3A3" cx="45.3561964" cy="26.6469213" r="3.72564302"></circle>
                <circle id="椭圆形" fill-opacity="0.639" fill="#A3A3A3" cx="26.6438036" cy="36" r="3.72564302"></circle>
                <circle id="椭圆形" fill-opacity="0.639" fill="#A3A3A3" cx="36" cy="36" r="3.72564302"></circle>
                <circle id="椭圆形" fill-opacity="0.639" fill="#A3A3A3" cx="45.3530787" cy="36" r="3.72564302"></circle>
                <circle id="椭圆形" fill-opacity="0.639" fill="#A3A3A3" cx="26.6438036" cy="45.3530787" r="3.72564302"></circle>
                <circle id="椭圆形" fill-opacity="0.639" fill="#A3A3A3" cx="36" cy="45.3530787" r="3.72252533"></circle>
                <circle id="椭圆形" fill-opacity="0.639" fill="#A3A3A3" cx="45.3561964" cy="45.3530787" r="3.72564302"></circle>
            </g>
        </g>
    </g>
</svg>