<?xml version="1.0" encoding="UTF-8"?>
<svg width="73px" height="73px" viewBox="0 0 73 73" version="1.1" xmlns="http://www.w3.org/2000/svg" xmlns:xlink="http://www.w3.org/1999/xlink">
    <title>ic_shzx_tjtx</title>
    <g id="页面-1" stroke="none" stroke-width="1" fill="none" fill-rule="evenodd">
        <g id="守护中心切图二" transform="translate(-52.000000, -233.000000)" fill-rule="nonzero">
            <g id="ic_shzx_tjtx" transform="translate(52.437744, 233.877110)">
                <path d="M72,36 C72,55.882251 55.882251,72 36,72 C26.4522064,72 17.2954655,68.2071537 10.5441559,61.4558441 C3.79284625,54.7045345 0,45.5477936 0,36 C0,16.117749 16.117749,0 36,0 C45.5477936,0 54.7045345,3.79284625 61.4558441,10.5441559 C68.2071537,17.2954655 72,26.4522064 72,36 Z M36.9966207,34.1424487 L36.959189,26.2303093 C36.9592426,26.1252895 36.9385623,26.0218879 36.8983624,25.9261762 C36.5926696,25.168183 36.2557837,24.8203795 35.8877047,24.8827658 C35.3792566,24.9701066 35.1094359,25.2711204 35.0782428,25.7858071 C34.9285157,28.3124513 34.886405,31.1713023 34.9519106,34.3623603 C34.9581492,34.7335586 34.7787887,34.9472316 34.413829,35.0033793 C33.9615285,35.0751235 33.504549,35.100078 33.0428906,35.0782428 C30.5692748,34.9597089 28.2391474,34.8988822 26.0525084,34.8957629 C25.3069925,34.8957629 24.8936834,35.2669613 24.8125812,36.0093579 C24.8032233,36.0842215 24.8094619,36.159085 24.8312971,36.2339485 C24.9935014,36.8515727 25.3943332,37.1557057 26.0337926,37.1463478 L34.1471276,37.0059787 C34.677411,36.9966207 34.9425526,37.2555238 34.9425526,37.7826878 L34.9285157,45.9802443 C34.9285157,46.6914479 35.2825578,47.0813621 35.9906421,47.149987 C36.2838576,47.1780608 36.5739537,47.0626462 36.8609306,46.8037432 C37.0152111,46.6642514 37.1006973,46.4642137 37.0948791,46.2563036 L36.9311152,37.7639719 C36.9273453,37.5708028 37.0003112,37.3841202 37.1338281,37.2453329 C37.2673449,37.1065457 37.4503747,37.0271275 37.6423187,37.0246946 L46.3966727,36.8609306 C46.877047,36.8515727 47.1031973,36.6067065 47.0751235,36.1263322 C47.0720042,36.0826618 47.0704445,36.0374318 47.0704445,35.9906421 C47.0603978,35.5175164 46.6758464,35.1371 46.200156,35.1297115 L37.8762672,35.0267741 C37.2929555,35.0205355 36.9997401,34.7257603 36.9966207,34.1424487 Z" id="形状" fill-opacity="0.102" fill="#0F1114"></path>
                <path d="M36.9966207,34.1424487 C36.9997401,34.7257603 37.2929555,35.0205355 37.8762672,35.0267741 L46.200156,35.1297115 C46.6758464,35.1371 47.0603978,35.5175164 47.0704445,35.9906421 C47.0704445,36.0374318 47.0720042,36.0826618 47.0751235,36.1263322 C47.1031973,36.6067065 46.877047,36.8515727 46.3966727,36.8609306 L37.6423187,37.0246946 C37.4503747,37.0271275 37.2673449,37.1065457 37.1338281,37.2453329 C37.0003112,37.3841202 36.9273453,37.5708028 36.9311152,37.7639719 L37.0948791,46.2563036 C37.1006973,46.4642137 37.0152111,46.6642514 36.8609306,46.8037432 C36.5739537,47.0626462 36.2838576,47.1780608 35.9906421,47.149987 C35.2825578,47.0813621 34.9285157,46.6914479 34.9285157,45.9802443 L34.9425526,37.7826878 C34.9425526,37.2555238 34.677411,36.9966207 34.1471276,37.0059787 L26.0337926,37.1463478 C25.3943332,37.1557057 24.9935014,36.8515727 24.8312971,36.2339485 C24.8094619,36.159085 24.8032233,36.0842215 24.8125812,36.0093579 C24.8936834,35.2669613 25.3069925,34.8957629 26.0525084,34.8957629 C28.2391474,34.8988822 30.5692748,34.9597089 33.0428906,35.0782428 C33.504549,35.100078 33.9615285,35.0751235 34.413829,35.0033793 C34.7787887,34.9472316 34.9581492,34.7335586 34.9519106,34.3623603 C34.886405,31.1713023 34.9285157,28.3124513 35.0782428,25.7858071 C35.1094359,25.2711204 35.3792566,24.9701066 35.8877047,24.8827658 C36.2557837,24.8203795 36.5926696,25.168183 36.8983624,25.9261762 C36.9385623,26.0218879 36.9592426,26.1252895 36.959189,26.2303093 L36.9966207,34.1424487 Z" id="路径" fill-opacity="0.702" fill="#ABA8AE"></path>
            </g>
        </g>
    </g>
</svg>