<?xml version="1.0" encoding="UTF-8"?>
<svg width="28px" height="28px" viewBox="0 0 28 28" version="1.1" xmlns="http://www.w3.org/2000/svg" xmlns:xlink="http://www.w3.org/1999/xlink">
    <title>ic_shzx_txw</title>
    <g id="页面-1" stroke="none" stroke-width="1" fill="none" fill-rule="evenodd" fill-opacity="0.8">
        <g id="守护中心切图二" transform="translate(-550.000000, -128.000000)" fill="#CCCCCC" fill-rule="nonzero">
            <g id="ic_shzx_txw-2" transform="translate(550.000000, 128.000000)">
                <g id="ic_shzx_txw" transform="translate(3.000000, 2.000000)">
                    <path d="M0.789776374,5.2094503 C0.783917662,5.21400428 0.776553385,5.21595965 0.769303599,5.21488627 C0.762053813,5.21381289 0.755512383,5.20979867 0.75111835,5.20372671 L0.7400732,5.19227953 C-0.344080268,3.90060273 -0.222972394,1.95126114 1.01067937,0.836626676 L1.10456314,0.750772809 C1.69838149,0.215909761 2.47484007,-0.0502149271 3.26304384,0.0109715854 C4.05124762,0.0721580979 4.78659617,0.455641023 5.30724261,1.0770175 L5.31828776,1.08846469 C5.32743786,1.10110889 5.32496532,1.11904667 5.31276519,1.12852982 L0.789776374,5.2094503 Z" id="路径"></path>
                    <path d="M16.6892694,1.11708264 C16.6770693,1.10759949 16.6745967,1.08966171 16.6837468,1.0770175 L16.694792,1.05984673 C17.218835,0.441658528 17.9566453,0.0629921115 18.7458656,0.00717419833 C19.5350859,-0.0486437148 20.3110462,0.222960679 20.902994,0.762219991 L20.9968778,0.848073858 C22.2279081,1.97113086 22.341613,3.92323782 21.2509162,5.2094503 L21.2398711,5.22089749 C21.2354771,5.22696945 21.2289356,5.23098366 21.2216858,5.23205704 C21.2144361,5.23313042 21.2070718,5.23117505 21.2012131,5.22662108 L16.6892694,1.11708264 Z" id="路径"></path>
                    <path d="M20.1740141,24 L19.6935501,24 L17.3906364,21.676222 C17.2470495,21.5312244 17.0924174,21.5140536 16.9267401,21.6247097 C13.0793463,24.1354583 9.1693633,24.1736156 5.19679111,21.7391815 C5.03479558,21.6399726 4.88384521,21.6552355 4.74393998,21.7849702 L2.40236823,24 L2.04892344,24 C1.794885,23.7710564 1.64945719,23.5134948 1.61264003,23.2273152 C1.5831863,23.0136345 1.64209376,22.8323874 1.78936242,22.683574 L3.58419925,20.8291305 C3.71524823,20.6936501 3.72252936,20.4773269 3.60076698,20.3369017 C0.714301184,16.9599829 -0.091994746,13.2530037 1.18187919,9.2159641 C1.71204638,7.5332283 2.63063466,6.06417325 3.93764405,4.80879892 C9.91859262,-0.926239394 19.2683119,2.33048396 21.1073293,10.3320644 C21.9173069,13.8539808 21.0502627,17.1450457 18.5061965,20.2052591 C18.3883816,20.346441 18.3883816,20.4876229 18.5061965,20.6288048 C19.0290003,21.2583998 19.5959846,21.8670084 20.2071496,22.4546304 C20.7851791,23.0117266 20.7741339,23.5268498 20.1740141,24 Z M11.8238809,12.1178248 L11.8238809,8.88399581 C11.8238809,8.40702988 11.602978,8.11131101 11.161172,7.99683919 C10.9476324,7.93960327 10.7230477,7.98348414 10.4874178,8.12848178 C10.2851119,8.25339556 10.1612912,8.47742504 10.1615854,8.71801167 L10.1671085,12.8103793 C10.1671085,13.0851117 10.2609923,13.3197789 10.4487598,13.514381 L14.148885,17.3606343 C14.3881965,17.6086566 14.6790522,17.7231284 15.0214518,17.7040498 C15.356488,17.6887868 15.5810727,17.4541196 15.6952059,17.000048 C15.7572261,16.7521678 15.6857878,16.4865001 15.5074384,16.3017699 L12.0668742,12.7245255 C11.9048787,12.5566335 11.8238809,12.3543999 11.8238809,12.1178248 Z" id="形状"></path>
                </g>
            </g>
        </g>
    </g>
</svg>