<?xml version="1.0" encoding="UTF-8"?>
<svg width="73px" height="73px" viewBox="0 0 73 73" version="1.1" xmlns="http://www.w3.org/2000/svg" xmlns:xlink="http://www.w3.org/1999/xlink">
    <title>ic_shzx_mt</title>
    <g id="页面-1" stroke="none" stroke-width="1" fill="none" fill-rule="evenodd">
        <g id="守护中心切图二" transform="translate(-260.000000, -116.000000)">
            <g id="ic_shzx_mt" transform="translate(260.437744, 116.815918)">
                <g id="编组" transform="translate(21.005210, 23.755916)" stroke="#E9E9E9" stroke-opacity="0.553">
                    <path d="M24.4095709,1.39867079 C28.9770059,6.98629111 29.8193607,13.7812867 26.4967389,20.2346606 C25.9211298,21.3578003 24.9805002,22.2890704 24.3346949,23.3841317 C24.1194264,23.7491521 24.1724636,24.067375 24.4938063,24.3388004 L24.6388786,24.4651537 C24.9633412,24.7428188 25.2659649,24.71942 25.5467499,24.3949574 C31.4993906,17.4080922 31.6772211,7.05648734 25.4718739,0.200655039 C25.3610508,0.078756378 25.2058294,0.00659217683 25.0411993,0.000429553868 C24.8765692,-0.0057330691 24.7163871,0.0546245808 24.5967608,0.167896796 L24.4797671,0.275531023 C24.1678062,0.572975338 24.1372793,1.06140512 24.4095709,1.39867079" id="路径"></path>
                    <path d="M20.1790777,4.10356572 C23.5204185,8.04859413 24.2738581,13.0091281 22.0650166,17.7356746 C21.5876822,18.7652194 20.8202034,19.5654565 20.2165157,20.5014063 C19.9575696,20.9007448 19.9669291,21.2907239 20.2445942,21.6713435 C20.2913917,21.7337402 20.3444289,21.7852174 20.4037057,21.8257752 C20.7188088,22.034804 21.0011537,21.997366 21.2507403,21.7134613 C26.1317185,16.1960372 26.197235,8.41361456 21.2226618,2.87279173 C20.9512363,2.57016796 20.678251,2.57016796 20.4037057,2.87279173 L20.193117,3.11145893 C19.8998527,3.43592152 19.895173,3.76662379 20.1790777,4.10356572" id="路径"></path>
                    <path d="M12.1626677,4.94592054 C12.1615094,4.57996001 11.9512489,4.24686841 11.6213721,4.08840793 C11.2914952,3.92994745 10.9000644,3.9740091 10.6136708,4.20184045 L5.4331886,8.33873857 C5.26590185,8.4732256 5.0581747,8.54741387 4.84354023,8.54932728 L0.94998905,8.57740577 C0.424568506,8.57998139 -3.32516167e-15,9.00664771 -3.32516167e-15,9.53207457 L-3.32516167e-15,15.0869367 C-3.32516167e-15,15.6123635 0.424568506,16.0390298 0.94998905,16.0416054 L4.83418073,16.0556447 C5.04825755,16.0562274 5.25592589,16.1287465 5.42382911,16.2615537 L10.6230303,20.4078113 C10.9100849,20.6361664 11.3025902,20.6798609 11.6328368,20.520225 C11.9630834,20.3605892 12.1726633,20.0258566 12.1720286,19.6590514 L12.1626677,4.94592054" id="路径"></path>
                    <path d="M15.9392251,7.61805723 C18.9295848,10.8704828 18.9295848,14.5440858 16.0281404,17.7590733 C15.6943183,18.1303334 15.6771592,18.5140728 15.9766631,18.9102916 C16.0016218,18.9414899 16.0265805,18.9742482 16.0515391,19.0085663 C16.1598696,19.1429001 16.3191106,19.2262271 16.4912349,19.2386485 C16.6633592,19.2510698 16.8329145,19.1914704 16.9594104,19.0740828 C20.6891704,15.6485065 20.6751311,9.8877355 17.0155674,6.46215922 C16.7223031,6.18761394 16.4368385,6.19385361 16.1591733,6.48087822 L15.9485846,6.69146692 C15.6553204,6.99721052 15.6522005,7.30607396 15.9392251,7.61805723" id="路径"></path>
                </g>
                <path d="M41.0345358,0.342557628 C41.8768906,0.548466584 42.7239252,0.604623573 43.5709598,0.815212278 C53.9007258,3.34227675 61.6862682,8.98917389 66.9275871,17.7559037 C68.5280613,20.4296003 69.726077,23.1563341 70.5216344,25.936105 C72.4028935,32.4939933 72.4886889,38.9754456 70.7790205,45.3804621 C69.9772236,48.384861 68.8213255,51.1911505 67.3113265,53.7993306 C62.809408,61.5739536 56.3560341,66.9775038 47.9512049,70.0099812 C45.021682,71.0644846 42.000124,71.71029 38.886531,71.9473973 C30.8061644,72.5620043 23.3419647,70.6869849 16.493932,66.322339 C13.92007,64.681307 11.645712,62.7844487 9.67085793,60.6317642 C-3.67578625,46.0871042 -3.24992909,23.6383482 11.2104954,9.93604311 C17.1475369,4.30786496 24.3122327,1.03360057 32.7045826,0.113249926 C33.9587553,-0.0240227116 36.1005204,-0.0365020423 39.129878,0.075811934 C39.7756833,0.100770595 40.4105693,0.189685827 41.0345358,0.342557628 Z M45.4147809,25.1545869 C49.9822159,30.7422072 50.8245708,37.5372028 47.501949,43.9905767 C46.9263398,45.1137164 45.9857103,46.0449865 45.3399049,47.1400478 C45.1246365,47.5050682 45.1776736,47.8232911 45.4990164,48.0947166 L45.6440886,48.2210698 C45.9685512,48.4987349 46.271175,48.4753361 46.5519599,48.1508735 C52.5046007,41.1640083 52.6824311,30.8124035 46.4770839,23.9565711 C46.3662608,23.8346725 46.2110394,23.7625083 46.0464093,23.7563457 C45.8817793,23.750183 45.7215971,23.8105407 45.6019709,23.9238129 L45.4849771,24.0314471 C45.1730162,24.3288914 45.1424893,24.8173212 45.4147809,25.1545869 Z M41.1842878,27.8594818 C44.5256286,31.8045102 45.2790682,36.7650442 43.0702266,41.4915907 C42.5928922,42.5211355 41.8254134,43.3213726 41.2217258,44.2573224 C40.9627797,44.656661 40.9721392,45.04664 41.2498043,45.4272596 C41.2966018,45.4896563 41.3496389,45.5411335 41.4089157,45.5816913 C41.7240188,45.7907201 42.0063637,45.7532821 42.2559503,45.4693774 C47.1369285,39.9519533 47.202445,32.1695307 42.2278718,26.6287078 C41.9564464,26.3260841 41.683461,26.3260841 41.4089157,26.6287078 L41.198327,26.867375 C40.9050628,27.1918376 40.900383,27.5225399 41.1842878,27.8594818 Z M33.1678777,28.7018366 C33.1667194,28.3358761 32.9564589,28.0027845 32.6265821,27.844324 C32.2967053,27.6858636 31.9052745,27.7299252 31.6188808,27.9577566 L26.4383986,32.0946547 C26.2711119,32.2291417 26.0633847,32.30333 25.8487503,32.3052434 L21.9551991,32.3333219 C21.4297785,32.3358975 21.00521,32.7625638 21.00521,33.2879907 L21.00521,38.8428528 C21.00521,39.3682796 21.4297785,39.7949459 21.9551991,39.7975216 L25.8393908,39.8115608 C26.0534676,39.8121435 26.2611359,39.8846626 26.4290392,40.0174698 L31.6282403,44.1637274 C31.915295,44.3920825 32.3078003,44.435777 32.6380469,44.2761411 C32.9682935,44.1165053 33.1778733,43.7817727 33.1772387,43.4149675 L33.1678777,28.7018366 Z M36.9444352,31.3739733 C39.9347948,34.6263989 39.9347948,38.3000019 37.0333504,41.5149894 C36.6995283,41.8862495 36.6823692,42.269989 36.9818732,42.6662077 C37.0068318,42.697406 37.0317905,42.7301643 37.0567492,42.7644824 C37.1650796,42.8988163 37.3243207,42.9821432 37.4964449,42.9945646 C37.6685692,43.0069859 37.8381246,42.9473865 37.9646205,42.8299989 C41.6943804,39.4044226 41.6803412,33.6436516 38.0207775,30.2180753 C37.7275132,29.9435301 37.4420485,29.9497697 37.1643834,30.2367943 L36.9537947,30.447383 C36.6605304,30.7531266 36.6574106,31.0619901 36.9444352,31.3739733 Z" id="形状" fill-opacity="0.102" fill="#0F1214" fill-rule="nonzero"></path>
                <path d="M47.501949,43.9905767 C50.8245708,37.5372028 49.9822159,30.7422072 45.4147809,25.1545869 C45.1424893,24.8173212 45.1730162,24.3288914 45.4849771,24.0314471 L45.6019709,23.9238129 C45.7215971,23.8105407 45.8817793,23.750183 46.0464093,23.7563457 C46.2110394,23.7625083 46.3662608,23.8346725 46.4770839,23.9565711 C52.6824311,30.8124035 52.5046007,41.1640083 46.5519599,48.1508735 C46.271175,48.4753361 45.9685512,48.4987349 45.6440886,48.2210698 L45.4990164,48.0947166 C45.1776736,47.8232911 45.1246365,47.5050682 45.3399049,47.1400478 C45.9857103,46.0449865 46.9263398,45.1137164 47.501949,43.9905767 Z" id="路径" fill="#FFFFFF" fill-rule="nonzero"></path>
                <path d="M43.0702266,41.4915907 C45.2790682,36.7650442 44.5256286,31.8045102 41.1842878,27.8594818 C40.900383,27.5225399 40.9050628,27.1918376 41.198327,26.867375 L41.4089157,26.6287078 C41.683461,26.3260841 41.9564464,26.3260841 42.2278718,26.6287078 C47.202445,32.1695307 47.1369285,39.9519533 42.2559503,45.4693774 C42.0063637,45.7532821 41.7240188,45.7907201 41.4089157,45.5816913 C41.3496389,45.5411335 41.2966018,45.4896563 41.2498043,45.4272596 C40.9721392,45.04664 40.9627797,44.656661 41.2217258,44.2573224 C41.8254134,43.3213726 42.5928922,42.5211355 43.0702266,41.4915907 Z" id="路径" fill="#FFFFFF" fill-rule="nonzero"></path>
                <path d="M33.1678777,28.7018366 L33.1772387,43.4149675 C33.1778733,43.7817727 32.9682935,44.1165053 32.6380469,44.2761411 C32.3078003,44.435777 31.915295,44.3920825 31.6282403,44.1637274 L26.4290392,40.0174698 C26.2611359,39.8846626 26.0534676,39.8121435 25.8393908,39.8115608 L21.9551991,39.7975216 C21.4297785,39.7949459 21.00521,39.3682796 21.00521,38.8428528 L21.00521,33.2879907 C21.00521,32.7625638 21.4297785,32.3358975 21.9551991,32.3333219 L25.8487503,32.3052434 C26.0633847,32.30333 26.2711119,32.2291417 26.4383986,32.0946547 L31.6188808,27.9577566 C31.9052745,27.7299252 32.2967053,27.6858636 32.6265821,27.844324 C32.9564589,28.0027845 33.1667194,28.3358761 33.1678777,28.7018366 L33.1678777,28.7018366 Z" id="路径" fill="#FFFFFF" fill-rule="nonzero"></path>
                <path d="M37.0333504,41.5149894 C39.9347948,38.3000019 39.9347948,34.6263989 36.9444352,31.3739733 C36.6574106,31.0619901 36.6605304,30.7531266 36.9537947,30.447383 L37.1643834,30.2367943 C37.4420485,29.9497697 37.7275132,29.9435301 38.0207775,30.2180753 C41.6803412,33.6436516 41.6943804,39.4044226 37.9646205,42.8299989 C37.8381246,42.9473865 37.6685692,43.0069859 37.4964449,42.9945646 C37.3243207,42.9821432 37.1650796,42.8988163 37.0567492,42.7644824 C37.0317905,42.7301643 37.0068318,42.697406 36.9818732,42.6662077 C36.6823692,42.269989 36.6995283,41.8862495 37.0333504,41.5149894 Z" id="路径" fill="#FFFFFF" fill-rule="nonzero"></path>
            </g>
        </g>
    </g>
</svg>