<?xml version="1.0" encoding="UTF-8"?>
<svg width="28px" height="28px" viewBox="0 0 28 28" version="1.1" xmlns="http://www.w3.org/2000/svg" xmlns:xlink="http://www.w3.org/1999/xlink">
    <title>ic_shzx_fxx</title>
    <g id="页面-1" stroke="none" stroke-width="1" fill="none" fill-rule="evenodd" fill-opacity="0.8">
        <g id="守护中心切图二" transform="translate(-732.000000, -128.000000)" fill="#CCCCCC" fill-rule="nonzero">
            <g id="ic_shzx_fxx-2" transform="translate(732.000000, 128.000000)">
                <g id="ic_shzx_fxx" transform="translate(1.000000, 2.000000)">
                    <path d="M26,10.6444313 L26,11.8652534 C25.640202,14.984696 24.3349495,17.4158724 22.0842424,19.1587824 C18.1107071,22.2389703 13.6513131,23.0868725 8.70606061,21.702489 C8.49454225,21.6448387 8.26710937,21.6760003 8.07575758,21.7888494 L4.47909091,23.9714125 C4.41010291,24.0127111 4.32303961,24.0090014 4.25784138,23.9619852 C4.19264315,23.914969 4.16189276,23.8337201 4.17969697,23.7555114 L4.99121212,20.1951073 C5.01712513,20.075517 4.96910616,19.952035 4.86909091,19.8810695 C1.99070707,17.8895461 0.367676768,15.1731187 0,11.7317873 L0,10.4913378 C0.346666667,7.4137669 1.67030303,4.97081414 3.97090909,3.16247952 C9.30090909,-1.02600028 16.9236364,-1.13198806 22.1787879,3.3116475 C24.4373737,5.2246614 25.7111111,7.66892265 26,10.6444313 Z" id="路径"></path>
                </g>
            </g>
        </g>
    </g>
</svg>