<?xml version="1.0" encoding="UTF-8"?>
<svg width="73px" height="73px" viewBox="0 0 73 73" version="1.1" xmlns="http://www.w3.org/2000/svg" xmlns:xlink="http://www.w3.org/1999/xlink">
    <title>ic_shzx_sptx</title>
    <g id="页面-1" stroke="none" stroke-width="1" fill="none" fill-rule="evenodd">
        <g id="守护中心切图二" transform="translate(-156.000000, -233.000000)" fill-rule="nonzero">
            <g id="ic_shzx_sptx" transform="translate(156.437744, 233.877110)">
                <path d="M72,36 C72,45.5477936 68.2071537,54.7045345 61.4558441,61.4558441 C54.7045345,68.2071537 45.5477936,72 36,72 C26.4522064,72 17.2954655,68.2071537 10.5441559,61.4558441 C3.79284625,54.7045345 0,45.5477936 0,36 C0,16.117749 16.117749,0 36,0 C45.5477936,0 54.7045345,3.79284625 61.4558441,10.5441559 C68.2071537,17.2954655 72,26.4522064 72,36 Z M37.8208904,47.2277845 C39.0734106,47.2277845 40.2745854,46.7300097 41.1599586,45.8440518 C42.0453317,44.9580939 42.5423135,43.7565907 42.5414873,42.5040707 L42.5383683,29.4990473 C42.5383685,28.246527 42.0405935,27.0453522 41.1546356,26.1599791 C40.2686776,25.2746059 39.0671744,24.7776241 37.8146544,24.7784504 L23.8835961,24.7846873 C21.2764829,24.7846873 19.1630002,26.8981701 19.1630002,29.5052832 L19.1661181,42.5071886 C19.1661181,45.1143017 21.2796009,47.2277845 23.886714,47.2277845 L37.8208904,47.2277845 Z M44.6149316,40.7767192 C46.5854842,41.8617703 48.4874415,42.9249957 50.383163,44.0069288 C51.7550667,44.7895375 52.8619435,44.1410012 52.8526485,42.5913736 C52.8255673,38.1451585 52.8255673,33.8018361 52.8526485,29.5614065 C52.8619435,28.1957388 51.6771176,27.4131301 50.4829378,28.2144466 C48.5414862,29.5198337 46.5636584,30.844968 44.5494544,32.1898493 C44.4696784,32.2424347 44.4216179,32.3326346 44.4216179,32.4299324 L44.4216179,40.4462151 C44.4216179,40.5937987 44.4860558,40.7039667 44.6149316,40.7767192 Z" id="形状" fill-opacity="0.102" fill="#0F1114"></path>
                <path d="M37.8208904,47.2277845 L23.886714,47.2277845 C21.2796009,47.2277845 19.1661181,45.1143017 19.1661181,42.5071886 L19.1630002,29.5052832 C19.1630002,26.8981701 21.2764829,24.7846873 23.8835961,24.7846873 L37.8146544,24.7784504 C39.0671744,24.7776241 40.2686776,25.2746059 41.1546356,26.1599791 C42.0405935,27.0453522 42.5383685,28.246527 42.5383683,29.4990473 L42.5414873,42.5040707 C42.5423135,43.7565907 42.0453317,44.9580939 41.1599586,45.8440518 C40.2745854,46.7300097 39.0734106,47.2277845 37.8208904,47.2277845 L37.8208904,47.2277845 Z M29.7173047,37.6057509 C29.6938843,37.9578278 29.9175542,38.2797572 30.2567123,38.3821237 C30.7524684,38.5349039 31.1952191,38.2792309 31.376061,37.8177724 C31.796986,36.7483111 32.9880478,35.8877533 33.7644206,35.0802009 C35.4605924,33.312316 34.7216352,30.8491252 32.5640049,29.8887927 C30.1070501,28.7943877 26.8955482,29.9698597 26.661701,32.9069808 C26.6263641,33.3434956 26.8124026,33.6417807 27.2198164,33.8018361 C27.2946475,33.8309371 27.3736359,33.8444483 27.4567816,33.8423697 C28.0097003,33.8340551 28.3287719,33.5565564 28.4139962,33.0098735 C28.5886021,31.8853283 29.2631214,31.2534211 30.4375541,31.1141521 C32.0152434,30.9270743 33.9203187,32.554651 32.3738091,34.0949246 C31.4446562,35.0178417 29.8108436,36.2276113 29.7173047,37.6057509 Z M31.7283908,40.7237138 C31.7283908,40.0865726 31.2118857,39.5700676 30.5747445,39.5700676 C29.9376033,39.5700676 29.4210982,40.0865726 29.4210982,40.7237138 C29.4210982,41.3608551 29.9376033,41.8773601 30.5747445,41.8773601 C31.2118857,41.8773601 31.7283908,41.3608551 31.7283908,40.7237138 L31.7283908,40.7237138 Z" id="形状" fill-opacity="0.639" fill="#A3A3A3"></path>
                <path d="M50.383163,44.0069288 C48.4874415,42.9249957 46.5854842,41.8617703 44.6149316,40.7767192 C44.4860558,40.7039667 44.4216179,40.5937987 44.4216179,40.4462151 L44.4216179,32.4299324 C44.4216179,32.3326346 44.4696784,32.2424347 44.5494544,32.1898493 C46.5636584,30.844968 48.5414862,29.5198337 50.4829378,28.2144466 C51.6771176,27.4131301 52.8619435,28.1957388 52.8526485,29.5614065 C52.8255673,33.8018361 52.8255673,38.1451585 52.8526485,42.5913736 C52.8619435,44.1410012 51.7550667,44.7895375 50.383163,44.0069288 Z" id="路径" fill-opacity="0.639" fill="#A3A3A3"></path>
                <path d="M29.7173047,37.6057509 C29.8108436,36.2276113 31.4446562,35.0178417 32.3738091,34.0949246 C33.9203187,32.554651 32.0152434,30.9270743 30.4375541,31.1141521 C29.2631214,31.2534211 28.5886021,31.8853283 28.4139962,33.0098735 C28.3287719,33.5565564 28.0097003,33.8340551 27.4567816,33.8423697 C27.3736359,33.8444483 27.2946475,33.8309371 27.2198164,33.8018361 C26.8124026,33.6417807 26.6263641,33.3434956 26.661701,32.9069808 C26.8955482,29.9698597 30.1070501,28.7943877 32.5640049,29.8887927 C34.7216352,30.8491252 35.4605924,33.312316 33.7644206,35.0802009 C32.9880478,35.8877533 31.796986,36.7483111 31.376061,37.8177724 C31.1952191,38.2792309 30.7524684,38.5349039 30.2567123,38.3821237 C29.9175542,38.2797572 29.6938843,37.9578278 29.7173047,37.6057509 L29.7173047,37.6057509 Z" id="路径" fill-opacity="0.102" fill="#0F1114"></path>
                <circle id="椭圆形" fill-opacity="0.102" fill="#0F1114" cx="30.5747445" cy="40.7237138" r="1.15364628"></circle>
            </g>
        </g>
    </g>
</svg>