<svg xmlns="http://www.w3.org/2000/svg" viewBox="0 0 26 27" class="design-iconfont">
  <g fill-rule="nonzero" fill="none">
    <path d="M11.46,0 L12.5231579,0 C14.3982456,0.101754386 16.1164912,0.577894737 17.6778947,1.42842105 C20.0063158,2.69789474 21.7519298,4.55789474 22.9147368,7.00842105 C23.5435088,8.33333333 23.9052632,9.81824561 24,11.4631579 L24,12.5526316 C23.8035088,15.6705263 22.6435088,18.3003509 20.52,20.4421053 C18.3642105,22.6168421 15.7042105,23.802807 12.54,24 L11.4505263,24 C9.57894737,23.8926316 7.86947368,23.4164912 6.32210526,22.5715789 C3.82315789,21.2066667 2.00631579,19.1831579 0.871578947,16.5010526 C0.374035088,15.3270175 0.0835087719,13.997193 0,12.5115789 L0,11.4473684 C0.199298246,8.30210526 1.37649123,5.65473684 3.53157895,3.50526316 C5.68105263,1.36280702 8.32385965,0.194385965 11.46,0 Z" stroke="#0A59F7" transform="translate(1.256205 1.832182)"/>
    <path d="M5.98175753,12.0961023 C5.6794865,12.7974655 5.59329203,14.4823903 6.87204014,14.1990112 C7.59150815,14.0392169 8.34403704,13.8664344 9.12962683,13.6806637 C9.52045382,13.5873847 9.72826515,13.2579565 9.71291545,12.8706718 C9.69520425,12.4503262 10.0140057,12.0594992 10.4166402,11.9957389 C11.332112,11.8493263 12.3904542,11.8371253 13.5916666,11.9591357 C13.9671439,11.9969196 14.2540652,12.1716701 14.40402,12.5199902 C14.487853,12.7148133 14.4512499,12.9190824 14.4902145,13.12099 C14.5476775,13.4303455 14.7547016,13.6287108 15.111287,13.7160861 C15.7756535,13.879029 16.4148307,14.0403977 17.0288188,14.200192 C18.2095649,14.5095475 18.330001,12.9733967 18.1269127,12.2436956 C17.9096554,11.4679453 17.3511625,10.9826587 16.6167383,10.6650379 C13.6943916,9.40400102 9.8829429,9.42997743 7.06332102,10.9295251 C6.56111032,11.1963737 6.20058915,11.5852328 5.98175753,12.0961023 Z" fill="#0A59F7" transform="rotate(-130 13.05528275 12.623202)"/>
  </g>
</svg>
