<svg xmlns="http://www.w3.org/2000/svg" xmlns:xlink="http://www.w3.org/1999/xlink" viewBox="0 0 26 26" class="design-iconfont">
  <defs>
    <linearGradient x1="50%" y1="0%" x2="50%" y2="100%" id="mh9vnlot8__0x99h8b23b">
      <stop stop-color="#FF9870" offset="0%"/>
      <stop stop-color="#FF5E5D" offset="100%"/>
    </linearGradient>
    <path d="M9.96328467,12.4626376 C10.6547252,12.4626376 11.2152485,13.0231609 11.2152485,13.7146014 L11.2152485,14.8987226 C11.2152485,15.5901632 10.6547252,16.1506865 9.96328467,16.1506865 C9.27184414,16.1506865 8.71132085,15.5901632 8.71132085,14.8987226 L8.71132085,13.7146014 C8.71132085,13.0231609 9.27184414,12.4626376 9.96328467,12.4626376 Z" id="mh9vnlot8__shati9eaqa"/>
  </defs>
  <g fill-rule="nonzero" fill="none">
    <path d="M7.14374996,7.41437393 C4.40838047,4.83414807 6.084671,0.0908796106 10.0088742,0.0172590358 C11.0048292,-0.00143825299 11.9692223,-0.00494399464 12.9020534,0.00674181088 C13.7584394,0.0182768746 14.4455025,0.717632604 14.4415755,1.57380833 C14.4345617,2.77978346 14.5958784,4.29426386 14.2627244,5.42311267 C13.3263864,8.59931461 9.54596548,9.68258878 7.14374996,7.41437393 Z M13.3719759,1.46863608 C13.3578276,1.24929652 13.179574,1.0756314 12.9581636,1.06547579 C11.9154501,1.02574405 10.9370294,1.02808121 10.0229017,1.07248727 C7.21739452,1.2092112 5.80762717,4.29426386 7.63471372,6.44678923 C8.99889158,8.05241891 11.6115201,7.92621221 12.824902,6.13828397 C13.6384991,4.93230884 13.4631549,2.87093274 13.3719759,1.46863608 Z" fill-opacity=".796" fill="#FFF" transform="translate(3 3)"/>
    <path d="M15.9846044,10.1804041 C18.6615259,11.601398 20,13.7071802 20,16.4977506 C20.0034935,18.5661381 18.6358087,19.9509061 16.6123367,19.9614233 C12.3222486,19.9754463 7.99124692,19.9883007 3.61933158,19.9999932 C1.42051533,20.0034922 -0.0208139762,18.6467702 0.00022732758,16.3364864 C0.0189307087,14.487792 0.702773082,12.9031968 2.05175445,11.5827008 C3.82273085,9.84735864 5.67787246,9.41965816 8.13970501,9.44419835 C10.0170569,9.46055847 11.7307542,9.4769186 13.2807969,9.49327873 C14.2393452,9.50496454 15.1406144,9.73400632 15.9846044,10.1804041 Z M3.1108334,18.9237238 L16.8928874,18.9237238 C18.0239777,18.9237238 18.9409076,18.0070926 18.9409076,16.8763707 L18.9409076,16.396084 C18.9409076,13.1413862 16.1995385,10.5029323 12.8178882,10.5029323 L7.18583257,10.5029323 C3.80418233,10.5029323 1.06281317,13.1413862 1.06281317,16.396084 L1.06281317,16.8763707 C1.06281317,18.0070926 1.97974306,18.9237238 3.1108334,18.9237238 L3.1108334,18.9237238 Z" fill-opacity=".796" fill="#FFF" transform="translate(3 3)"/>
    <g transform="rotate(.6 -275.01299457 302.28294157)">
      <use fill="#FFA470" xlink:href="#mh9vnlot8__shati9eaqa"/>
      <use fill="url(#mh9vnlot8__0x99h8b23b)" xlink:href="#mh9vnlot8__shati9eaqa"/>
    </g>
  </g>
</svg>
