<svg xmlns="http://www.w3.org/2000/svg" viewBox="0 0 41 42" class="design-iconfont">
  <path d="M38.6896212,12.6776699 C40.6753773,18.4939183 40.4042131,23.9378103 37.8761287,29.0093459 C32.9325973,37.9084556 23.2019753,42.077183 13.7654621,38.9880811 C8.85530475,37.3821642 4.90673725,33.9706308 1.91975961,28.7534809 C-0.821084399,22.5669563 -0.627097722,16.3949932 2.50171964,10.2375915 C8.17739433,1.06389496 19.1595433,-2.7054334 28.87765,2.08735498 C33.3205706,4.27988924 36.5912277,7.80999422 38.6896212,12.6776699 Z M25.5298154,25.7642288 C26.1680941,26.0720989 26.7083366,26.0970613 27.1505428,25.8391161 C27.5440205,25.6096147 27.685245,25.1125316 27.4696822,24.7158063 C25.2503077,20.6594099 23.0413627,16.6903821 20.842847,12.8087227 C20.5758546,12.3385968 20.1962247,12.1909023 19.7039575,12.3656394 C19.4541263,12.45408 19.2448774,12.6316797 19.1157398,12.8648882 L12.9644849,23.8982865 C11.9090305,25.787111 12.4054695,26.3758086 14.453802,25.664379 C15.9139167,25.1568094 17.5450735,24.4932246 19.3472723,23.6736245 C19.659433,23.5341638 20.0134414,23.525169 20.329721,23.6486621 C22.02554,24.3288885 23.8527693,24.9591901 25.5298154,25.7642288 Z" transform="translate(.256205 .947964)" fill="#FF4F4F" fill-rule="nonzero"/>
</svg>
