<svg xmlns="http://www.w3.org/2000/svg" viewBox="0 0 26 26" class="design-iconfont">
  <defs>
    <linearGradient x1="50%" y1="0%" x2="50%" y2="100%" id="eg36hwh6j__wy1e02789a">
      <stop stop-color="#FF9870" offset="0%"/>
      <stop stop-color="#FF5E5D" offset="100%"/>
    </linearGradient>
  </defs>
  <g fill-rule="nonzero" fill="none">
    <path d="M23.6835804,6.90191462 C21.0973804,6.92706019 18.7757917,6.15293605 16.7188141,4.57954221 C15.4856261,3.63119525 14.6418658,2.40265485 13.4935531,1.47047289 C12.68807,0.813096012 11.905886,0.908289931 11.147001,1.75605465 C8.32115321,4.90284232 5.65007796,6.93424463 1.35638691,6.85880794 C1.26352211,6.85765002 1.17773833,6.91222572 1.1337082,7.00047628 C1.08967808,7.08872684 1.09468106,7.1960619 1.14669502,7.27909808 C2.02873233,8.70521075 2.71439152,10.2642357 3.20367259,11.9561729 C3.25905901,12.1595814 3.20956117,12.3794276 3.07386333,12.5327248 C2.96735316,12.6512681 2.82922279,12.7213165 2.65947222,12.7428698 C2.54042592,12.7563363 2.42144222,12.716799 2.33003035,12.6333988 C2.23861847,12.5499986 2.18269294,12.4299565 2.17518381,12.3010263 C2.07033786,10.6360308 0.777237884,8.64773518 0.0832575862,7.14977804 C-0.0333072555,6.89813216 -0.0271537785,6.60058493 0.0996982132,6.35480259 C0.226550205,6.10902025 0.457718872,5.94674348 0.717325916,5.92123764 C1.41629888,5.8529854 2.10861495,5.78473315 2.79427415,5.71648091 C5.09422803,5.48657862 7.06965876,4.50410552 8.72056633,2.76906164 C10.1784242,1.23338615 11.9158713,-1.17519962 14.1276215,0.662222631 C15.3558168,1.68600629 16.3144083,3.02231338 17.6224863,3.96527202 C19.3366342,5.2081813 21.2954228,5.82424761 23.4988518,5.81347094 C23.8549952,5.80987872 24.1778541,5.88172319 24.4674286,6.02900434 C25.0033079,6.30201332 25.1347814,6.72050734 24.8618491,7.28448641 C24.1528908,8.74472521 22.8797615,10.8084575 22.7998788,12.4034047 C22.7898935,12.5973848 22.6950329,12.697967 22.515297,12.7051515 C22.312262,12.7123359 22.1225408,12.665637 21.9461333,12.5650548 C21.7730543,12.4680647 21.7131423,12.3171914 21.7663974,12.1124346 C22.2057518,10.3773907 22.9013963,8.75729799 23.853331,7.2521564 C23.8987448,7.18430094 23.9047248,7.09457276 23.8687764,7.02040136 C23.8328279,6.94622996 23.761126,6.90035567 23.6835804,6.90191462 Z" fill-opacity=".8" fill="#FFF" transform="translate(.5 4.145833)"/>
    <path d="M11.0271771,5.85657762 C11.3067663,4.31012546 13.6932597,4.34245547 13.9578709,5.83502428 C14.1808765,7.08871024 13.8064267,8.0352611 12.8345215,8.67467686 C12.5549323,8.85428802 12.2869927,8.83812302 12.0307026,8.62618184 C11.1586506,7.90055272 10.8241421,6.97735131 11.0271771,5.85657762 Z" fill="url(#eg36hwh6j__wy1e02789a)" transform="translate(.5 4.145833)"/>
    <path d="M6.58370613,16.1752393 C5.6450853,15.6938813 4.74807,14.9682522 3.89266023,13.9983519 C3.74953719,13.8367018 3.77117207,13.710974 3.95756486,13.6211684 C8.94523621,11.234136 15.9699145,11.169476 20.9725638,13.4110234 C21.1755988,13.500829 21.2038906,13.6373334 21.0574391,13.8205368 C20.4217066,14.610826 19.785974,15.2089312 19.1502415,15.6148524 C15.1028552,18.2048455 10.9140101,18.3916411 6.58370613,16.1752393 Z M5.73994591,14.4240304 C9.78899643,17.4145563 15.2010442,17.4145563 19.2451021,14.2623803 C19.3214888,14.2026749 19.3592713,14.1008962 19.3422121,14.0007854 C19.3251529,13.9006745 19.2562904,13.8200631 19.1652194,13.7935952 C14.6784787,12.5219481 10.2283509,12.5632587 5.81483587,13.9175269 C5.71826921,13.9494606 5.64696771,14.0379357 5.63105235,14.1455761 C5.61513699,14.2532165 5.65738384,14.3612469 5.73994591,14.4240304 Z" fill-opacity=".8" fill="#FFF" transform="translate(.5 4.145833)"/>
  </g>
</svg>
