<?xml version="1.0" encoding="UTF-8"?>
<svg width="94px" height="94px" viewBox="0 0 94 94" version="1.1" xmlns="http://www.w3.org/2000/svg" xmlns:xlink="http://www.w3.org/1999/xlink">
    <title>ic_shzx_jjlx</title>
    <defs>
        <circle id="path-1" cx="30" cy="30" r="30"></circle>
        <filter x="-45.8%" y="-32.5%" width="195.0%" height="195.0%" filterUnits="objectBoundingBox" id="filter-2">
            <feMorphology radius="3" operator="dilate" in="SourceAlpha" result="shadowSpreadOuter1"></feMorphology>
            <feOffset dx="1" dy="9" in="shadowSpreadOuter1" result="shadowOffsetOuter1"></feOffset>
            <feGaussianBlur stdDeviation="5" in="shadowOffsetOuter1" result="shadowBlurOuter1"></feGaussianBlur>
            <feColorMatrix values="0 0 0 0 0   0 0 0 0 0.3019477   0 0 0 0 0.905843099  0 0 0 0.0210541412 0" type="matrix" in="shadowBlurOuter1"></feColorMatrix>
        </filter>
        <linearGradient x1="68.6183233%" y1="-4.8627465%" x2="59.5779819%" y2="69.1292943%" id="linearGradient-3">
            <stop stop-color="#0A59F7" offset="0%"></stop>
            <stop stop-color="#6094FF" offset="100%"></stop>
        </linearGradient>
    </defs>
    <g id="页面-1" stroke="none" stroke-width="1" fill="none" fill-rule="evenodd">
        <g id="守护中心切图" transform="translate(-395.000000, -321.000000)">
            <g id="ic_shzx_jjlx-2" transform="translate(395.000000, 321.000000)">
                <g id="ic_shzx_jjlx" transform="translate(17.000000, 17.000000)">
                    <g id="椭圆形">
                        <use fill="black" fill-opacity="1" filter="url(#filter-2)" xlink:href="#path-1"></use>
                        <use fill="#FFFFFF" fill-rule="evenodd" xlink:href="#path-1"></use>
                    </g>
                    <path d="M38.5052072,14.746796 C39.1341366,18.2526105 39.2399961,21.4034847 38.8227854,24.1994185 C38.5301153,26.1920662 37.3843429,28.1348977 35.3854682,30.027913 C32.5148101,31.7029825 29.7500114,32.0485823 27.0910721,31.0647125 C18.6098654,27.935633 19.5532595,16.4280925 27.9504014,14.0182342 C31.0763675,13.1277698 34.5946361,13.3706237 38.5052072,14.746796 Z M29.5849953,29.7290159 C32.885318,29.7476969 35.1488412,28.4120003 36.375565,25.7219259 C37.5804941,23.0972353 37.038743,19.6879396 37.0667647,16.8017139 C37.0692557,16.5077818 36.9542338,16.2250316 36.7472637,16.0163075 C36.5402936,15.8075835 36.2585241,15.6901902 35.9645814,15.6901902 L29.6130169,15.6901902 C25.9764348,16.1074008 23.8499061,17.8852161 23.2334307,21.0236363 C22.274469,25.874488 24.3916572,28.7762812 29.5849953,29.7290159 Z" id="形状" fill="#030B11" fill-rule="nonzero"></path>
                    <path d="M41.0364925,15.3632714 C41.4786112,15.768028 41.7152381,16.4934763 41.7463732,17.5396163 C41.8273245,20.7403067 41.80553,22.8357003 41.6809895,23.8257971 C41.1952816,27.680325 39.0967745,29.7476969 35.3854682,30.027913 C37.3843429,28.1348977 38.5301153,26.1920662 38.8227854,24.1994185 C39.2399961,21.4034847 39.1341366,18.2526105 38.5052072,14.746796 C39.6011634,14.6222555 40.4449252,14.8277473 41.0364925,15.3632714 Z M35.9645814,15.6901902 C36.2585241,15.6901902 36.5402936,15.8075835 36.7472637,16.0163075 C36.9542338,16.2250316 37.0692557,16.5077818 37.0667647,16.8017139 C37.038743,19.6879396 37.5804941,23.0972353 36.375565,25.7219259 C35.1488412,28.4120003 32.885318,29.7476969 29.5849953,29.7290159 C24.5161977,24.9342074 24.5255382,20.2545988 29.6130169,15.6901902 L35.9645814,15.6901902 Z" id="形状结合" fill="url(#linearGradient-3)" fill-rule="nonzero"></path>
                    <path d="M37.68324,37.5937473 C28.0500338,34.0007544 19.8708377,36.5756288 13.1456518,45.3183706 C12.9852496,45.5186822 12.6932756,45.5520507 12.4918142,45.3930949 L12.2396198,45.1969436 C11.791274,44.8420033 11.7258903,44.4279062 12.0434685,43.9546523 C15.2285913,39.2003195 20.2351186,35.5948725 25.764716,34.6234568 C34.7316306,33.0542467 42.0919731,36.0120831 47.8457433,43.4969661 C48.2629539,44.0449442 48.2567269,44.5835818 47.8270622,45.1128788 C47.6713866,45.3121436 47.4191921,45.3806408 47.0704788,45.3183706 C46.8973691,45.2940344 46.7419424,45.1994269 46.6408141,45.0568356 C43.9507397,41.3081671 40.9648817,38.820471 37.68324,37.5937473 Z" id="路径" fill="#030B11" fill-rule="nonzero"></path>
                </g>
            </g>
        </g>
    </g>
</svg>