<svg xmlns="http://www.w3.org/2000/svg" viewBox="0 0 42 42" class="design-iconfont">
  <g fill="none" fill-rule="evenodd">
    <path stroke-opacity=".541" stroke="#ECEDED" d="M20.895483 0L22.6288897 0.94706938" transform="translate(9.621665 2.955578)"/>
    <path d="M24.0015875,16.1703328 C24.0942783,16.027207 24.1004062,15.844593 24.0175189,15.6955728 C23.9346316,15.5465527 23.7762697,15.4554707 23.6058097,15.458778 C21.7287874,15.4855031 19.9820211,15.1480992 18.3655108,14.4465663 C16.5469367,13.6548363 15.1191306,12.1615735 13.7314032,10.8036063 C11.527071,8.65390912 9.85378244,11.3097122 8.37086803,12.6326027 C6.09973785,14.6570262 3.49962778,15.5840517 0.570537827,15.4136795 C0.36720298,15.4005691 0.174017373,15.5038957 0.0720115667,15.6803195 C-0.0299942401,15.8567434 -0.0231813494,16.0757573 0.0895926122,16.245497 C1.07820222,17.7487818 1.77791071,19.2737806 2.18871808,20.8204936 C2.23213675,20.9808439 2.33233367,21.0326238 2.48930884,20.975833 C8.83511376,18.6006431 15.1809187,18.5989728 21.5267236,20.970822 C21.6970584,21.0342941 21.8039351,20.9791736 21.8473537,20.8054607 C22.2448015,19.3088573 22.9628794,17.7638146 24.0015875,16.1703328" stroke="#B4C0FC" transform="translate(9.621665 2.955578)"/>
    <path d="M17.1831871,25.1599755 C18.3688507,24.65554 19.5161054,23.7903161 20.6249513,22.5643039 C20.7585472,22.417316 20.733498,22.3054048 20.5498036,22.2285703 C16.2313164,20.3544753 10.5301116,20.3945629 6.0362798,21.3867308 C5.06436968,21.6005313 4.18263678,21.9078695 3.39108112,22.3087455 C3.34158573,22.3350208 3.30762652,22.3833747 3.29970202,22.4388584 C3.29177752,22.4943421 3.31084226,22.5502725 3.35100235,22.5893586 C7.36889883,26.5179427 11.9796271,27.374815 17.1831871,25.1599755" stroke="#B4C0FC" transform="translate(9.621665 2.955578)"/>
    <path d="M10.7054563,14.2310955 C10.5252707,14.3436903 10.3960325,14.5196366 10.3447473,14.7221685 C10.0140975,16.0617622 10.4933728,17.037227 11.7825731,17.6485628 C11.9362084,17.7187161 12.0881738,17.7187161 12.2384691,17.6485628 C13.5577286,17.037227 14.0370038,16.0467294 13.6762949,14.67707 C13.6438854,14.5442399 13.5661026,14.4257718 13.4558617,14.3413364 C12.5941682,13.6732098 11.6773664,13.6364629 10.7054563,14.2310955" stroke="#B4C0FC" transform="translate(9.621665 2.955578)"/>
    <path d="M28.8805724,2.00761421 L30.6139791,2.95468359 C37.8782558,7.95227018 40.9259121,14.9141488 39.7569481,23.8403195 C38.8451561,27.6686846 37.1451484,30.9258016 34.6569249,33.6116703 C26.6010925,42.3106779 12.954272,42.0551195 5.05374492,33.2759367 C1.35313868,29.1636178 -0.315140033,24.0624716 0.0489087758,17.9724981 C1.91257148,3.85164348 15.8850319,-3.92534954 28.8805724,2.00761421 Z M31.9866769,18.177947 C32.0793678,18.0348212 32.0854957,17.8522072 32.0026083,17.7031871 C31.919721,17.5541669 31.7613591,17.4630849 31.5908991,17.4663922 C29.7138768,17.4931173 27.9671105,17.1557134 26.3506002,16.4541805 C24.5320261,15.6624505 23.10422,14.1691877 21.7164927,12.8112205 C19.5121604,10.6615233 17.8388719,13.3173264 16.3559575,14.6402169 C14.0848273,16.6646404 11.4847172,17.591666 8.55562726,17.4212937 C8.35229241,17.4081833 8.15910681,17.5115099 8.057101,17.6879338 C7.95509519,17.8643576 7.96190808,18.0833715 8.07468205,18.2531112 C9.06329165,19.756396 9.76300014,21.2813948 10.1738075,22.8281078 C10.2172262,22.9884582 10.3174231,23.040238 10.4743983,22.9834472 C16.8202032,20.6082573 23.1660081,20.606587 29.511813,22.9784363 C29.6821478,23.0419083 29.7890245,22.9867878 29.8324432,22.8130749 C30.2298909,21.3164715 30.9479689,19.7714288 31.9866769,18.177947 Z M25.1682766,27.1675897 C26.3539401,26.6631542 27.5011948,25.7979303 28.6100407,24.5719181 C28.7436366,24.4249302 28.7185874,24.313019 28.5348931,24.2361845 C24.2164058,22.3620895 18.5152011,22.4021771 14.0213692,23.394345 C13.0494591,23.6081455 12.1677262,23.9154837 11.3761706,24.3163597 C11.3266752,24.342635 11.292716,24.3909889 11.2847915,24.4464726 C11.276867,24.5019563 11.2959317,24.5578867 11.3360918,24.5969728 C15.3539883,28.5255569 19.9647165,29.3824292 25.1682766,27.1675897 Z" fill="#FFF" fill-rule="nonzero" transform="translate(1.636576 .947964)"/>
    <path d="M30.6139791,2.95468359 L28.8805724,2.00761421 C29.1477642,1.93412029 29.3899068,1.995922 29.6070001,2.19301933 C29.7272364,2.30326021 29.869182,2.37174318 30.032837,2.39846824 C30.4169252,2.455259 30.6106392,2.64066411 30.6139791,2.95468359 Z" fill-opacity=".078" fill="#000705" fill-rule="nonzero" transform="translate(1.636576 .947964)"/>
    <path d="M31.9866769,18.177947 C30.9479689,19.7714288 30.2298909,21.3164715 29.8324432,22.8130749 C29.7890245,22.9867878 29.6821478,23.0419083 29.511813,22.9784363 C23.1660081,20.606587 16.8202032,20.6082573 10.4743983,22.9834472 C10.3174231,23.040238 10.2172262,22.9884582 10.1738075,22.8281078 C9.76300014,21.2813948 9.06329165,19.756396 8.07468205,18.2531112 C7.96190808,18.0833715 7.95509519,17.8643576 8.057101,17.6879338 C8.15910681,17.5115099 8.35229241,17.4081833 8.55562726,17.4212937 C11.4847172,17.591666 14.0848273,16.6646404 16.3559575,14.6402169 C17.8388719,13.3173264 19.5121604,10.6615233 21.7164927,12.8112205 C23.10422,14.1691877 24.5320261,15.6624505 26.3506002,16.4541805 C27.9671105,17.1557134 29.7138768,17.4931173 31.5908991,17.4663922 C31.7613591,17.4630849 31.919721,17.5541669 32.0026083,17.7031871 C32.0854957,17.8522072 32.0793678,18.0348212 31.9866769,18.177947 L31.9866769,18.177947 Z M18.6905457,16.2387097 C18.5103602,16.3513045 18.381122,16.5272508 18.3298368,16.7297827 C17.9991869,18.0693764 18.4784622,19.0448412 19.7676626,19.656177 C19.9212979,19.7263303 20.0732632,19.7263303 20.2235586,19.656177 C21.542818,19.0448412 22.0220933,18.0543436 21.6613844,16.6846842 C21.6289749,16.5518542 21.551192,16.433386 21.4409511,16.3489506 C20.5792576,15.680824 19.6624558,15.6440771 18.6905457,16.2387097 Z" fill="#6980F8" fill-rule="nonzero" transform="translate(1.636576 .947964)"/>
    <path d="M18.6905457,16.2387097 C19.6624558,15.6440771 20.5792576,15.680824 21.4409511,16.3489506 C21.551192,16.433386 21.6289749,16.5518542 21.6613844,16.6846842 C22.0220933,18.0543436 21.542818,19.0448412 20.2235586,19.656177 C20.0732632,19.7263303 19.9212979,19.7263303 19.7676626,19.656177 C18.4784622,19.0448412 17.9991869,18.0693764 18.3298368,16.7297827 C18.381122,16.5272508 18.5103602,16.3513045 18.6905457,16.2387097 L18.6905457,16.2387097 Z" fill="#FFF" fill-rule="nonzero" transform="translate(1.636576 .947964)"/>
    <path d="M25.1682766,27.1675897 C19.9647165,29.3824292 15.3539883,28.5255569 11.3360918,24.5969728 C11.2959317,24.5578867 11.276867,24.5019563 11.2847915,24.4464726 C11.292716,24.3909889 11.3266752,24.342635 11.3761706,24.3163597 C12.1677262,23.9154837 13.0494591,23.6081455 14.0213692,23.394345 C18.5152011,22.4021771 24.2164058,22.3620895 28.5348931,24.2361845 C28.7185874,24.313019 28.7436366,24.4249302 28.6100407,24.5719181 C27.5011948,25.7979303 26.3539401,26.6631542 25.1682766,27.1675897 Z" fill="#6980F8" fill-rule="nonzero" transform="translate(1.636576 .947964)"/>
  </g>
</svg>
