<svg xmlns="http://www.w3.org/2000/svg" viewBox="0 0 27 27" class="design-iconfont">
  <g fill="none" fill-rule="evenodd">
    <path d="M11.9375,0 L13.0449561,0 C14.9981725,0.105994152 16.7880117,0.601973684 18.4144737,1.4879386 C20.8399123,2.81030702 22.6582602,4.74780702 23.8695175,7.3004386 C24.5244883,8.68055556 24.9013158,10.2273392 25,11.9407895 L25,13.0756579 C24.7953216,16.3234649 23.5869883,19.0628655 21.375,21.2938596 C19.129386,23.5592105 16.3585526,24.7945906 13.0625,25 L11.9276316,25 C9.97807018,24.8881579 8.19736842,24.3921784 6.58552632,23.5120614 C3.98245614,22.0902778 2.08991228,19.9824561 0.907894737,17.1885965 C0.389619883,15.9656433 0.0869883041,14.5804094 0,13.0328947 L0,11.9243421 C0.207602339,8.64802632 1.43384503,5.89035088 3.67872807,3.65131579 C5.91776316,1.41959064 8.67068713,0.20248538 11.9375,0 Z" fill="#A5B3BA" fill-rule="nonzero" transform="translate(.793175 1.244839)"/>
    <g fill="#FFF">
      <path d="M3.80898051,0.116970683 C3.85753045,0.152736921 3.90041124,0.195617711 3.93617748,0.244167648 L6.78928629,4.11704506 C6.98582881,4.38383651 6.92888078,4.75944291 6.66208933,4.95598542 C6.558984,5.03194205 6.43428058,5.07291676 6.30621763,5.07291676 L4.725,5.072 L4.72563856,12.5042086 C4.72563856,13.0564933 4.27792331,13.5042086 3.72563856,13.5042086 L3.18057907,13.5042086 C2.62829432,13.5042086 2.18057907,13.0564933 2.18057907,12.5042086 L2.18,5.072 L0.6,5.07291676 C0.26862915,5.07291676 1.91069383e-13,4.80428761 1.91069383e-13,4.47291676 C1.91069383e-13,4.34485381 0.0409747035,4.22015039 0.116931336,4.11704506 L2.97004015,0.244167648 C3.16658266,-0.0226238078 3.54218906,-0.0795718289 3.80898051,0.116970683 Z" transform="translate(8.247768 6.992735)"/>
      <path d="M5.15020741,11.5419044 C5.74710459,10.5578448 6.47893866,9.77747797 7.34570962,9.20080386 C8.21248058,8.62412976 9.12751528,8.24731463 10.0908137,8.07035848 L10.0908137,5.89107862 C9.23939367,5.99831609 8.32435897,6.2368287 7.34570962,6.60661646 C6.36706028,6.97640421 5.63522621,7.29035656 5.15020741,7.5484735 L5.15020741,11.5419044 Z" opacity=".4416315" transform="translate(8.247768 6.992735)"/>
    </g>
  </g>
</svg>
