<svg xmlns="http://www.w3.org/2000/svg" viewBox="0 0 42 42" class="design-iconfont">
  <g fill="none" fill-rule="evenodd">
    <g stroke="#FFA7A7">
      <path d="M13.3579545,3.28116578 C12.657887,6.04337891 12.8045678,11.0033384 16.2949043,11.7782277 C18.8284819,12.3360144 20.5919852,10.555773 21.0120257,8.16764438 C21.4587355,5.63255398 21.4454008,1.23706126 18.3917731,0.221689082 C15.9848744,-0.579920532 13.971347,0.872996894 13.3579545,3.28116578" transform="translate(10.009026 15.45199)"/>
      <path d="M2.61358531,2.633198 L2.61025165,11.551105 C2.61025165,11.6312659 2.65025551,11.6713464 2.73026322,11.6713464 L4.26374439,11.6680064 C4.32375018,11.6680064 4.35375307,11.6390594 4.35375307,11.5811653 L4.35041942,0.405391286 C4.35041942,0.28960323 4.29263607,0.230595856 4.17706937,0.228369162 L3.19364123,0.225029122 C3.09140915,0.225029122 3.00362291,0.261769563 2.9302825,0.335250444 C2.1257605,1.1212732 1.18900352,1.67460651 0.120011572,1.99525035 C0.0491089909,2.01482001 0,2.08043835 0,2.15557228 L0.00666731119,3.6418901 C0.00666731119,3.70646421 0.0366702037,3.72873114 0.0966759887,3.7086909 C0.936756979,3.45484786 1.69683026,3.07408329 2.34355927,2.50961652 C2.52357663,2.35152129 2.61358531,2.39271512 2.61358531,2.633198" transform="translate(10.009026 15.45199)"/>
      <path d="M9.28089475,2.633198 L9.2775611,11.5911854 C9.2775611,11.6423994 9.30311912,11.6680064 9.35423516,11.6680064 L10.9277202,11.6713464 C10.9899484,11.6713464 11.0210625,11.641286 11.0210625,11.5811653 L11.0177289,0.402051245 C11.0177289,0.28626319 10.9588343,0.228369162 10.8410452,0.228369162 L9.9109555,0.225029122 C9.78872149,0.225029122 9.68315576,0.267336296 9.5942583,0.351950645 C8.76973436,1.12015986 7.85297931,1.66458639 6.84399315,1.98523023 C6.73846003,2.0187825 6.66690456,2.11617611 6.66730774,2.22571312 L6.66730774,3.5750893 C6.66730774,3.67083712 6.71398062,3.70535086 6.80732295,3.67863054 C7.64740394,3.44482774 8.3819192,3.0551564 9.01086872,2.50961652 C9.19088608,2.35374799 9.28089475,2.39494181 9.28089475,2.633198" transform="translate(10.009026 15.45199)"/>
      <path d="M15.2381357,2.85698069 C14.5936292,4.82092424 14.5525141,6.74478732 15.1147905,8.62856991 C15.8748638,11.1703404 18.6584655,10.9198374 19.2351878,8.47492807 C19.6252254,6.83162836 19.8152437,3.6585903 18.6417972,2.20567288 C17.6617027,0.996578376 15.7248493,1.37734294 15.2381357,2.85698069" transform="translate(10.009026 15.45199)"/>
    </g>
    <path d="M39.995068,20.6876864 C39.8128282,24.4173978 38.7216119,27.850959 36.721419,30.98837 C36.4080555,31.4025349 36.0902471,31.8100198 35.7679938,32.2108246 C31.894287,37.0249357 27.011594,39.6090134 21.1199149,39.9630576 C13.2191532,40.4340033 6.31515429,36.3725145 2.36477344,29.4786719 C0.664609528,26.209886 -0.118799332,22.6761236 0.014546857,18.8773847 C0.681277802,11.3890149 4.15383481,5.89576235 10.4322179,2.39762706 C14.0525669,0.378016174 18.1240705,-0.365699412 22.6467288,0.166480304 C28.8573275,0.897949077 34.4178636,4.83919635 37.4681577,10.2567413 C39.2305498,13.3896989 40.0728532,16.8666806 39.995068,20.6876864 Z M22.3500335,17.7851916 C21.649966,20.5474047 21.7966468,25.5073642 25.2869833,26.2822535 C27.8205609,26.8400402 29.5840643,25.0597989 30.0041048,22.6716702 C30.4508145,20.1365798 30.4374799,15.7410871 27.3838521,14.7257149 C24.9769534,13.9241053 22.963426,15.3770227 22.3500335,17.7851916 Z M11.6056643,17.1372238 L11.6023307,26.0551308 C11.6023307,26.1352918 11.6423345,26.1753722 11.7223422,26.1753722 L13.2558234,26.1720322 C13.3158292,26.1720322 13.3458321,26.1430852 13.3458321,26.0851912 L13.3424984,14.9094171 C13.3424984,14.7936291 13.2847151,14.7346217 13.1691484,14.732395 L12.1857203,14.729055 C12.0834882,14.729055 11.9957019,14.7657954 11.9223615,14.8392763 C11.1178395,15.625299 10.1810825,16.1786323 9.1120906,16.4992762 C9.04118802,16.5188458 8.99207903,16.5844642 8.99207903,16.6595981 L8.99874634,18.1459159 C8.99874634,18.21049 9.02874923,18.232757 9.08875502,18.2127167 C9.92883601,17.9588737 10.6889093,17.5781091 11.3356383,17.0136424 C11.5156557,16.8555471 11.6056643,16.896741 11.6056643,17.1372238 Z M18.2729738,17.1372238 L18.2696401,26.0952113 C18.2696401,26.1464252 18.2951981,26.1720322 18.3463142,26.1720322 L19.9197992,26.1753722 C19.9820274,26.1753722 20.0131415,26.1453119 20.0131415,26.0851912 L20.0098079,14.9060771 C20.0098079,14.790289 19.9509133,14.732395 19.8331242,14.732395 L18.9030345,14.729055 C18.7808005,14.729055 18.6752348,14.7713621 18.5863373,14.8559765 C17.7618134,15.6241857 16.8450583,16.1686122 15.8360722,16.4892561 C15.7305391,16.5228083 15.6589836,16.6202019 15.6593868,16.729739 L15.6593868,18.0791151 C15.6593868,18.174863 15.7060596,18.2093767 15.799402,18.1826564 C16.639483,17.9488536 17.3739982,17.5591822 18.0029477,17.0136424 C18.1829651,16.8577738 18.2729738,16.8989677 18.2729738,17.1372238 Z" fill="#FF4F4F" fill-rule="nonzero" transform="translate(1.016947 .947964)"/>
    <path d="M25.2869833,26.2822535 C21.7966468,25.5073642 21.649966,20.5474047 22.3500335,17.7851916 C22.963426,15.3770227 24.9769534,13.9241053 27.3838521,14.7257149 C30.4374799,15.7410871 30.4508145,20.1365798 30.0041048,22.6716702 C29.5840643,25.0597989 27.8205609,26.8400402 25.2869833,26.2822535 Z M24.2302148,17.3610065 C23.5857082,19.3249501 23.5445931,21.2488132 24.1068695,23.1325957 C24.8669428,25.6743662 27.6505445,25.4238632 28.2272668,22.9789539 C28.6173044,21.3356542 28.8073227,18.1626161 27.6338762,16.7096987 C26.6537818,15.5006042 24.7169284,15.8813688 24.2302148,17.3610065 Z" fill="#FFF" fill-rule="nonzero" transform="translate(1.016947 .947964)"/>
    <path d="M11.3356383,17.0136424 C10.6889093,17.5781091 9.92883601,17.9588737 9.08875502,18.2127167 C9.02874923,18.232757 8.99874634,18.21049 8.99874634,18.1459159 L8.99207903,16.6595981 C8.99207903,16.5844642 9.04118802,16.5188458 9.1120906,16.4992762 C10.1810825,16.1786323 11.1178395,15.625299 11.9223615,14.8392763 C11.9957019,14.7657954 12.0834882,14.729055 12.1857203,14.729055 L13.1691484,14.732395 C13.2847151,14.7346217 13.3424984,14.7936291 13.3424984,14.9094171 L13.3458321,26.0851912 C13.3458321,26.1430852 13.3158292,26.1720322 13.2558234,26.1720322 L11.7223422,26.1753722 C11.6423345,26.1753722 11.6023307,26.1352918 11.6023307,26.0551308 L11.6056643,17.1372238 C11.6056643,16.896741 11.5156557,16.8555471 11.3356383,17.0136424 Z" fill="#FFF" fill-rule="nonzero" transform="translate(1.016947 .947964)"/>
    <path d="M18.0029477,17.0136424 C17.3739982,17.5591822 16.639483,17.9488536 15.799402,18.1826564 C15.7060596,18.2093767 15.6593868,18.174863 15.6593868,18.0791151 L15.6593868,16.729739 C15.6589836,16.6202019 15.7305391,16.5228083 15.8360722,16.4892561 C16.8450583,16.1686122 17.7618134,15.6241857 18.5863373,14.8559765 C18.6752348,14.7713621 18.7808005,14.729055 18.9030345,14.729055 L19.8331242,14.732395 C19.9509133,14.732395 20.0098079,14.790289 20.0098079,14.9060771 L20.0131415,26.0851912 C20.0131415,26.1453119 19.9820274,26.1753722 19.9197992,26.1753722 L18.3463142,26.1720322 C18.2951981,26.1720322 18.2696401,26.1464252 18.2696401,26.0952113 L18.2729738,17.1372238 C18.2729738,16.8989677 18.1829651,16.8577738 18.0029477,17.0136424 Z" fill="#FFF" fill-rule="nonzero" transform="translate(1.016947 .947964)"/>
    <path d="M24.2302148,17.3610065 C24.7169284,15.8813688 26.6537818,15.5006042 27.6338762,16.7096987 C28.8073227,18.1626161 28.6173044,21.3356542 28.2272668,22.9789539 C27.6505445,25.4238632 24.8669428,25.6743662 24.1068695,23.1325957 C23.5445931,21.2488132 23.5857082,19.3249501 24.2302148,17.3610065 Z" fill="#FF4F4F" fill-rule="nonzero" transform="translate(1.016947 .947964)"/>
  </g>
</svg>
