<svg xmlns="http://www.w3.org/2000/svg" viewBox="0 0 25 26" class="design-iconfont">
  <defs>
    <linearGradient x1="50%" y1="0%" x2="50%" y2="100%" id="lp20usml8__khfikqn3na">
      <stop stop-color="#FF9870" offset="0%"/>
      <stop stop-color="#FF5E5D" offset="100%"/>
    </linearGradient>
  </defs>
  <g transform="translate(2.880952 3)" fill-rule="nonzero" fill="none">
    <path d="M18.5709921,13.8480059 C19.7223056,15.9443424 18.4473848,17.9550443 16.045872,17.9516233 C11.2475551,17.9470517 6.76237671,17.9413427 2.59033675,17.934492 C2.06059127,17.934492 1.56851657,17.7712152 1.11411267,17.4446617 C-0.298541944,16.4307473 -0.234972487,14.9783835 0.566709008,13.5842512 C1.27303632,12.3533956 1.59206082,10.9147333 1.52378251,9.26826423 C1.49317499,8.55578385 1.50612433,7.85700501 1.56263051,7.17192772 C2.12062909,0.502700293 10.3564055,-2.40887819 15.1982792,2.34213282 C16.6745033,3.79221309 17.4361596,5.6088097 17.483248,7.79192267 C17.499729,8.56606001 17.5056151,9.34933171 17.5009062,10.1417378 C17.4973746,11.4570862 17.9317659,12.6799491 18.5709921,13.8480059 Z M16.3036814,6.55878355 C15.5514429,2.9038962 12.0233379,0.307453265 8.09968975,1.15352372 C4.72697685,1.87970565 2.55855202,4.63029097 2.56914693,7.95976661 C2.57974184,10.3130071 2.63977966,12.0633796 1.35073232,14.3138585 C0.686784651,15.4784899 1.19887195,16.9205776 2.72807057,16.9205776 C7.34274232,16.9160104 11.8679459,16.9160104 16.3036814,16.9205776 C17.610387,16.9205776 18.3237775,15.6771623 17.7551841,14.5536355 C16.9040596,12.8717708 16.3601876,11.4810639 16.4626051,9.55942208 C16.528529,8.38565632 16.4755544,7.38544348 16.3036814,6.55878355 Z" fill-opacity=".8" fill="#FFFEFE"/>
    <path d="M9.24393999,8.86064325 C9.65596425,8.87434479 10.0915328,8.86863581 10.5506455,8.84351631 C11.2816943,8.80583706 11.8396928,9.40185431 11.5289088,10.0766554 C11.0321253,11.1613611 10.4753039,12.2951641 9.85844475,13.4780642 C9.77791878,13.6340047 9.62713864,13.746209 9.44877491,13.7829236 C8.90961173,13.8902524 8.57999232,13.6196468 8.45991668,12.971107 C8.43918752,12.8507477 8.45768949,12.7263267 8.51289123,12.6148668 L9.39580036,10.8165389 C9.46643309,10.6726727 9.42052182,10.5961724 9.25806654,10.587038 C8.58352396,10.5493588 6.90952824,10.9090243 6.88833842,9.80262452 C6.88362957,9.57883261 6.93071806,9.36645865 7.02960388,9.16550264 C7.53815954,8.11961798 8.06672781,7.05318099 8.61530869,5.96619169 C8.69767179,5.80445308 8.85306361,5.68919904 9.03557343,5.65448152 C9.56296449,5.55400352 9.8831662,5.81890007 9.99617857,6.44917118 C10.026011,6.60462638 10.0037141,6.7644192 9.93260912,6.90474758 L9.09207962,8.62086619 C9.01438362,8.77615038 9.06500374,8.85607606 9.24393999,8.86064325 Z" fill="url(#lp20usml8__khfikqn3na)"/>
    <rect fill-opacity=".8" fill="#FFF" x="4.75169831" y="18.9723841" width="9.50716557" height="1.02761594" rx=".51380797"/>
  </g>
</svg>
