<?xml version="1.0" encoding="UTF-8"?>
<svg width="227px" height="227px" viewBox="0 0 227 227" version="1.1" xmlns="http://www.w3.org/2000/svg" xmlns:xlink="http://www.w3.org/1999/xlink">
    <title>ic_srlj_dhbj</title>
    <defs>
        <linearGradient x1="6.80280034%" y1="46.8929736%" x2="91.3521223%" y2="44.13511%" id="linearGradient-1">
            <stop stop-color="#FFFFFF" stop-opacity="0.188" offset="0%"></stop>
            <stop stop-color="#FFFFFF" stop-opacity="0.00186946842" offset="100%"></stop>
        </linearGradient>
        <linearGradient x1="51.5531565%" y1="22.2738405%" x2="54.9326158%" y2="105.931486%" id="linearGradient-2">
            <stop stop-color="#FFFFFF" stop-opacity="0.188" offset="0%"></stop>
            <stop stop-color="#FFFFFF" stop-opacity="0.00186946842" offset="100%"></stop>
        </linearGradient>
        <linearGradient x1="25.6258894%" y1="0%" x2="38.9960746%" y2="100%" id="linearGradient-3">
            <stop stop-color="#FFFFFF" stop-opacity="0.00186946842" offset="0%"></stop>
            <stop stop-color="#FFFFFF" stop-opacity="0.188" offset="100%"></stop>
        </linearGradient>
        <linearGradient x1="89.3040365%" y1="-11.3623193%" x2="6.19685872%" y2="64.0818132%" id="linearGradient-4">
            <stop stop-color="#FFFFFF" stop-opacity="0.46353939" offset="0%"></stop>
            <stop stop-color="#378BF9" offset="100%"></stop>
        </linearGradient>
        <linearGradient x1="-8.99863144%" y1="79.4950675%" x2="89.3040365%" y2="12.3302929%" id="linearGradient-5">
            <stop stop-color="#FFFFFF" stop-opacity="0.599752786" offset="0%"></stop>
            <stop stop-color="#378BF9" offset="100%"></stop>
        </linearGradient>
    </defs>
    <g id="页面-1" stroke="none" stroke-width="1" fill="none" fill-rule="evenodd">
        <g id="骚扰拦截-电话切图" transform="translate(-34.000000, -129.000000)">
            <g id="ic_srlj_dhbj-2" transform="translate(34.284223, 129.875000)">
                <g id="ic_srlj_dhbj" transform="translate(14.284223, 14.020000)">
                    <g id="caller_counterClockwise_Normal@2x" fill-rule="nonzero">
                        <path d="M40.7593141,26.637518 C31.8797598,33.7923501 24.5482779,42.2876799 18.7648685,52.1235072 C18.6939644,52.2439748 18.5982439,52.269958 18.4777069,52.2014568 L13.3548871,49.25 C13.2201694,49.1720504 13.1918078,49.0645743 13.2698022,48.9275719 C19.4904535,38.3240588 27.4045306,29.1779676 37.0120335,21.4892986 C43.752648,16.1131355 51.0817665,11.6900839 58.9993888,8.22014388 C63.9603109,6.04227818 69.077222,4.29313549 74.3501221,2.97271583 C81.4263493,1.19168465 88.6313856,0.200779376 95.965231,0 L101.020692,0 C102.760205,0.129916067 104.499719,0.222038369 106.239232,0.276366906 C107.82512,0.325971223 110.748732,0.712176259 115.010067,1.43498201 C120.606762,2.38455036 126.080557,3.8136271 131.431452,5.72221223 C136.399464,7.47253597 141.200852,9.61260791 145.835616,12.1424281 C146.346125,12.4211571 146.862543,12.7388609 147.38487,13.0955396 C147.498316,13.1734892 147.520769,13.2726978 147.452229,13.3931655 C147.182793,13.8714928 146.962991,14.367536 146.647467,14.8246043 C146.264585,15.374976 145.891157,16.0233753 145.527183,16.7698022 C145.271928,17.2941906 144.924498,17.8197602 144.484893,18.3465108 C144.397445,18.4551679 144.29227,18.4752458 144.16937,18.4067446 C141.536465,16.9186151 139.233264,15.7517326 137.259767,14.9060971 C136.472732,14.5659532 135.70815,14.2199041 134.96602,13.8679496 C133.040974,12.9538129 130.995392,12.291241 129.002987,11.5259173 C123.073043,9.47560552 116.993018,8.02881295 110.762912,7.18553957 C109.80098,7.0556235 107.480054,6.81232614 103.800132,6.45564748 C102.112615,6.4367506 100.445187,6.42375899 98.797849,6.41667266 C92.533821,6.38332522 86.3346945,6.97037094 80.2004693,8.1778098 L79.0510626,8.41147482 L79.0510626,8.41147482 C73.6752728,9.57331815 68.4436021,11.1950486 63.3560506,13.2766662 L62.2680668,13.7297662 L62.2680668,13.7297662 C54.8259746,16.9180482 47.9208021,21.0108408 41.5525493,26.0081441 L40.7593141,26.637518 L40.7593141,26.637518 Z" id="形状结合" fill="url(#linearGradient-1)"></path>
                        <path d="M166.199268,161.054586 C172.391557,154.301313 177.491924,146.789802 181.500368,138.520054 C183.854384,133.625761 185.774702,128.5425 187.261325,123.27027 C188.989021,117.062644 190.056127,110.720378 190.462644,104.243471 C191.230771,91.3983153 189.426263,78.9393645 185.049117,66.8666187 C183.181977,61.8069784 180.89532,56.9315827 178.189148,52.2404317 C178.118243,52.119964 178.14306,52.0254796 178.263597,51.9569784 L183.436049,48.9878058 C183.520063,48.9406832 183.627124,48.9705802 183.677123,49.0551259 C186.586554,54.0604376 189.035108,59.2606235 191.022786,64.6556835 C194.662529,74.7017386 196.654933,85.116283 197,95.8993165 L197,100.891637 L196.819195,104.27536 L196.819195,104.27536 C196.4824,110.059577 195.635637,115.793969 194.278904,121.478535 L194.000757,122.614784 C192.802478,127.424884 191.235342,132.122965 189.299347,136.709026 L188.846031,137.76536 L188.846031,137.76536 C185.104659,146.389424 180.199278,154.293046 174.129889,161.476223 C173.592594,162.110843 173.063176,162.73969 172.541638,163.362762 L171.765238,164.29304 L171.765238,164.29304 C169.418313,166.922068 166.944942,169.396379 164.345126,171.715971 C162.988494,172.927734 161.598775,174.099341 160.175966,175.230791 C155.959537,178.580264 151.790377,181.391175 147.668486,183.663525 C147.524356,183.744323 147.350578,183.752558 147.198848,183.68578 C147.047119,183.619002 146.934921,183.484905 146.895632,183.323381 C146.808183,182.961978 146.645104,182.648999 146.406394,182.384442 C146.191318,182.148231 146.019966,181.874227 145.892339,181.562428 C145.725714,181.16205 145.438553,180.506565 145.112394,180.230198 C145.036763,180.166421 145.002493,180.083747 145.009583,179.982176 C145.015796,179.875219 144.962473,179.774099 144.87132,179.719982 C144.442351,179.464874 144.148099,178.837734 144.580614,178.437356 C144.839413,178.199964 145.04858,178.292086 145.339287,178.104299 C145.776529,177.816121 146.198408,177.543297 146.604925,177.285827 C146.668739,177.245671 146.71719,177.192524 146.750278,177.126385 C146.792821,177.043711 146.861361,177.003555 146.9559,177.005917 C147.031531,177.008279 147.100072,176.988201 147.161522,176.945683 C147.447502,176.75199 147.746481,176.568927 148.058459,176.396493 C148.339712,176.240594 148.603238,176.058711 148.849039,175.850845 C149.208286,175.546133 149.593532,175.270947 150.004776,175.025288 C150.404202,174.789077 150.802447,174.515072 151.199509,174.203273 C151.485489,173.976511 151.870735,173.689514 152.355246,173.342284 C156.6024,170.290438 160.864917,166.558303 165.142797,162.145881 C165.511498,161.784478 165.863655,161.420713 166.199268,161.054586 Z" id="形状结合" fill="url(#linearGradient-2)"></path>
                        <path d="M35.9236559,174.631996 C31.3976121,170.921121 27.2308156,166.838213 23.4232665,162.383273 C19.4479111,157.718106 15.9322505,152.724604 12.8762846,147.40277 C7.15905227,137.437026 3.33377714,126.775641 1.40045922,115.418615 L0.56024587,109.150755 C0.548428523,109.056271 0.520066891,108.967692 0.475160974,108.885018 C0.437345464,108.816517 0.41843771,108.743291 0.41843771,108.665342 C0.41843771,107.798447 0.388894343,106.91738 0.329807609,106.02214 C0.317990263,105.868603 0.254176591,105.74223 0.138366593,105.643022 C0.0461912887,105.56271 0.0225565953,105.467044 0.0674625128,105.356025 C0.105278022,105.263903 0.124185777,105.168237 0.124185777,105.069029 C0.0769163901,102.77542 0.0355556767,100.591649 5.03765455e-05,98.5177158 C-0.0018031044,98.3880242 0.0475544206,98.2628945 0.137314058,98.1698639 C0.227073696,98.0768334 0.349879747,98.0235258 0.478706178,98.0216727 L5.83196423,97.9223786 C5.99703333,97.9185491 6.13456963,98.0496865 6.14039698,98.2165468 C6.18293943,99.5889329 6.20066545,100.953052 6.19357504,102.308903 C6.19357504,102.464802 6.23139055,102.614796 6.30702157,102.758885 C6.36374483,102.872266 6.3968334,102.991553 6.40628728,103.116745 C6.47482789,104.182056 6.52446075,105.21548 6.55518585,106.217014 C6.5740936,106.779197 6.6284534,107.402794 6.71826523,108.087806 C6.77262503,108.496451 6.81634921,108.906277 6.84943778,109.317284 C6.88488982,109.742464 6.93806788,110.147566 7.00897196,110.53259 C7.22641114,111.737266 7.37885491,112.897062 7.46630328,114.011978 C9.29379877,124.166005 12.6341852,133.695092 17.4874625,142.59924 L17.9778332,143.487572 L17.9778332,143.487572 C20.7147307,148.362968 23.8794161,152.967902 27.4718895,157.302374 C30.5727613,160.999077 33.9336147,164.458387 37.5544497,167.680306 C45.8620444,174.96033 55.1717502,180.589239 65.4835669,184.567032 C75.9442822,188.53774 86.7736987,190.560887 97.9718164,190.636475 C98.0285397,190.636475 98.0569013,190.66482 98.0569013,190.721511 L98.0285397,197 L95.4299051,197 C93.9834619,196.888981 92.5370187,196.781505 91.0905754,196.677572 C81.832866,196.011457 72.854046,194.074526 64.1541154,190.866781 C53.8422987,187.018903 44.4321455,181.607308 35.9236559,174.631996 Z" id="形状结合" fill="url(#linearGradient-3)"></path>
                    </g>
                    <circle id="椭圆形" stroke-opacity="0.0767045455" stroke="#FFFDFD" cx="99" cy="97.25" r="56.5"></circle>
                    <path d="M98.5,26.75 C57.0786438,26.75 23.5,60.3286438 23.5,101.75" id="路径" stroke="url(#linearGradient-4)" stroke-width="2"></path>
                    <path d="M183.637096,89.3440701 C142.21574,89.3440701 108.994037,115.010823 108.994037,156.432179" id="路径备份-4" stroke="url(#linearGradient-5)" stroke-width="2" transform="translate(146.315566, 122.888125) scale(-1, 1) rotate(-79.000000) translate(-146.315566, -122.888125) "></path>
                </g>
            </g>
        </g>
    </g>
</svg>