<?xml version="1.0" encoding="UTF-8"?>
<svg width="38px" height="38px" viewBox="0 0 38 38" version="1.1" xmlns="http://www.w3.org/2000/svg" xmlns:xlink="http://www.w3.org/1999/xlink">
    <title>ic_srlj_zdlj</title>
    <defs>
        <linearGradient x1="66.4341407%" y1="-9.89549153%" x2="58.4543543%" y2="70.8840891%" id="linearGradient-1">
            <stop stop-color="#0A59F7" offset="0%"></stop>
            <stop stop-color="#6094FF" offset="100%"></stop>
        </linearGradient>
    </defs>
    <g id="页面-1" stroke="none" stroke-width="1" fill="none" fill-rule="evenodd">
        <g id="骚扰拦截-电话切图" transform="translate(-474.000000, -85.000000)">
            <g id="ic_srlj_zdlj-2" transform="translate(474.000000, 85.000000)">
                <g id="ic_srlj_zdlj" transform="translate(1.000000, 1.000000)">
                    <g id="编组" transform="translate(24.486099, 5.963256)" stroke="#478E80">
                        <line x1="5.93529259" y1="0" x2="3.95314287" y2="2.01346705" id="路径"></line>
                        <line x1="6.79062924" y1="0.80162333" x2="4.85682464" y2="2.76240152" id="路径"></line>
                        <line x1="2.88955034" y1="4.73823367" x2="0.758646421" y2="6.87965938" id="路径"></line>
                        <line x1="0" y1="6.04040115" x2="2.11230964" y2="3.93284685" id="路径"></line>
                    </g>
                    <path d="M13.3630041,10.7504154 C12.8981473,12.2859193 10.7374925,13.2456092 11.9684335,15.164989 C12.665099,16.251383 13.665471,17.4720082 14.9695495,18.8268646 C15.016655,18.8770444 15.016655,18.9259698 14.9695495,18.9736407 L14.3336253,19.6322514 C14.3161018,19.6506503 14.2919369,19.6610445 14.2666859,19.6610445 C14.2414349,19.6610445 14.2172701,19.6506503 14.1997465,19.6322514 C12.7766647,18.1544544 11.6944779,16.8284515 10.9531861,15.6542427 C10.4052748,14.78864 10.3643674,13.7699888 10.8304639,12.5982889 C11.3882921,11.2095612 13.2254065,10.5509505 12.0911557,8.6579151 C10.7697226,6.45501906 9.45820639,4.26843148 8.15660714,2.09815236 C7.49093209,0.987922862 6.22652139,0.954051454 5.13689687,1.51104795 C2.51510409,2.8583773 0.92343415,5.42131386 1.10565805,8.36059941 C1.16515973,9.32154381 1.46514736,10.4631357 2.00562096,11.7853751 C3.87000693,16.3442158 6.52279017,20.3987488 9.96397067,23.9489742 C9.97388762,23.9590102 9.97388762,23.9703007 9.96397067,23.9828456 C9.77802792,24.2688708 9.54126082,24.5185157 9.25366937,24.7317801 C9.21896005,24.75687 9.18549036,24.754361 9.15326028,24.7242531 C5.08731214,20.5066355 2.18536562,15.8110547 0.447420709,10.6375107 C-1.03640244,6.21541021 1.2916008,1.52233842 5.6389423,0.144901144 C7.45374354,-0.430912797 8.72931081,0.795984882 9.60324174,2.29761732 C10.6965851,4.17936222 11.8172001,6.06487062 12.9650867,7.95414251 C13.5204357,8.86992503 13.6530748,9.802016 13.3630041,10.7504154 Z" id="路径" fill="#2F3254" fill-rule="nonzero"></path>
                    <path d="M31.2767287,6.76487973 C33.9567836,9.55237118 35.2472262,13.0900516 35.1480568,17.377921 C35.1356606,17.9273905 34.7402223,18.3677188 33.961742,18.6989059 C33.8476971,18.7490858 33.7286938,18.7666487 33.604732,18.7515948 C32.6279127,18.6311631 32.14942,18.1343825 32.1692539,17.2612528 C32.2461103,13.7812792 31.3040003,10.9360809 29.3429241,8.72565792 L31.2767287,6.76487973 Z M27.3756498,10.7014901 C28.7937732,12.3699706 29.4557294,14.4010006 29.3615184,16.7945801 C29.3416845,17.3340136 28.9636009,17.7580335 28.2272676,18.0666396 C28.1206604,18.1118015 28.0090948,18.1293645 27.8925707,18.1193285 C26.9504607,18.0264957 26.4682492,17.562332 26.4459361,16.7268373 C26.403789,15.2666032 26.0033923,13.9719627 25.2447459,12.8429158 L27.3756498,10.7014901 Z M20.9978135,7.73209661 C23.0506214,7.80485741 24.9174867,8.52619296 26.5984091,9.89610325 L24.4860995,12.0036575 C23.5539065,11.1957617 22.4890743,10.736616 21.291603,10.6262203 C20.3990778,10.5434235 19.8734796,10.0554243 19.7148085,9.16222274 C19.6850577,8.98910221 19.6974538,8.81096369 19.7519971,8.62780718 C19.9428983,8.00557687 20.3581704,7.70700668 20.9978135,7.73209661 Z M20.8602158,2.10191585 C24.3782527,2.27252739 27.5653114,3.5596409 30.4213921,5.9632564 L28.4392423,7.97672345 C26.1013222,6.04228968 23.5340726,4.95338663 20.7374936,4.71001429 C19.8412496,4.630981 19.2462328,3.79924975 19.6143994,2.89977569 C19.8449684,2.33776121 20.2602406,2.07180793 20.8602158,2.10191585 Z" id="形状结合" fill="url(#linearGradient-1)" fill-rule="nonzero"></path>
                    <path d="M31.2767287,6.76487973 L29.3429241,8.72565792 L27.3756498,10.7014901 L25.2447459,12.8429158 L5.75794566,32.5598389 C5.49762581,32.8232832 5.2199513,32.8433551 4.92492214,32.6200547 C4.85302427,32.5673659 4.80963763,32.4933506 4.79476221,32.3980088 C4.75013595,32.1370735 4.8207942,31.9137732 5.00673695,31.7281077 L24.4860995,12.0036575 L26.5984091,9.89610325 L28.4392423,7.97672345 L30.4213921,5.9632564 L31.7638987,4.67614288 C31.8925404,4.55564569 32.0744353,4.51651098 32.2361933,4.57452865 C32.432053,4.64478046 32.5572545,4.77148462 32.6117977,4.95464113 C32.6642893,5.12917118 32.6202871,5.31878428 32.4965132,5.45142178 L31.2767287,6.76487973 Z" id="路径" fill="#2F3254" fill-rule="nonzero"></path>
                    <path d="M26.9405438,23.7118744 C25.0439277,22.4812132 24.4860995,24.1860741 23.1249985,24.8183404 C20.7709633,25.9097524 19.1830122,24.3629581 17.5913423,22.902724 C17.5169652,22.8349812 17.5157256,22.7672384 17.5876234,22.6994956 L18.1714837,22.1575531 C18.2508192,22.0822833 18.3326341,22.0810288 18.4169281,22.1537896 C19.7073708,23.2677826 21.3882933,25.0366228 23.1733437,23.4183221 C24.4377544,22.2704578 25.858357,21.7021708 27.4202761,22.6994956 C29.6689437,24.1346397 32.0180205,25.6500716 34.4675063,27.2457913 C36.3343715,28.4613985 36.4013109,30.4560481 35.1778076,32.2173613 C33.4522589,34.6937376 30.6631176,36.2066605 27.728941,35.9770877 C26.6033676,35.8867639 25.3761454,35.5869392 24.0472746,35.0776136 C19.7978629,33.444259 15.9575253,31.0845509 12.5262618,27.9984893 C12.476677,27.9533274 12.4754374,27.906911 12.5225429,27.8592401 L13.1844991,27.2006294 C13.2266461,27.1579765 13.2687932,27.156722 13.3109402,27.1968659 C16.1918132,29.7936739 19.489198,31.9087552 23.2030945,33.5421097 C25.533577,34.565779 27.4425892,34.9948168 28.9301312,34.8292233 C31.3225946,34.565779 33.1832617,33.3426448 34.5121326,31.1598207 C35.3079675,29.8538897 34.7873278,28.7474237 33.6382016,28.0173067 C31.3349908,26.5495457 29.1024382,25.1144016 26.9405438,23.7118744 Z" id="路径" fill="#2F3254" fill-rule="nonzero"></path>
                </g>
            </g>
        </g>
    </g>
</svg>