<?xml version="1.0" encoding="UTF-8"?>
<svg width="32px" height="32px" viewBox="0 0 32 32" version="1.1" xmlns="http://www.w3.org/2000/svg" xmlns:xlink="http://www.w3.org/1999/xlink">
    <title>ic_srlj_jbxx</title>
    <g id="页面-1" stroke="none" stroke-width="1" fill="none" fill-rule="evenodd">
        <g id="骚扰拦截-短信切图" transform="translate(-354.000000, -233.000000)">
            <g id="ic_srlj_jbxx-2" transform="translate(354.000000, 233.000000)">
                <g id="ic_srlj_jbxx" transform="translate(1.000000, 1.000000)">
                    <rect id="矩形备份-24" fill="#F7F7F7" x="0" y="0" width="30" height="30" rx="6"></rect>
                    <ellipse id="椭圆形" fill="#2E3052" fill-rule="nonzero" transform="translate(15.026264, 7.464361) rotate(90.000000) translate(-15.026264, -7.464361) " cx="15.0262636" cy="7.46436121" rx="1.15025406" ry="1"></ellipse>
                    <path d="M10.5579689,7.57864928 C10.8593139,7.57864928 11.1036023,7.82293764 11.1036023,8.12428261 L11.1036023,9.17130875 C11.1036023,9.47265372 10.8593139,9.71694208 10.5579689,9.71694208 C10.256624,9.71694208 10.0123356,9.47265372 10.0123356,9.17130875 L10.0123356,8.12428261 C10.0123356,7.82293764 10.256624,7.57864928 10.5579689,7.57864928 Z" id="矩形" fill="#2E3052" fill-rule="nonzero" transform="translate(10.557969, 8.647796) rotate(-31.500000) translate(-10.557969, -8.647796) "></path>
                    <path d="M19.4466309,7.56758914 C19.750012,7.56758914 19.995951,7.8135281 19.995951,8.11690919 L19.995951,9.16393532 C19.995951,9.46731641 19.750012,9.71325537 19.4466309,9.71325537 C19.1432499,9.71325537 18.8973109,9.46731641 18.8973109,9.16393532 L18.8973109,8.11690919 C18.8973109,7.8135281 19.1432499,7.56758914 19.4466309,7.56758914 Z" id="矩形" fill="#2E3052" fill-rule="nonzero" transform="translate(19.446631, 8.640422) rotate(32.200000) translate(-19.446631, -8.640422) "></path>
                    <path d="M9.5699302,22.1116669 C9.22175459,22.1116669 8.93950249,21.8294148 8.93950249,21.4812392 L8.93950249,15.4202851 C8.93950249,11.9975764 11.6464817,9.22292271 14.9857097,9.22292271 L15.0741908,9.22292271 C18.4134189,9.22292271 21.1203981,11.9975764 21.1203981,15.4202851 L21.1203981,21.4812392 C21.1203981,21.8294148 20.838146,22.1116669 20.4899704,22.1116669 L9.5699302,22.1116669 Z M10.2151048,21.0093401 L19.8226755,21.0093401 C19.9265174,21.0093401 20.0106978,20.9251597 20.0106978,20.8213178 L20.0106978,15.4018516 C20.0106978,12.5940495 17.7840424,10.3178761 15.0373237,10.3178761 L15.0004566,10.3178761 C13.6814358,10.3178761 12.4164386,10.8535077 11.48375,11.806938 C10.5510614,12.7603684 10.0270825,14.0534974 10.0270825,15.4018516 L10.0270825,20.8213178 C10.0270825,20.9251597 10.1112629,21.0093401 10.2151048,21.0093401 L10.2151048,21.0093401 Z" id="形状" fill="#2E3052" fill-rule="nonzero"></path>
                    <path d="M7.33209618,11.3390952 L8.36437546,11.3390952 C8.66775655,11.3390952 8.91369551,11.5850342 8.91369551,11.8884153 C8.91369551,12.1917964 8.66775655,12.4377353 8.36437546,12.4377353 L7.33209618,12.4377353 C7.02871509,12.4377353 6.78277613,12.1917964 6.78277613,11.8884153 C6.78277613,11.5850342 7.02871509,11.3390952 7.33209618,11.3390952 Z" id="矩形" fill="#2E3052" fill-rule="nonzero" transform="translate(7.848236, 11.888415) rotate(32.300000) translate(-7.848236, -11.888415) "></path>
                    <path d="M21.632851,11.3464687 L22.6798771,11.3464687 C22.9751138,11.3464687 23.2144503,11.5858052 23.2144503,11.8810419 C23.2144503,12.1762785 22.9751138,12.4156151 22.6798771,12.4156151 L21.632851,12.4156151 C21.3376144,12.4156151 21.0982778,12.1762785 21.0982778,11.8810419 C21.0982778,11.5858052 21.3376144,11.3464687 21.632851,11.3464687 Z" id="矩形" fill="#2E3052" fill-rule="nonzero" transform="translate(22.156364, 11.881042) rotate(-31.300000) translate(-22.156364, -11.881042) "></path>
                    <path d="M16.3276728,12.3345074 L18.0825476,12.3345074 C18.3879648,12.3345074 18.6355544,12.582097 18.6355544,12.8875142 C18.6355544,13.1929314 18.3879648,13.4405209 18.0825476,13.4405209 L16.3276728,13.4405209 C16.0222556,13.4405209 15.7746661,13.1929314 15.7746661,12.8875142 C15.7746661,12.582097 16.0222556,12.3345074 16.3276728,12.3345074 Z" id="矩形" fill="#2E3052" fill-rule="nonzero" transform="translate(17.205110, 12.887514) rotate(42.700000) translate(-17.205110, -12.887514) "></path>
                    <rect id="矩形" fill="#2E3052" fill-rule="nonzero" x="7.95515046" y="22.5798793" width="13.9652641" height="1.10601352" rx="0.55300676"></rect>
                </g>
            </g>
        </g>
    </g>
</svg>