<?xml version="1.0" encoding="UTF-8"?>
<svg width="99px" height="99px" viewBox="0 0 99 99" version="1.1" xmlns="http://www.w3.org/2000/svg" xmlns:xlink="http://www.w3.org/1999/xlink">
    <title>ic_srlj_ycczc</title>
    <g id="页面-1" stroke="none" stroke-width="1" fill="none" fill-rule="evenodd">
        <g id="骚扰拦截-电话切图" transform="translate(-515.000000, -1110.000000)" fill="#FFFFFF" fill-rule="nonzero">
            <g id="ic_srlj_ycczc" transform="translate(515.664314, 1110.947385)">
                <g transform="translate(11.964383, 14.500000)" id="形状">
                    <path d="M21.7565272,60.8493815 L21.7565272,66.1255656 C21.7480104,68.0333383 20.7898656,68.9914832 18.8820928,69 L14.4107503,69 C12.4859439,69 11.5277991,68.0418552 11.5363159,66.1255656 L11.5490912,61.0282352 C11.5490912,60.5257415 11.2935859,60.2361688 10.7825753,60.1595172 C7.16291715,59.6485067 3.785989,57.4426444 0.651790868,53.5419304 C0.271198774,53.0699373 0.0637965136,52.4838005 0.0641287182,51.8811461 C0.0556118755,47.5886573 0.0343197686,43.1300901 0.000125781828,38.5054445 C-0.0380733948,33.1142831 8.63633095,32.0283856 9.68390261,25.5385514 C10.4163511,21.0586922 11.0806648,16.7917539 11.6768438,12.7377368 C12.0345512,10.3743129 13.9380656,7.51265376 16.6975226,7.6404064 C17.7195437,7.68299062 18.7373064,7.70428272 19.7508107,7.70428272 C20.2533045,7.69576588 20.5641692,7.44877744 20.683405,6.9633174 C21.3732693,4.34438826 21.7182014,0.103000567 25.4613538,0.0646747746 C32.9306249,-0.0119768101 40.561716,-0.0204936529 48.3546271,0.0391242464 C51.5995442,0.0646747746 52.9153964,3.00298552 53.1325759,6.01794786 C53.2177443,7.25289006 53.8820581,7.82351852 55.1255171,7.72983325 C55.892033,7.66169851 56.6670656,7.63614798 57.4506152,7.65318167 C59.4818822,7.69150746 62.0113845,9.8505271 62.3052155,11.8690188 C62.8588103,15.7101149 63.442214,19.4447505 64.0554267,23.0729255 C64.553662,25.9729104 65.1924252,29.0134233 67.6708265,30.9169376 C69.4167792,32.2625988 71.1158894,33.6167768 72.7681569,34.9794716 C73.5851796,35.6592433 74.0579265,36.6702663 74.0584585,37.7389287 C74.0754922,42.1762038 74.0754922,46.6262541 74.0584585,51.0890797 C74.0456833,54.8577826 67.1087149,60.0956409 63.5444162,60.0062141 C62.9397203,59.9976972 62.6373724,60.2957867 62.6373724,60.9004825 L62.6373724,66.1255656 C62.6288556,68.0418552 61.6707108,69 59.762938,69 L55.2915955,69 C53.3753059,69 52.4171611,68.0418552 52.4171611,66.1255656 L52.4171611,60.6960783 C52.4171611,60.3432991 52.1311771,60.0573151 51.7783979,60.0573151 L22.5613688,60.0573151 C22.0248078,60.0573151 21.7565272,60.3213372 21.7565272,60.8493815 Z M17.0296795,30.6742076 L57.1695594,30.6742076 C57.7833951,30.6742076 58.2810073,30.1765954 58.2810073,29.5627596 L58.2810073,25.8196073 C58.2810073,22.695677 57.7237793,19.6996948 56.731907,17.4907425 C55.7400347,15.2817902 54.3947672,14.0408137 52.992048,14.0408137 L21.2071908,14.0408137 C18.2861793,14.0408137 15.9182315,19.3143592 15.9182315,25.8196073 L15.9182315,29.5627596 C15.9182315,30.1765954 16.4158437,30.6742076 17.0296795,30.6742076 L17.0296795,30.6742076 Z M21.7565272,45.3657614 C21.7565272,42.1978044 19.1883906,39.6296678 16.0204336,39.6296678 C12.8524766,39.6296678 10.28434,42.1978044 10.28434,45.3657614 C10.28434,48.5337184 12.8524766,51.101855 16.0204336,51.101855 C19.1883906,51.101855 21.7565272,48.5337184 21.7565272,45.3657614 L21.7565272,45.3657614 Z M63.9021236,45.3657614 C63.9021236,42.1907488 61.3282673,39.6168925 58.1532547,39.6168925 C54.9782421,39.6168925 52.4043858,42.1907488 52.4043858,45.3657614 C52.4043858,46.8904562 53.0100685,48.3527035 54.0881905,49.4308255 C55.1663126,50.5089476 56.6285599,51.1146302 58.1532547,51.1146302 C59.6779495,51.1146302 61.1401968,50.5089476 62.2183189,49.4308255 C63.2964409,48.3527035 63.9021236,46.8904562 63.9021236,45.3657614 L63.9021236,45.3657614 Z"></path>
                </g>
            </g>
        </g>
    </g>
</svg>