<?xml version="1.0" encoding="UTF-8"?>
<svg width="38px" height="38px" viewBox="0 0 38 38" version="1.1" xmlns="http://www.w3.org/2000/svg" xmlns:xlink="http://www.w3.org/1999/xlink">
    <title>ic_srlj_dxgl</title>
    <defs>
        <linearGradient x1="68.6183233%" y1="-9.89549153%" x2="68.6183233%" y2="100%" id="linearGradient-1">
            <stop stop-color="#0A59F7" offset="0%"></stop>
            <stop stop-color="#6094FF" offset="100%"></stop>
        </linearGradient>
    </defs>
    <g id="页面-1" stroke="none" stroke-width="1" fill="none" fill-rule="evenodd">
        <g id="骚扰拦截-短信切图" transform="translate(-391.000000, -105.000000)">
            <g id="ic_srlj_dxgl-2" transform="translate(391.000000, 105.000000)">
                <g id="ic_srlj_dxgl" transform="translate(0.904762, 2.714286)">
                    <line x1="24.7372416" y1="10.8951395" x2="21.5202917" y2="14.0358039" id="路径" stroke="#3E8F7F"></line>
                    <path d="M21.4166862,14.1818814 C21.1887542,14.0253698 20.8572167,13.9262459 20.4220737,13.8845095" id="路径" stroke="#212739"></path>
                    <line x1="20.4220737" y1="13.8845095" x2="23.1987003" y2="10.952527" id="路径" stroke="#3E8F7F"></line>
                    <line x1="20.4220737" y1="13.8845095" x2="19.9247675" y2="14.0671062" id="路径" stroke="#30835E"></line>
                    <line x1="17.4952192" y1="18.2042274" x2="17.0445354" y2="18.5329016" id="路径" stroke="#30835E"></line>
                    <path d="M17.0445354,18.5329016 C16.7751612,18.477253 16.519601,18.2842222 16.2778549,17.953809" id="路径" stroke="#212739"></path>
                    <line x1="17.0445354" y1="18.5329016" x2="14.3300721" y2="21.3448919" id="路径" stroke="#3E8F7F"></line>
                    <path d="M12.6723845,21.3814112 C12.77599,21.3466309 12.8847757,21.3083725 12.9987418,21.2666361 C13.1023472,21.2283777 13.1938654,21.1675121 13.2732963,21.0840393 C14.1125006,20.1901847 14.9845133,19.2528546 15.8893344,18.272049" id="路径" stroke="#3E8F7F"></path>
                    <path d="M5.07810355,6.36152247 C-0.884391275,12.2150533 -0.0244658701,21.3709771 5.93284868,26.7706245 C6.00537251,26.8367072 6.00882603,26.9062678 5.94320923,26.9793065 L5.48734516,27.5010116 C5.41521478,27.5804128 5.29335725,27.5873593 5.21279066,27.5166628 C1.22052653,23.7638643 -0.478603182,19.3693687 0.115401515,14.3331758 C0.907983364,7.54057591 6.55966178,2.27657183 12.8744152,0.685371394 C18.6314258,-0.768446714 24.0102765,0.0906276223 29.0109672,3.2625944 C29.2112711,3.39128165 29.2319922,3.54257612 29.0731305,3.71647781 L28.9021815,3.89907458 C28.7087846,4.11123464 28.4912131,4.14079792 28.249467,3.98776444 C20.7225296,-0.718015225 11.3255134,0.231487989 5.07810355,6.36152247 Z" id="路径" fill="#2F3359" fill-rule="nonzero"></path>
                    <path d="M24.7372416,10.8951395 L21.5202917,14.0358039 C21.6860605,14.0531941 21.6515253,14.1018866 21.4166862,14.1818814 C21.1887542,14.0253698 20.8572167,13.9262459 20.4220737,13.8845095 L23.1987003,10.952527 L32.4040464,1.68182806 C32.642339,1.44532177 32.8823583,1.44184373 33.1241044,1.67139396 L33.2691521,1.81225433 C33.330663,1.869763 33.3664656,1.94988017 33.368501,2.03438396 C33.3703683,2.11888774 33.3383025,2.20059446 33.2795126,2.26092068 L24.7372416,10.8951395 Z" id="路径" fill="#2F3359" fill-rule="nonzero"></path>
                    <path d="M32.0051653,31.4294507 C32.385052,31.3633681 32.4316745,31.2033785 32.1450327,30.9494821 C30.9069473,29.8539014 29.2699809,27.7618641 30.7981616,26.2541365 C36.4446597,20.6614582 36.6570509,12.5280763 31.2695665,6.5702045 C31.0278204,6.30587393 31.0433612,6.0554555 31.3161889,5.81894921 L31.4612366,5.69895704 C31.6408194,5.54244553 31.8031347,5.55983569 31.9481823,5.75112755 C32.6112573,6.63280911 33.4608222,7.446669 34.0047509,8.39617222 C37.6205818,14.6827182 36.7243945,21.8248605 31.5078591,26.9793065 C31.0554433,27.4257743 31.0304096,28.1523206 31.4508761,28.6331116 L33.761278,31.2729392 C33.8599486,31.3851221 33.8995173,31.5380016 33.8677784,31.6844184 C33.8360395,31.8308352 33.7368063,31.9531978 33.6006896,32.0137604 C30.995012,33.1562945 28.7467733,32.4415585 26.5088951,30.7929705 C26.3362193,30.6677613 26.1514562,30.6434151 25.9546058,30.7199318 C19.8004409,33.1510774 13.8327658,32.7806668 8.05158055,29.6087001 C7.99818947,29.5804727 7.96222662,29.5274577 7.95502988,29.4663688 C7.94783314,29.4052798 7.97028928,29.3436444 8.01531864,29.3008941 L8.39865888,28.9357005 C8.52643896,28.8104913 8.6680331,28.7896231 8.82344131,28.8730959 C14.4146832,31.8085564 20.1440657,32.0433237 26.0115889,29.5773978 C26.1946252,29.500881 26.3690277,29.5130541 26.5347965,29.6139171 C28.3945147,30.7408 29.6792225,31.8259466 32.0051653,31.4294507 Z" id="路径" fill="#2F3359" fill-rule="nonzero"></path>
                    <path d="M15.8893344,18.272049 C14.9845133,19.2528546 14.1125006,20.1901847 13.2732963,21.0840393 C13.1938654,21.1675121 13.1023472,21.2283777 12.9987418,21.2666361 C12.8847757,21.3083725 12.77599,21.3466309 12.6723845,21.3814112 C11.9091576,21.4231476 10.9749816,21.3796722 9.86985656,21.250985 C9.36218975,21.1918584 9.01165791,20.8092747 8.81826103,20.1032338 C8.76991181,19.9397662 8.77163857,19.7623865 8.82344131,19.5710947 C9.04446631,18.7085423 9.59702882,18.2772661 10.4811288,18.2772661 L15.8893344,18.272049 Z M21.0696079,18.3190025 C21.5772747,18.3537828 21.9450741,18.7398446 22.1730062,19.4771877 C22.2317159,19.6615235 22.2317159,19.8406423 22.1730062,20.014544 C21.8932714,20.8805744 21.3009935,21.3153286 20.3961724,21.3188066 L14.3300721,21.3448919 L17.0445354,18.5329016 L17.4952192,18.2042274 C18.5623555,18.1868372 19.7538184,18.2250956 21.0696079,18.3190025 Z M26.4570924,11.1194726 C27.5656709,11.6046584 27.7366199,13.1384712 26.7161061,13.7384321 C25.6593303,14.3592611 22.8412615,14.0566721 21.5202917,14.0358039 L24.7372416,10.8951395 C25.4106771,10.8394909 25.9839607,10.9142687 26.4570924,11.1194726 Z M23.1987003,10.952527 L20.4220737,13.8845095 L19.9247675,14.0671062 C16.747533,14.0810184 13.4494256,14.0636282 10.030445,14.0149357 C9.51241769,14.0079797 9.11180987,13.6132228 8.82862158,12.8306652 C8.7664583,12.6637196 8.76127803,12.495035 8.81308076,12.3246113 C9.08936201,11.4133665 9.69890753,10.9577441 10.6417173,10.9577441 L23.1987003,10.952527 Z" id="形状结合" fill="url(#linearGradient-1)" fill-rule="nonzero"></path>
                    <path d="M20.4220737,13.8845095 C20.8572167,13.9262459 21.1887542,14.0253698 21.4166862,14.1818814 L17.4952192,18.2042274 L17.0445354,18.5329016 C16.7751612,18.477253 16.519601,18.2842222 16.2778549,17.953809 C17.4451432,16.7156289 18.6573272,15.5104903 19.9144069,14.3383929 C19.9731167,14.2827443 19.9765702,14.1923155 19.9247675,14.0671062 L20.4220737,13.8845095 Z" id="路径" fill-opacity="0.996" fill="#131A18" fill-rule="nonzero"></path>
                    <path d="M16.2778549,17.953809 C16.519601,18.2842222 16.7751612,18.477253 17.0445354,18.5329016 L14.3300721,21.3448919 L3.97988556,31.7737761 C3.74159298,32.0102824 3.48948634,32.0276725 3.22356563,31.8259466 L3.06815742,31.7007374 C3.00379291,31.6518999 2.96346888,31.5774794 2.95751573,31.4965413 C2.95156258,31.4156032 2.98055872,31.3360115 3.03707578,31.2781563 L12.6723845,21.3814112 C12.77599,21.3466309 12.8847757,21.3083725 12.9987418,21.2666361 C13.1023472,21.2283777 13.1938654,21.1675121 13.2732963,21.0840393 C14.1125006,20.1901847 14.9845133,19.2528546 15.8893344,18.272049 L16.2778549,17.953809 Z" id="路径" fill="#2F3359" fill-rule="nonzero"></path>
                </g>
            </g>
        </g>
    </g>
</svg>