<?xml version="1.0" encoding="UTF-8"?>
<svg width="227px" height="226px" viewBox="0 0 227 226" version="1.1" xmlns="http://www.w3.org/2000/svg" xmlns:xlink="http://www.w3.org/1999/xlink">
    <title>ic_srlj_dxyj</title>
    <defs>
        <linearGradient x1="71.5112826%" y1="5.9697539%" x2="71.5112826%" y2="100%" id="linearGradient-1">
            <stop stop-color="#FFFFFF" stop-opacity="0.806444288" offset="0%"></stop>
            <stop stop-color="#FFFFFF" stop-opacity="0.275347943" offset="100%"></stop>
        </linearGradient>
    </defs>
    <g id="页面-1" stroke="none" stroke-width="1" fill="none" fill-rule="evenodd">
        <g id="骚扰拦截-短信切图" transform="translate(-324.000000, -121.000000)">
            <g id="ic_srlj_dxyj" transform="translate(324.720681, 121.000000)">
                <g transform="translate(0.500000, 0.500000)">
                    <line x1="0.5" y1="112.5" x2="224.5" y2="112.5" id="直线" stroke-opacity="0.08" stroke="#FFFFFF" stroke-linecap="square"></line>
                    <line x1="0.5" y1="112.5" x2="224.5" y2="112.5" id="直线" stroke-opacity="0.08" stroke="#FFFFFF" stroke-linecap="square" transform="translate(112.500000, 112.500000) rotate(90.000000) translate(-112.500000, -112.500000) "></line>
                    <path d="M120.54897,138.5 L100.328848,138.5 L100.391853,138.486092 L100.391853,138.486092 L100.328848,138.5 L100.328848,138.5 L90.6127273,138.5 L88.6430303,138.153333 L90.6127273,138.5 L79.8975758,138.5 C78.2020606,138.153333 77.133697,137.192121 76.6924848,135.616364 C76.6777778,135.404162 76.6378586,135.222424 76.5727273,135.071152 L76.5727273,89.8122424 C76.9614141,87.9696566 78.078101,86.8655758 79.9227879,86.5 L144.970061,86.5 L146.142424,86.818303 C147.400929,87.3981818 148.162545,88.4140202 148.427273,89.8658182 L148.427273,135.197212 C148.034384,137.039798 146.918747,138.140727 145.080364,138.5 L120.54897,138.5 L120.144868,138.403525 L120.144868,138.403525 L120.54897,138.5 L120.54897,138.5 Z M142.313333,92.6170909 L112.641818,112.392848 C112.553576,112.451677 112.465333,112.451677 112.377091,112.392848 L109.496606,110.476727 L103.817576,106.698061 L100.981212,104.800848 L98.1385455,102.909939 L94.3661818,100.39503 L86.8277576,95.3715152 L82.8190303,92.6990303 C82.799033,92.6867053 82.774001,92.6859039 82.7532563,92.6969246 C82.7325116,92.7079452 82.7191631,92.7291362 82.7181818,92.7526061 L82.7181818,97.2844848 C82.7183697,97.3537564 82.752523,97.41853 82.8095758,97.4578182 L89.1031515,101.753333 L89.1031515,101.753333 L89.2638788,101.854182 L89.2638788,101.854182 L94.3094545,105.301939 L97.3443636,107.375636 L100.095636,109.244485 L100.095636,109.244485 L104.069697,111.957939 L108.437697,114.939273 L112.329818,117.596 C112.430554,117.664771 112.563143,117.664771 112.663879,117.596 L142.143152,97.4767273 C142.231394,97.415798 142.275515,97.3328081 142.275515,97.2277576 L142.313333,92.6170909 L142.313333,92.6170909 Z" id="形状结合" fill="url(#linearGradient-1)" fill-rule="nonzero"></path>
                </g>
            </g>
        </g>
    </g>
</svg>