<?xml version="1.0" encoding="UTF-8"?>
<svg width="23px" height="22px" viewBox="0 0 23 22" version="1.1" xmlns="http://www.w3.org/2000/svg" xmlns:xlink="http://www.w3.org/1999/xlink">
    <title>ic_srlj_bdmd</title>
    <g id="页面-1" stroke="none" stroke-width="1" fill="none" fill-rule="evenodd">
        <g id="骚扰拦截-短信切图" transform="translate(-591.000000, -242.000000)" fill="#A6B6C4" fill-rule="nonzero">
            <g id="ic_srlj_bdmd-2" transform="translate(591.499841, 242.000000)">
                <g id="ic_srlj_bdmd" transform="translate(1.000000, 1.202127)">
                    <path d="M9.44956562,0 L10.3171227,0 C12.1009293,0.206646042 13.4851015,1.021354 14.4696393,2.44412388 C15.2867225,3.62699433 15.576502,4.9927584 15.3389778,6.5414161 C15.335415,6.56635614 15.3211635,6.57763854 15.2962235,6.57526329 L14.4161964,6.52360178 C14.382943,6.52241416 14.3686915,6.50519366 14.373442,6.47194027 C14.6465948,4.81045859 14.2089565,3.41737923 13.0605271,2.29270221 C12.0807398,1.33191688 10.9026198,0.900216667 9.52616717,0.997601583 C7.07848042,1.168619 5.05833722,3.43638117 5.33445908,5.95888803 C5.51972795,7.66668693 6.40569316,8.92140845 7.99235473,9.72305258 C8.05173578,9.75393072 8.06479961,9.79787269 8.03154622,9.8548785 L7.52740114,10.724217 C7.50306056,10.7671567 7.46634981,10.8013786 7.42229668,10.8221957 C6.97693883,11.0395304 6.50307808,11.2087664 6.07553455,11.4599482 C3.44376656,13.0014802 1.7496253,15.2615228 0.993110764,18.2400761 C0.986664153,18.2651002 0.964727352,18.2826496 0.939667822,18.2828425 L0.0311378083,18.2828425 C0.0217035481,18.2830963 0.0126846729,18.2789486 0.00674629614,18.271613 C0.000807919377,18.2642773 -0.00137097888,18.2545925 0.000853474479,18.2454204 C0.752617525,15.0067781 2.5156408,12.525838 5.2899233,10.8026 C5.69252679,10.5531996 6.13254035,10.348335 6.55652102,10.1363447 C6.63252876,10.0983408 6.63727925,10.0532112 6.57077247,10.0009559 C4.17474724,8.1357972 3.57262343,4.80273905 5.41284206,2.29448364 C6.3795655,0.978599649 7.72514002,0.213771768 9.44956562,0 Z" id="路径"></path>
                    <path d="M14.8864942,19.5957454 L14.0135929,19.5957454 C12.2939177,19.3700974 10.9620009,18.6201148 10.0178422,17.3457975 C8.2969795,15.022811 8.61051143,11.9070875 10.7321962,9.95998295 C12.866351,8.00040841 16.0943047,8.01287843 18.2070824,9.98492299 C20.3626144,11.9925962 20.6066705,15.2062984 18.7646704,17.5114707 C17.8181365,18.6943411 16.5254111,19.3890993 14.8864942,19.5957454 Z M19.0211965,14.0430237 C19.0211965,11.5204134 16.9762168,9.47543361 14.4536064,9.47543361 C11.9309961,9.47543361 9.88601631,11.5204134 9.88601631,14.0430237 C9.88601631,16.5656341 11.9309961,18.6106138 14.4536064,18.6106138 C16.9762168,18.6106138 19.0211965,16.5656341 19.0211965,14.0430237 L19.0211965,14.0430237 Z" id="形状"></path>
                    <path d="M13.803384,14.8428864 L16.3169837,12.3292867 C16.3397986,12.3071122 16.3761145,12.3071122 16.3989295,12.3292867 L17.0046162,12.9367548 C17.0267907,12.9595698 17.0267907,12.9958857 17.0046162,13.0187007 L13.8016025,16.2128072 C13.7787875,16.2349817 13.7424717,16.2349817 13.7196567,16.2128072 L11.9560396,14.4491901 C11.9338651,14.4263751 11.9338651,14.3900592 11.9560396,14.3672442 L12.5617263,13.7651204 C12.5845412,13.7429459 12.6208571,13.7429459 12.6436721,13.7651204 L13.7214381,14.8428864 C13.7442531,14.8650609 13.780569,14.8650609 13.803384,14.8428864 Z" id="路径"></path>
                </g>
            </g>
        </g>
    </g>
</svg>