<?xml version="1.0" encoding="UTF-8"?>
<svg width="99px" height="99px" viewBox="0 0 99 99" version="1.1" xmlns="http://www.w3.org/2000/svg" xmlns:xlink="http://www.w3.org/1999/xlink">
    <title>ic_srlj_ycfczj</title>
    <g id="页面-1" stroke="none" stroke-width="1" fill="none" fill-rule="evenodd">
        <g id="骚扰拦截-电话切图" transform="translate(-261.000000, -1110.000000)" fill="#FFFFFF" fill-rule="nonzero">
            <g id="ic_srlj_ycfczj" transform="translate(261.944964, 1110.947385)">
                <g transform="translate(12.054030, 14.500000)">
                    <rect id="矩形" x="0.11315778" y="0" width="40.8996495" height="6.53856239" rx="0.74"></rect>
                    <path d="M41.1797749,67.8970507 C41.1806272,68.1468236 41.0822272,68.3867071 40.9062166,68.5639288 C40.730206,68.7411504 40.4910029,68.841193 40.24123,68.8420479 L1.14466309,68.9786098 C0.894890172,68.9794621 0.655006694,68.8810621 0.477785029,68.7050516 C0.300563363,68.529041 0.200520817,68.2898379 0.199665921,68.0400649 L5.49049173e-06,10.8616822 C-0.000846779763,10.6119093 0.0975531842,10.3720259 0.273563767,10.1948042 C0.449574351,10.0175825 0.688777455,9.91753998 0.938550378,9.91668508 L40.0351173,9.78012313 C40.2848902,9.77927086 40.5247737,9.87767082 40.7019954,10.0536814 C40.879217,10.229692 40.9792596,10.4688951 40.9801145,10.718668 L41.1797749,67.8970507 Z M16.3801861,16.2028536 C16.3741146,15.3409773 15.6705206,14.6472014 14.808644,14.6532021 L11.4991359,14.6762473 C11.085224,14.6791274 10.6894102,14.8463206 10.3987742,15.1410442 C10.1081381,15.4357677 9.94648861,15.8338777 9.94935058,16.2477894 L9.97347131,19.6919704 C9.97954287,20.5538467 10.6831369,21.2476226 11.5450134,21.2416219 L14.8545216,21.2185767 C15.2684334,21.2156966 15.6642472,21.0485033 15.9548833,20.7537798 C16.2455194,20.4590563 16.4071688,20.0609463 16.4043069,19.6470346 L16.3801861,16.2028536 Z M31.0273731,16.3407554 C31.0257399,15.4417355 30.2956541,14.7142398 29.3966341,14.715799 L26.2484374,14.7211831 C25.8166643,14.7219317 25.402875,14.8941804 25.0981078,15.2000326 C24.7933406,15.5058847 24.6225634,15.9202835 24.6233464,16.3520566 L24.6287306,19.4733456 C24.6303638,20.3723655 25.3604496,21.0998612 26.2594696,21.098302 L29.4076663,21.0929179 C29.8394394,21.0921693 30.2532287,20.9199205 30.5579959,20.6140684 C30.8627631,20.3082163 31.0335403,19.8938174 31.0327574,19.4620444 L31.0273731,16.3407554 Z M16.497369,28.8085561 C16.4953778,28.519508 16.3786315,28.2430924 16.1728182,28.0401303 C15.9670048,27.8371681 15.6889877,27.7242889 15.3999399,27.7263026 L10.9603099,27.7574082 C10.3584985,27.7616288 9.8740426,28.252891 9.87819139,28.8547027 L9.91010376,33.4288711 C9.91209496,33.7179192 10.0288413,33.9943347 10.2346546,34.1972969 C10.4404679,34.400259 10.7184851,34.5131383 11.0075328,34.5111245 L15.4471629,34.480019 C16.0489743,34.4757984 16.5334302,33.9845362 16.5292814,33.3827244 L16.497369,28.8085561 Z M31.0954649,28.9023293 C31.098653,28.2856594 30.6013707,27.7831369 29.9847011,27.7798761 L25.7601979,27.7576622 C25.4640379,27.756139 25.1793972,27.8723148 24.9688955,28.0806466 C24.7583938,28.2889784 24.639275,28.5724001 24.6377447,28.8685602 L24.6144541,33.3081902 C24.6112661,33.9248601 25.1085483,34.4273826 25.7252179,34.4306434 L29.9497212,34.4528573 C30.2458812,34.4543805 30.5305219,34.3382047 30.7410235,34.1298729 C30.9515252,33.9215411 31.070644,33.6381194 31.0721744,33.3419593 L31.0954649,28.9023293 Z M16.4824353,41.9298094 C16.4813959,41.3651553 16.0228492,40.9082349 15.458195,40.9092002 L10.9377075,40.9170049 C10.6665024,40.9174684 10.4065914,41.0256581 10.2151612,41.2177696 C10.0237309,41.4098811 9.91646523,41.6701748 9.91696347,41.9413797 L9.92503751,46.5425903 C9.92607684,47.1072444 10.3846235,47.5641648 10.9492777,47.5631995 L15.4697653,47.5553948 C15.7409703,47.5549313 16.0008814,47.4467417 16.1923116,47.2546302 C16.3837419,47.0625187 16.4910075,46.8022249 16.4905093,46.53102 L16.4824353,41.9298094 Z M31.0681382,41.9400343 C31.0661825,41.6581461 30.9523238,41.388581 30.7516111,41.1906437 C30.5508983,40.9927063 30.279774,40.8826119 29.9978859,40.8845552 L25.6658865,40.9148523 C25.3839983,40.916808 25.1144331,41.0306668 24.9164958,41.2313795 C24.7185585,41.4320923 24.608464,41.7032166 24.6104074,41.9851047 L24.6417808,46.4785501 C24.6437365,46.7604383 24.7575952,47.0300034 24.958308,47.2279407 C25.1590207,47.4258781 25.430145,47.5359725 25.7120331,47.5340291 L30.0440325,47.5037321 C30.3259207,47.5017764 30.5954859,47.3879176 30.7934232,47.1872049 C30.9913605,46.9864921 31.101455,46.7153678 31.0995116,46.4334797 L31.0681382,41.9400343 Z M30.9996582,55.7295395 C31.0052997,55.32637 30.8505497,54.9374725 30.5694522,54.6484021 C30.2883548,54.3593317 29.9039364,54.193768 29.5007668,54.188134 L26.2452085,54.14266 C25.842016,54.1370187 25.4530984,54.2917871 25.1640241,54.5729136 C24.8749498,54.8540401 24.7094016,55.2384929 24.703803,55.641686 L24.6564455,59.0316481 C24.650804,59.4348176 24.805554,59.823715 25.0866515,60.1127855 C25.3677489,60.4018559 25.7521673,60.5674196 26.1553369,60.5730536 L29.4108952,60.6185276 C29.8140877,60.6241689 30.2030053,60.4694005 30.4920796,60.188274 C30.7811539,59.9071475 30.9467021,59.5226947 30.9523007,59.1195016 L30.9996582,55.7295395 Z M16.2556037,55.1523701 C16.2517534,54.610002 15.808981,54.1734335 15.2666125,54.1772117 L10.9884284,54.2071039 C10.4460605,54.2108803 10.009432,54.6535923 10.0131364,55.1959605 L10.0442385,59.6357251 C10.0480887,60.1780933 10.4908612,60.6146618 11.0332297,60.6108835 L15.3114137,60.5809914 C15.8537817,60.5772149 16.2904101,60.134503 16.2867057,59.5921347 L16.2556037,55.1523701 Z" id="形状"></path>
                    <path d="M46.6600022,19.7502255 L73.1170652,19.7502255 C73.5312788,19.7502255 73.8670652,20.0860119 73.8670652,20.5002255 L73.8670652,23.8974204 C73.8670652,24.3116339 73.5312788,24.6474204 73.1170652,24.6474204 L46.6600022,24.6474204 C46.2457886,24.6474204 45.9100022,24.3116339 45.9100022,23.8974204 L45.9100022,20.5002255 C45.9100022,20.0860119 46.2457886,19.7502255 46.6600022,19.7502255 Z" id="矩形" transform="translate(59.888534, 22.198823) rotate(-0.600000) translate(-59.888534, -22.198823) "></path>
                    <path d="M73.7391193,67.7374883 C73.7385489,68.0729205 73.6047424,68.3943857 73.3671397,68.6311558 C73.129537,68.8679258 72.8076041,69.000603 72.4721719,68.9999979 L47.0444293,68.9555982 C46.7090204,68.9549922 46.3875897,68.82117 46.1508488,68.5835712 C45.9141078,68.3459723 45.7814491,68.0240598 45.7820541,67.6886509 L45.8495945,28.941749 C45.8501649,28.6063168 45.9839713,28.2848516 46.221574,28.0480815 C46.4591767,27.8113114 46.7811096,27.6786343 47.1165418,27.6792393 L72.5442844,27.7236391 C72.8796934,27.7242451 73.201124,27.8580673 73.437865,28.0956661 C73.674606,28.333265 73.8072646,28.6551775 73.8066596,28.9905864 L73.7391193,67.7374883 Z M54.0854923,37.5878542 C55.1893211,38.0293679 56.4957539,37.3582317 57.0034939,36.0888282 C57.2473108,35.4792285 57.2705632,34.8103742 57.0681358,34.229408 C56.8657085,33.6484417 56.4541834,33.2029541 55.924093,32.9909489 C54.8202641,32.5494351 53.5138314,33.2205714 53.0060913,34.4899748 C52.7622745,35.0995745 52.7390221,35.7684288 52.9414495,36.3493951 C53.1438768,36.9303613 53.5554018,37.375849 54.0854923,37.5878542 L54.0854923,37.5878542 Z M66.8558697,33.9335243 C66.5449037,33.4378054 66.0257353,33.1009853 65.4125757,32.9971604 C64.7994161,32.8933355 64.142492,33.0310108 63.5863194,33.3798991 C63.0301302,33.7287901 62.6202562,34.2603251 62.4468689,34.8575673 C62.2734817,35.4548096 62.350785,36.0688338 62.6617721,36.5645557 C62.9727381,37.0602746 63.4919065,37.3970948 64.1050661,37.5009197 C64.7182257,37.6047445 65.3751497,37.4670693 65.9313224,37.1181809 C66.4875116,36.76929 66.8973856,36.237755 67.0707729,35.6405127 C67.2441601,35.0432705 67.1668568,34.4292462 66.8558697,33.9335243 L66.8558697,33.9335243 Z M53.3897946,45.4099122 C54.3502988,46.23024 55.8760923,46.0204442 56.7977848,44.9413152 C57.2404167,44.4230656 57.4816734,43.7695356 57.4684776,43.124504 C57.4552817,42.4794724 57.1887144,41.8957807 56.7274213,41.501843 C55.7669171,40.6815152 54.2411237,40.891311 53.3194311,41.97044 C52.8767992,42.4886896 52.6355425,43.1422196 52.6487384,43.7872512 C52.6619342,44.4322828 52.9285015,45.0159745 53.3897946,45.4099122 L53.3897946,45.4099122 Z M62.5254848,42.4199325 L62.7272923,44.7608993 C62.7477677,45.0003461 62.8630111,45.2217035 63.0474233,45.3758013 C63.2318355,45.5298992 63.4701471,45.6039782 63.709422,45.5815831 L65.0413514,45.4604986 C66.4255822,45.3451843 67.4795194,44.4116971 67.395772,43.3751546 L67.3554105,42.9984473 C67.3148811,42.5000226 67.0113144,42.0440939 66.5116212,41.7311547 C66.0119281,41.4182156 65.357129,41.2739557 64.6915517,41.3301721 L63.3461685,41.4512566 C62.8530495,41.4940601 62.4866922,41.9264817 62.5254848,42.4199325 Z M56.6730678,53.68079 L57.5072054,50.7478546 C57.6445813,50.246317 57.3494632,49.7283545 56.8479676,49.590825 L55.7043919,49.2679331 C54.4838934,48.9179563 53.2073786,49.6344906 52.8521795,50.8689391 L52.7849103,51.1380157 C52.4347061,52.3730205 53.1389634,53.6551299 54.3590087,54.0036819 L55.5160383,54.3265739 C56.0135366,54.464917 56.5296554,54.1768507 56.6730678,53.68079 L56.6730678,53.68079 Z M66.5078191,49.6580942 L63.38653,49.5504635 C63.1510004,49.543218 62.9222494,49.6298892 62.7506556,49.7913893 C62.5790618,49.9528893 62.4786987,50.1759726 62.4716694,50.4115088 L62.4447618,51.1783772 C62.421669,51.839698 62.6073568,52.4810534 62.9607909,52.9607141 C63.3142251,53.4403747 63.8063085,53.7188515 64.3282983,53.7346053 L65.2969742,53.761513 C66.3801083,53.7958132 67.29518,52.7121756 67.3419567,51.3398232 L67.3688643,50.5729548 C67.3761098,50.3374252 67.2894386,50.1086742 67.1279386,49.9370804 C66.9664385,49.7654866 66.7433552,49.6651234 66.5078191,49.6580942 Z M57.2718979,59.3505039 C57.3760579,58.450024 56.7305276,57.6355969 55.8300507,57.5314113 L54.8946058,57.4231079 C54.4621578,57.3730502 54.0275372,57.4968392 53.6863627,57.7672406 C53.3451881,58.037642 53.1254093,58.432504 53.0753786,58.8649551 L52.8991334,60.3886016 C52.7949734,61.2890814 53.4405037,62.1035086 54.3409806,62.2076942 L55.2764255,62.3159976 C55.7088734,62.3660552 56.1434941,62.2422663 56.4846686,61.9718649 C56.8258431,61.7014635 57.045622,61.3066014 57.0956527,60.8741504 L57.2718979,59.3505039 Z M67.2246392,59.0581521 C67.2113249,58.6337308 67.0299485,58.2319834 66.7204138,57.9412963 C66.4108791,57.6506092 65.9985436,57.4947959 65.5741231,57.5081361 L64.2025049,57.5513229 C63.3187436,57.5791213 62.6248431,58.3180771 62.6526235,59.201839 L62.6966175,60.6002303 C62.7099318,61.0246517 62.8913082,61.4263991 63.2008429,61.7170862 C63.5103776,62.0077733 63.9227131,62.1635865 64.3471336,62.1502463 L65.7187518,62.1070595 C66.6025132,62.0792612 67.2964136,61.3403054 67.2686333,60.4565434 L67.2246392,59.0581521 Z" id="形状"></path>
                </g>
            </g>
        </g>
    </g>
</svg>