<?xml version="1.0" encoding="UTF-8"?>
<svg width="99px" height="99px" viewBox="0 0 99 99" version="1.1" xmlns="http://www.w3.org/2000/svg" xmlns:xlink="http://www.w3.org/1999/xlink">
    <title>ic_srlj_ycsrdh</title>
    <g id="页面-1" stroke="none" stroke-width="1" fill="none" fill-rule="evenodd">
        <g id="骚扰拦截-电话切图" transform="translate(-135.000000, -1110.000000)" fill="#FFFFFF" fill-rule="nonzero">
            <g id="ic_srlj_ycsrdh-2备份-3" transform="translate(135.085289, 1110.947385)">
                <g id="编组-8" transform="translate(8.846154, 13.000000)">
                    <path d="M45.7108103,16.3597753 L43.1368712,17.2121941 C42.4574558,17.4360617 42.174366,17.1949735 42.2876019,16.4889296 C43.4112505,9.34238802 47.6426904,4.60917258 53.9839009,1.73333535 C63.6917019,-2.65791312 74.5467682,1.59743117 78.7016547,11.0773617 C83.2877088,21.5517808 77.6825316,33.3048282 66.5897685,36.61118 C65.3441736,36.9814225 64.3598923,36.6370108 63.6369246,35.577945 C63.4801364,35.3540775 63.4060976,35.1086842 63.414808,34.8417651 C63.4235185,33.8860228 63.8851725,33.2488613 64.7997702,32.9302805 C71.9771843,30.4074652 75.7096138,25.7622132 75.9970588,18.9945244 C76.7287369,1.8169936 51.6295638,-1.9155676 46.8475246,15.1844705 C46.6820259,15.7785806 46.3031212,16.1703489 45.7108103,16.3597753 Z" id="路径"></path>
                    <path d="M66.5767028,29.158973 C58.6589001,27.7511904 56.2678805,39.3105062 63.6761216,41.2219908 C66.9860941,42.08302 69.5251915,40.9809027 71.2934136,37.9156391 C71.4543139,37.6310758 71.7124551,37.4077997 72.0250918,37.2827827 C74.6817802,36.2667683 76.9073012,34.8331548 78.7016547,32.9819423 C79.032652,32.6375306 79.3897806,32.6030894 79.7730406,32.8786188 C79.9559601,33.0077731 80.0517751,33.1799789 80.0604856,33.3952362 C80.069196,33.6018832 80.0256437,33.7999199 79.9298287,33.9893463 C75.8707572,41.9796965 71.8421722,49.9054694 67.8440739,57.7666652 C67.6793695,58.0933617 67.3776061,58.3301024 67.020936,58.412437 L11.1651499,71.9607301 C10.6512331,72.0898845 10.3245911,71.9004581 10.1852238,71.3924509 L0.0331896935,34.0539235 C-0.0998141091,33.5810657 0.178545814,33.0880725 0.660342379,32.9431959 L56.6075882,16.6051686 C56.862216,16.5240464 57.1391343,16.5672675 57.3523321,16.7214075 L68.7194745,24.871048 C69.1549972,25.1810185 69.3640481,25.6029228 69.3466272,26.1367608 C69.3292063,27.1011134 68.8675522,27.9793631 67.961665,28.7715099 C67.5696946,29.1245318 67.1080405,29.2536862 66.5767028,29.158973 Z M38.3290925,31.5546573 C38.2791002,31.3763933 38.1595106,31.2250646 37.9966365,31.133967 C37.8337624,31.0428694 37.6409479,31.0194666 37.4606167,31.0689078 L36.6044227,31.3035813 C36.424109,31.3530264 36.2710511,31.4712522 36.1789202,31.6322503 C36.0867892,31.7932483 36.0631321,31.9838303 36.1131531,32.1620703 L41.4902034,51.3284492 C41.5401958,51.5067132 41.6597853,51.658042 41.8226594,51.7491395 C41.9855336,51.8402371 42.1783481,51.8636399 42.3586792,51.8141988 L43.2148733,51.5795253 C43.3951869,51.5300801 43.5482448,51.4118543 43.6403758,51.2508563 C43.7325067,51.0898583 43.7561639,50.8992762 43.7061429,50.7210362 L38.3290925,31.5546573 Z M48.7028513,42.5910271 L54.9090497,40.7441197 C55.3707038,40.6149653 55.5492681,40.3179103 55.4447426,39.8529546 C54.895984,37.4506833 53.8028221,35.6898788 52.1652567,34.570541 C49.120953,32.4911557 45.3319056,35.0484121 44.7700813,38.2643558 C43.6594984,44.657497 48.2324867,52.2905201 55.9673699,47.2922461 C56.4605176,46.9703472 56.670257,46.3589967 56.4769314,45.8069709 L56.3070776,45.3032688 C56.248052,45.1370746 56.1095374,45.0108174 55.9355401,44.9646094 C55.7615429,44.9184014 55.5736953,44.9579874 55.431677,45.070791 C52.1217044,47.7744224 49.6305146,47.5204188 47.9581074,44.3087802 C47.7927347,43.9895981 47.7801939,43.613986 47.9238474,43.2826489 C48.0675009,42.9513118 48.3526527,42.6981459 48.7028513,42.5910271 L48.7028513,42.5910271 Z M14.0134683,42.7847587 C14.7886987,41.2779577 16.252055,40.5934396 18.4035371,40.7312042 C18.995848,40.7656454 19.5446066,40.636491 20.0498129,40.3437411 L20.3503236,40.162925 C20.9426345,39.8099031 20.9382792,39.4697966 20.3372579,39.1426055 C19.1090839,38.4623925 17.7371874,38.3246279 16.2215684,38.7293116 C12.4499418,39.7281053 10.995296,41.9753913 11.857631,45.4711695 C13.37325,51.6447482 23.7865977,48.0930031 22.3624384,54.3957362 C22.2535007,54.8613612 21.9742969,55.2707511 21.5784976,55.5452101 C19.7928545,56.7592611 17.711056,57.3017095 15.3331021,57.1725551 C14.6711076,57.138114 14.5099642,57.4007278 14.8496719,57.9603968 L15.0587228,58.2961981 C15.407141,58.8644773 15.9167025,59.1400066 16.5874075,59.1227861 C21.9530471,58.9764111 24.5748938,56.8970258 24.4529474,52.8846301 C24.3222906,48.1059186 19.9191561,47.8346944 16.3391595,46.9564447 C15.3766341,46.7190497 14.5526092,46.1081143 14.1000683,45.2963736 C13.6475274,44.4846328 13.6156571,43.5603144 14.0134683,42.7847587 L14.0134683,42.7847587 Z M35.1929371,52.820053 C35.6720121,53.1902955 36.2033498,53.384027 36.7869502,53.4012476 C37.5099179,53.4270785 37.7755868,53.0955823 37.5839568,52.406759 C36.68678,49.212341 35.8026689,46.1212465 34.9316235,43.1334755 C33.4682673,38.0835397 28.5947683,39.155521 25.6941871,41.9840016 C25.5123234,42.1645591 25.4110938,42.409217 25.4135112,42.6622501 C25.4160164,42.9152832 25.5219591,43.1551466 25.7072528,43.327207 L26.0730918,43.6759238 C26.2305701,43.8258082 26.4769187,43.8420426 26.6610475,43.7146701 L28.973673,42.1389868 C30.2279784,41.2779577 31.2862985,41.4673841 32.1486335,42.7072661 L32.5928666,43.3659533 C33.2635716,44.3303059 33.0501655,45.0406549 31.9526483,45.4970004 C28.3857174,46.995191 24.9494433,48.8679293 27.3927256,53.4270785 C28.9867387,56.4105444 33.1285596,55.661449 34.4351277,52.9879536 C34.6180472,52.6177111 34.8706504,52.5617442 35.1929371,52.820053 Z" id="形状"></path>
                    <path d="M47.7359909,40.7570351 C47.4618859,40.8414831 47.1701906,40.6915457 47.0827068,40.4212338 L47.0043127,40.162925 C46.4469667,38.4157134 47.1428555,36.6410813 48.5591288,36.197886 L48.8596394,36.1074779 C50.2744202,35.6727059 51.8686913,36.7291041 52.4265703,38.4710028 L52.5180301,38.7293116 C52.6034605,39.0002645 52.4517789,39.2886056 52.1783224,39.3750834 L47.7359909,40.7570351 Z" id="路径"></path>
                    <path d="M32.044108,52.9750382 C31.4530172,53.2827439 30.7482935,53.2906886 30.1502572,52.9963884 C29.5522208,52.7020883 29.1338479,52.1414556 29.0259357,51.489763 C28.6600967,49.2769182 29.9448886,47.8433047 32.8803116,47.1889226 C33.2409846,47.1061049 33.6111412,47.2972467 33.7557122,47.6409629 C34.748704,50.0862855 34.1781693,51.8643106 32.044108,52.9750382 Z" id="路径"></path>
                </g>
            </g>
        </g>
    </g>
</svg>