<?xml version="1.0" encoding="UTF-8"?>
<svg width="99px" height="98px" viewBox="0 0 99 98" version="1.1" xmlns="http://www.w3.org/2000/svg" xmlns:xlink="http://www.w3.org/1999/xlink">
    <title>ic_srlj_ycsrdh</title>
    <g id="页面-1" stroke="none" stroke-width="1" fill="none" fill-rule="evenodd">
        <g id="骚扰拦截-电话切图" transform="translate(-43.000000, -871.000000)" fill="#FFFFFF" fill-rule="nonzero">
            <g id="ic_srlj_ycsrdh-2" transform="translate(43.284223, 871.000000)">
                <g id="ic_srlj_ycsrdh" transform="translate(13.387097, 3.000000)">
                    <path d="M15.6532066,18.0501934 C29.0286711,9.45038568 42.2401453,9.60377107 55.2876292,18.5103496 C55.6976051,18.7864433 56.0922069,18.7659919 56.4714347,18.4489954 C62.6620711,13.3054719 67.074437,7.43592418 69.7085324,0.840352281 C69.9955155,0.114328087 70.2158776,0.134779473 70.3696185,0.901706438 C72.4809946,11.9965832 70.6873499,21.2866252 64.9886845,28.7718324 C64.6094568,29.283117 64.5530851,29.8301916 64.8195694,30.4130561 C68.8373335,39.1969262 69.1499402,47.8989909 65.7573894,56.51925 C64.1174857,60.681107 60.7761819,65.3695871 55.733478,70.5846905 C48.8151342,77.7222241 42.2555194,84.752388 36.0546336,91.6751821 C35.8656517,91.8845609 35.5956043,92.00283 35.3132065,91.9999485 C35.0308088,91.9969604 34.7632894,91.8731045 34.5787202,91.6598435 C29.2900308,85.5755563 23.8937227,79.7162342 18.3897959,74.0818775 C11.4714521,66.9852466 7.0949591,61.2997614 5.26031684,57.0254218 C1.38604434,48.0063606 1.63202989,38.905494 5.9982735,29.7228218 C6.28525665,29.1195059 6.22888496,28.5468671 5.82915843,28.0049054 C0.601965381,21.0003058 -1.10968411,11.8943263 0.694209964,0.686966888 C0.837701538,-0.202668392 1.08368709,-0.228232624 1.43216663,0.610274191 C4.11750894,7.09336347 8.36588447,12.8708799 14.1772932,17.9428236 C14.6487655,18.3416256 15.1407366,18.3774156 15.6532066,18.0501934 Z M23.002025,26.5937598 C22.9408345,26.4419549 22.807848,26.3305521 22.6473988,26.2966895 C22.4869496,26.2628268 22.3201374,26.3109573 22.202572,26.4250358 L15.730077,32.7598526 C15.6149017,32.8749792 15.5643743,33.0395552 15.5951634,33.1992881 C15.6259524,33.3590211 15.7340585,33.4931612 15.883818,33.5574566 L26.7533047,38.174357 C26.9346686,38.248182 27.1426493,38.2076333 27.2828147,38.0711216 C27.4229802,37.9346099 27.468622,37.7281474 27.3990168,37.5454768 L23.002025,26.5937598 Z M55.0570177,33.6494879 C55.2104977,33.583781 55.3200839,33.4448765 55.3480444,33.2806009 C55.3760049,33.1163254 55.3185208,32.949116 55.1953846,32.8365453 L48.4461559,26.7011296 C48.3264424,26.5946854 48.1622435,26.5531301 48.0061496,26.5897731 C47.8500556,26.6264161 47.7216567,26.7366588 47.662077,26.885192 L43.1882147,37.5454768 C43.1142185,37.7264212 43.1548612,37.9339209 43.2916894,38.0737622 C43.4285175,38.2136034 43.6354587,38.2591397 43.8185527,38.1896955 L55.0570177,33.6494879 Z M27.5220096,62.6700042 L23.2633847,52.3778444 C23.0583967,51.8972368 22.6996678,51.6518202 22.1871979,51.6415945 L16.4065373,51.5341833 C16.1398989,51.5317042 15.8853804,51.6444085 15.7106488,51.8423735 C15.5359172,52.0403386 15.4586778,52.3035051 15.4994656,52.5619068 C19.1431266,77.6557571 50.5062849,78.2846372 55.6258593,53.221464 C55.6989728,52.8409076 55.5986327,52.4476234 55.3520476,52.148256 C55.1054625,51.8488886 54.7381856,51.674461 54.3498092,51.6722715 L49.0611198,51.656933 C48.4051583,51.656933 47.9541848,51.9585909 47.7081992,52.5619068 L43.710934,62.5319574 C43.3112074,63.544301 42.9063562,63.5494138 42.4963803,62.5472959 L38.4529927,52.5005527 C38.2459685,52.0066162 37.7693937,51.6816096 37.238439,51.6722715 L33.8407636,51.5955788 C33.3131014,51.5848031 32.834561,51.9030921 32.641584,52.3931829 L28.5520741,62.6700042 C28.213844,63.5187367 27.8704891,63.5187367 27.5220096,62.6700042 Z" id="形状"></path>
                </g>
            </g>
        </g>
    </g>
</svg>