<?xml version="1.0" encoding="UTF-8"?>
<svg width="32px" height="32px" viewBox="0 0 32 32" version="1.1" xmlns="http://www.w3.org/2000/svg" xmlns:xlink="http://www.w3.org/1999/xlink">
    <title>ic_srlj_jjxx</title>
    <g id="页面-1" stroke="none" stroke-width="1" fill="none" fill-rule="evenodd">
        <g id="骚扰拦截-短信切图" transform="translate(-354.000000, -301.000000)">
            <g id="ic_srlj_jjxx-2" transform="translate(354.000000, 301.000000)">
                <g id="ic_srlj_jjxx" transform="translate(1.000000, 1.000000)">
                    <rect id="矩形备份-24" fill="#F7F7F7" x="0" y="0" width="30" height="30" rx="6"></rect>
                    <rect id="矩形" fill="#0C273D" fill-rule="nonzero" x="14.4045029" y="4.87287726" width="1.23134016" height="2.45713375" rx="0.615670081"></rect>
                    <path d="M9.98388082,6.20128253 C10.3254377,6.20128253 10.6023242,6.47816905 10.6023242,6.8197259 L10.6023242,8.0399729 C10.6023242,8.38152974 10.3254377,8.65841627 9.98388082,8.65841627 C9.64232398,8.65841627 9.36543745,8.38152974 9.36543745,8.0399729 L9.36543745,6.8197259 C9.36543745,6.47816905 9.64232398,6.20128253 9.98388082,6.20128253 Z" id="矩形" fill="#0C273D" fill-rule="nonzero" transform="translate(9.983881, 7.429849) rotate(-30.300000) translate(-9.983881, -7.429849) "></path>
                    <path d="M20.0120926,6.21237568 C20.3536494,6.21237568 20.630536,6.48926221 20.630536,6.83081905 L20.630536,8.04551948 C20.630536,8.38707632 20.3536494,8.66396285 20.0120926,8.66396285 C19.6705357,8.66396285 19.3936492,8.38707632 19.3936492,8.04551948 L19.3936492,6.83081905 C19.3936492,6.48926221 19.6705357,6.21237568 20.0120926,6.21237568 Z" id="矩形" fill="#0C273D" fill-rule="nonzero" transform="translate(20.012093, 7.438169) rotate(31.100000) translate(-20.012093, -7.438169) "></path>
                    <path d="M18.5755291,20.9357651 C18.5450229,21.6595935 18.6115818,22.3778752 18.3453461,23.0711974 C17.809177,24.4707837 16.6628843,25.155786 14.9064682,25.1262043 C12.9485264,25.0901515 11.4481772,23.8671312 11.4953231,21.8870031 C11.5027186,21.5819414 11.4990209,21.2778041 11.48423,20.9745912 C11.4805323,20.8692062 11.4352352,20.7860075 11.3483388,20.7249952 C9.00768321,19.073964 7.96677554,16.9043279 8.22561581,14.2160867 C8.5695036,10.6579574 11.6949999,7.98450713 15.164384,8.07879894 C21.9062487,8.261836 24.3606092,16.90895 18.7169668,20.6806226 C18.6263727,20.7416349 18.5792268,20.8266824 18.5755291,20.9357651 Z M18.1318029,10.2835634 C15.6718958,8.58076419 12.2163782,9.19920756 10.4636598,11.6840742 C8.5223577,14.4351765 9.34602443,18.0543182 12.2552042,19.8042634 C12.6573311,20.0455395 12.8320483,20.4587595 12.7183434,20.9218987 C12.6795174,21.0845983 12.743303,21.1659481 12.9097003,21.1659481 L17.1445121,21.1659481 C17.2998163,21.1659481 17.3608286,21.0901449 17.3275492,20.9385384 C17.2055245,20.367241 17.3996547,20.0483128 17.8849802,19.7377044 C21.4736157,17.4164618 21.5429479,12.6464054 18.1318029,10.2835634 Z M17.1777916,22.4028348 L12.868101,22.4028348 C12.8481896,22.4028348 12.8320483,22.4189762 12.8320483,22.4388876 L12.8320483,22.4638472 C12.8320483,23.2419229 13.7831473,23.8726778 14.9563874,23.8726778 L15.0895052,23.8726778 C16.2627453,23.8726778 17.2138443,23.2419229 17.2138443,22.4638472 L17.2138443,22.4388876 C17.2138443,22.4189762 17.197703,22.4028348 17.1777916,22.4028348 Z" id="形状" fill="#0C273D" fill-rule="nonzero"></path>
                    <path d="M6.32868637,10.4721471 L7.53229365,10.4721471 C7.87691378,10.4721471 8.1562836,10.7515169 8.1562836,11.096137 C8.1562836,11.4407571 7.87691378,11.7201269 7.53229365,11.7201269 L6.32868637,11.7201269 C5.98406624,11.7201269 5.70469643,11.4407571 5.70469643,11.096137 C5.70469643,10.7515169 5.98406624,10.4721471 6.32868637,10.4721471 Z" id="矩形" fill="#0C273D" fill-rule="nonzero" transform="translate(6.930490, 11.096137) rotate(30.400000) translate(-6.930490, -11.096137) "></path>
                    <path d="M22.4636798,10.4749203 L23.6783802,10.4749203 C24.0214687,10.4749203 24.2995968,10.7530485 24.2995968,11.096137 C24.2995968,11.4392255 24.0214687,11.7173537 23.6783802,11.7173537 L22.4636798,11.7173537 C22.1205913,11.7173537 21.8424631,11.4392255 21.8424631,11.096137 C21.8424631,10.7530485 22.1205913,10.4749203 22.4636798,10.4749203 Z" id="矩形" fill="#0C273D" fill-rule="nonzero" transform="translate(23.071030, 11.096137) rotate(-31.800000) translate(-23.071030, -11.096137) "></path>
                    <path d="M14.9493166,14.6809074 C14.1395163,15.5591155 13.3546756,15.5332314 12.5947945,14.6032553 C12.5681121,14.5698247 12.5285891,14.5490892 12.4855477,14.5459398 C12.4425064,14.5427904 12.3997577,14.557506 12.3673848,14.5866156 C12.0068573,14.9083171 11.2608427,15.9566202 10.745011,15.1107671 C10.4870951,14.686454 10.8781288,14.3037401 11.1499111,14.0180914 C12.0466078,13.0881153 12.9054028,13.0770221 13.7262963,13.984812 C13.781762,14.0439754 13.8381523,14.0448999 13.8954669,13.9875852 C14.6960229,13.1851804 15.4669971,13.177785 16.2083896,13.9653989 C16.3230189,14.0874236 16.4302527,14.0809526 16.5300911,13.9459859 C17.4147702,12.7368321 18.6932563,13.5410858 19.2811934,14.5117368 C19.4679282,14.8223451 19.4032181,15.0913541 19.0870632,15.3187638 C18.8567799,15.4830757 18.5400264,15.4523458 18.3438219,15.2466583 L17.7863909,14.6587211 C17.7013433,14.568127 17.6153714,14.568127 17.528475,14.6587211 L17.1596276,15.0497548 C17.0993219,15.1136913 17.0265127,15.1638067 16.9460844,15.1967391 C16.2527622,15.4814634 15.6675983,15.3132172 15.1905927,14.6920006 C15.1147895,14.594011 15.0343641,14.5903133 14.9493166,14.6809074 Z" id="路径" fill="#0C273D" fill-rule="nonzero"></path>
                </g>
            </g>
        </g>
    </g>
</svg>