<?xml version="1.0" encoding="UTF-8"?>
<svg width="99px" height="99px" viewBox="0 0 99 99" version="1.1" xmlns="http://www.w3.org/2000/svg" xmlns:xlink="http://www.w3.org/1999/xlink">
    <title>ic_srlj_yczplt</title>
    <g id="页面-1" stroke="none" stroke-width="1" fill="none" fill-rule="evenodd">
        <g id="骚扰拦截-电话切图" transform="translate(-642.000000, -1110.000000)" fill="#FFFFFF" fill-rule="nonzero">
            <g id="ic_srlj_yczplt" transform="translate(642.523989, 1110.947385)">
                <g transform="translate(14.156491, 17.000000)" id="编组-13">
                    <path d="M43.7369434,33.5883266 L36.5957842,36.1447415 C35.3846215,36.5721396 34.0670036,36.5721396 32.8631783,36.1447415 L24.1617659,33.0122331 C23.281623,32.5961655 22.3814769,32.1560941 21.4613275,31.6920188 C20.6691989,31.2919538 20.3211424,30.6718532 20.417158,29.8317168 C20.9932515,24.7068849 18.3648249,22.4505186 12.8079229,23.1946394 C10.7035813,23.4746849 9.63540788,24.6468752 9.60340268,26.7112102 C9.59540138,27.239296 9.34336047,27.4193252 8.84727994,27.2512979 L0.733962947,24.454844 C0.237882421,24.2868167 0.00184410564,23.9427609 0.0258480021,23.4226764 C0.0978596914,21.8944284 0.093859042,20.3101712 0.0138460539,18.6699049 C-0.250196807,13.6890964 3.29037792,10.0645081 8.22317864,10.0405042 C12.2158267,10.0245016 16.0844547,9.98049443 19.8290626,9.90848274 C20.3331444,9.90048144 20.5571808,9.64443988 20.5011717,9.14035806 C19.7450489,1.95119107 24.6298419,-0.137147917 31.1348978,0.00687546176 C34.1993952,0.0708858523 37.2878966,0.0908890993 40.4004018,0.0668852029 C46.6014084,0.01887741 49.5538877,3.09937745 49.2578396,9.30838533 C49.2338357,9.75645806 49.4498708,9.98449508 49.9059448,9.99249638 C53.5065293,10.0004977 57.0271007,9.98449508 60.4676592,9.94448859 C62.0119099,9.92848599 63.4801482,10.1925288 64.8723742,10.7366172 C70.8493444,13.101001 69.4211126,18.417864 69.6851555,23.4226764 C69.7091594,23.8867518 69.5011256,24.1988024 69.0610542,24.3588284 L60.9237333,27.239296 C60.3236359,27.455331 60.0155858,27.2432966 59.9995833,26.6031927 C59.8795638,21.9224329 54.7787358,23.1706355 51.9102702,23.2066414 C50.4733613,23.2260181 49.3132221,24.3861572 49.2938454,25.8230661 L49.2458376,30.6958571 C49.2444457,31.06137 49.0224858,31.3919486 48.6817461,31.5359934 L43.7369434,33.5883266 Z M25.6860133,9.98049443 L44.0249902,9.98049443 C44.1459485,9.98049443 44.2619527,9.93244391 44.3474832,9.84691344 C44.4330137,9.76138297 44.4810642,9.64537875 44.4810642,9.5244204 L44.4810642,8.67228208 C44.4810642,6.73013364 42.9066418,5.15571125 40.9644934,5.15571125 L28.7465101,5.15571125 C26.8043616,5.15571125 25.2299393,6.73013364 25.2299393,8.67228208 L25.2299393,9.5244204 C25.2299393,9.64537875 25.2779898,9.76138297 25.3635203,9.84691344 C25.4490507,9.93244391 25.5650549,9.98049443 25.6860133,9.98049443 L25.6860133,9.98049443 Z" id="形状"></path>
                    <path d="M13.3377962,26.77122 L16.7187703,26.77122 C17.4422634,26.77122 18.0287703,27.357727 18.0287703,28.08122 L18.0287703,33.8385798 C18.0287703,34.5620729 17.4422634,35.1485798 16.7187703,35.1485798 L13.3377962,35.1485798 C12.6143032,35.1485798 12.0277962,34.5620729 12.0277962,33.8385798 L12.0277962,28.08122 C12.0277962,27.357727 12.6143032,26.77122 13.3377962,26.77122 Z" id="矩形" transform="translate(15.028283, 30.959900) rotate(0.300000) translate(-15.028283, -30.959900) "></path>
                    <path d="M52.9262273,26.759218 L56.3672014,26.759218 C57.0741259,26.759218 57.6472014,27.3322936 57.6472014,28.039218 L57.6472014,33.8805818 C57.6472014,34.5875063 57.0741259,35.1605818 56.3672014,35.1605818 L52.9262273,35.1605818 C52.2193028,35.1605818 51.6462273,34.5875063 51.6462273,33.8805818 L51.6462273,28.039218 C51.6462273,27.3322936 52.2193028,26.759218 52.9262273,26.759218 Z" id="矩形" transform="translate(54.646714, 30.959900) rotate(-1.000000) translate(-54.646714, -30.959900) "></path>
                    <path d="M23.8257113,36.1087357 L33.6793108,39.4932851 C34.488397,39.7657981 35.3613777,39.7657981 36.1637141,39.4932851 L45.3091986,36.3127688 L47.9496272,35.5446441 C48.3896987,35.4166234 48.7577584,35.5246409 49.0538065,35.8686967 L50.0019604,36.9968799 C50.3060097,37.3569383 50.6940727,37.5369675 51.1661494,37.5369675 L57.9592521,37.5609714 C58.5109107,37.5641882 59.0409062,37.346465 59.4309944,36.9563768 C59.8210827,36.5662886 60.0388058,36.0362931 60.0355891,35.4846344 L60.0115852,32.5201532 C60.0115852,31.872048 60.3156346,31.4399778 60.9237333,31.2239428 L66.2285944,29.327635 C66.9327087,29.0795947 67.2807652,29.327635 67.2727639,30.0717557 C67.2007522,38.3771039 67.2127541,46.7784677 67.3087697,55.275847 C67.3687795,61.1688036 63.9722281,63.9652575 58.2472988,63.9772595 C34.6194634,64.0252673 18.5848606,63.9972627 10.1434904,63.8932458 C4.89863898,63.8332361 2.31822011,60.1246341 2.37822985,55.0838158 C2.45824284,46.5224261 2.48624739,37.9370325 2.46224349,29.327635 C2.46015925,29.2452467 2.50021311,29.1676926 2.56954138,29.11988 C2.63886965,29.0720674 2.72874385,29.0600159 2.81029999,29.087596 L9.37536566,31.403972 C9.54339294,31.4679824 9.61940528,31.5920025 9.60340268,31.7760324 C9.25134553,35.8246896 10.227504,37.7690052 12.531878,37.6089792 C15.4363495,37.4169481 18.4368366,38.1130611 20.5731834,35.796685 C20.8772327,35.4686318 21.2452925,35.3646149 21.6773626,35.4846344 L23.8257113,36.1087357 Z" id="路径"></path>
                </g>
            </g>
        </g>
    </g>
</svg>