<?xml version="1.0" encoding="UTF-8"?>
<svg width="22px" height="22px" viewBox="0 0 22 22" version="1.1" xmlns="http://www.w3.org/2000/svg" xmlns:xlink="http://www.w3.org/1999/xlink">
    <title>ic_srlj_hmd</title>
    <g id="页面-1" stroke="none" stroke-width="1" fill="none" fill-rule="evenodd">
        <g id="骚扰拦截-电话切图" transform="translate(-372.000000, -214.000000)" fill="#A6B6C4" fill-rule="nonzero">
            <g id="ic_srlj_hmd" transform="translate(372.000000, 214.000000)">
                <g transform="translate(1.000000, 1.200822)">
                    <path d="M9.4501329,0 L10.3195872,0 C12.3673185,0.252996959 13.8633263,1.25073145 14.8076108,2.99320346 C15.3599281,4.01469353 15.5386888,5.190001 15.3438931,6.51912587 C15.3379542,6.55832259 15.3147925,6.57673316 15.274408,6.5743576 L14.4209886,6.52981589 C14.3912942,6.52744033 14.3788225,6.5119992 14.3835736,6.4834925 C14.6686406,4.51415467 14.0468382,2.96410287 12.5181664,1.83333712 C10.7204627,0.50421225 8.23147149,0.757209209 6.64222299,2.34111271 C5.69437522,3.2871788 5.17590962,4.66975373 5.33804148,6.00956862 C5.54352727,7.70215391 6.42782885,8.9392259 7.99094621,9.72078458 C8.05271073,9.75285461 8.06637019,9.79858411 8.03192459,9.85797307 L7.53483902,10.7131741 C7.50588327,10.7629468 7.46211075,10.8017168 7.41012221,10.8236375 C4.04514387,12.2465969 1.90535973,14.720147 0.990769782,18.2442878 C0.985724295,18.2672174 0.964216817,18.2835335 0.939101389,18.2834845 L0.0393586819,18.2923928 C0.00728864479,18.2923928 -0.0051830363,18.2769517 0.00194363861,18.2460694 C0.754995621,15.0022446 2.52300489,12.5168167 5.30597144,10.7897858 C5.69972023,10.5439155 6.13801074,10.3550586 6.55670289,10.1359134 C6.63153297,10.0967167 6.63509631,10.0509872 6.5673929,9.9987249 C5.26083583,8.9903004 4.52560054,7.66355109 4.36168701,6.01847696 C4.25122355,4.90909123 4.49828162,3.84484111 5.10286121,2.8257266 C6.08277901,1.17115024 7.53186957,0.229241376 9.4501329,0 Z" id="路径"></path>
                    <path d="M14.8860042,19.598356 L14.0165498,19.598356 C12.6541672,19.4296914 11.5234014,18.910038 10.6242526,18.0393959 C8.86396389,16.3307756 8.39538501,13.7081592 9.5071463,11.5594667 C11.2032949,8.28654125 15.5274049,7.41174191 18.2622664,10.0361399 C20.3290022,12.0191372 20.5641824,15.0657908 18.9036672,17.3587984 C17.9641339,18.6558532 16.6249129,19.4023724 14.8860042,19.598356 Z M17.339362,10.5100638 C15.7608035,9.20410065 13.4891759,9.12748889 11.8090623,10.3283336 C9.61582809,11.8962021 9.26305768,14.9090039 10.9485163,16.973958 C10.9603403,16.9873244 10.9770508,16.9953047 10.9946315,16.9960276 C11.0122123,16.996657 11.0290736,16.989968 11.0411631,16.9775213 L17.3464887,10.6721957 C17.4035021,10.6151823 17.4011265,10.5611383 17.339362,10.5100638 Z M15.5327499,18.4990664 C18.5936568,17.6919705 20.1454903,14.0538029 18.1357679,11.3456665 C18.108449,11.3076575 18.0781607,11.305282 18.0449028,11.3385398 L11.7716473,17.613577 C11.7288872,17.6563371 11.7318567,17.6955338 11.7805556,17.7311672 C12.9683347,18.5887437 14.2190662,18.8447101 15.5327499,18.4990664 Z" id="形状"></path>
                </g>
            </g>
        </g>
    </g>
</svg>