<?xml version="1.0" encoding="UTF-8"?>
<svg width="38px" height="38px" viewBox="0 0 38 38" version="1.1" xmlns="http://www.w3.org/2000/svg" xmlns:xlink="http://www.w3.org/1999/xlink">
    <title>ic_srlj_ldsb</title>
    <defs>
        <linearGradient x1="68.6183233%" y1="-9.89549153%" x2="68.6183233%" y2="100%" id="linearGradient-1">
            <stop stop-color="#0A59F7" offset="0%"></stop>
            <stop stop-color="#6094FF" offset="100%"></stop>
        </linearGradient>
    </defs>
    <g id="页面-1" stroke="none" stroke-width="1" fill="none" fill-rule="evenodd">
        <g id="骚扰拦截-电话切图" transform="translate(-364.000000, -85.000000)" fill-rule="nonzero">
            <g id="ic_srlj_ldsb-2" transform="translate(364.000000, 85.000000)">
                <g id="ic_srlj_ldsb" transform="translate(1.000000, 1.000000)">
                    <path d="M2.61236041,1.08309803 C1.68890634,1.09368205 1.08266932,1.89453955 1.08266932,2.78006921 C1.07796981,4.72752886 1.07796981,6.64558846 1.08266932,8.534248 C1.08254144,8.66432499 1.02594527,8.78792571 0.927585432,8.87293664 C0.629166434,9.13636113 0.357769628,9.11166508 0.113395015,8.7988485 C0.0496221838,8.71914954 0.0159301972,8.6192259 0.018229901,8.51660797 C0.0346781923,6.76671669 0.0299786805,4.93450525 0.00413136566,3.01997366 C-0.0170164374,1.32300248 0.983979574,0.0423360794 2.7674443,0.0176400331 C4.54151,-0.00588001103 6.45068666,-0.00588001103 8.49497429,0.0176400331 C8.63701652,0.0200785174 8.76914608,0.08948018 8.85096231,0.204624384 C8.96610035,0.369264692 8.99899693,0.526848988 8.94965206,0.67737727 C8.86271109,0.943153768 8.68060501,1.07486602 8.40333381,1.07251401 C6.44598715,1.06075399 4.51566268,1.064282 2.61236041,1.08309803 Z" id="路径" fill="#2F3254"></path>
                    <path d="M34.9121049,2.56838882 C34.9121049,1.95804367 34.2353752,1.07957002 33.4670051,1.07604202 C31.4885106,1.066634 29.4876935,1.064282 27.4645536,1.068986 C27.3392581,1.06897908 27.2208045,1.01485069 27.1402873,0.920809727 C27.0392478,0.803209506 26.9887162,0.67737727 26.9887162,0.543313019 C26.9867891,0.252999135 27.2219156,0.0160681154 27.5138985,0.0141120265 C29.4665456,0.00470400882 31.3839465,0.00588001103 33.2661009,0.0176400331 C34.940302,0.0282240529 36.0047414,1.29830643 35.9871183,2.9353015 C35.9683202,4.90392919 35.9647956,6.74084464 35.9765444,8.44604784 C35.9765444,8.72123235 35.8461329,8.90116069 35.58531,8.98583285 C35.5359651,8.99994487 35.4866202,9.00464888 35.4372754,8.99994487 C35.094211,8.9623128 34.921504,8.77062444 34.9191542,8.4248798 C34.9168044,6.42332404 34.9144547,4.47116038 34.9121049,2.56838882 Z" id="路径" fill="#2F3254"></path>
                    <path d="M30.1468,18.0034178 C30.1468,24.719774 24.7073226,30.1644566 17.9973871,30.1644566 C11.2874517,30.1644566 5.84797428,24.719774 5.84797428,18.0034178 C5.84797428,11.2870615 11.2874517,5.84237895 17.9973871,5.84237895 C24.7073226,5.84237895 30.1468,11.2870615 30.1468,18.0034178 Z M29.0894098,18.0034178 C29.0894098,11.8716008 24.1233421,6.90078094 17.9973871,6.90078094 C11.8714321,6.90078094 6.90536443,11.8716008 6.90536443,18.0034178 C6.90536443,24.1352348 11.8714321,29.1060546 17.9973871,29.1060546 C24.1233421,29.1060546 29.0894098,24.1352348 29.0894098,18.0034178 Z" id="形状" fill="#2F3254"></path>
                    <path d="M12.8619956,17.7670413 C12.0196081,16.1512143 10.8353312,12.4362233 12.5518278,11.0849968 C13.1627644,10.6028359 13.8136468,10.2770833 14.504475,10.107739 C16.0341661,9.73024224 17.0527853,12.1222307 17.1972952,13.2229688 C17.3312313,14.2390347 16.5734351,14.7329556 15.8473605,15.2409886 C15.6421316,15.3847257 15.5668787,15.6535321 15.6676042,15.8830858 C16.515866,17.8046734 17.7271652,19.5851407 19.3015016,21.2244878 C20.8405918,20.248406 22.089487,20.248406 23.0481874,21.2244878 C23.5604342,21.7419288 23.9516686,22.3369859 24.2218905,23.0096591 C24.7223885,24.2515175 23.4817174,25.1158791 22.5688372,25.6098 C20.7148798,26.6152819 18.0784537,24.6254862 16.8448319,23.3659878 C15.4373281,22.0206413 14.109716,20.1543258 12.8619956,17.7670413 Z" id="形状结合" fill="url(#linearGradient-1)"></path>
                    <path d="M1.08971859,33.5266469 C1.09324322,34.133464 1.84399023,34.9272655 2.57358944,34.9307935 C4.49803951,34.9378495 6.46126056,34.9413775 8.46325259,34.9413775 C8.54844126,34.9414265 8.6326998,34.9658726 8.70645232,35.0119376 C8.92028011,35.1530579 9.0166201,35.3071142 8.9954723,35.4741065 C8.94847718,35.8198512 8.7499228,35.9938995 8.39980918,35.9962515 C6.42131471,36.0009555 4.53798536,35.9986035 2.74982113,35.9891955 C0.927585432,35.9786115 -0.0275903389,34.6132729 0.000606731819,32.8880777 C0.0311535584,31.0323462 0.0370279482,29.2824549 0.018229901,27.6384038 C0.0135303892,27.3491073 0.149816231,27.1656509 0.427087427,27.0880348 C0.474082545,27.0739228 0.521077662,27.0703948 0.56807278,27.0774508 C0.908787385,27.1291949 1.07914469,27.3267632 1.07914469,27.6701559 C1.07444518,29.5705754 1.07796981,31.5227391 1.08971859,33.5266469 Z" id="路径" fill="#2F3254"></path>
                    <path d="M33.2449531,34.9307935 C34.1719318,34.9237375 34.901531,34.2710563 34.9085803,33.3220225 C34.9179793,31.478051 34.9203291,29.5882155 34.9156296,27.6525158 C34.9132798,27.2926592 35.0918613,27.0962668 35.4513739,27.0633387 C35.6017583,27.0492267 35.7439185,27.1256669 35.8778546,27.2926592 C35.9459881,27.3744561 35.9822888,27.4784506 35.980069,27.5854837 C35.9471724,29.1472147 35.9530468,30.7924417 35.9976922,32.521165 C36.047037,34.3980645 35.3103886,35.9609714 33.2766748,35.9821395 C31.3827716,36.0033075 29.4677205,36.0056595 27.5315217,35.9891955 C27.2659993,35.9868435 27.0932922,35.8586592 27.0134005,35.6046428 C26.999302,35.5599547 26.9946024,35.5140906 26.999302,35.4670505 C27.0368981,35.1095458 27.2342775,34.9319695 27.5914404,34.9343215 C29.5746344,34.9437295 31.4591386,34.9425535 33.2449531,34.9307935 Z" id="路径" fill="#2F3254"></path>
                </g>
            </g>
        </g>
    </g>
</svg>