<?xml version="1.0" encoding="UTF-8"?>
<svg width="99px" height="99px" viewBox="0 0 99 99" version="1.1" xmlns="http://www.w3.org/2000/svg" xmlns:xlink="http://www.w3.org/1999/xlink">
    <title>ic_srlj_ycbxlc</title>
    <g id="页面-1" stroke="none" stroke-width="1" fill="none" fill-rule="evenodd">
        <g id="骚扰拦截-电话切图" transform="translate(-388.000000, -1110.000000)" fill="#FFFFFF" fill-rule="nonzero">
            <g id="ic_srlj_ycbxlc" transform="translate(388.804639, 1110.947385)">
                <g transform="translate(6.832886, 10.500000)" id="形状">
                    <path d="M76.4959519,39.1976783 C77.9509846,38.1230462 78.5976659,36.7821337 78.4359956,35.1749406 C78.3986181,34.7554861 78.2454794,34.3553494 77.9937797,34.0194735 C76.6243371,32.2411001 76.6576222,30.4769917 78.0936349,28.7271484 C78.4631779,28.2767876 78.999382,27.9953154 79.5799389,27.9469356 C80.1604957,27.8985559 80.7358924,28.0873947 81.1748808,28.4703779 C87.4942877,33.9624133 83.5428753,43.3630662 76.2819765,45.6882656 C75.8825557,45.8214058 75.6876003,46.0971964 75.6971104,46.5156372 C75.8302506,56.8340067 71.2606869,64.1804957 61.9884194,68.555104 C61.5889986,68.7453043 61.3892882,69.0591349 61.3892882,69.4965958 L61.3892882,73.7903689 C61.3892882,75.930123 60.3194112,77 58.1796571,77 L56.0684331,77 C53.9476991,77 52.8730671,75.939633 52.844537,73.818899 L52.8017419,71.0086886 C52.7922319,70.3715174 52.4688913,70.0529318 51.8317201,70.0529318 L32.2458379,70.0529318 C31.7227869,70.0529318 31.4565064,70.3144573 31.4469964,70.8375083 L31.4042013,74.36097 C31.3885607,75.8231266 30.1924355,77 28.7223762,77 L25.3700949,76.985735 C23.7153517,76.985735 22.8879802,76.1583634 22.8879802,74.5036203 L22.8737151,70.0671968 C22.8737151,69.3063954 22.5170895,68.7833444 21.8038381,68.4980439 C17.54335,66.8337907 14.1863137,64.1662307 11.732729,60.4953637 C11.440979,60.0536425 10.9289029,59.8030521 10.3918165,59.8391724 C5.6653375,60.1910431 2.49850149,58.3793847 0.891308441,54.4041971 C-0.577989347,50.7951453 0.277912277,46.3444568 0.0211417899,42.3502493 C-0.335483887,36.5443832 3.85843407,32.6500309 9.66430009,32.735621 C10.4346115,32.745131 11.0004576,32.4122804 11.3618383,31.7370691 C12.3889203,29.8445755 13.7013027,28.1755674 15.2989858,26.7300446 C15.8600768,26.2165037 15.950422,25.6316375 15.5700213,24.9754463 L9.06516895,13.74887 C8.90295861,13.4713068 8.8800703,13.1338037 9.003321,12.8368815 C9.12657171,12.5399594 9.38174107,12.3178764 9.69283014,12.2367771 C19.0221578,9.83074256 26.5921322,12.4269775 32.4027532,20.0254819 C32.7546239,20.4819628 33.2015947,20.615103 33.7436658,20.4249027 C34.2762268,20.2537223 34.4378971,19.9113617 34.2286767,19.3978207 C31.4327314,12.4935476 32.9258042,6.83984189 38.7078952,2.43670354 C43.7149197,-1.35779366 51.5749496,-0.601747229 55.8401927,3.87747127 C60.195781,8.45178995 61.0944777,13.6632798 58.5362828,19.5119409 C58.3175524,20.0254819 58.4697127,20.3535775 58.9927637,20.4962278 C68.2460112,23.1114828 73.7523117,29.2169143 75.511665,38.8125225 C75.6352952,39.4687138 75.9633909,39.597099 76.4959519,39.1976783 Z M54.2282446,13.5491596 C54.2282446,9.22394168 50.7219627,5.71765976 46.3967448,5.71765976 C42.0715268,5.71765976 38.5652449,9.22394168 38.5652449,13.5491596 C38.5652449,17.8743776 42.0715268,21.3806595 46.3967448,21.3806595 C50.7219627,21.3806595 54.2282446,17.8743776 54.2282446,13.5491596 L54.2282446,13.5491596 Z M59.9485205,30.1821812 C59.9485205,29.2525351 59.1948934,28.498908 58.2652473,28.498908 L35.954745,28.498908 C35.0250988,28.498908 34.2714718,29.2525351 34.2714718,30.1821812 L34.2714718,32.5216456 C34.2714718,33.4512917 35.0250988,34.2049188 35.954745,34.2049188 L58.2652473,34.2049188 C59.1948934,34.2049188 59.9485205,33.4512917 59.9485205,32.5216456 L59.9485205,30.1821812 Z M27.0818981,37.7854406 C27.0818981,36.7942107 26.6881336,35.8435789 25.9872282,35.1426735 C25.2863227,34.4417681 24.335691,34.0480035 23.344461,34.0480035 C21.2803315,34.0480035 19.6070239,35.7213111 19.6070239,37.7854406 C19.6070239,39.8495701 21.2803315,41.5228777 23.344461,41.5228777 C24.335691,41.5228777 25.2863227,41.1291131 25.9872282,40.4282077 C26.6881336,39.7273023 27.0818981,38.7766705 27.0818981,37.7854406 Z M8.53736295,39.3831236 C8.53338619,39.1769593 8.39948764,38.9958483 8.20354771,38.9316057 C8.00760778,38.8673631 7.79246878,38.9340355 7.6671963,39.0978231 L5.89833294,41.5228777 C5.83550672,41.604913 5.80052206,41.7048692 5.79847775,41.8081782 L5.81274278,51.0519158 C5.81168022,51.160114 5.846829,51.2655603 5.91259797,51.3514813 L7.82411159,53.7337409 C7.95099266,53.8995544 8.16975062,53.9655596 8.36716865,53.8975961 C8.56458668,53.8296325 8.69635521,53.6429542 8.69430245,53.4341753 L8.53736295,39.3831236 Z"></path>
                </g>
            </g>
        </g>
    </g>
</svg>