<?xml version="1.0" encoding="UTF-8"?>
<svg width="27px" height="27px" viewBox="0 0 27 27" version="1.1" xmlns="http://www.w3.org/2000/svg" xmlns:xlink="http://www.w3.org/1999/xlink">
    <title>ic_srlj_tjdh</title>
    <g id="页面-1" stroke="none" stroke-width="1" fill="none" fill-rule="evenodd">
        <g id="骚扰拦截-电话切图" transform="translate(-455.000000, -211.000000)" fill="#2F3359" fill-rule="nonzero">
            <g id="ic_srlj_tjdh" transform="translate(455.082597, 211.399926)">
                <path d="M26,13 C26,20.1797017 20.1797017,26 13,26 C5.82029825,26 0,20.1797017 0,13 C0,5.82029825 5.82029825,0 13,0 C20.1797017,0 26,5.82029825 26,13 Z M16.3511831,16.9232046 C18.3046907,17.667912 19.8516674,18.9144873 20.9921129,20.6629307 C21.1252249,20.867995 21.2727273,20.8769891 21.4346202,20.6899128 C24.0249066,17.639131 24.9153176,14.2573682 24.1058531,10.5446243 C21.9418846,0.599003736 8.4400166,-1.73765048 3.29182233,7.08011623 C0.669157327,11.569946 1.03431576,16.0651723 4.38729763,20.5657949 C4.5599834,20.7996402 4.72727273,20.7978414 4.88916563,20.5603985 C6.18430884,18.6680504 7.85900097,17.412481 9.91324201,16.7936903 C10.0859278,16.739726 10.0985194,16.6587796 9.95101702,16.550851 C5.39103362,13.2374429 6.68617684,6.81029473 12.2391034,5.81195517 C14.8563719,5.34246575 17.7596513,7.13947696 18.5097551,9.74055625 C19.3228172,12.564688 18.4575896,14.8617684 15.9140722,16.6317974 C15.7018126,16.7792998 15.7251972,16.8530511 15.9842258,16.8530511 C16.0058115,16.8530511 16.0291961,16.8548499 16.0543794,16.8584475 C16.1551128,16.8656427 16.2540473,16.8872284 16.3511831,16.9232046 Z M17.2254047,11.5591532 C17.2254047,9.22552658 15.3336266,7.33374844 13,7.33374844 C11.879353,7.33374844 10.8046048,7.77892374 10.0121877,8.57134084 C9.21977056,9.36375794 8.77459527,10.4385062 8.77459527,11.5591532 C8.77459527,13.8927798 10.6663734,15.7845579 13,15.7845579 C15.3336266,15.7845579 17.2254047,13.8927798 17.2254047,11.5591532 L17.2254047,11.5591532 Z M6.24366957,22.2171025 C10.3827314,25.0987962 15.5147364,25.1149855 19.6699875,22.2710668 C19.9002352,22.1127716 19.9380102,21.9185001 19.7833126,21.6882524 C16.3619759,16.5832296 9.78912412,16.6911582 6.13574097,21.5047738 C6.05297861,21.6136 6.01770624,21.7511378 6.03807802,21.8855916 C6.0584498,22.0200454 6.13270215,22.1397753 6.24366957,22.2171025 L6.24366957,22.2171025 Z" id="形状"></path>
            </g>
        </g>
    </g>
</svg>