<?xml version="1.0" encoding="UTF-8"?>
<svg width="227px" height="227px" viewBox="0 0 227 227" version="1.1" xmlns="http://www.w3.org/2000/svg" xmlns:xlink="http://www.w3.org/1999/xlink">
    <title>ic_srlj_dhdun</title>
    <defs>
        <linearGradient x1="71.5112826%" y1="5.9697539%" x2="71.5112826%" y2="100%" id="linearGradient-1">
            <stop stop-color="#FFFFFF" stop-opacity="0.806444288" offset="0%"></stop>
            <stop stop-color="#FFFFFF" stop-opacity="0.275347943" offset="100%"></stop>
        </linearGradient>
        <linearGradient x1="50%" y1="26.9964882%" x2="77.4397138%" y2="133.787115%" id="linearGradient-2">
            <stop stop-color="#FFFFFF" stop-opacity="0.806444288" offset="0%"></stop>
            <stop stop-color="#FFFFFF" stop-opacity="0.275347943" offset="100%"></stop>
        </linearGradient>
    </defs>
    <g id="页面-1" stroke="none" stroke-width="1" fill="none" fill-rule="evenodd">
        <g id="骚扰拦截-电话切图" transform="translate(-300.000000, -129.000000)">
            <g id="ic_srlj_dhdun-2" transform="translate(300.235848, 129.875000)">
                <g id="ic_srlj_dhdun" transform="translate(0.500000, 0.500000)">
                    <line x1="0.5" y1="112.5" x2="224.5" y2="112.5" id="直线" stroke-opacity="0.08" stroke="#FFFFFF" stroke-linecap="square"></line>
                    <line x1="0.5" y1="112.5" x2="224.5" y2="112.5" id="直线" stroke-opacity="0.08" stroke="#FFFFFF" stroke-linecap="square" transform="translate(112.500000, 112.500000) rotate(90.000000) translate(-112.500000, -112.500000) "></line>
                    <path d="M113.168405,151.969575 C97.3874054,143.650924 87.4799077,135.25533 83.445912,126.782791 C79.4119163,118.310253 78.7282118,104.46131 81.3947985,85.2359632 L112.870455,78.3076241" id="路径" fill="url(#linearGradient-1)"></path>
                    <path d="M146.244508,151.969575 C130.463508,143.650924 120.54737,135.25533 116.513374,126.782791 C112.479379,118.310253 111.795674,104.46131 114.462261,85.2359632 L146.551098,78.3076241" id="路径备份-5" fill-opacity="0.62" fill="url(#linearGradient-2)" transform="translate(129.710777, 115.138599) scale(-1, 1) translate(-129.710777, -115.138599) "></path>
                    <path d="M78.7279419,82.6106893 L113.83523,75.0740832 L149.082018,83.5690178 C149.622042,103.91001 148.526897,118.655365 145.796585,127.805082 C143.066272,136.954799 132.412487,145.981744 113.83523,154.885917 C96.7365793,146.480297 85.9375369,137.669299 81.4381026,128.452922 C76.9386684,119.236545 76.0352815,103.955801 78.7279419,82.6106893 Z" id="路径-6" stroke-opacity="0.179755791" stroke="#FFFFFF"></path>
                    <path d="M106.431196,97.6932066 C105.303841,95.7952547 103.788809,95.4717943 101.8861,96.7228252 C98.204359,99.1487787 97.1626261,102.507059 98.7609013,106.797667 C102.292804,116.273157 110.690885,124.678372 120.144968,128.574168 C124.640117,130.429309 128.807049,130.108227 131.625436,125.93416 C132.481655,124.664102 132.353222,122.994475 130.997543,122.123986 C128.652454,120.630359 126.302609,119.160517 123.948007,117.714458 C121.186701,116.023426 119.99513,120.782576 117.133932,118.848948 C114.727005,117.212619 112.041808,114.605908 109.078339,111.028816 C107.705734,109.371468 108.389489,108.220273 109.176404,107.131842 L109.392107,106.83622 C110.073973,105.902902 110.700343,104.986333 110.013045,103.800901 C108.904717,101.893436 107.710767,99.8575377 106.431196,97.6932066 Z" id="形状" fill="#2E8DFA"></path>
                </g>
            </g>
        </g>
    </g>
</svg>