<?xml version="1.0" encoding="UTF-8"?>
<svg width="38px" height="38px" viewBox="0 0 38 38" version="1.1" xmlns="http://www.w3.org/2000/svg" xmlns:xlink="http://www.w3.org/1999/xlink">
    <title>ic_srlj_bjcx</title>
    <defs>
        <linearGradient x1="68.6183233%" y1="-1.50279819%" x2="59.5779819%" y2="67.9577628%" id="linearGradient-1">
            <stop stop-color="#0A59F7" offset="0%"></stop>
            <stop stop-color="#6094FF" offset="100%"></stop>
        </linearGradient>
        <path d="M30.2632989,29.3130061 C29.6336445,32.2057206 27.1059581,34.2916754 24.1463202,34.3609981 C22.1892756,34.4076704 20.3172986,33.5564404 19.0636851,32.0498096 C17.7241526,28.9748236 18.2602955,26.4590759 20.6721139,24.5025666 C22.4290131,23.0723022 25.0569384,22.9584749 27.0513902,24.0126144 C28.9848041,25.0354102 30.0554404,26.8022074 30.2632989,29.3130061 Z" id="path-2"></path>
    </defs>
    <g id="页面-1" stroke="none" stroke-width="1" fill="none" fill-rule="evenodd">
        <g id="骚扰拦截-电话切图" transform="translate(-585.000000, -85.000000)">
            <g id="ic_srlj_bjcx-2" transform="translate(585.000000, 85.000000)">
                <g id="ic_srlj_bjcx" transform="translate(2.658317, 1.000000)">
                    <path d="M19.0636851,32.0498096 C20.3172986,33.5564404 22.1892756,34.4076704 24.1463202,34.3609981 C27.1059581,34.2916754 29.6336445,32.2057206 30.2632989,29.3130061" id="路径" stroke="#308C77" stroke-width="2"></path>
                    <path d="M25.0519894,2.12313513 C24.482853,1.49955964 23.4979997,1.01455648 22.6467697,1.00960747 C17.1434685,0.996410102 11.2079537,0.993110761 4.84022512,0.999709443 C2.4894445,1.00465846 0.994842933,2.5289541 0.994842933,4.78075448 C1.0080403,13.9760184 1.01463898,22.717623 1.01463898,31.0055681 C1.01463898,33.1979804 2.64286387,34.6727859 4.79568401,34.6628879 C9.05513352,34.6463912 13.1826094,34.6447415 17.1781116,34.6579389 C17.2752438,34.6592426 17.3678789,34.6990831 17.4356335,34.768694 C17.5033881,34.838305 17.5407109,34.9319827 17.5393895,35.0291147 L17.5393895,35.2468713 C17.5393895,35.5207166 17.4008171,35.6559896 17.1236725,35.6526902 C13.7517457,35.6229962 9.75954287,35.6295948 5.14706385,35.6724863 C2.11826862,35.7021803 -0.00485745497,33.9254851 0.00504056868,30.8026586 C0.0380339808,22.3926379 0.0363843102,13.8242487 0,5.09749123 C-0.0147554786,2.01920588 1.7767868,-0.00493995698 4.88476623,0 C10.935758,0.00660773727 16.8019867,0.0115567491 22.4834523,0.0148560903 C23.7998894,0.0198051021 25.0420914,0.628533556 25.9279645,1.6084379 C28.2803948,4.22811482 30.1857643,6.37598595 31.6440732,8.05205129 C32.3336355,8.84389318 32.6784166,9.8254472 32.6784166,10.9967133 C32.681716,14.4511236 32.6833656,17.9665716 32.6833656,21.5430575 C32.6833656,21.7938075 32.5579907,21.9208321 32.3072407,21.9241314 L32.0845352,21.9241314 C31.9786756,21.9254548 31.8766955,21.8843267 31.801372,21.8099332 C31.7260486,21.7355397 31.683657,21.6340784 31.6836653,21.5282105 C31.7067606,17.8626424 31.7018116,14.3010036 31.6688182,10.843294 C31.6589202,9.96896854 31.3487821,9.185375 30.738404,8.49251334 C28.8511808,6.34464221 26.9557093,4.22151614 25.0519894,2.12313513 Z" id="路径" fill="#2E3356" fill-rule="nonzero"></path>
                    <rect id="矩形" fill="#2E3356" fill-rule="nonzero" x="4.56802947" y="11.4025323" width="14.658973" height="1" rx="0.5"></rect>
                    <rect id="矩形" fill="#2E3356" fill-rule="nonzero" x="4.56802947" y="16.3663912" width="8.72015883" height="1" rx="0.5"></rect>
                    <path d="M28.7439522,33.6087483 C26.4080186,35.4695768 23.8939206,35.85395 21.2016582,34.7618681 C13.6247211,31.6934808 16.0200428,20.3701417 24.2354025,20.5681022 C30.5602396,20.7215216 33.4603605,27.9866709 29.6397234,32.7080282 C29.5341444,32.8367025 29.5473418,32.9521794 29.6793155,33.054459 C30.4414633,33.6334934 31.0501917,34.3560491 31.7875945,35.0291147 C31.9624596,35.1874831 32.0432934,35.3771952 32.0300961,35.5982511 C32.0211349,35.7577757 31.9235848,35.8988435 31.7774936,35.963541 C31.6314025,36.0282386 31.461383,36.0056659 31.3372344,35.9050898 C30.4761064,35.2188269 29.7502513,34.4715261 29.1596692,33.6631875 C29.0408929,33.4982204 28.9023206,33.480074 28.7439522,33.6087483 Z M19.0636851,32.0498096 C20.3172986,33.5564404 22.1892756,34.4076704 24.1463202,34.3609981 C27.1059581,34.2916754 29.6336445,32.2057206 30.2632989,29.3130061 C30.9312339,26.2545268 29.2886432,23.1597604 26.3783246,21.9934176 C24.4367554,21.2153474 22.236264,21.4352117 20.4840515,22.58235 C18.9541186,23.5833922 17.9241159,25.1897801 17.6528548,26.9978723 C17.3815937,28.8059646 17.8948604,30.6438832 19.0636851,32.0498096 Z" id="形状" fill="#2E3356" fill-rule="nonzero"></path>
                    <g id="路径" fill-rule="nonzero">
                        <use fill="#32E497" xlink:href="#path-2"></use>
                        <use fill="url(#linearGradient-1)" xlink:href="#path-2"></use>
                    </g>
                </g>
            </g>
        </g>
    </g>
</svg>