<?xml version="1.0" encoding="UTF-8"?>
<svg width="99px" height="99px" viewBox="0 0 99 99" version="1.1" xmlns="http://www.w3.org/2000/svg" xmlns:xlink="http://www.w3.org/1999/xlink">
    <title>ic_srlj_yckdsc</title>
    <g id="页面-1" stroke="none" stroke-width="1" fill="none" fill-rule="evenodd">
        <g id="骚扰拦截-电话切图" transform="translate(-8.000000, -1110.000000)" fill="#FFFFFF" fill-rule="nonzero">
            <g id="ic_srlj_yckdsc" transform="translate(8.225615, 1110.947385)">
                <g transform="translate(9.714286, 21.500000)" id="编组-7">
                    <path d="M30.9373322,44.5522568 C26.8839377,33.1885107 12.858119,33.0424813 8.57655327,44.3531258 C8.37969968,44.8664414 8.00388827,45.1629254 7.44911904,45.2425778 C5.57900988,45.4815351 3.82074935,45.4018827 2.17433745,45.0036206 C0.899000036,44.692401 0.00212522529,43.5534214 0,42.2423365 L0.0134218361,3.4117789 C0.0134218361,1.54950086 1.54575782,0.0398262129 3.43599004,0.0398262129 L39.0172776,0 C41.0038746,0 42.6143296,1.59288506 42.6143296,3.55780835 L42.5740641,42.1228578 C42.5742048,43.8303976 41.1864319,45.2207795 39.4601982,45.2425778 L32.0513446,45.3222303 C31.4965754,45.3222303 31.1252379,45.0655725 30.9373322,44.5522568 Z" id="路径"></path>
                    <path d="M73.1892723,44.0876177 C70.2230465,32.604393 54.1571087,33.2416124 51.1103519,44.3000241 C50.9671856,44.82219 50.6271658,45.1319495 50.0902924,45.2293024 C48.5065157,45.5302116 47.2940765,45.2293024 46.4529748,44.3265749 C46.0950591,43.9283128 45.9116274,43.4636737 45.9026795,42.9326575 L45.8489921,9.45208786 C45.8489921,7.84642293 47.1589892,6.54477432 48.7749524,6.54477432 L68.0755527,6.5182234 C68.6609844,6.5182234 69.227339,6.7411606 69.6593294,7.14216751 L77.9540241,14.9879315 C78.3656271,15.368493 78.5714286,15.8419825 78.5714286,16.4083997 L78.5580067,43.0388607 C78.5580067,43.6318288 78.3298355,44.1274439 77.8734931,44.525706 C76.8265899,45.4372838 75.5738852,45.6319897 74.115379,45.1098238 C73.6539241,44.9427589 73.3067497,44.5595592 73.1892723,44.0876177 L73.1892723,44.0876177 Z M55.6737762,26.9623461 C55.6737762,27.2922773 55.9441884,27.5597393 56.2777588,27.5597393 L71.4444336,27.5199131 C71.778004,27.5199131 72.0484162,27.2524511 72.0484162,26.9225199 L71.981307,18.452812 C71.9790549,18.2919596 71.9113101,18.1388036 71.7934013,18.027999 L66.6662599,13.2223027 C66.553207,13.1186231 66.4043484,13.0616291 66.250183,13.0629978 L56.264337,12.9567946 C55.9307666,12.9567946 55.6603543,13.2242566 55.6603543,13.5541878 L55.6737762,26.9623461 Z" id="形状"></path>
                    <ellipse id="椭圆形" cx="19.6898336" cy="46.7958001" rx="8.24100737" ry="8.15109824"></ellipse>
                    <ellipse id="椭圆形" cx="62.1967885" cy="46.9152788" rx="8.17389819" ry="8.08472122"></ellipse>
                </g>
            </g>
        </g>
    </g>
</svg>