<?xml version="1.0" encoding="UTF-8"?>
<svg width="277px" height="255px" viewBox="0 0 277 255" version="1.1" xmlns="http://www.w3.org/2000/svg" xmlns:xlink="http://www.w3.org/1999/xlink">
    <title>ic_srlj_bjcx</title>
    <defs>
        <linearGradient x1="32.4318434%" y1="12.6106828%" x2="69.0543673%" y2="89.5053061%" id="linearGradient-1">
            <stop stop-color="#FFFFFF" stop-opacity="0.0849114265" offset="0%"></stop>
            <stop stop-color="#FFFFFF" stop-opacity="0.320319329" offset="47.511673%"></stop>
            <stop stop-color="#FFFFFF" stop-opacity="0.11998402" offset="100%"></stop>
        </linearGradient>
        <linearGradient x1="60.2646223%" y1="29.0101837%" x2="29.6219082%" y2="56.821414%" id="linearGradient-2">
            <stop stop-color="#FFFFFF" stop-opacity="0.535134055" offset="0%"></stop>
            <stop stop-color="#FFFFFF" stop-opacity="0.158198003" offset="100%"></stop>
        </linearGradient>
    </defs>
    <g id="页面-1" stroke="none" stroke-width="1" fill="none" fill-rule="evenodd" opacity="0.26390003">
        <g id="骚扰拦截-电话切图" transform="translate(-69.000000, -519.000000)" fill-rule="nonzero">
            <g id="ic_srlj_bjcx" transform="translate(69.890858, 519.447385)">
                <path d="M144.156351,110.085593 L94.214771,129.489747 C94.0214851,129.563547 93.972285,129.693576 94.0671708,129.879833 L122.464394,183.44289 C122.557429,183.613752 122.764594,183.686602 122.944095,183.611575 L166.675924,165.08248 C166.950039,164.966508 167.025596,164.771465 166.902596,164.49735 C166.052137,162.606662 165.215736,160.645688 164.393392,158.614428 C157.807612,142.374892 151.323747,126.312828 144.941795,110.428236 C144.819401,110.116837 144.467861,109.963481 144.156351,110.085593 Z M200.191711,88.2460351 L150.207959,107.734532 C150.058449,107.793182 149.938635,107.909236 149.875251,108.056802 C149.811867,108.204367 149.810188,108.371164 149.870588,108.519976 L171.467659,162.283347 C171.516859,162.402833 171.511588,162.518805 171.451845,162.631262 C171.413187,162.694519 171.365745,162.752505 171.309516,162.805219 C171.172459,162.924705 171.195301,162.972148 171.378045,162.947548 C171.525645,162.929977 171.660945,162.894834 171.783945,162.842119 C183.609532,157.925627 195.371862,152.981021 207.070935,148.0083 C207.907336,147.653356 208.759551,147.280842 209.627581,146.890755 C210.615096,146.444441 211.470826,146.077197 212.19477,145.789025 C214.851573,144.731224 217.467963,143.659365 220.043937,142.57345 C220.300578,142.463522 220.426016,142.173156 220.328595,141.91452 L200.550169,88.4041781 C200.524563,88.3360407 200.472386,88.2810796 200.405143,88.2514134 C200.3379,88.2217472 200.261112,88.2198122 200.191711,88.2460351 Z M121.626236,54.1978329 L65.9704194,76.4116623 L65.880805,76.517091 C65.7912045,76.62186 65.7744167,76.7687528 65.8386335,76.8860915 L72.0378417,88.4727068 L91.2258671,124.571497 C91.369953,124.842098 91.5843247,124.921169 91.8689822,124.808712 L142.216463,105.198972 C142.351769,105.145791 142.460307,105.041094 142.517775,104.908324 C142.575243,104.775553 142.576839,104.625802 142.522206,104.492599 L122.432765,54.5404762 C122.303654,54.2241379 121.943557,54.0711557 121.626236,54.1978329 Z M170.508258,9.3800879 L127.588229,50.4867423 C126.955657,50.9049428 126.725471,51.3249005 126.897671,51.7466154 C133.848938,68.8752666 140.689504,85.7983318 147.41937,102.515811 C147.548618,102.832059 147.907171,102.986729 148.2259,102.863726 L198.325623,83.3805001 C198.528497,83.3011091 198.631531,83.0763075 198.557566,82.8744422 L184.894005,45.7898932 C186.204836,46.6087229 187.281966,47.6471957 188.125395,48.9053116 C188.641996,49.6802126 189.306197,50.1124703 189.886055,50.797757 C189.946632,50.8669536 190.033191,50.9079323 190.125108,50.9109296 C190.217025,50.9139269 190.30607,50.8786744 190.371027,50.8135713 C190.82437,50.3602278 191.212699,49.8893129 191.536014,49.4008265 C191.764443,49.0564261 191.739843,48.7471685 191.462214,48.4730539 C191.370842,48.3851966 191.304071,48.2815251 191.261899,48.1620392 L187.529723,38.0145258 C187.4706,37.8550764 187.508017,37.6758549 187.625998,37.5533798 C187.743978,37.4309046 187.921676,37.3868167 188.083224,37.4399393 C189.987969,38.065483 191.7539,37.8124541 193.381016,36.6808526 C194.741047,35.7267227 195.294548,34.2401779 195.468505,32.6587473 C195.587991,31.5728315 195.299819,30.5554445 194.60399,29.6065861 C193.170159,27.6491264 191.230271,26.9076111 188.784325,27.3820403 C187.37158,27.6614264 186.259307,28.6946277 185.458049,29.8016292 C185.085534,30.3147156 184.783305,30.2760584 184.551362,29.6856576 L182.131773,23.518078 L182.131773,23.518078 C180.680371,24.776194 179.513627,26.3699247 178.63154,28.2992701 C178.385539,28.0954412 178.230911,27.910941 178.167653,27.7457693 C176.740852,23.9257357 175.386093,20.2304594 174.103377,16.6599404 C173.695719,15.5353675 173.268733,14.428366 172.822418,13.338936 C172.333931,12.1616487 171.924517,10.9439471 171.594173,9.68583116 C171.535564,9.46125614 171.362262,9.28460202 171.138852,9.22169996 C170.915441,9.15879789 170.675429,9.21908232 170.508258,9.3800879 Z M128.36313,194.465461 C131.687649,200.657641 134.857539,206.614363 137.8728,212.335628 C139.053602,214.577745 140.622732,217.629906 142.580192,221.492111 C142.710221,221.755683 142.882421,222.019255 143.096793,222.282827 C143.25845,222.49017 143.414836,222.74847 143.565951,223.057728 C144.855695,225.725074 146.184097,228.371335 147.551156,230.99651 L147.628829,231.139161 C147.816019,231.471799 148.194271,232.08845 148.763586,232.989112 C149.192329,233.663856 149.534973,234.356171 149.791516,235.066058 C149.91803,235.406944 150.088474,235.719716 150.302845,236.004373 C150.608588,236.405002 150.800117,236.856589 150.877432,237.359132 C150.890604,237.451592 150.94751,237.532045 151.030303,237.575261 C151.104103,237.617433 151.158575,237.673661 151.193718,237.743947 C152.255034,239.866578 153.293506,241.992724 154.309136,244.122384 C154.347793,244.199698 154.405779,244.259441 154.483094,244.301613 C154.528779,244.326213 154.574465,244.35257 154.620151,244.380684 C154.65178,244.40177 154.678137,244.429884 154.699222,244.465027 C155.848395,246.485744 156.807797,248.379947 157.577426,250.147635 C157.830455,250.727493 157.714484,251.263422 157.229512,251.755423 C157.092454,251.89248 156.925525,251.957494 156.728725,251.950466 C156.25781,251.92938 155.86421,252.117395 155.547924,252.514509 C155.442495,252.648052 155.449523,252.774567 155.569009,252.894053 C155.811495,253.136539 155.779867,253.350911 155.474123,253.537168 C155.36518,253.600425 155.305438,253.695311 155.294895,253.821825 C155.280838,254.004569 155.196495,254.04674 155.041866,253.94834 C154.964946,253.89878 154.917785,253.813982 154.916719,253.72332 C154.915652,253.632657 154.960827,253.548601 155.036594,253.500268 C155.110394,253.454582 155.161352,253.391325 155.189466,253.310496 C155.238666,253.162896 155.189466,253.075039 155.041866,253.046924 C154.753694,252.987182 154.490122,253.015296 154.25115,253.131267 C153.991093,253.254268 153.764421,253.208582 153.571135,252.99421 C153.388392,252.793896 153.383121,252.602367 153.555321,252.419624 C153.724007,252.243909 153.711707,252.082252 153.518421,251.934652 C153.430564,251.86788 153.333921,251.848551 153.228492,251.876666 C153.161077,251.894297 153.089496,251.883932 153.030631,251.848015 C152.971767,251.812098 152.930831,251.753808 152.917477,251.686894 C152.857734,251.398722 152.734734,251.143936 152.548477,250.922536 C152.446562,250.80305 152.399119,250.664236 152.406148,250.506093 C152.430748,249.789177 152.13379,249.249734 151.515275,248.887762 C151.388761,248.813962 151.325504,248.705019 151.325504,248.560933 L151.325504,248.012704 C151.325504,247.833475 151.253461,247.689389 151.109375,247.580446 C150.561146,247.179817 150.243102,246.652673 150.155245,245.999015 C150.130645,245.819786 150.039273,245.684486 149.88113,245.593115 C149.469958,245.354143 149.238015,244.9992 149.185301,244.528285 C149.160701,244.296341 149.044729,244.127656 148.837386,244.022227 C148.686272,243.944912 148.635314,243.825427 148.684515,243.663769 C148.747772,243.449397 148.6933,243.273683 148.5211,243.136626 C148.2997,242.953883 148.215357,242.714911 148.268071,242.41971 C148.306728,242.212367 148.220628,242.108696 148.009771,242.108696 C147.872713,242.108696 147.774313,242.045438 147.71457,241.918924 C147.545884,241.549924 147.359627,241.175652 147.155798,240.796108 C147.057398,240.613365 146.918584,240.472794 146.739355,240.374393 C146.598783,240.300593 146.53904,240.188136 146.560126,240.037022 C146.581212,239.885907 146.544312,239.752364 146.449426,239.636392 L145.700882,238.70862 C145.598968,238.575077 145.546253,238.425719 145.542739,238.260548 C145.542739,237.85289 145.396896,237.490918 145.10521,237.174632 C145.024381,237.086775 144.985724,236.983103 144.989238,236.863617 C144.989238,236.568417 144.862724,236.343502 144.609695,236.188874 C144.493723,236.118588 144.442766,236.014916 144.456823,235.877859 C144.546438,234.950086 143.782079,234.718143 143.645022,233.864171 C143.616908,233.688456 143.544865,233.535584 143.428893,233.405556 C143.054621,232.999655 142.711978,232.704455 142.543292,232.156225 C142.265663,231.256567 141.872063,230.476395 141.362491,229.815708 C141.271119,229.696222 141.220162,229.559165 141.209619,229.404536 C141.20259,229.218279 141.139333,229.05135 141.019847,228.90375 C140.352132,228.088434 139.789846,227.17999 139.332988,226.178417 C138.890187,225.215502 138.414001,224.280701 137.904429,223.374014 C136.055912,220.077609 134.159952,216.526419 132.21655,212.720443 C132.061921,212.418214 131.898507,212.110713 131.726306,211.797941 C129.048417,206.860363 126.368771,201.919271 123.687367,196.974665 C122.334365,194.483033 121.301164,192.476373 120.587763,190.954685 C120.419077,190.596228 120.151991,190.494313 119.786505,190.648942 L74.1200587,209.836967 C73.7932297,209.977539 73.747544,209.912525 73.9830014,209.641924 C74.2957733,209.283467 74.2694161,208.974209 73.9039299,208.714152 C73.7383586,208.595136 73.6402473,208.402838 73.6403581,208.197551 L73.6403581,207.638779 C73.6403581,207.441978 73.5630437,207.283835 73.4084149,207.164349 C73.2045861,207.006206 73.1044288,206.797106 73.1079431,206.537049 C73.1079431,206.350791 73.0323859,206.201434 72.8812714,206.088977 C72.670414,205.927319 72.5948567,205.707676 72.6545997,205.430047 C72.6791997,205.303533 72.7565141,205.233247 72.8865428,205.21919 C73.2766291,205.184047 73.5700723,205.015361 73.7668726,204.713132 C73.868787,204.554989 74.0093586,204.446046 74.1885874,204.386303 C74.7016738,204.210588 75.188403,203.985674 75.6487751,203.711559 C76.2497187,203.349587 76.9473053,203.108858 77.741535,202.989373 C77.9137352,202.964773 78.0630925,202.890972 78.189607,202.767972 C78.3969501,202.567658 78.6359219,202.411272 78.9065222,202.298814 C80.1294953,201.792757 81.3594969,201.309542 82.5965271,200.84917 C82.9409276,200.722655 83.2677566,200.560998 83.5770141,200.364198 C84.0461719,200.063726 84.5733154,200.07954 85.0530161,199.831783 C86.9507329,198.85481 89.2051501,197.83918 91.8162679,196.784893 C94.1673281,195.836035 96.5939456,194.818647 99.0961203,193.732732 C105.112585,191.121614 111.202851,188.526311 117.366916,185.946821 C117.539116,185.876536 117.616431,185.748264 117.598859,185.562007 L117.56723,185.240449 L88.9907784,131.587778 L63.8671166,141.297762 C62.7390294,139.786618 61.2313988,138.551344 59.3442249,137.591943 L86.4815751,126.927829 L68.7062944,93.4067705 L61.4158991,79.4743663 C61.3322763,79.3157737 61.1857686,79.1996976 61.0122539,79.1545637 C60.8387393,79.1094299 60.6542411,79.1394061 60.5039407,79.2371517 C48.8540682,86.7753045 37.487096,94.030557 26.4030242,101.002909 C24.8251078,101.997453 23.3983059,102.92874 22.1226185,103.79677 C20.6923024,104.770228 19.2514433,105.699758 17.8000414,106.585359 C14.8234375,108.402247 11.9452337,110.224407 9.16542998,112.051838 C8.45905762,112.515724 7.75092811,112.958525 7.04104146,113.38024 C6.32764051,113.801955 5.62302529,114.244755 4.9271958,114.708641 C4.17865196,115.207671 3.41253666,115.664528 2.62884991,116.079215 C2.32310664,116.240872 2.12806353,116.154772 2.04372056,115.820914 L1.91193467,115.304314 C1.84735008,115.053223 1.68923932,114.83488 1.46913409,114.692827 C1.18799086,114.517113 1.01930492,114.264084 0.963076275,113.93374 C0.923213851,113.687961 0.771481318,113.473979 0.551904302,113.353883 C-0.365325482,112.858368 -0.0174107364,111.898966 0.710047369,111.445623 C3.0681362,109.969621 5.33485349,108.519976 7.51019922,107.096689 C14.7566659,102.355911 22.3299617,97.4587472 30.2300864,92.4051977 C39.8697849,86.2376181 49.2494259,80.2193959 58.3690093,74.350531 C58.5868953,74.2099594 58.6062239,74.0447877 58.4269951,73.855016 C57.7206228,73.1170151 57.4465081,72.1523424 56.9668075,71.2509269 C52.5458302,62.900973 47.6346094,53.6390607 42.2331451,43.4651901 C41.1753437,41.4761018 40.2335139,39.627585 39.4076557,37.9196399 C39.2670841,37.6349824 39.0948838,37.3643821 38.891055,37.1078389 C38.7258834,36.9075243 38.5993689,36.6790954 38.5115116,36.4225522 C38.0230253,34.9852075 37.3184101,33.6778915 36.397666,32.5006042 C36.2606087,32.3213754 36.0796227,32.207161 35.8547081,32.1579609 C35.6930508,32.1193037 35.6139792,32.0173893 35.6174935,31.8522176 C35.6210078,31.7573318 35.6051935,31.6659602 35.5700506,31.578103 L34.6897209,29.3166571 C34.6370065,29.1795998 34.5561778,29.0618711 34.4472348,28.9634709 C34.2996347,28.8369565 34.2469203,28.6647563 34.2890918,28.4468703 C34.3242347,28.2570986 34.2504346,28.1270698 34.0676915,28.056784 C33.7900625,27.9548696 33.6934196,27.7527979 33.7777625,27.4505689 C33.819934,27.2994545 33.7777625,27.1782114 33.6512481,27.0868399 C33.3525334,26.8724682 33.2102046,26.5684821 33.2242618,26.1748815 C33.2348047,25.8304811 33.0854473,25.5809665 32.7761898,25.4263377 C32.730504,25.405252 32.7094183,25.3683519 32.7129326,25.3156375 C32.7375326,25.0590944 32.6303467,24.8781084 32.391375,24.7726797 C32.2746174,24.7245905 32.1949802,24.6122817 32.185789,24.4827507 C32.1682175,24.1559217 32.0417031,23.8800499 31.8062456,23.6551354 C31.6797312,23.5321352 31.6340454,23.384535 31.6691883,23.2123348 C31.7183884,22.9698487 31.6463454,22.7695342 31.4530595,22.6113911 C31.3160021,22.5024481 31.2439592,22.3601194 31.2369306,22.1844048 C31.229902,21.9348902 31.2738306,21.7082185 31.3687165,21.5043897 C31.4671166,21.2970465 31.4021022,21.1810749 31.1736734,21.1564749 C31.1174447,21.1529606 31.0664875,21.1687749 31.0208017,21.2039178 C30.9364588,21.2706893 30.8591444,21.2636608 30.7888586,21.1828321 C30.3038865,20.6170313 29.8751431,19.9563447 29.5026283,19.2007723 C29.1230849,18.434657 29.087942,17.7230132 29.3971996,17.0658409 C29.4312876,16.9906904 29.4228806,16.9030877 29.3751222,16.8357918 C29.3273638,16.768496 29.2474469,16.7316422 29.1652564,16.7390119 C29.1160564,16.7425262 29.0721277,16.7618548 29.0334705,16.7969977 C28.8612703,16.9586551 28.7312416,16.9305407 28.6433843,16.7126547 C28.5730985,16.5263974 28.4430698,16.4069115 28.2532981,16.3541971 C27.9826977,16.2768827 27.8913262,16.1046825 27.9791834,15.8375964 C27.9932406,15.795425 27.9932406,15.7550106 27.9791834,15.7163534 C27.8983548,15.4914388 27.973912,15.4018244 28.2058552,15.4475102 C28.3815697,15.4791388 28.5256556,15.4281816 28.6381129,15.2946386 C28.7329987,15.1821813 28.7927417,15.0503954 28.8173417,14.8992809 C28.8524846,14.6849092 28.9016847,14.4775661 28.9649419,14.2772515 C29.0317134,14.076937 29.1318707,14.0593655 29.2654137,14.2245372 C29.3813853,14.3615945 29.5219569,14.4072803 29.6871285,14.3615945 C29.8790795,14.3076891 30.0149345,14.139993 30.0245004,13.9451511 C30.0491005,13.5269505 30.2283293,13.217693 30.5621869,13.0173784 C30.7800729,12.890864 30.8855016,12.9523641 30.878473,13.2018787 C30.8749587,13.254593 30.8855016,13.3037931 30.9101016,13.3494789 C30.9944446,13.5111362 31.1279876,13.5884506 31.3107307,13.581422 C31.5953882,13.5673649 31.750017,13.702665 31.774617,13.9873226 C31.7886742,14.1278942 31.8536886,14.2368372 31.9696601,14.3141516 C32.5284323,14.6901806 32.9659615,15.2243528 33.2822476,15.916668 C33.3630763,16.0923825 33.3982192,16.2768827 33.3876763,16.4701687 C33.3736191,16.7407691 33.4720193,16.9533836 33.6828767,17.1080124 C33.7883054,17.1818125 33.8216912,17.2802126 33.783034,17.4032128 C33.6600338,17.8143848 33.7918197,18.0761994 34.1783916,18.1886567 C34.3049061,18.2237996 34.3488347,18.3046283 34.3101775,18.4311427 C34.2926061,18.4979142 34.2996347,18.5611715 34.3312633,18.6209144 C34.3558633,18.6595716 34.3892491,18.6859288 34.4314205,18.6999859 C34.473592,18.7210717 34.5192778,18.7316146 34.5684779,18.7316146 C34.6528208,18.7281003 34.7195923,18.761486 34.7687924,18.8317718 C35.5876221,19.935259 36.1727514,21.1160606 36.5241804,22.3741765 C36.5663519,22.5358339 36.652452,22.6693769 36.7824808,22.7748056 L37.3939673,23.275592 C37.536056,23.3955458 37.5975085,23.5839999 37.5521104,23.7605641 C37.4888532,24.0171073 37.5696818,24.2103932 37.7945964,24.340422 C37.8598698,24.3747074 37.9131826,24.4280202 37.947468,24.4932936 L62.7812009,71.034798 C62.8564892,71.1716679 62.8860452,71.3286843 62.8655439,71.48287 L62.8563188,71.585663 L62.8563188,71.585663 L62.8497296,71.6937275 L62.8497296,71.6937275 C63.1168156,71.7183275 63.2890158,71.7148132 63.3663302,71.6831846 C82.111555,64.2188319 100.867323,56.7738077 119.633633,49.3481122 C119.918291,49.2356549 120.099277,49.079269 120.176591,48.8789544 L110.80925,25.9429384 C110.802233,25.9219363 110.796932,25.8989642 110.793436,25.8744097 C110.608936,24.8201226 110.097606,23.9977787 109.723334,23.0172917 C109.073191,21.326918 108.39669,19.6435729 107.693832,17.9672564 C107.62706,17.8020848 107.632332,17.6404274 107.709646,17.4822843 C107.853732,17.1976268 108.020661,16.934055 108.210432,16.691569 C108.407233,16.4385401 108.345733,16.3225685 108.025932,16.3436543 C107.945103,16.3506828 107.890632,16.3172971 107.862518,16.243497 C107.788718,16.0642682 107.839675,15.9359966 108.015389,15.8586822 C108.229761,15.7637963 108.38439,15.8217821 108.479276,16.0326396 C108.570965,16.2286084 108.798208,16.3190418 108.995876,16.2382255 C109.484363,16.0414253 109.888506,15.7514963 110.208306,15.3684387 C110.235038,15.3354461 110.277663,15.3197009 110.319423,15.3273936 C110.361183,15.3350862 110.3954,15.3649866 110.408621,15.4053387 C110.492964,15.6583676 110.66165,15.8094821 110.914679,15.8586822 C111.034165,15.8797679 111.111479,15.832325 111.146622,15.7163534 C111.241508,15.3754673 111.478722,15.1716384 111.858266,15.1048669 C112.03398,15.0767526 112.155223,15.1452812 112.221995,15.3104529 L124.383197,45.4261641 C124.435835,45.5565045 124.548125,45.6538068 124.68255,45.6855607 C124.816974,45.7173146 124.95581,45.6793334 125.052669,45.5843072 L172.674818,0.160347138 C172.820033,0.021786463 173.026578,-0.0318223543 173.220851,0.0186241017 C173.415124,0.0690705577 173.569492,0.216397273 173.628947,0.408104608 C174.414391,2.90676506 175.263093,4.86773908 176.117065,7.30841373 C176.401723,8.11670052 176.726794,8.96364449 177.092281,9.84924567 C177.487638,10.8191898 177.846096,12.0790629 178.309982,13.1544358 C178.809011,14.2965801 179.207883,15.4756245 179.506598,16.691569 C179.643655,17.2556126 180.118085,17.7247704 180.292042,18.3046283 C180.731328,19.7841445 181.221572,21.2460893 181.762773,22.6904626 C181.966601,22.8134628 182.028101,22.9751202 181.947273,23.1754347 C181.905101,23.2843777 181.940244,23.3511492 182.052701,23.3757493 C182.098387,23.3862921 182.152859,23.3950779 182.216116,23.4021064 C185.779606,20.6961029 189.553954,19.9194447 193.53916,21.0721319 C197.555993,22.2318478 200.365669,24.9729942 201.667713,28.8949423 C202.486543,31.3549455 202.433828,33.6568057 201.50957,35.8005228 C199.390453,40.7029579 195.579205,45.3470926 191.915557,49.2163263 C191.793402,49.3453889 191.756425,49.5323278 191.820672,49.6960269 L203.697216,81.1506828 C203.911588,81.2174543 204.096088,81.2051543 204.250717,81.1137828 C204.370202,81.043497 204.440488,81.0048398 204.461574,80.9978112 C208.235922,79.4936949 212.077041,77.9948501 215.984932,76.5012767 C218.262192,75.633247 220.521881,74.7458886 222.763998,73.8392017 C225.072887,72.9044005 227.344876,72.0433994 229.579964,71.2561983 C230.328508,70.9926265 230.982166,70.5709117 231.751796,70.38114 C232.250825,70.2616541 232.732283,70.078911 233.196169,69.8329107 C234.213556,69.2952243 235.336372,69.0158382 236.374845,68.5993948 C239.365506,67.3939932 242.547696,66.1710202 245.921415,64.9304757 C247.228731,64.4490179 248.553618,63.9412029 249.896077,63.4070308 C250.623535,63.118859 251.31585,62.82893 251.973023,62.5372439 C252.679395,62.2279864 253.378739,61.9556289 254.071054,61.7201714 C255.483799,61.2457422 256.8614,60.7361701 258.203859,60.1914551 C258.567588,60.0438549 258.857517,60.2072694 259.184346,60.0280406 C259.630661,59.7855546 260.099819,59.5377971 260.59182,59.2847682 C261.024077,59.0633679 261.517835,58.8788677 262.073093,58.7312675 C262.635379,58.5766387 263.15198,58.4184956 263.622895,58.2568383 C263.875924,58.168981 264.10611,58.0635523 264.313453,57.9405521 C264.798425,57.6506232 265.151611,57.8720235 265.557512,57.5451945 C265.648883,57.4713944 265.669969,57.3835371 265.620769,57.2816227 C265.543455,57.1129367 265.596169,57.0408938 265.778912,57.0654938 C266.302541,57.1322653 266.736556,56.9864223 267.080957,56.6279647 C267.182862,56.5241509 267.343802,56.5065136 267.465772,56.5857932 L267.581743,56.6648647 C267.680143,56.7246077 267.776786,56.7246077 267.871672,56.6648647 C268.388273,56.3485786 268.959345,56.0937925 269.584889,55.9005066 C269.690317,55.868878 269.76236,55.8056207 269.801018,55.7107349 C269.808046,55.6931634 269.808046,55.675592 269.801018,55.6580205 C269.758846,55.5736776 269.785203,55.5244775 269.880089,55.5104203 C270.213947,55.4647346 270.539019,55.4102631 270.855305,55.3470058 C271.062648,55.3083486 271.222548,55.1976485 271.335005,55.0149054 C271.433405,54.8497338 271.568706,54.8093194 271.740906,54.8936624 C271.958792,54.9990911 272.167892,54.9832768 272.368207,54.8462195 C272.990236,54.4139617 273.749323,54.2927187 274.645467,54.4824904 C274.863353,54.5281762 274.921339,54.6511763 274.819424,54.8514909 C274.801853,54.8831195 274.801853,54.9147481 274.819424,54.9463767 C274.893224,55.0658626 274.989867,55.1660199 275.109353,55.2468486 C275.956297,55.8196779 276.096869,56.4364359 275.531068,57.0971224 C275.411582,57.2376941 275.439696,57.3413656 275.615411,57.4081371 C276.037126,57.5662802 276.142555,57.8597234 275.931697,58.2884669 C275.703268,58.7593818 275.357111,58.9913249 274.893224,58.9842964 C274.730405,58.9843619 274.572417,59.0464284 274.450424,59.1582537 C274.200909,59.3866826 273.895166,59.4587256 273.533194,59.3743826 C273.277567,59.314361 273.008002,59.3788223 272.805736,59.54834 C272.123963,60.1246836 271.371905,60.4005554 270.549561,60.3759553 C270.440618,60.3724411 270.333433,60.3900125 270.228004,60.4286697 C270.094461,60.4778698 270.039989,60.5481556 270.064589,60.6395271 C270.106761,60.7765844 270.059318,60.8222702 269.922261,60.7765844 C269.757089,60.7238701 269.65166,60.7748273 269.605974,60.9294561 C269.574346,61.0243419 269.512846,61.0840849 269.421474,61.1086849 L268.551687,61.3406281 C268.534356,61.3441408 268.518154,61.3513418 268.504244,61.3617138 C268.307444,61.4706568 268.277573,61.5620283 268.41463,61.6358284 C268.506002,61.6885428 268.502487,61.7359857 268.404087,61.7781572 C267.985887,61.9538717 267.543086,62.0962005 267.075685,62.2051435 C266.917542,62.2438007 266.759399,62.2578578 266.601256,62.247315 C266.313084,62.2297435 266.06357,62.3316579 265.852712,62.5530582 C265.747284,62.6655155 265.619012,62.7305299 265.467898,62.7481013 C264.677182,62.8465015 264.123681,62.9923445 263.807395,63.1856305 C262.851508,63.772517 261.832364,64.2100461 260.749963,64.4982179 C260.707791,64.5087608 260.670891,64.5280894 260.639263,64.5562037 C260.583034,64.6054038 260.561948,64.6581182 260.576005,64.7143468 C260.621691,64.8760042 260.572491,64.9129042 260.428405,64.8250469 C260.393262,64.8039612 260.354605,64.7969326 260.312434,64.8039612 C260.277291,64.8074755 260.240391,64.8145041 260.201733,64.8250469 C258.859275,65.2186475 257.657387,65.6684766 256.596072,66.1745344 C255.583956,66.6595065 254.390854,67.1409643 253.016767,67.6189078 C251.688365,68.0827941 250.309006,68.6011519 248.87869,69.1739813 C245.508485,70.5234688 241.974866,71.9309421 238.277833,73.3964011 C229.37965,76.9142058 220.764367,80.3037388 212.431985,83.5650003 C210.590496,84.2854298 208.750765,84.9724736 206.912792,85.6261316 C206.276705,85.6964174 205.833904,85.9107891 205.58439,86.2692467 C205.482475,86.4203612 205.463147,86.5802614 205.526404,86.7489474 L225.041258,139.542374 L225.041258,139.542374 C225.332944,139.964089 225.687888,140.088846 226.106088,139.916646 C229.275978,138.637445 233.020455,137.075343 237.339517,135.23034 C243.071325,132.777365 248.961276,130.275191 255.009369,127.723816 C255.824685,127.379415 256.6154,127.087729 257.381515,126.848758 C258.305774,126.557071 259.156232,126.210914 259.93289,125.810285 C261.468635,125.019569 263.062366,124.341311 264.714082,123.775511 C264.854654,123.726311 264.965354,123.641968 265.046183,123.522482 C265.264069,123.192138 265.583869,123.04981 266.005584,123.095495 C266.191841,123.116581 266.367556,123.081438 266.532728,122.990067 C267.597557,122.410209 268.695773,122.000794 269.827375,121.761822 C270.020661,121.719651 270.064589,121.782908 269.959161,121.951594 C269.793989,122.215166 269.739517,122.541995 269.795746,122.932081 C269.82386,123.125367 269.932803,123.24661 270.122575,123.29581 C270.210432,123.32041 270.29829,123.329196 270.386147,123.322167 C270.59349,123.301081 270.688376,123.39421 270.670804,123.601553 C270.660262,123.724553 270.597004,123.814168 270.481033,123.870396 C270.37209,123.923111 270.336947,124.007454 270.375604,124.123425 C270.438861,124.316711 270.574161,124.39754 270.781505,124.365911 C271.062648,124.32374 271.234848,124.441469 271.298105,124.719098 C271.37542,125.035384 271.271748,125.288413 270.987091,125.478184 C270.755147,125.632813 270.774476,125.741756 271.045076,125.805013 C271.32622,125.868271 271.631963,125.891113 271.962306,125.873542 C272.253992,125.855971 272.268049,125.910442 272.004478,126.036956 C271.740906,126.168742 271.503691,126.126571 271.240119,126.253085 C270.220975,126.7486 269.273874,127.238844 268.398816,127.723816 C268.307444,127.773016 268.210801,127.787073 268.108887,127.765987 C267.985887,127.737873 267.864644,127.750173 267.745158,127.802887 L227.61899,144.950867 C227.20079,144.91221 227.060218,145.077382 227.197275,145.446382 L232.473982,159.710887 L232.473982,159.710887 L237.740147,173.975391 L237.740147,173.975391 C241.14198,183.130118 243.856769,190.464442 245.884514,195.978363 C246.815801,198.508652 247.710188,200.91067 248.567675,203.184416 C248.94019,204.161388 249.303919,205.18229 249.658862,206.24712 C250.027863,207.343578 250.395106,208.357451 250.760592,209.288738 C251.786765,211.913913 252.728595,214.496916 253.586082,217.037748 C253.814511,217.726549 254.071054,218.388993 254.355711,219.025079 C254.647398,219.682252 254.888126,220.371053 255.077898,221.091482 C255.129949,221.282548 255.024367,221.482236 254.835412,221.550097 L251.630379,222.725627 C251.27042,222.856382 250.870295,222.814037 250.546553,222.610925 C250.222811,222.407813 250.011861,222.066777 249.975148,221.687154 C249.911891,221.022954 249.651834,220.455396 249.194976,219.984481 C249.029804,219.815795 248.954247,219.611966 248.968304,219.372994 C248.992904,218.986422 248.906804,218.622693 248.710004,218.281807 C248.622147,218.134207 248.548347,217.979578 248.488604,217.817921 L231.941567,173.269019 L222.568955,147.865971 C222.403783,147.412628 222.09804,147.280842 221.651725,147.470613 L173.813448,167.865798 L194.546004,219.715638 C194.666677,220.019926 194.618595,220.364515 194.419489,220.622324 C194.14186,220.977268 193.964389,221.024711 193.887074,220.764653 C193.771103,220.378081 193.565517,220.318338 193.270316,220.585424 C192.999716,220.82791 192.672887,220.912253 192.289829,220.838453 C192.103572,220.80331 191.943672,220.85251 191.810129,220.986053 L191.636171,221.165282 C191.511923,221.293281 191.340091,221.363923 191.161742,221.360325 C190.838427,221.353297 190.669741,221.525497 190.655684,221.876926 C190.634599,222.55167 190.472941,222.58857 190.170712,221.987626 C190.072312,221.79434 190.002026,221.58524 189.959855,221.360325 C189.923416,221.160934 189.785506,220.995043 189.596126,220.922796 C189.385268,220.845482 189.30444,220.708425 189.35364,220.511624 C189.392297,220.346453 189.343097,220.21291 189.20604,220.110995 C189.030325,219.980966 188.938953,219.808766 188.931925,219.594394 C188.910839,218.814222 188.643753,218.07095 188.130667,217.364577 C188.013176,217.205585 187.938746,217.020415 187.914538,216.826891 C187.826681,216.106461 187.559594,215.452803 187.11328,214.865917 C186.846194,214.518002 186.710893,214.11913 186.707379,213.669301 C186.703865,213.426815 186.635336,213.203657 186.501793,212.999829 C186.111707,212.412942 185.820021,211.754013 185.626735,211.02304 C185.454535,210.379925 185.215563,209.766681 184.90982,209.183309 C184.642733,208.670223 184.396733,208.107936 184.171819,207.49645 C183.953933,206.899021 183.720232,206.306863 183.470718,205.719976 C181.811973,201.8402 180.158499,197.833909 178.510297,193.701103 C175.864036,187.062609 172.704689,179.262641 169.032256,170.301201 C168.979541,170.167658 168.882898,170.090343 168.742327,170.069258 C168.640412,170.051686 168.527955,170.053443 168.404955,170.074529 L125.13174,188.355867 C126.235228,190.47147 127.312358,192.508002 128.36313,194.465461 Z" id="形状结合" fill="url(#linearGradient-1)"></path>
                <path d="M178.41014,34.8780216 C177.840824,33.321191 177.87421,31.5271458 178.510297,29.4958859 L178.63154,28.2992701 C179.513627,26.3699247 180.680371,24.776194 182.131773,23.518078 L184.551362,29.6856576 C184.783305,30.2760584 185.085534,30.3147156 185.458049,29.8016292 C186.259307,28.6946277 187.37158,27.6614264 188.784325,27.3820403 C191.230271,26.9076111 193.170159,27.6491264 194.60399,29.6065861 C195.299819,30.5554445 195.587991,31.5728315 195.468505,32.6587473 C195.294548,34.2401779 194.741047,35.7267227 193.381016,36.6808526 C191.7539,37.8124541 189.987969,38.065483 188.083224,37.4399393 C187.921676,37.3868167 187.743978,37.4309046 187.625998,37.5533798 C187.508017,37.6758549 187.4706,37.8550764 187.529723,38.0145258 L191.261899,48.1620392 C191.304071,48.2815251 191.370842,48.3851966 191.462214,48.4730539 C191.739843,48.7471685 191.764443,49.0564261 191.536014,49.4008265 C191.212699,49.8893129 190.82437,50.3602278 190.371027,50.8135713 C190.30607,50.8786744 190.217025,50.9139269 190.125108,50.9111063 C190.033191,50.9079323 189.946632,50.8669536 189.886055,50.797757 C189.306197,50.1124703 188.641996,49.6802126 188.125395,48.9053116 C187.281966,47.6471957 186.204836,46.6087229 184.894005,45.7898932 L184.235076,44.3507913 C181.578272,41.405816 179.636627,38.2482261 178.41014,34.8780216 Z" id="形状结合" fill="url(#linearGradient-2)"></path>
                <path d="M19.0915431,55.2415771 C19.864687,54.7460622 20.6185023,54.3155616 21.352989,53.9500754 C21.511132,53.872761 21.6780608,53.8534324 21.8537753,53.8920896 L31.7798885,56.195707 C32.3510155,56.3266032 32.7090808,56.8943251 32.5811467,57.4661229 L30.4093152,66.9863355 C30.3348394,67.3172928 30.1299004,67.6057254 29.8400002,67.7875937 L13.1822639,78.2935648 C12.7477235,78.5682255 12.1758391,78.478165 11.8433192,78.0827073 C11.3618615,77.4993351 10.9313609,76.9001486 10.5518175,76.2851478 C8.51001483,72.9500863 6.41022634,69.5482532 4.25245205,66.0796486 C3.90698378,65.5253434 4.07665941,64.7947956 4.63199541,64.4455036 C9.2322015,61.5497283 14.0520507,58.4817528 19.0915431,55.2415771 Z M28.5537699,60.407584 C28.5537699,59.0712819 27.4704831,57.987995 26.134181,57.987995 C24.7978789,57.987995 23.7145921,59.0712819 23.7145921,60.407584 C23.7145921,61.743886 24.7978789,62.8271729 26.134181,62.8271729 C27.4704831,62.8271729 28.5537699,61.743886 28.5537699,60.407584 L28.5537699,60.407584 Z" id="形状" fill-opacity="0.265182815" fill="#FFFFFF"></path>
                <circle id="椭圆形" fill-opacity="0.621069848" fill="#FFFFFF" cx="26.134181" cy="60.407584" r="2.41958891"></circle>
                <path d="M235.937316,114.497784 L228.546763,97.2127469 C228.300818,96.6435803 228.562772,95.9827964 229.131892,95.736745 L252.737381,85.594503 C253.012593,85.4757343 253.323869,85.4719382 253.601896,85.5839601 L266.089927,90.6339954 C266.664695,90.8656707 266.943093,91.5191978 266.711956,92.094183 L261.830607,104.213213 C261.71906,104.488506 261.502975,104.708383 261.229663,104.8247 L237.413318,115.082913 C236.844151,115.328858 236.183367,115.066905 235.937316,114.497784 L235.937316,114.497784 Z M260.892291,94.7668008 C260.892291,93.9405405 260.564061,93.1481216 259.979807,92.5638674 C259.395552,91.9796131 258.603133,91.6513824 257.776873,91.6513824 C256.950613,91.6513824 256.158194,91.9796131 255.57394,92.5638674 C254.989685,93.1481216 254.661455,93.9405405 254.661455,94.7668008 C254.661455,96.4873989 256.056275,97.8822192 257.776873,97.8822192 C258.603133,97.8822192 259.395552,97.5539886 259.979807,96.9697343 C260.564061,96.38548 260.892291,95.5930612 260.892291,94.7668008 L260.892291,94.7668008 Z" id="形状" fill-opacity="0.265182815" fill="#FFFFFF"></path>
                <circle id="椭圆形" fill-opacity="0.621069848" fill="#FFFFFF" cx="257.776873" cy="94.7668008" r="3.11541841"></circle>
                <path d="M59.3442249,137.591943 C61.2313988,138.551344 62.7390294,139.786618 63.8671166,141.297762 C65.5223474,143.631251 66.2831912,146.107069 66.1496482,148.725215 C66.0653052,150.398017 65.5030188,152.130562 64.4627888,153.92285 C61.7796281,158.551171 58.231952,162.778862 54.4048898,166.711353 C54.2432325,166.880039 54.0780608,166.881796 53.9093749,166.716625 C49.867941,162.738448 46.6101938,158.637271 44.1361334,154.413094 C43.3278466,153.042521 42.6583743,151.601662 42.1277164,150.090517 C41.9753974,149.653341 41.8080218,147.855766 42.1277164,146.127475 C42.5057873,144.0836 43.0874428,143.314385 43.1212374,143.236043 C45.5355549,137.748478 52.1750726,135.219797 57.7944229,137.159685 C58.328595,137.342429 58.8451957,137.486514 59.3442249,137.591943 Z" id="形状" fill-opacity="0.265182815" fill="#FFFFFF"></path>
                <circle id="椭圆形" fill-opacity="0.364901456" fill="#FFFFFF" cx="53.9705735" cy="148.567522" r="6.12055364"></circle>
                <path d="M217.487291,173.885777 L215.13096,180.132428 C215.022759,180.416073 214.806718,180.64538 214.530016,180.770272 L201.715156,186.574122 C201.436361,186.700207 201.118795,186.7099 200.832829,186.601055 C200.546863,186.49221 200.316112,186.273814 200.191711,185.994264 L196.253949,177.154067 C195.998379,176.576113 196.257421,175.900251 196.833807,175.641165 L209.474709,169.937472 C209.75452,169.810667 210.073453,169.801175 210.36031,169.911115 L216.828362,172.409775 C217.415379,172.638065 217.70925,173.296337 217.487291,173.885777 L217.487291,173.885777 Z M214.429859,175.013864 C214.429859,174.032745 213.634504,173.23739 212.653385,173.23739 C211.672265,173.23739 210.876911,174.032745 210.876911,175.013864 C210.876911,175.994983 211.672265,176.790338 212.653385,176.790338 C213.634504,176.790338 214.429859,175.994983 214.429859,175.013864 L214.429859,175.013864 Z" id="形状" fill-opacity="0.265182815" fill="#FFFFFF"></path>
                <circle id="椭圆形" fill-opacity="0.621069848" fill="#FFFFFF" cx="212.653385" cy="175.013864" r="1.77647378"></circle>
            </g>
        </g>
    </g>
</svg>