<?xml version="1.0" encoding="UTF-8"?>
<svg width="38px" height="38px" viewBox="0 0 38 38" version="1.1" xmlns="http://www.w3.org/2000/svg" xmlns:xlink="http://www.w3.org/1999/xlink">
    <title>ic_srlj_bmd</title>
    <defs>
        <linearGradient x1="68.6183233%" y1="-9.70386484%" x2="59.5779819%" y2="70.8172736%" id="linearGradient-1">
            <stop stop-color="#0A59F7" offset="0%"></stop>
            <stop stop-color="#6094FF" offset="100%"></stop>
        </linearGradient>
    </defs>
    <g id="页面-1" stroke="none" stroke-width="1" fill="none" fill-rule="evenodd">
        <g id="骚扰拦截-短信切图" transform="translate(-612.000000, -105.000000)">
            <g id="ic_srlj_bmd-2" transform="translate(612.000000, 105.000000)">
                <g id="ic_srlj_bmd" transform="translate(1.000000, 0.932441)">
                    <path d="M15.081352,12.8942592 C16.6244899,13.5120146 18.0900958,13.5557827 19.4781697,13.0255635 C22.0367274,12.0451582 23.3510208,10.1181115 23.4210497,7.2444235 C23.4535632,5.94138481 23.4585652,4.51329442 23.4360559,2.96015233" id="路径" stroke="#388C79" stroke-width="2"></path>
                    <path d="M11.1984968,3.83051215 C12.5215437,1.43702265 14.5486318,0.184004641 17.2797608,0.071458113 C18.4652509,0.0214374339 19.8870887,-0.00232238867 21.5452743,0.000178645283 C23.3647765,0.000178645283 24.6853224,0.971830337 24.6027883,2.90387907 C24.5202541,4.83217625 24.7903658,6.96305718 24.4039561,8.74879542 C23.3385156,13.6858365 17.8987667,16.1431023 13.5657254,13.3106814 C10.444435,11.2735892 9.41275853,7.05684595 11.1984968,3.83051215 Z M15.081352,12.8942592 C16.6244899,13.5120146 18.0900958,13.5557827 19.4781697,13.0255635 C22.0367274,12.0451582 23.3510208,10.1181115 23.4210497,7.2444235 C23.4535632,5.94138481 23.4586097,4.51329442 23.4360559,2.96015233 C23.5335962,2.18733284 23.3147558,1.65461261 22.7795345,1.36199163 C22.4644042,1.19192133 22.1042553,1.11438927 21.6990878,1.12939548 C19.7707907,1.19692339 17.5686303,0.90430242 15.8091529,1.4182649 C10.328137,3.00517094 9.95673342,10.4519995 15.081352,12.8942592 Z" id="形状" fill="#2F3254" fill-rule="nonzero"></path>
                    <path d="M23.4360559,2.96015233 C23.4585652,4.51329442 23.4535632,5.94138481 23.4210497,7.2444235 C23.3510208,10.1181115 22.0367274,12.0451582 19.4781697,13.0255635 C18.0900958,13.5557827 16.6244899,13.5120146 15.081352,12.8942592 C12.7929059,11.0334899 12.1688979,8.77130473 13.2093281,6.10770357 C13.6895266,4.88219693 14.5173688,3.97307108 15.6928548,3.38032604 C16.5256991,2.96015233 17.6686716,2.73005721 19.1217723,2.69004067 C20.5848772,2.65252516 22.0229717,2.74256238 23.4360559,2.96015233 Z" id="路径" fill="url(#linearGradient-1)" fill-rule="nonzero"></path>
                    <path d="M11.4761115,19.069312 C6.19017628,19.1480946 1.0730608,24.3740051 1.12933407,29.6674434 C1.14434027,30.9279645 1.14434027,32.1922372 1.12933407,33.4602614 C1.124332,33.7878969 0.960514275,33.9742239 0.637880895,34.0192425 C0.507827129,34.0367498 0.372771295,34.0004848 0.232713394,33.9104475 C0.108331133,33.8304086 0.0312002865,33.6943778 0.0263780925,33.5465471 C-0.0111374168,31.9258771 -0.00863638288,30.4490165 0.0338811944,29.1159654 C0.183943232,24.2802163 4.15683567,19.9246657 8.52364096,18.4690639 C9.73414139,18.0663974 11.1934947,17.8763188 12.9017009,17.8988282 C15.4027349,17.9363437 17.7562078,17.9388447 19.9621198,17.9063313 C20.0918942,17.9062184 20.2157564,17.9560326 20.3072624,18.0451386 C20.5648689,18.2977431 20.5773741,18.5716063 20.344778,18.8667283 C20.2499949,18.9848463 20.1060472,19.0526677 19.9546167,19.0505543 C16.9958935,19.0230429 14.1697251,19.0292955 11.4761115,19.069312 Z" id="路径" fill="#2F3254" fill-rule="nonzero"></path>
                    <path d="M36,27.1576559 C36,32.1157709 31.9806536,36.1351172 27.0225386,36.1351172 C22.0644236,36.1351172 18.0450772,32.1157709 18.0450772,27.1576559 C18.0450772,22.1995408 22.0644236,18.1801945 27.0225386,18.1801945 C31.9806536,18.1801945 36,22.1995408 36,27.1576559 Z M34.8782863,27.1576559 C34.8782863,22.8190462 31.3611482,19.3019082 27.0225386,19.3019082 C22.683929,19.3019082 19.166791,22.8190462 19.166791,27.1576559 C19.166791,31.4962655 22.683929,35.0134035 27.0225386,35.0134035 C31.3611482,35.0134035 34.8782863,31.4962655 34.8782863,27.1576559 Z" id="形状" fill="#2F3254" fill-rule="nonzero"></path>
                    <path d="M25.9683528,29.5624 L30.8191082,24.7116446 C30.8928415,24.6378992 30.9833405,24.5848927 31.0817167,24.5578311 C31.8520352,24.3552473 32.0358612,24.6491188 31.6331947,25.4394455 C31.6058823,25.4965187 31.5678139,25.5498144 31.5206482,25.5970107 L26.2122036,30.9054552 C26.0870987,31.0309599 25.9149381,31.097999 25.7379041,31.0901467 C25.5608702,31.0822944 25.395321,31.0002762 25.281819,30.8641882 L22.4719073,27.5065501 C22.2868308,27.2839581 22.265572,27.0463598 22.408131,26.7937554 C22.4406444,26.7362316 22.4844125,26.6899625 22.5394352,26.654948 C22.8370583,26.4748736 23.0971658,26.5186417 23.3197578,26.7862523 L25.6382163,29.5473938 C25.7432597,29.6724455 25.8533052,29.6774476 25.9683528,29.5624 Z" id="路径" fill="#2F3254" fill-rule="nonzero"></path>
                </g>
            </g>
        </g>
    </g>
</svg>