<?xml version="1.0" encoding="UTF-8"?>
<svg width="99px" height="98px" viewBox="0 0 99 98" version="1.1" xmlns="http://www.w3.org/2000/svg" xmlns:xlink="http://www.w3.org/1999/xlink">
    <title>ic_srlj_yczpdh</title>
    <g id="页面-1" stroke="none" stroke-width="1" fill="none" fill-rule="evenodd">
        <g id="骚扰拦截-电话切图" transform="translate(-185.000000, -871.000000)" fill="#FFFFFF" fill-rule="nonzero">
            <g id="ic_srlj_yczpdh" transform="translate(185.687309, 871.000000)">
                <g transform="translate(18.236446, 13.000000)" id="路径">
                    <path d="M37.4405762,35.1212485 C37.1140456,35.1212485 36.9507803,35.2797119 36.9507803,35.5966387 L36.8787515,43.3901561 C36.8787515,43.7551021 37.0612245,43.937575 37.4261704,43.937575 L59.4237695,43.9231693 C60.8355342,43.9231693 61.5366146,44.6242497 61.5271081,46.0264106 L61.4981992,52.4369748 C61.4885954,53.7719088 60.8211284,54.4345738 59.4957983,54.42497 L37.8727491,54.3961585 C37.2484994,54.3961585 36.9363745,54.7082833 36.9363745,55.332533 L36.8931572,69.6806723 C36.8931572,71.2268908 36.120048,72 34.5738295,72 L26.8811524,71.9711885 C25.334934,71.9711885 24.5666266,71.2028812 24.5762305,69.6662665 L24.605042,55.1164466 C24.605042,54.7027303 24.2696587,54.3673469 23.8559424,54.3673469 L2.04561825,54.3961585 C0.701080432,54.4057623 0.0240096038,53.7382953 0.0144057623,52.3937575 L0,46.4153662 C0,44.7539016 0.830732293,43.9231693 2.49219688,43.9231693 L23.7262905,43.937575 C23.9695038,43.9376602 24.2025524,43.8385737 24.373173,43.6625366 C24.5437935,43.4864995 24.6377074,43.2482437 24.6338535,43.0012005 L24.5762305,35.942377 C24.5762305,35.4141657 24.3073229,35.15006 23.7695078,35.15006 L2.30492197,35.1356543 C0.777911164,35.1356543 0.0144057623,34.3721489 0.0144057623,32.8451381 L0.0288115246,26.9675871 C0.0288115246,25.3253302 0.849939976,24.5090036 2.49219688,24.5186075 L16.4945978,24.605042 C16.6267995,24.6110891 16.7501986,24.5419555 16.8162716,24.4248261 C16.8823446,24.3076968 16.8805235,24.1613057 16.8115246,24.0432173 L3.14045618,2.13205286 C2.27611044,0.739495833 2.66506603,0.0384154015 4.30732293,0.02881156 L13.6854742,0 C15.2707008,0 16.7419587,0.817169139 17.57503,2.16086438 L31.2172869,24.2016807 C31.2876218,24.3141383 31.4109484,24.3832339 31.5413357,24.3832339 C31.671723,24.3832339 31.7896286,24.3141383 31.8511404,24.2016807 L44.9315726,2.10324133 C45.7478991,0.710684309 46.967587,0.0144057977 48.5906362,0.0144057977 L57.2484994,0.02881156 C58.9291716,0.0384154015 59.3421368,0.763505437 58.4873949,2.20408167 L45.5366146,24.0576231 C45.4668001,24.1657946 45.4628722,24.3037984 45.5264212,24.4157657 C45.5899702,24.527733 45.7104691,24.5951162 45.8391356,24.5906363 L59.4237695,24.4897959 C59.9802549,24.485958 60.5152667,24.7043357 60.9101206,25.0964851 C61.3049745,25.4886345 61.5271081,26.0221328 61.5271081,26.5786315 L61.512605,33.0612245 C61.512605,34.4537815 60.8163265,35.15006 59.4237695,35.15006 L37.4405762,35.1212485 Z"></path>
                </g>
            </g>
        </g>
    </g>
</svg>