<?xml version="1.0" encoding="UTF-8"?>
<svg width="38px" height="38px" viewBox="0 0 38 38" version="1.1" xmlns="http://www.w3.org/2000/svg" xmlns:xlink="http://www.w3.org/1999/xlink">
    <title>ic_srlj_gxgl</title>
    <defs>
        <linearGradient x1="68.589486%" y1="-9.89549153%" x2="59.5631468%" y2="70.8840891%" id="linearGradient-1">
            <stop stop-color="#0A59F7" offset="0%"></stop>
            <stop stop-color="#6094FF" offset="100%"></stop>
        </linearGradient>
    </defs>
    <g id="页面-1" stroke="none" stroke-width="1" fill="none" fill-rule="evenodd">
        <g id="骚扰拦截-短信切图" transform="translate(-504.000000, -105.000000)">
            <g id="ic_srlj_gxgl-2" transform="translate(504.000000, 105.000000)">
                <g id="ic_srlj_gxgl" transform="translate(1.000000, 0.920515)">
                    <path d="M15.0211084,12.8778604 C16.7848288,13.6021115 18.4641158,13.560833 20.0589694,12.7540247 C24.0048248,10.7670248 23.6389466,6.92248949 23.4306775,2.94848962" id="路径" stroke="#3A8C7A" stroke-width="2"></path>
                    <path d="M23.9316491,10.3110843 C22.6370033,13.0992636 20.3929505,14.491477 17.1994907,14.4877319 C13.3380688,14.4820955 10.0958252,10.9190049 10.3660122,7.01255181 C10.591168,3.74028752 12.1991557,1.55815256 15.1899752,0.466146928 C17.0869128,-0.226207156 19.5917711,0.0608664885 21.6688333,0.0496086985 C23.5676473,0.0421035052 24.5339409,0.972747478 24.5677143,2.84154062 C24.6127454,5.18878983 24.905448,8.21713534 23.9316491,10.3110843 Z M15.0211084,12.8778604 C16.7848288,13.6021115 18.4641158,13.560833 20.0589694,12.7540247 C24.0048248,10.7670248 23.6389466,6.92248949 23.4306775,2.94848962 C23.5507606,2.40061051 23.4119145,1.94279371 23.0141392,1.57503924 C22.7326945,1.31235748 22.3968371,1.177264 22.006567,1.1697588 C20.2653622,1.13973803 18.6179723,1.15474842 17.0643972,1.21478996 C14.075454,1.33299676 11.8801849,3.6408437 11.5255646,6.67481811 C11.2103464,9.3804403 12.3755277,11.4481211 15.0211084,12.8778604 Z" id="形状" fill="#2F3254" fill-rule="nonzero"></path>
                    <path d="M23.4306775,2.94848962 C23.6389466,6.92248949 24.0048248,10.7670248 20.0589694,12.7540247 C18.4641158,13.560833 16.7848288,13.6021115 15.0211084,12.8778604 C13.1973464,11.3805743 12.4787241,9.53992566 12.8652416,7.3559144 C13.2630168,5.11561419 14.628962,3.63333851 16.9630771,2.90908736 C18.3177645,2.48504393 20.4736313,2.49817802 23.4306775,2.94848962 Z" id="路径" fill="url(#linearGradient-1)" fill-rule="nonzero"></path>
                    <path d="M8.68297259,19.6437922 C4.69208604,21.152336 1.24720231,24.8786645 1.16276888,29.3648938 C1.13274811,30.8509221 1.11961402,32.2581459 1.12336662,33.5865651 C1.12336662,33.8492468 0.990149434,33.9768351 0.723715071,33.9693299 L0.509817061,33.963701 C0.187093748,33.9561958 0.0219794947,33.7892053 0.0144743014,33.4627294 C-0.00804127856,32.1793413 -0.0042886819,30.875314 0.0257320914,29.5506474 C0.166454466,23.3644918 5.68840046,18.1183616 11.7901226,17.9607526 C14.578302,17.8894532 17.3045634,17.8894532 19.9689071,17.9607526 C20.3516719,17.9720104 20.5205388,18.1671454 20.4755076,18.5461576 L20.4586209,18.6981378 C20.4349704,18.8623739 20.300813,18.9871167 20.1377739,18.9964692 C18.23896,19.0865316 16.3195068,19.0996657 14.3794143,19.0358715 C11.8801849,18.9495618 9.98137104,19.152202 8.68297259,19.6437922 Z" id="路径" fill="#2F3254" fill-rule="nonzero"></path>
                    <path d="M36,27.1865115 C36,32.1418635 31.9828934,36.1589701 27.0275414,36.1589701 C22.0721893,36.1589701 18.0550828,32.1418635 18.0550828,27.1865115 C18.0550828,22.2311594 22.0721893,18.2140528 27.0275414,18.2140528 C31.9828934,18.2140528 36,22.2311594 36,27.1865115 L36,27.1865115 Z M21.1622328,32.2468881 L32.1104336,21.3380896 C32.1135423,21.3380896 32.1160625,21.3355694 32.1160625,21.3324607 C32.1160625,21.3293519 32.1135423,21.3268318 32.1104336,21.3268318 L32.087918,21.3043162 C30.7355189,19.946865 28.8658797,19.2156214 26.8906169,19.2715749 C24.9153541,19.3275283 22.9964098,20.1660915 21.5562554,21.6026476 L21.4605642,21.6983388 C18.4622782,24.68712 18.3136009,29.3994331 21.1284594,32.2243725 L21.150975,32.2468881 C21.150975,32.2499968 21.1534951,32.252517 21.1566039,32.252517 C21.1597127,32.252517 21.1622328,32.2499968 21.1622328,32.2468881 L21.1622328,32.2468881 Z M32.8815922,22.1261349 L21.9671648,33.0405623 C21.9614313,33.0469725 21.9614313,33.0566676 21.9671648,33.0630778 L21.9840515,33.0799645 C24.7952376,35.8885751 29.4964344,35.74245 32.4875695,32.7534886 L32.5945185,32.6465396 C35.58348,29.6554045 35.729605,24.9542077 32.9209944,22.1430216 L32.9041078,22.1261349 C32.8976976,22.1204014 32.8880024,22.1204014 32.8815922,22.1261349 L32.8815922,22.1261349 Z" id="形状" fill="#2F3254" fill-rule="nonzero"></path>
                </g>
            </g>
        </g>
    </g>
</svg>