<?xml version="1.0" encoding="UTF-8"?>
<svg width="23px" height="22px" viewBox="0 0 23 22" version="1.1" xmlns="http://www.w3.org/2000/svg" xmlns:xlink="http://www.w3.org/1999/xlink">
    <title>ic_wode_shezhi</title>
    <g id="个人信息" stroke="none" stroke-width="1" fill="none" fill-rule="evenodd">
        <g id="我的切图" transform="translate(-336.000000, -85.000000)" fill="#040C12" fill-rule="nonzero">
            <g id="ic_wode_shezhi-2" transform="translate(336.284223, 85.000000)">
                <g id="ic_wode_shezhi" transform="translate(2.000000, 1.000000)">
                    <path d="M0.0101025709,7.16320527 C0.0276274389,5.61071116 1.23333836,3.88978608 2.51966366,3.08058514 C3.8071573,2.27260472 5.09465093,1.49391663 6.38214456,0.74452089 C8.12528476,-0.268505927 9.89763308,-0.247757185 11.6991895,0.806767116 C12.921257,1.52198846 14.0989281,2.23598929 15.2322029,2.9487696 C17.036096,4.08140682 17.9403792,5.61559321 17.9450524,7.55132879 C17.9473891,8.76696097 17.9637456,9.93011104 17.9941221,11.040779 C18.0607166,13.483028 17.5805352,15.540815 15.5721853,16.8260165 C14.3197414,17.6291149 13.0486043,18.4090235 11.7587741,19.1657423 C9.93852444,20.2349128 8.1650078,20.2764102 6.43822414,19.2902347 C5.22082998,18.5921006 3.978901,17.8439254 2.71243721,17.045709 C0.943593871,15.927718 0.0463206314,14.3959726 0.0206174917,12.4504729 C-0.0027489989,10.7978967 -0.00625397249,9.03547411 0.0101025709,7.16320527 Z M10.2481304,18.0782641 C11.4281382,17.4899762 12.8862072,16.6356163 14.6223375,15.5151842 C15.7766421,14.7706705 16.3608044,13.7161462 16.3748243,12.3516113 C16.3911808,10.7698248 16.3946858,9.2405205 16.3853392,7.76369827 C16.373656,6.30152221 15.7836521,5.20672094 14.6153275,4.47929446 C13.3792402,3.71037049 12.1279646,2.95121063 10.8615008,2.20181489 C9.62775011,1.4743884 8.42437584,1.44875761 7.25137802,2.12492249 C5.92883465,2.88896441 4.62848944,3.67375506 3.35034241,4.47929446 C2.20071107,5.20427991 1.61421215,6.25148113 1.59084566,7.62089811 C1.56747917,9.13189473 1.56631085,10.6917119 1.58734069,12.3003497 C1.60603388,13.7259103 2.19370112,14.7999629 3.35034241,15.5225073 C4.68223237,16.357339 5.9837459,17.1409092 7.25488299,17.8732177 C8.30637507,18.4785928 9.30412422,18.5469416 10.2481304,18.0782641 Z" id="形状"></path>
                    <path d="M8.13112639,7.90283689 C5.59352551,9.42970021 8.33791983,13.6404743 10.840471,10.9236096 C11.2610678,10.4695783 11.9059829,10.5391476 12.168856,11.128656 C12.2889821,11.3993879 12.2508255,11.7168533 12.0707167,11.94518 C10.4864686,13.9773363 7.63692511,14.0176132 6.21040086,11.8609646 C3.55713585,7.85523684 9.01788471,3.52363181 12.1232913,7.51105182 C12.4691154,7.95776003 12.4445806,8.38005796 12.0496869,8.7779456 C11.8837848,8.94637657 11.6314267,8.97566891 11.2926126,8.86582263 C11.1714754,8.82756256 11.0640601,8.75232846 10.9841749,8.64979161 C10.1079315,7.53180057 9.15691533,7.28281566 8.13112639,7.90283689 Z" id="路径"></path>
                </g>
            </g>
        </g>
    </g>
</svg>