<?xml version="1.0" encoding="UTF-8"?>
<svg width="28px" height="29px" viewBox="0 0 28 29" version="1.1" xmlns="http://www.w3.org/2000/svg" xmlns:xlink="http://www.w3.org/1999/xlink">
    <title>ic_wode_cpu</title>
    <g id="个人信息" stroke="none" stroke-width="1" fill="none" fill-rule="evenodd">
        <g id="我的切图" transform="translate(-443.000000, -43.000000)">
            <g id="ic_wode_cpu-2" transform="translate(443.000000, 43.500000)">
                <g id="ic_wode_cpu" transform="translate(1.996965, 1.973296)">
                    <g id="编组" transform="translate(2.727964, 2.751632)" stroke="#7D8286">
                        <path d="M18.5501428,2.74614858 C18.5501428,2.0178247 18.2608172,1.31933106 17.7458145,0.804328298 C17.2308117,0.289325538 16.5323181,0 15.8039942,0 L2.74614858,0 C1.2294926,0 0,1.2294926 0,2.74614858 L0,15.8039942 C0,17.3206502 1.2294926,18.5501428 2.74614858,18.5501428 L15.8039942,18.5501428 C17.3206502,18.5501428 18.5501428,17.3206502 18.5501428,15.8039942 L18.5501428,2.74614858" id="路径"></path>
                        <path d="M14.7290316,6.0538209 C14.7279907,5.45862083 14.4905496,4.88821222 14.0689429,4.46807891 C13.6473362,4.0479456 13.0760998,3.81250287 12.4808998,3.81354217 L6.05018362,3.82478483 C4.81075766,3.82695246 3.80775703,4.83345428 3.80990488,6.07288026 L3.82111117,12.4963219 C3.8221521,13.0915219 4.05959317,13.6619305 4.48119987,14.0820638 C4.90280656,14.5021972 5.47404292,14.7376399 6.06924298,14.7366006 L12.4999591,14.7253579 C13.7393851,14.7231903 14.7423857,13.7166885 14.7402379,12.4772625 L14.7290316,6.0538209" id="路径"></path>
                    </g>
                    <path d="M1.63677865,13.958101 L1.63677865,10.0989439 C1.63677865,9.9558774 1.62829166,8.66949169 1.63314137,8.5385495 C1.68042605,7.21094125 1.47310092,5.69419428 1.80045638,4.47934179 C2.70613982,1.12576697 5.91422333,1.72591864 8.54761615,1.65317299 C8.66643406,1.65074813 9.91765937,1.66044755 10.0970987,1.66044755 L13.9999032,1.66044755 C14.121146,1.66044755 15.3663091,1.66165998 15.5311993,1.66408484 C16.2853293,1.67620911 17.0394593,1.66893455 17.7935893,1.64226114 C19.8595659,1.56224091 21.7473158,2.44246337 22.2274371,4.57027387 C22.5038706,5.79240092 22.3401929,7.20366668 22.3729284,8.51308852 C22.3753533,8.66827926 22.3692911,9.92575741 22.3692911,10.0261982 L22.3692911,14.0272094 C22.3692911,14.1460273 22.3814154,15.3802786 22.3765657,15.5330445 C22.3523172,16.3017236 22.354742,17.0679779 22.3838403,17.8318073 C22.4820469,20.4542883 21.081693,22.3565872 18.2882597,22.3965973 C17.3765142,22.4087216 16.4623437,22.4038719 15.5457484,22.3820482 C15.3663091,22.3771985 14.1005347,22.39296 13.9526185,22.39296 L10.0934614,22.39296 C9.91159723,22.39296 8.6506725,22.3990222 8.50033147,22.3965973 C7.72437779,22.3723488 6.96054838,22.3759861 6.20884325,22.4075092 C3.52816576,22.5202649 1.61495496,21.0398908 1.62950409,18.1918983 C1.6343538,17.2947019 1.64041594,16.4144794 1.6476905,15.5512309 C1.6476905,15.4081645 1.63677865,14.108442 1.63677865,13.958101 Z M0.5,8.76319487 L1.86114884,8.76319487 C2.13729122,8.76319487 2.36114884,8.9870525 2.36114884,9.26319487 C2.36114884,9.53933725 2.13729122,9.76319487 1.86114884,9.76319487 L0.5,9.76319487 C0.223857625,9.76319487 1.4483999e-16,9.53933725 0,9.26319487 C-3.38176876e-17,8.9870525 0.223857625,8.76319487 0.5,8.76319487 Z M22.144921,8.76319487 L23.5060698,8.76319487 C23.7822122,8.76319487 24.0060698,8.9870525 24.0060698,9.26319487 C24.0060698,9.53933725 23.7822122,9.76319487 23.5060698,9.76319487 L22.144921,9.76319487 C21.8687786,9.76319487 21.644921,9.53933725 21.644921,9.26319487 C21.644921,8.9870525 21.8687786,8.76319487 22.144921,8.76319487 Z M0.5,14.2156142 L1.86114884,14.2156142 C2.13729122,14.2156142 2.36114884,14.4394718 2.36114884,14.7156142 C2.36114884,14.9917565 2.13729122,15.2156142 1.86114884,15.2156142 L0.5,15.2156142 C0.223857625,15.2156142 1.4483999e-16,14.9917565 0,14.7156142 C-3.38176876e-17,14.4394718 0.223857625,14.2156142 0.5,14.2156142 Z M22.144921,14.2156142 L23.5060698,14.2156142 C23.7822122,14.2156142 24.0060698,14.4394718 24.0060698,14.7156142 C24.0060698,14.9917565 23.7822122,15.2156142 23.5060698,15.2156142 L22.144921,15.2156142 C21.8687786,15.2156142 21.644921,14.9917565 21.644921,14.7156142 C21.644921,14.4394718 21.8687786,14.2156142 22.144921,14.2156142 Z M15.2595469,0.5 L15.2595469,1.86114884 C15.2595469,2.13729122 15.0356893,2.36114884 14.7595469,2.36114884 C14.4834045,2.36114884 14.2595469,2.13729122 14.2595469,1.86114884 L14.2595469,0.5 C14.2595469,0.223857625 14.4834045,3.83793439e-16 14.7595469,2.22044605e-16 C15.0356893,1.71318074e-16 15.2595469,0.223857625 15.2595469,0.5 Z M14.7595469,21.6922587 C15.0356893,21.6922587 15.2595469,21.9161164 15.2595469,22.1922587 L15.2595469,23.5534076 C15.2595469,23.82955 15.0356893,24.0534076 14.7595469,24.0534076 C14.4834045,24.0534076 14.2595469,23.82955 14.2595469,23.5534076 L14.2595469,22.1922587 C14.2595469,21.9161164 14.4834045,21.6922587 14.7595469,21.6922587 Z M8.49339927,2.22044605e-16 C8.76954165,1.71318074e-16 8.99339927,0.223857625 8.99339927,0.5 L8.99339927,1.86114884 C8.99339927,2.13729122 8.76954165,2.36114884 8.49339927,2.36114884 C8.2172569,2.36114884 7.99339927,2.13729122 7.99339927,1.86114884 L7.99339927,0.5 C7.99339927,0.223857625 8.2172569,3.83793439e-16 8.49339927,2.22044605e-16 Z M8.99339927,22.1922587 L8.99339927,23.5534076 C8.99339927,23.82955 8.76954165,24.0534076 8.49339927,24.0534076 C8.2172569,24.0534076 7.99339927,23.82955 7.99339927,23.5534076 L7.99339927,22.1922587 C7.99339927,21.9161164 8.2172569,21.6922587 8.49339927,21.6922587 C8.76954165,21.6922587 8.99339927,21.9161164 8.99339927,22.1922587 Z M21.2781063,5.497781 C21.2781063,4.76945712 20.9887807,4.07096348 20.473778,3.55596072 C19.9587752,3.04095796 19.2602816,2.75163242 18.5319577,2.75163242 L5.4741121,2.75163242 C3.95745612,2.75163242 2.72796352,3.98112502 2.72796352,5.497781 L2.72796352,18.5556266 C2.72796352,20.0722826 3.95745612,21.3017752 5.4741121,21.3017752 L18.5319577,21.3017752 C20.0486137,21.3017752 21.2781063,20.0722826 21.2781063,18.5556266 L21.2781063,5.497781 Z" id="形状" fill="#040C12" fill-rule="nonzero"></path>
                    <path d="M21.2781063,18.5556266 C21.2781063,20.0722826 20.0486137,21.3017752 18.5319577,21.3017752 L5.4741121,21.3017752 C3.95745612,21.3017752 2.72796352,20.0722826 2.72796352,18.5556266 L2.72796352,5.497781 C2.72796352,3.98112502 3.95745612,2.75163242 5.4741121,2.75163242 L18.5319577,2.75163242 C19.2602816,2.75163242 19.9587752,3.04095796 20.473778,3.55596072 C20.9887807,4.07096348 21.2781063,4.76945712 21.2781063,5.497781 L21.2781063,18.5556266 Z M17.4569951,8.80545332 C17.4559542,8.21025325 17.2185131,7.63984464 16.7969064,7.21971133 C16.3752997,6.79957802 15.8040634,6.56413529 15.2088633,6.56517459 L8.77814714,6.57641725 C7.53872118,6.57858488 6.53572055,7.5850867 6.53786841,8.82451268 L6.54907469,15.2479543 C6.55011562,15.8431543 6.78755669,16.413563 7.20916339,16.8336963 C7.63077008,17.2538296 8.20200644,17.4892723 8.7972065,17.488233 L15.2279227,17.4769903 C16.4673486,17.4748227 17.4703492,16.4683209 17.4682014,15.2288949 L17.4569951,8.80545332 Z" id="形状" fill="#F6F7F9" fill-rule="nonzero"></path>
                    <path d="M17.4682014,15.2288949 C17.4703492,16.4683209 16.4673486,17.4748227 15.2279227,17.4769903 L8.7972065,17.488233 C8.20200644,17.4892723 7.63077008,17.2538296 7.20916339,16.8336963 C6.78755669,16.413563 6.55011562,15.8431543 6.54907469,15.2479543 L6.53786841,8.82451268 C6.53572055,7.5850867 7.53872118,6.57858488 8.77814714,6.57641725 L15.2088633,6.56517459 C15.8040634,6.56413529 16.3752997,6.79957802 16.7969064,7.21971133 C17.2185131,7.63984464 17.4559542,8.21025325 17.4569951,8.80545332 L17.4682014,15.2288949 Z M16.3621002,8.7819201 C16.3615797,8.48287307 16.2422844,8.19628102 16.0304579,7.98519119 C15.8186313,7.77410135 15.5316254,7.65580516 15.2325784,7.65632482 L8.7582512,7.66763849 C8.45920417,7.66815895 8.17261213,7.78745431 7.96152229,7.99928084 C7.75043245,8.21110737 7.63213626,8.49811328 7.63265592,8.79716032 L7.64396959,15.2714875 C7.64449005,15.5705345 7.76378541,15.8571266 7.97561194,16.0682164 C8.18743847,16.2793062 8.47444438,16.3976024 8.77349142,16.3970828 L15.2478186,16.3857691 C15.5468656,16.3852486 15.8334577,16.2659533 16.0445475,16.0541268 C16.2556373,15.8423002 16.3739335,15.5552943 16.3734139,15.2562473 L16.3621002,8.7819201 Z" id="形状" fill="#040C12" fill-rule="nonzero"></path>
                    <path d="M10.7382954,7.66196432 L13.2677744,7.66196432 C14.9798571,7.66196432 16.3677744,9.0498816 16.3677744,10.7619643 L16.3677744,13.2914433 C16.3677744,15.003526 14.9798571,16.3914433 13.2677744,16.3914433 L10.7382954,16.3914433 C9.0262127,16.3914433 7.63829543,15.003526 7.63829543,13.2914433 L7.63829543,10.7619643 C7.63829543,9.0498816 9.0262127,7.66196432 10.7382954,7.66196432 Z" id="矩形" fill="#F6F7F9" fill-rule="nonzero" transform="translate(12.003035, 12.026704) rotate(-0.100000) translate(-12.003035, -12.026704) "></path>
                </g>
            </g>
        </g>
    </g>
</svg>