<?xml version="1.0" encoding="UTF-8"?>
<svg width="28px" height="29px" viewBox="0 0 28 29" version="1.1" xmlns="http://www.w3.org/2000/svg" xmlns:xlink="http://www.w3.org/1999/xlink">
    <title>ic_wode_neicun</title>
    <g id="个人信息" stroke="none" stroke-width="1" fill="none" fill-rule="evenodd">
        <g id="我的切图" transform="translate(-548.000000, -43.000000)" fill="#03080C" fill-rule="nonzero">
            <g id="ic_wode_neicun-2" transform="translate(548.000000, 43.500000)">
                <g id="ic_wode_neicun" transform="translate(3.200821, 1.973296)">
                    <path d="M21.5935607,19.7949554 C21.5875641,22.3794634 19.3088796,24.0824802 16.8922747,24.0405045 C12.6627165,23.9725437 8.6030601,23.9765414 4.71330566,24.0524976 C2.00886693,24.1004699 -0.00596989796,22.2475396 1.32904661e-05,19.5071216 C0.00402433236,14.3381057 0.00802202448,9.33499398 0.0120197166,4.49778651 C0.0180162548,1.70339971 2.08082539,-0.0295998262 4.7672745,0.000382864766 C8.87290432,0.0483551703 12.616743,0.0543517085 15.9987905,0.0183724793 C16.2943159,0.0145855685 16.5773332,0.149460957 16.7663474,0.384161309 L21.2817407,6.02690375 C21.485623,6.27875835 21.5875641,6.56859103 21.5875641,6.89640179 C21.5995572,11.217907 21.6015561,15.5174249 21.5935607,19.7949554 Z M1.19933428,19.4831354 C1.19933428,21.4799827 2.50058307,22.8353055 4.52141644,22.8292038 C8.66702317,22.8092153 12.7826472,22.8112141 16.8682886,22.8353055 C18.7811843,22.8471934 20.3282911,21.8337784 20.3522773,19.7170004 C20.4002496,15.4714514 20.408245,11.2778724 20.3762634,7.13626331 C20.3761385,6.93046016 20.3063241,6.73159495 20.1783777,6.57258872 L16.1547005,1.5295001 C15.9788021,1.31362473 15.7529325,1.20568704 15.4770917,1.20568704 C12.0990419,1.2256755 8.58307164,1.22767435 4.92918103,1.21168358 C2.84838228,1.20568704 1.21732389,2.15913661 1.21732389,4.38385228 C1.20932851,9.16908976 1.20333197,14.2021841 1.19933428,19.4831354 Z" id="形状"></path>
                    <rect id="矩形" x="4.80925027" y="3.64627809" width="1.18731456" height="4.67729979" rx="0.593657281"></rect>
                    <rect id="矩形" x="8.40717318" y="3.65827116" width="1.18731456" height="4.67729979" rx="0.593657281"></rect>
                    <rect id="矩形" x="12.0050961" y="3.65227462" width="1.18731456" height="4.70128594" rx="0.593657281"></rect>
                    <path d="M17.9896412,17.9300321 C17.9896412,19.2978041 16.8808429,20.4066023 15.5130709,20.4066023 L6.0865129,20.4066023 C4.71874091,20.4066023 3.60994263,19.2978041 3.60994263,17.9300321 L3.60994263,15.6993199 C3.60994263,14.3315479 4.71874091,13.2227496 6.0865129,13.2227496 L15.5130709,13.2227496 C16.8808429,13.2227496 17.9896412,14.3315479 17.9896412,15.6993199 L17.9896412,17.9300321 Z M16.7963301,15.6693372 C16.7963301,14.9738599 16.2325344,14.4100641 15.5370571,14.4100641 L6.06252675,14.4100641 C5.36704947,14.4100641 4.80325373,14.9738599 4.80325373,15.6693372 L4.80325373,17.9600147 C4.80325373,18.655492 5.36704947,19.2192878 6.06252675,19.2192878 L15.5370571,19.2192878 C16.2325344,19.2192878 16.7963301,18.655492 16.7963301,17.9600147 L16.7963301,15.6693372 Z" id="形状"></path>
                </g>
            </g>
        </g>
    </g>
</svg>