<?xml version="1.0" encoding="UTF-8"?>
<svg width="72px" height="73px" viewBox="0 0 72 73" version="1.1" xmlns="http://www.w3.org/2000/svg" xmlns:xlink="http://www.w3.org/1999/xlink">
    <title>ic_wode_wdltx</title>
    <defs>
        <circle id="path-1" cx="35" cy="35" r="35"></circle>
        <radialGradient cx="73.3349137%" cy="46.5944433%" fx="73.3349137%" fy="46.5944433%" r="80.0445287%" gradientTransform="translate(0.733349,0.465944),scale(0.752269,1.000000),translate(-0.733349,-0.465944)" id="radialGradient-3">
            <stop stop-color="#4D4D4D" offset="0%"></stop>
            <stop stop-color="#2E2E2E" offset="63%"></stop>
            <stop stop-color="#191919" offset="100%"></stop>
        </radialGradient>
        <radialGradient cx="26.6577863%" cy="46.5320331%" fx="26.6577863%" fy="46.5320331%" r="79.9911538%" gradientTransform="translate(0.266578,0.465320),scale(0.752565,1.000000),rotate(180.000000),translate(-0.266578,-0.465320)" id="radialGradient-4">
            <stop stop-color="#4D4D4D" offset="0%"></stop>
            <stop stop-color="#2E2E2E" offset="63%"></stop>
            <stop stop-color="#191919" offset="100%"></stop>
        </radialGradient>
    </defs>
    <g id="个人信息" stroke="none" stroke-width="1" fill="none" fill-rule="evenodd">
        <g id="我的切图" transform="translate(-82.000000, -114.000000)">
            <g id="ic_wode_wdltx-2" transform="translate(82.000000, 114.053488)">
                <g id="ic_wode_wdltx" transform="translate(1.000000, 1.000000)">
                    <mask id="mask-2" fill="white">
                        <use xlink:href="#path-1"></use>
                    </mask>
                    <use id="蒙版" fill="#FFFFFF" xlink:href="#path-1"></use>
                    <g id="未命名-111" mask="url(#mask-2)">
                        <g transform="translate(6.308855, 11.875000)" id="路径">
                            <path d="M41.7526394,59.6175995 C41.9169873,60.8337742 42.0334005,62.1797839 42.1018788,63.6556284 C37.6809191,66.1991868 33.2941986,67.1989701 28.9417172,66.6549784 C24.550888,67.3079876 20.1997762,66.3082042 15.8883818,63.6556284 C15.954121,62.1797839 16.0705341,60.8337742 16.2376212,59.6175995 C16.6052127,56.4139102 17.7926266,51.8376417 19.7998628,45.888794 C20.200324,44.6835758 20.6372156,43.4235749 21.1105377,42.1087913 L36.8715055,42.1087913 C37.3426362,43.4235749 37.782267,44.6835758 38.1903977,45.888794 C40.1850339,51.8370939 41.3724478,56.4133624 41.7526394,59.6175995 Z" fill="#ECECEC"></path>
                            <path d="M28.4979777,55.3864617 C29.0790813,55.2741802 29.6427618,55.0854578 30.1743268,54.8252134 C30.8299301,54.502626 31.4591334,54.1289507 32.0561107,53.7076474 C32.4587632,53.4364733 33.0613723,53.0283426 33.8639381,52.4832552 C34.4173843,52.1232298 35.0033873,51.8159222 35.6142437,51.565372 L35.7416134,51.5793416 L35.7703742,51.5793416 L35.8114612,51.5793416 C35.8283468,51.577156 35.8455016,51.5800151 35.8607656,51.5875589 C35.8426873,51.5530459 35.8262525,51.5185328 35.8114612,51.4848415 C35.7966699,51.4511502 35.7917395,51.4412893 35.7827003,51.4191023 C35.9612918,51.0997195 35.9782744,50.1451318 35.8336482,48.5553394 C35.689022,46.965547 35.5808263,45.6617199 35.509061,44.6438583 C35.4367479,43.6249011 35.8032438,43.0606398 36.6085488,42.9510745 C36.7019733,42.9237558 36.7988208,42.9099873 36.8961577,42.9099873 C37.7644626,42.9099873 38.656598,43.8960752 39.5725639,45.8682505 C40.4885298,47.8404258 41.0911389,49.7419315 41.3803913,51.5727676 C41.671835,53.4052472 41.6808741,54.6378568 41.4075087,55.2705964 C41.1341433,55.9033359 40.6539734,56.3415971 39.966999,56.5853799 C39.2822159,56.8286149 38.0769976,56.9518758 36.3513442,56.955194 C34.6256908,56.9584497 32.82882,56.7023409 30.9607317,56.1868361 C30.1094093,55.9501751 29.2884914,55.6833836 28.4979777,55.3864617 Z" fill="#ECECEC"></path>
                            <path d="M35.6142437,51.565372 C34.2764514,51.4273197 33.1054723,51.6319329 32.1013064,52.1792115 C30.8056968,52.891386 29.7716743,53.5323429 28.999239,54.1020825 C28.7855866,54.2664304 28.5431734,54.4348871 28.2719993,54.6074524 C28.0643731,54.7416699 27.8397642,54.8827352 27.5981728,55.0306484 C27.0585637,55.3593443 26.4367806,55.7099532 25.7328236,56.0824752 C24.5139097,56.6850843 23.4209959,57.1151281 22.4540821,57.3726066 C21.7459769,57.5684797 21.0152532,57.6706982 20.2805806,57.6766503 C20.1680022,57.6766503 20.0587109,57.6766503 19.9518847,57.6684329 C19.0800416,57.6379699 18.2331731,57.369416 17.5031003,56.8918888 C16.7821607,56.4048711 16.3438995,55.6529792 16.1883168,54.6362133 C16.1532559,54.4280392 16.1551733,54.0505868 16.194069,53.503856 C16.2329646,52.9571251 16.3973126,52.1970159 16.6871128,51.2235283 C16.9747217,50.2516841 17.5915743,48.6706569 18.5376706,46.4804466 C19.483767,44.2902363 20.3917893,43.2603226 21.2617378,43.3907053 C22.2620689,43.3742705 22.6770475,43.7152925 22.5066735,44.4137712 C22.7805867,44.5233365 22.8841259,45.0040542 22.8172911,45.8559244 C22.7504563,46.7077946 22.6573257,47.4747517 22.5378996,48.1567956 C22.4195691,48.8388396 22.3173994,49.4461052 22.2313907,49.9785926 C22.1453819,50.5110799 22.0727949,51.0178194 22.0136296,51.4988111 C22.8545433,51.3859588 23.5461742,51.2188717 24.0885224,50.9975498 C24.6533315,50.772941 25.2066363,50.5483321 25.7484367,50.3237233 C26.3156216,50.0891569 26.8943194,49.8834587 27.4823075,49.7074185 C28.0063992,49.5230977 28.5399121,49.3667469 29.0805912,49.2390268 C29.6941569,49.1020702 30.3132008,48.9925049 30.937723,48.9103309 C31.5748378,48.8300788 32.2209804,48.8592594 32.8482678,48.9966136 C33.4348985,49.125575 33.9904968,49.3684747 34.4835298,49.7115272 C34.9047647,49.9880803 35.2463956,50.3699363 35.4745479,50.8192323 C35.5841132,51.0164498 35.6868307,51.2177761 35.7827003,51.423211 C35.7917395,51.445398 35.8007786,51.4667632 35.8114612,51.4889502 C35.8221438,51.5111372 35.8426873,51.5571546 35.8607656,51.5916676 C35.8455016,51.5841238 35.8283468,51.5812647 35.8114612,51.5834502 L35.7703742,51.5834502 L35.7416134,51.5834502 L35.6142437,51.565372 Z" fill="#ECECEC"></path>
                            <path d="M10.773052,24.1496698 C11.9952529,25.3904968 12.6047099,26.8901717 12.6014361,28.6486947 C12.598136,30.4072177 11.9763529,31.9000449 10.7360738,33.1271762 C9.50565549,34.3597858 8.01693703,34.9733514 6.26991839,34.9679095 C4.52289975,34.9623949 3.04102913,34.3365031 1.82430652,33.0901979 C0.602105649,31.8471796 -0.00598174224,30.3488742 0,28.5952817 C0.00607044028,26.8416891 0.626483927,25.3474924 1.86128481,24.1126915 C3.09115525,22.8855602 4.57713457,22.2747337 6.31922278,22.2801754 C8.06131098,22.2856902 9.54592073,22.9088428 10.773052,24.1496698 Z" fill="#ECECEC"></path>
                            <path d="M46.6460994,23.8291913 C47.878709,22.60206 49.3674274,21.9912335 51.1122548,21.9966752 C52.8570821,22.00219 54.3416919,22.6267122 55.566084,23.8702783 C56.7882849,25.1111053 57.3936332,26.6107802 57.3821288,28.3693032 C57.3821288,30.1168697 56.7630849,31.6110664 55.5249971,32.8518934 C54.2869092,34.0927204 52.7995603,34.7049165 51.0629504,34.6884817 C49.3181231,34.6884817 47.8335133,34.0625899 46.6091211,32.8108064 C45.3847289,31.5590229 44.7739024,30.0607175 44.7766324,28.3158902 C44.7848589,26.5601063 45.4080116,25.06454 46.6460994,23.8291913 Z" fill="#ECECEC"></path>
                            <path d="M52.090125,21.4050591 C52.6182298,27.7631332 50.8186198,33.3756155 46.6912951,38.2425059 C42.5721878,43.1093964 37.330858,45.8088113 30.9673056,46.3407509 C24.6037532,46.8726904 18.9885318,45.0717108 14.1216414,40.9378122 C9.26296836,36.815418 6.56766208,31.5754577 6.03572257,25.2179314 C5.59198313,19.8382754 6.80541878,14.9941198 9.67602952,10.6854645 C9.6899991,10.6632775 9.70314693,10.6427341 9.71711651,10.623834 C8.36124597,9.8327726 7.39707137,9.08361989 6.8245927,8.37637591 C6.29320102,7.71898414 6.01517908,7.16978809 5.99052689,6.72878778 C5.96313556,6.3403788 6.08913565,6.0486612 6.36852716,5.85363498 C6.60861803,5.69004175 6.89613285,5.61057785 7.18615818,5.62765656 C7.49020187,5.62765656 8.092811,5.73722185 8.99398556,5.95635244 C9.66750714,6.10646383 10.3543178,6.18904628 11.0442262,6.20287436 C10.8656347,6.06317861 10.7012868,5.92211329 10.5511823,5.7796784 C10.5323778,5.77277833 10.5154798,5.76151299 10.5018779,5.74680881 C9.56509466,4.90041691 8.84196371,4.01293801 8.33248508,3.08437213 C7.56552801,1.70932767 7.49978884,0.776653091 8.13526755,0.286348393 C8.78663323,-0.200669346 9.82065571,-0.0664518591 11.237335,0.689000854 C12.604583,1.43569965 14.1053529,1.90617357 15.654186,2.07363228 C16.0462745,2.12910672 16.4415258,2.15929953 16.8374912,2.16402365 C17.6532048,2.17443235 18.6228577,2.06212792 19.7464498,1.82711036 C20.4038415,1.68467548 21.4926467,1.40254484 23.0128651,0.980718454 C24.3713426,0.619103319 25.7606474,0.385259944 27.1626507,0.282239694 C33.5229161,-0.251891122 39.1340288,1.54361016 43.9959888,5.66874354 C48.8689053,9.80209432 51.5669507,15.0475328 52.090125,21.4050591 Z" fill="#ECECEC"></path>
                            <path d="M25.0055839,59.2256296 C26.4299328,58.9358294 27.5392814,59.2741123 28.3336298,60.2404782 C29.1657782,61.2594354 29.3410827,62.9741323 28.8595432,65.3845688 C28.3719777,67.7867879 27.2982378,69.2234628 25.6383235,69.6945936 C23.9784093,70.1657244 21.851473,70.0917678 19.2575146,69.4727239 C16.6586258,68.8586104 14.8014941,67.7903488 13.6861193,66.267939 C12.8424666,65.1284599 12.5712925,63.9232417 12.872597,62.6522842 C12.8807787,62.5945077 12.8959553,62.5379404 12.9177927,62.4838276 C13.5401236,59.7720865 14.7453418,58.1724332 16.5334475,57.6848677 C18.8343187,57.9176939 20.5750373,58.5942596 21.7556034,59.7145648 C21.7008207,59.641156 22.3267125,59.7890692 23.6332786,60.1583042 C23.6579308,60.1311868 23.7918744,60.0005302 24.0359311,59.7679778 C24.306998,59.506638 24.6410217,59.3198111 25.0055839,59.2256296 L25.0055839,59.2256296 Z" fill="url(#radialGradient-3)"></path>
                            <path d="M32.9764592,59.2256296 C31.5521104,58.9358294 30.4427617,59.2741123 29.6484134,60.2404782 C28.8162649,61.2594354 28.6409605,62.9741323 29.1224999,65.3845688 C29.6095177,67.7867879 30.6832576,69.2234628 32.3437196,69.6945936 C34.0041817,70.1657244 36.131118,70.0917678 38.7245285,69.4727239 C41.3239652,68.8586104 43.1810969,67.7903488 44.2959238,66.267939 C45.1395766,65.1257208 45.4134898,63.9177634 45.1176635,62.6440668 C45.1094818,62.5862903 45.0943052,62.529723 45.0724678,62.4756102 C44.4506848,59.7638691 43.2454665,58.1642158 41.4568131,57.6766503 C39.1559419,57.9094765 37.4152232,58.5860422 36.2346572,59.7063474 C36.2894398,59.6329386 35.6635481,59.7808518 34.3569819,60.1500868 C34.3323297,60.1229694 34.1983862,59.9923128 33.9543295,59.7597604 C33.6800315,59.5001711 33.3431116,59.3161393 32.9764592,59.2256296 Z" fill="url(#radialGradient-4)"></path>
                        </g>
                    </g>
                </g>
            </g>
        </g>
    </g>
</svg>