<?xml version="1.0" encoding="UTF-8"?>
<svg width="28px" height="29px" viewBox="0 0 28 29" version="1.1" xmlns="http://www.w3.org/2000/svg" xmlns:xlink="http://www.w3.org/1999/xlink">
    <title>ic_wode_sycc</title>
    <g id="个人信息" stroke="none" stroke-width="1" fill="none" fill-rule="evenodd">
        <g id="我的切图" transform="translate(-663.000000, -43.000000)">
            <g id="ic_wode_sycc-2" transform="translate(663.000000, 43.500000)">
                <g id="ic_wode_sycc" transform="translate(2.000000, 2.000000)">
                    <path d="M11.4315073,12.3634517 C11.3438958,12.2309672 11.30009,12.0844313 11.30009,11.923844 C11.2961076,8.46720243 11.2941164,5.00855351 11.2941164,1.54789725 C11.2931648,1.45605136 11.2530207,1.36896894 11.1836023,1.30816488 C11.114184,1.24736082 11.021966,1.21850622 10.9297319,1.22873 C1.14511169,2.37291449 -2.51665401,14.7060189 5.58343455,20.7581527 C8.73147781,23.1067419 13.1100655,23.4861294 16.6284668,21.7036104 C19.9417774,20.0254732 21.9309584,17.1971294 22.5960099,13.2185791 C22.6637098,12.8050668 22.4884866,12.5983107 22.0703405,12.5983107 L11.8795211,12.6043327 C11.7005661,12.6045759 11.532648,12.5142923 11.4315073,12.3634517" id="路径" stroke="#7C7F82" stroke-width="2"></path>
                    <path d="M12.93086,11.40595 L23.2053086,11.40595 C23.3679643,11.4058187 23.5236394,11.4725607 23.6363775,11.5907604 C23.7491156,11.7089601 23.8091666,11.8683951 23.8026603,12.0322404 C23.695137,15.4366911 22.5322924,18.2509835 20.3141266,20.4751176 C12.9248865,27.8701626 0.261031223,22.8959711 0.00417000789,12.3634517 C-0.169061975,5.49834477 5.07568563,0.132721696 11.8854946,0.000114103355 C12.0428131,-0.00300015432 12.1948008,0.0577449562 12.3071831,0.168773935 C12.4195654,0.279802913 12.482879,0.431766487 12.4828463,0.590395494 L12.4828463,10.9542982 C12.4828463,11.2553994 12.6321842,11.40595 12.93086,11.40595 Z M11.4315073,12.3634517 C11.3438958,12.2309672 11.30009,12.0844313 11.30009,11.923844 C11.2961076,8.46720243 11.2941164,5.00855351 11.2941164,1.54789725 C11.2931648,1.45605136 11.2530207,1.36896894 11.1836023,1.30816488 C11.114184,1.24736082 11.021966,1.21850622 10.9297319,1.22873 C1.14511169,2.37291449 -2.51665401,14.7060189 5.58343455,20.7581527 C8.73147781,23.1067419 13.1100655,23.4861294 16.6284668,21.7036104 C19.9417774,20.0254732 21.9309584,17.1971294 22.5960099,13.2185791 C22.6637098,12.8050668 22.4884866,12.5983107 22.0703405,12.5983107 L11.8795211,12.6043327 C11.7005661,12.6045759 11.532648,12.5142923 11.4315073,12.3634517 L11.4315073,12.3634517 Z" id="形状" fill="#02070A" fill-rule="nonzero"></path>
                    <path d="M15.0574319,0.415756808 C20.0273978,0.457910973 23.8146073,4.54084301 23.9997863,9.4006161 C24.0030302,9.49212395 23.9692239,9.58102772 23.9061348,9.64690063 C23.8430457,9.71277354 23.7560981,9.74989354 23.6652694,9.74989354 L15.1709287,9.74989354 C14.8722529,9.74989354 14.722915,9.59934288 14.722915,9.2982417 L14.722915,0.746968109 C14.722915,0.522145892 14.8344206,0.411742125 15.0574319,0.415756808 Z M16.1801902,2.04507346 C16.0198385,2.0422064 15.9396627,2.12105075 15.9396627,2.28160652 L15.9396627,2.28160652 L15.9396627,8.38846003 C15.9396627,8.60349009 16.0470411,8.71100516 16.2617978,8.71100516 L16.2617978,8.71100516 L22.3694791,8.71100516 C22.4347876,8.71100516 22.4973055,8.68449608 22.5426684,8.63745324 C22.5880314,8.5904104 22.6123391,8.52692017 22.6100067,8.46157025 C22.4768575,4.99098519 19.7537422,2.07517767 16.1801902,2.04507346 Z" id="形状结合" fill="#02070A" fill-rule="nonzero"></path>
                    <path d="M11.4315073,12.3634517 C11.532648,12.5142923 11.7005661,12.6045759 11.8795211,12.6043327 L22.0703405,12.5983107 C22.4884866,12.5983107 22.6637098,12.8050668 22.5960099,13.2185791 C21.9309584,17.1971294 19.9417774,20.0254732 16.6284668,21.7036104 C13.1100655,23.4861294 8.73147781,23.1067419 5.58343455,20.7581527 C-2.51665401,14.7060189 1.14511169,2.37291449 10.9297319,1.22873 C11.021966,1.21850622 11.114184,1.24736082 11.1836023,1.30816488 C11.2530207,1.36896894 11.2931648,1.45605136 11.2941164,1.54789725 C11.2941164,5.00855351 11.2961076,8.46720243 11.30009,11.923844 C11.30009,12.0844313 11.3438958,12.2309672 11.4315073,12.3634517 Z" id="路径" fill="#F6F7F9" fill-rule="nonzero"></path>
                </g>
            </g>
        </g>
    </g>
</svg>