<?xml version="1.0" encoding="UTF-8"?>
<svg width="61px" height="61px" viewBox="0 0 61 61" version="1.1" xmlns="http://www.w3.org/2000/svg" xmlns:xlink="http://www.w3.org/1999/xlink">
    <title>ic_shzx_llxd</title>
    <g id="页面-1" stroke="none" stroke-width="1" fill="none" fill-rule="evenodd">
        <g id="流量监控切图" transform="translate(-421.000000, -85.000000)">
            <g id="ic_shzx_llxd" transform="translate(421.142111, 85.787749)">
                <g id="calendar_item_event_Normal@3x" fill="#CFD6DC" fill-rule="nonzero">
                    <path d="M29.0363636,0 L31.0181818,0 C40.1424242,0.527272727 47.5181818,4.17424242 53.1454545,10.9409091 C57.3515152,15.9984848 59.6363636,21.9954545 60,28.9318182 L60,31.1272727 C59.4393939,40.2090909 55.7924242,47.55 49.0590909,53.15 C43.9681818,57.380303 37.9348485,59.6636364 30.9590909,60 L28.8727273,60 C18.8363636,59.3363636 11.0075758,55.0409091 5.38636364,47.1136364 C2.07727273,42.4439394 0.281818182,37.0575758 0,30.9545455 L0,28.8727273 C0.36969697,22.0727273 2.58484848,16.1787879 6.64545455,11.1909091 C12.2969697,4.25454545 19.7606061,0.524242424 29.0363636,0 Z M59.3136364,30 C59.3136364,13.8105257 46.1894743,0.686363636 30,0.686363636 C13.8105257,0.686363636 0.686363636,13.8105257 0.686363636,30 C0.686363636,46.1894743 13.8105257,59.3136364 30,59.3136364 C37.7744597,59.3136364 45.2304979,56.2252443 50.7278711,50.7278711 C56.2252443,45.2304979 59.3136364,37.7744597 59.3136364,30 Z" id="形状"></path>
                </g>
                <polyline id="路径" stroke="#768491" stroke-width="1.5" points="19.7772377 41.2236927 19.7772377 31.2236927 23.7772377 31.2236927 23.7772377 41.2236927"></polyline>
                <polyline id="路径备份" stroke="#768491" stroke-width="1.5" points="26.7772377 41.1125423 26.7772377 27.1125423 30.7772377 27.1125423 30.7772377 41.1125423"></polyline>
                <polyline id="路径备份-2" stroke="#768491" stroke-width="1.5" points="33.7772377 41.1125423 33.7772377 19.1125423 37.7772377 19.1125423 37.7772377 41.1125423"></polyline>
                <polyline id="路径备份-3" stroke="#768491" stroke-width="1.5" points="40.7772377 41.1125423 40.7772377 23.1163799 44.7772377 23.1163799 44.7772377 41.1125423"></polyline>
                <polyline id="路径-2" stroke="#768491" stroke-width="1.5" stroke-linecap="round" stroke-linejoin="round" points="15.776413 18.7763073 15.776413 40.7763073 48.223587 40.7763073"></polyline>
            </g>
        </g>
    </g>
</svg>