<?xml version="1.0" encoding="UTF-8"?>
<svg width="31px" height="31px" viewBox="0 0 31 31" version="1.1" xmlns="http://www.w3.org/2000/svg" xmlns:xlink="http://www.w3.org/1999/xlink">
    <title>ic_yskj_biji</title>
    <g id="页面-1" stroke="none" stroke-width="1" fill="none" fill-rule="evenodd">
        <g id="隐私空间切图" transform="translate(-118.000000, -318.000000)" fill="#0C273D" fill-rule="nonzero">
            <g id="ic_yskj_biji-2" transform="translate(118.816716, 318.517899)">
                <g id="ic_yskj_biji" transform="translate(3.801195, 1.250005)">
                    <path d="M22.3486432,26.4325053 C22.3486432,27.0220607 21.870714,27.4999898 21.2811586,27.4999898 L4.60783308,27.4706095 C3.38314732,27.4680458 2.20965421,26.9703027 1.34551799,26.0868819 C0.481381777,25.203461 -0.00260922682,24.0067304 1.05804343e-05,22.7599666 L0.0294015562,4.69107641 C0.0348679716,2.09491213 2.10660968,-0.00532972932 4.65680027,1.01600085e-05 L21.3301258,0.0294006681 C21.9196812,0.0294006681 22.3976104,0.50732979 22.3976104,1.09688524 L22.3486432,26.4325053 Z M20.4389231,2.10560919 C20.4389231,2.04611277 20.3906917,1.99788139 20.3311953,1.99788139 L4.21609563,1.99788139 C2.99912337,1.99788139 2.01257243,2.98443233 2.01257243,4.20140459 L2.01257243,19.4106114 C2.01257243,19.613009 2.10724232,19.6766664 2.29658209,19.6015834 C3.13555314,19.2686065 4.04307825,19.1053826 5.01915741,19.1119115 C9.550254,19.1412919 14.602035,19.149453 20.1745003,19.1363951 C20.3475177,19.1331307 20.4340263,19.046622 20.4340263,18.8768691 L20.4389231,2.10560919 Z M20.4438198,25.3552273 L20.4438198,21.241984 C20.4438198,21.1581481 20.3758574,21.0901857 20.2920215,21.0901857 L4.32382343,21.0901857 C3.05276352,21.0901857 2.02236587,22.0679673 2.02236587,23.274122 L2.02236587,23.3230892 C2.02236587,24.5292439 3.05276352,25.5070255 4.32382343,25.5070255 L20.2920215,25.5070255 C20.3758574,25.5070255 20.4438198,25.4390631 20.4438198,25.3552273 Z" id="形状"></path>
                </g>
            </g>
        </g>
    </g>
</svg>