<?xml version="1.0" encoding="UTF-8"?>
<svg width="61px" height="61px" viewBox="0 0 61 61" version="1.1" xmlns="http://www.w3.org/2000/svg" xmlns:xlink="http://www.w3.org/1999/xlink">
    <title>ic_shzx_lljz</title>
    <g id="页面-1" stroke="none" stroke-width="1" fill="none" fill-rule="evenodd">
        <g id="流量监控切图" transform="translate(-521.000000, -85.000000)">
            <g id="ic_shzx_lljz" transform="translate(521.250000, 85.723693)">
                <path d="M29.0363636,0 L31.1363636,0 C41.4030303,0.696969697 49.3393939,5.1469697 54.9454545,13.35 C58.0151515,17.8469697 59.7,23.0393939 60,28.9272727 L60,31.1272727 C59.4484848,40.1363636 55.8409091,47.4409091 49.1772727,53.0409091 C44.0560606,57.3439394 37.9818182,59.6636364 30.9545455,60 L28.8636364,60 C18.6242424,59.3090909 10.7,54.8772727 5.09090909,46.7045455 C2,42.1984848 0.303030303,36.9863636 0,31.0681818 L0,28.8727273 C0.375757576,21.9606061 2.66060606,15.9833333 6.85454545,10.9409091 C12.4969697,4.15606061 19.8909091,0.509090909 29.0363636,0 Z M59.3136364,30 C59.3136364,13.8105257 46.1894743,0.686363636 30,0.686363636 C13.8105257,0.686363636 0.686363636,13.8105257 0.686363636,30 C0.686363636,46.1894743 13.8105257,59.3136364 30,59.3136364 C37.7744597,59.3136364 45.2304979,56.2252443 50.7278711,50.7278711 C56.2252443,45.2304979 59.3136364,37.7744597 59.3136364,30 Z" id="形状" fill="#CFD6DC" fill-rule="nonzero"></path>
                <g id="编组-9" transform="translate(14.701626, 18.466975)" stroke="#768491">
                    <path d="M19.219162,20.4844513 L3,20.4844513 C1.34314575,20.4844513 0,19.1087711 0,17.4117836 L0,3.07266769 C0,1.37568019 1.34314575,0 3,0 L26,0 C27.6568542,0 29,1.37568019 29,3.07266769 L29,12.8567782" id="路径" stroke-width="1.5" stroke-linecap="round" stroke-linejoin="round"></path>
                    <circle id="椭圆形" cx="29" cy="20.7490321" r="3"></circle>
                    <polyline id="路径-3" stroke-width="1.5" points="1.18635559 1.22888184 14.5 10 28.0337524 1.22888184"></polyline>
                    <line x1="29" y1="15.3769569" x2="29" y2="27.2949715" id="路径-4" stroke-width="1.2" stroke-linecap="round" stroke-linejoin="round"></line>
                    <line x1="28.6377411" y1="14.7900249" x2="28.6377411" y2="26.7080394" id="路径-4备份" stroke-width="1.2" stroke-linecap="round" stroke-linejoin="round" transform="translate(28.637741, 20.749032) scale(-1, 1) rotate(90.000000) translate(-28.637741, -20.749032) "></line>
                </g>
            </g>
        </g>
    </g>
</svg>