<?xml version="1.0" encoding="UTF-8"?>
<svg width="31px" height="31px" viewBox="0 0 31 31" version="1.1" xmlns="http://www.w3.org/2000/svg" xmlns:xlink="http://www.w3.org/1999/xlink">
    <title>ic_yskj_mimaben</title>
    <g id="页面-1" stroke="none" stroke-width="1" fill="none" fill-rule="evenodd">
        <g id="隐私空间切图" transform="translate(-206.000000, -318.000000)" fill="#0C273D" fill-rule="nonzero">
            <g id="ic_yskj_mimaben-2" transform="translate(206.316716, 318.517899)">
                <g id="ic_yskj_mimaben" transform="translate(4.009762, 1.500000)">
                    <path d="M21.6865731,24.7326605 C20.983746,26.5523088 19.6551139,26.9855583 17.695863,26.9903722 C13.186858,27.0032093 8.53183181,27.0032093 3.73078447,26.9903722 C1.42974775,26.9855583 -0.00478978951,25.4547431 1.20172072e-05,23.254798 C0.00644260733,16.9229354 0.00644260733,10.4434471 1.20172072e-05,3.81633292 C-0.00478978951,0.76433024 2.17108594,-0.0636578696 4.93425556,0.00373651148 C7.68779742,0.0711308925 10.5536632,0.0759447769 13.531853,0.0181781646 C13.7468732,0.0149689083 13.9298008,0.09038643 14.0806358,0.244430729 L21.816548,7.9803429 C21.928872,8.09266686 21.9834293,8.22906025 21.9803538,8.38952307 C21.9096164,13.6045645 21.8935702,18.7634439 21.9320812,23.8661613 C21.9320812,24.0202056 21.8502452,24.3090386 21.6865731,24.7326605 Z M12.5835178,8.81795877 C12.5389751,8.70339994 12.5161169,8.58421078 12.5161234,8.46654522 L12.5161234,2.20849555 C12.5161234,2.04803274 12.435892,1.96780133 12.2754292,1.96780133 L3.49009026,1.96780133 C2.62603391,1.96780133 1.92557784,2.6682574 1.92557784,3.53231375 L1.92557784,23.5099338 C1.92557784,23.9248683 2.09040992,24.3228082 2.38381292,24.6162112 C2.67721591,24.9096142 3.07515576,25.0744463 3.49009026,25.0744463 L18.4420151,25.0744463 C19.3220232,25.0744463 20.0354108,24.3610587 20.0354108,23.4810505 L20.0354108,9.67964407 C20.0354108,9.61496512 20.0094052,9.55300262 19.9632197,9.50772273 C19.9170342,9.46244284 19.8545687,9.43765628 19.7899027,9.43894986 C17.4696104,9.46462391 15.3274319,9.46301928 13.3633671,9.43413597 C13.0039304,9.43092672 12.7439806,9.22553432 12.5835178,8.81795877 Z M14.4464911,7.38823512 C14.4490049,7.47490747 14.5186769,7.54457949 14.6053492,7.5470933 L18.3553652,7.60004603 C18.4214399,7.59988456 18.480937,7.56000916 18.5062009,7.49895476 C18.5314648,7.43790036 18.5175397,7.36764337 18.4708984,7.32084074 L14.7064408,3.58526648 C14.6596382,3.53862511 14.5893812,3.52470004 14.5283268,3.54996393 C14.4672724,3.57522782 14.427397,3.63472491 14.4272355,3.7007997 L14.4464911,7.38823512 Z" id="形状"></path>
                    <path d="M5.73336037,13.3815211 L7.21122287,12.7845995 C7.36526717,12.7236236 7.47919576,12.7669486 7.55300866,12.9145744 L7.9092361,13.6077737 C7.98530729,13.7510025 7.93933683,13.9286157 7.80333064,14.0169539 C7.51449758,14.2063 7.19196733,14.3218332 6.83573989,14.3635536 C6.65923079,14.3860183 6.54048831,14.4806914 6.47951244,14.6475727 C6.46025691,14.7053393 6.45544302,14.7647106 6.46507079,14.8256865 C6.47790781,14.9348012 6.5340698,15.0118233 6.63355674,15.0567529 C6.86783245,15.1658676 7.08124799,15.3118888 7.27380336,15.4948164 C7.41180138,15.6263959 7.41340601,15.7611846 7.27861725,15.8991827 L6.69613724,16.5057321 C6.57097625,16.6341023 6.43779211,16.6421255 6.29658484,16.5298015 C5.93714814,16.2441777 5.66436136,15.9088104 5.4782245,15.5236997 C5.37873755,15.315098 5.25839044,15.302261 5.11718317,15.4851886 L4.3999144,16.4383377 C4.22340531,16.6726134 4.03245456,16.6854504 3.82706216,16.4768488 L3.292721,15.9232521 C3.22282169,15.8517064 3.18831918,15.7528052 3.19854806,15.6533061 C3.20877694,15.553807 3.26267995,15.4639942 3.34567372,15.4081665 C3.62808827,15.2220296 3.86557324,14.9845446 4.05812861,14.6957116 C4.17366183,14.5192025 4.12712762,14.4213202 3.91852596,14.4020646 C3.53983373,14.3635536 3.17237389,14.2512296 2.81614645,14.0650927 C2.72340435,14.017529 2.65364522,13.9348667 2.62280152,13.8359855 C2.59195782,13.7371042 2.60266383,13.6304491 2.65247438,13.5403793 L2.99907405,12.9097605 C3.09535174,12.7364606 3.23334976,12.6931357 3.41306811,12.7797856 L4.37584498,13.261174 C4.42388714,13.2836052 4.48027065,13.2797179 4.52389268,13.250967 C4.56751471,13.2222162 4.59179873,13.1729362 4.58765589,13.1215714 L4.52026151,12.0288196 C4.50742448,11.8426828 4.58444663,11.707894 4.75132796,11.6244534 C5.03374251,11.4832461 5.34183111,11.4527581 5.67559375,11.5329896 C5.82065115,11.5683216 5.93390862,11.6815791 5.9692407,11.8266365 C6.09119244,12.3529545 5.97244996,12.816692 5.61301326,13.2178491 C5.57809127,13.2524427 5.57406654,13.3062393 5.6034144,13.3461524 C5.63276226,13.3860655 5.68724762,13.4008954 5.73336037,13.3815211 L5.73336037,13.3815211 Z" id="路径"></path>
                    <path d="M11.4907661,13.3911489 L12.9878841,12.7845995 C13.1387191,12.7236236 13.2526477,12.7669486 13.3296699,12.9145744 L13.6666418,13.554821 C13.7725472,13.7570041 13.7292223,13.9206762 13.5366669,14.0458372 C13.2093228,14.2528342 12.5401929,14.3009731 12.3331958,14.5031562 C12.2690107,14.5673413 12.2353135,14.6443635 12.2321043,14.7342227 C12.228895,14.9107317 12.3091264,15.0326835 12.4727985,15.1000779 C12.7038649,15.1963556 12.9028388,15.3359582 13.0697201,15.5188858 C13.1668009,15.6241168 13.1646871,15.7868805 13.0649062,15.8895549 L12.4679846,16.5057321 C12.3460328,16.6341023 12.216058,16.6437301 12.07806,16.5346154 C11.7089955,16.2457823 11.4201624,15.8879503 11.2115608,15.4611192 C11.1409571,15.3134934 11.0543072,15.3054703 10.951611,15.4370498 L10.0995535,16.5249876 C9.97760174,16.6822412 9.84602224,16.691869 9.70481496,16.5538709 L9.06456834,15.9232521 C8.92336107,15.7852541 8.92175644,15.6488607 9.05975446,15.5140719 L9.83960373,14.7438504 C9.90229852,14.6818695 9.9211773,14.5880765 9.88734449,14.5066663 C9.85351169,14.4252562 9.77371708,14.3724704 9.68555943,14.3731813 C9.23947281,14.3731813 8.84794355,14.2416018 8.51097164,13.9784428 C8.35692734,13.8597003 8.32643941,13.7168884 8.41950784,13.5500071 L8.79499082,12.8712494 C8.87522223,12.7236236 8.99075545,12.6867172 9.14159049,12.7605301 L10.0754841,13.2178491 C10.2840857,13.3205453 10.3803634,13.2563602 10.3643171,13.0252937 L10.2921089,12.0432613 C10.2792718,11.8442874 10.3627125,11.7014755 10.5424308,11.6148256 C10.8184269,11.4800368 11.120097,11.4511535 11.4474411,11.5281757 C11.5976597,11.5639432 11.7149483,11.6812318 11.7507158,11.8314504 C11.866249,12.3385129 11.7475066,12.8150874 11.3944884,13.261174 C11.3661038,13.2898771 11.3628893,13.3349904 11.3869172,13.3674281 C11.4109452,13.3998659 11.4550372,13.4099372 11.4907661,13.3911489 Z" id="路径"></path>
                    <path d="M17.2722412,13.386335 L18.7741731,12.7845995 C18.9924025,12.6947403 19.1304005,12.7637393 19.1881672,12.9915965 C19.2298875,13.1552686 19.2972819,13.3061036 19.3903503,13.4441016 C19.5540224,13.6783773 19.5219298,13.8789559 19.2940726,14.0458372 C19.0501691,14.2255555 18.7741731,14.3266471 18.4660845,14.3491119 C18.2767384,14.3619489 18.1371357,14.4518081 18.0472766,14.6186894 C18.0119747,14.6796653 18.0007423,14.7438504 18.0135794,14.8112448 C18.0328349,14.9396151 18.1034385,15.0294742 18.2253903,15.0808223 C18.4692938,15.189937 18.6762908,15.3375628 18.8463814,15.5236997 C18.9357492,15.6247047 18.9336762,15.7781046 18.8415675,15.8799271 L18.2542736,16.5057321 C18.1323218,16.6341023 18.0007423,16.6453347 17.8595351,16.5394293 C17.4840521,16.2505962 17.1936144,15.8943688 16.988222,15.470747 C16.9176184,15.3199119 16.8309684,15.3102841 16.7282722,15.4418637 L15.8377036,16.5586848 C15.7350074,16.6870551 15.6242881,16.6934736 15.5055456,16.5779404 L14.8364157,15.9232521 C14.6919992,15.7820448 14.6919992,15.6424422 14.8364157,15.5044441 L15.5921955,14.7775476 C15.6637545,14.7086445 15.685632,14.6028576 15.6472732,14.5112228 C15.6089144,14.419588 15.5182006,14.3609322 15.4188957,14.3635536 C14.9984831,14.3699721 14.6246048,14.2464157 14.2972606,13.9928845 C14.1367978,13.8677235 14.1063099,13.7168884 14.2057968,13.5403793 L14.5716521,12.8712494 C14.6518835,12.7236236 14.7690213,12.6867172 14.9230656,12.7605301 L15.8858425,13.2371046 C16.0719793,13.3269638 16.1570246,13.2691972 16.1409784,13.0638048 L16.0687701,12.0480752 C16.0559331,11.8523105 16.1361645,11.7094986 16.3094643,11.6196395 C16.5822511,11.4784322 16.8839212,11.4479443 17.2144746,11.5281757 C17.3845651,11.5666867 17.488866,11.6709876 17.527377,11.8410782 C17.6364918,12.3353036 17.5177493,12.8070643 17.1711496,13.2563602 C17.1502337,13.2874195 17.1516354,13.3284005 17.1746247,13.3579581 C17.1976139,13.3875157 17.236989,13.398962 17.2722412,13.386335 L17.2722412,13.386335 Z" id="路径"></path>
                </g>
            </g>
        </g>
    </g>
</svg>