<?xml version="1.0" encoding="UTF-8"?>
<svg width="22px" height="22px" viewBox="0 0 22 22" version="1.1" xmlns="http://www.w3.org/2000/svg" xmlns:xlink="http://www.w3.org/1999/xlink">
    <title>ic_rlql_sous</title>
    <defs>
        <path d="M15.4552585,14.5201811 L19.2110096,18.2753495 C19.284233,18.3485728 19.284233,18.4672912 19.2110096,18.5405145 L18.4155145,19.3360096 C18.3422912,19.409233 18.2235728,19.409233 18.1503495,19.3360096 L14.384116,15.57121 C14.768518,15.2498741 15.1267834,14.8983132 15.4552585,14.5201811 Z M8.375,0 C13.0003848,0 16.75,3.74961522 16.75,8.375 C16.75,10.4492584 15.9959213,12.3473923 14.746948,13.8102175 L14.746948,13.8102175 L14.7248309,13.8360159 C14.6580095,13.9136422 14.5897889,13.9900296 14.5202083,14.0651391 L14.746948,13.8102175 C14.6540763,13.9189909 14.5584681,14.0253575 14.4602302,14.1292106 C14.4016383,14.1911476 14.342303,14.2519995 14.2820606,14.3119405 C14.2610861,14.3328082 14.240292,14.3532825 14.2193918,14.3736485 C14.1491692,14.4420866 14.0772901,14.5097189 14.0042335,14.576078 C13.9759275,14.6017907 13.9472456,14.6274881 13.9183866,14.6529896 C13.8514229,14.712158 13.7837649,14.7700565 13.7151861,14.8268826 C13.7013815,14.8383205 13.6877981,14.8495035 13.674179,14.8606444 C12.2305262,16.0415704 10.3854944,16.75 8.375,16.75 C3.74961522,16.75 0,13.0003848 0,8.375 C0,3.74961522 3.74961522,0 8.375,0 Z M8.375,1.5 C4.57804235,1.5 1.5,4.57804235 1.5,8.375 C1.5,12.1719577 4.57804235,15.25 8.375,15.25 C12.1719577,15.25 15.25,12.1719577 15.25,8.375 C15.25,4.57804235 12.1719577,1.5 8.375,1.5 Z" id="path-1"></path>
    </defs>
    <g id="页面-1" stroke="none" stroke-width="1" fill="none" fill-rule="evenodd">
        <g id="日历清理切图" transform="translate(-326.000000, -332.000000)">
            <g id="ic_rlql_sous-2" transform="translate(326.000000, 331.995483)">
                <g id="ic_rlql_sous" transform="translate(1.483534, 1.421034)">
                    <mask id="mask-2" fill="white">
                        <use xlink:href="#path-1"></use>
                    </mask>
                    <use id="形状结合" fill="#FFFFFF" fill-rule="nonzero" xlink:href="#path-1"></use>
                </g>
            </g>
        </g>
    </g>
</svg>