<?xml version="1.0" encoding="UTF-8"?>
<svg width="17px" height="17px" viewBox="0 0 17 17" version="1.1" xmlns="http://www.w3.org/2000/svg" xmlns:xlink="http://www.w3.org/1999/xlink">
    <title>ic_srlj_xbj</title>
    <g id="页面-1" stroke="none" stroke-width="1" fill="none" fill-rule="evenodd">
        <g id="骚扰拦截-电话切图" transform="translate(-465.000000, -710.000000)" fill="#FFFFFF" fill-rule="nonzero">
            <g id="ic_srlj_xbj-2" transform="translate(465.082597, 710.884427)">
                <g id="ic_srlj_xbj" transform="translate(0.500000, 2.000000)">
                    <path d="M14.9481316,2.88632688 L13.2969457,7.3373006 C13.221125,7.53940838 13.0697352,7.7027984 12.8758379,7.79178821 L3.8958986,11.9272499 C3.70053469,12.0170896 3.47800194,12.0239967 3.2776129,11.9464404 C3.07722386,11.8688841 2.91552684,11.7132691 2.82835338,11.5140793 L0.0689890685,5.21510638 C-0.110099915,4.80329262 0.0714218758,4.32171509 0.475321162,4.13710683 L9.3333608,0.0730110014 C9.52943677,-0.0173418016 9.75292736,-0.0241052505 9.95394073,0.0542305216 L14.4863905,1.83462001 C14.8977395,1.99728538 15.103668,2.46632849 14.9481316,2.88632688 L14.9481316,2.88632688 Z M12.8056532,3.69013141 C12.8056532,2.99104698 12.2483132,2.42432707 11.5607995,2.42432707 C10.8732857,2.42432707 10.3159457,2.99104698 10.3159457,3.69013141 C10.3159457,4.38921585 10.8732857,4.95593575 11.5607995,4.95593575 C12.2483132,4.95593575 12.8056532,4.38921585 12.8056532,3.69013141 L12.8056532,3.69013141 Z" id="形状"></path>
                </g>
            </g>
        </g>
    </g>
</svg>