<?xml version="1.0" encoding="UTF-8"?>
<svg width="32px" height="32px" viewBox="0 0 32 32" version="1.1" xmlns="http://www.w3.org/2000/svg" xmlns:xlink="http://www.w3.org/1999/xlink">
    <title>ic_aqsm_wangzhi</title>
    <g id="个人信息" stroke="none" stroke-width="1" fill="none" fill-rule="evenodd">
        <g id="安全扫码切图" transform="translate(-60.000000, -834.000000)" stroke="#FFFFFF" stroke-width="1.3">
            <g id="ic_aqsm_wangzhi" transform="translate(60.000000, 834.000000)">
                <g transform="translate(1.005005, 1.267822)" id="编组-44">
                    <path d="M18.0375631,14.4337872 L16.7705412,14.4337872 C15.7890538,14.4337872 14.993401,13.6381344 14.993401,12.6566471 L14.993401,3.34932921 C14.993401,2.36784183 15.7890538,1.57218909 16.7705412,1.57218909 L22.9905316,1.57218909 C23.9720189,1.57218909 24.7676717,2.36784183 24.7676717,3.34932921 L24.7676717,12.6566471 C24.7676717,13.6381344 23.9720189,14.4337872 22.9905316,14.4337872 L21.9844666,14.4337872 L21.9844666,14.4337872" id="路径" stroke-linecap="square" stroke-linejoin="round" transform="translate(19.880536, 8.002988) rotate(45.000000) translate(-19.880536, -8.002988) "></path>
                    <path d="M6.16001484,26.5817004 L4.89299293,26.5817004 C3.91150555,26.5817004 3.11585282,25.7860477 3.11585282,24.8045603 L3.11585282,15.4972425 C3.11585282,14.5157551 3.91150555,13.7201024 4.89299293,13.7201024 L11.1129833,13.7201024 C12.0944707,13.7201024 12.8901235,14.5157551 12.8901235,15.4972425 L12.8901235,24.8045603 C12.8901235,25.7860477 12.0944707,26.5817004 11.1129833,26.5817004 L10.1069184,26.5817004 L10.1069184,26.5817004" id="路径备份-2" stroke-linecap="square" stroke-linejoin="round" transform="translate(8.002988, 20.150901) scale(1, -1) rotate(-45.000000) translate(-8.002988, -20.150901) "></path>
                    <line x1="16.6859461" y1="11.2689305" x2="11.1359029" y2="16.9761105" id="路径-42" stroke-linecap="round"></line>
                </g>
            </g>
        </g>
    </g>
</svg>