<?xml version="1.0" encoding="UTF-8"?>
<svg width="39px" height="39px" viewBox="0 0 39 39" version="1.1" xmlns="http://www.w3.org/2000/svg" xmlns:xlink="http://www.w3.org/1999/xlink">
    <title>ic_txlbf_lxrzl</title>
    <defs>
        <rect id="path-1" x="0" y="0" width="36" height="36" rx="4"></rect>
    </defs>
    <g id="个人信息" stroke="none" stroke-width="1" fill="none" fill-rule="evenodd">
        <g id="通讯录备份" transform="translate(-447.000000, -394.000000)">
            <g id="ic_txlbf_lxrzl-2" transform="translate(447.818237, 394.891329)">
                <g id="ic_txlbf_lxrzl" transform="translate(1.000000, 1.000000)">
                    <mask id="mask-2" fill="white">
                        <use xlink:href="#path-1"></use>
                    </mask>
                    <use id="蒙版" fill="#EDEDED" xlink:href="#path-1"></use>
                    <path d="M16.5559086,5.36099645 C17.3547505,5.43521648 18.2300912,5.50878547 19.1819306,5.5817034 C19.9156673,5.638345 20.5497929,5.742839 21.0843074,5.89518539 C21.8733022,6.1196359 22.6144446,6.44926197 23.3077346,6.88406362 L23.6019291,7.0768465 L23.6019291,7.0768465 C24.7862379,7.88805848 25.6115473,8.94285685 26.0778575,10.2412416 L26.1722862,10.5231953 L26.1722862,10.5231953 C26.3513257,11.1814098 26.4284755,11.8435307 26.4037355,12.5095579 L26.4027589,14.4441617 L26.4086184,17.0018232 C26.4092695,17.0402353 26.4284755,17.0617201 26.4662366,17.0662775 C26.8008778,17.1046896 27.0355824,17.2677783 27.1703504,17.5555438 C27.2302472,17.681197 27.2341535,17.9038571 27.1820693,18.2235241 C27.0993856,18.7372049 27.0189805,19.2479559 26.9408542,19.7557772 C26.901791,19.9888542 26.8666342,20.2212801 26.8353836,20.4530549 C26.7917631,20.7688156 26.7351215,20.995382 26.6654588,21.1327542 C26.4681898,21.5204562 26.1283401,21.7675308 25.6986452,21.8671419 C25.4418048,21.9267133 25.2396528,21.9687062 25.1908239,22.2538674 C25.1504586,22.4869443 25.1139996,22.7216489 25.081447,22.9579811 C24.9147774,23.82909 24.577532,24.6227235 24.0697107,25.3388818 C23.6894958,25.8714431 23.2402692,26.3359694 22.7220311,26.7324606 C22.6953379,26.7532943 22.6823168,26.7806385 22.6829679,26.8144933 C22.6868742,27.1374156 22.6865487,27.4759631 22.6819913,27.8301359 C22.6785733,28.1146867 22.8755371,28.4059668 23.0491356,28.6464037 L23.1214521,28.7461674 L23.1214521,28.7461674 C23.7991982,29.6836837 24.6048762,30.5635817 25.6068467,31.1641781 C26.6622035,31.7442662 27.7576001,32.244926 28.8930365,32.6661572 L28.8914945,32.6771247 L28.9955833,32.7189739 C29.228596,32.8000842 29.5279901,32.8466074 29.8937657,32.8585434 C30.5732955,32.8819813 31.3181773,33.1072456 32.1284109,33.5343363 L32.0986512,33.5359919 C32.2937819,33.6362987 32.4833706,33.747061 32.6663476,33.86802 C33.9694679,34.7294619 34.8207228,36.5386171 35.2201123,39.2954856 L28.524046,39.2954856 L28.4816045,38.4454961 C28.4004971,38.493012 28.3263744,38.5473944 28.2592364,38.608643 C28.2518257,38.6153455 28.2417252,38.6182313 28.2318922,38.6164557 C28.2123606,38.6125494 28.2068267,38.6047367 28.2152903,38.5930178 C28.2374261,38.5617672 28.2331943,38.5578609 28.2025948,38.5812988 C28.1882716,38.5923667 28.174274,38.6044112 28.1606019,38.6174323 C28.1449766,38.6330575 28.1273982,38.6359873 28.1078666,38.6262215 C28.0466676,38.5949709 27.9877473,38.6034346 27.9311057,38.6516125 C27.921991,38.6594252 27.9138528,38.6584486 27.9066912,38.6486828 C27.8604665,38.5783691 27.8018717,38.570882 27.730907,38.6262215 C27.707469,38.645102 27.6814269,38.657472 27.6527806,38.6633315 C27.6345511,38.6672378 27.6234832,38.6600762 27.6195769,38.6418467 C27.6098111,38.5943199 27.5876753,38.5887859 27.5531695,38.6252449 C27.4932726,38.688397 27.4223079,38.6942565 27.3402752,38.6428233 C27.3031652,38.6187344 27.2663807,38.6200365 27.2299217,38.6467296 C27.2071349,38.663657 27.1827204,38.6672378 27.1566782,38.657472 C27.0362335,38.6112473 26.91351,38.5985517 26.7885078,38.6193854 C26.7662637,38.6231905 26.743727,38.6201173 26.7240536,38.6105962 C26.6530888,38.5760904 26.5928664,38.5884604 26.5433864,38.6477062 C26.5347435,38.6579051 26.5222284,38.6640236 26.5088716,38.6645802 C26.4955147,38.6651367 26.482534,38.6600805 26.4730726,38.650636 L26.4457284,38.6223152 C26.4170821,38.5936688 26.3887613,38.5939943 26.360766,38.6232917 C26.2917544,38.6955586 26.2227428,38.694582 26.1537312,38.620362 C26.1244338,38.5891115 26.0987172,38.5920412 26.0765814,38.6291512 C26.071373,38.6376149 26.0671411,38.6467296 26.0638859,38.6564954 C26.0541201,38.6831886 26.0378438,38.6880715 26.0150569,38.6711441 L25.9593919,38.6301278 C25.9300945,38.607992 25.8972163,38.5969241 25.8607573,38.5969241 L23.0911781,38.6164557 C23.0638339,38.6164557 23.0413725,38.627198 23.0237941,38.6486828 C23.0179346,38.6551933 23.0110986,38.6604017 23.0032859,38.6643081 C22.992218,38.6688654 22.9814757,38.6678889 22.9710588,38.6613783 C22.9586888,38.6535657 22.948923,38.6437999 22.9417614,38.6320809 C22.9189746,38.5917157 22.8913048,38.5878093 22.8587522,38.620362 C22.78323,38.6952331 22.7093355,38.6955586 22.6370687,38.6213386 C22.6129797,38.5965986 22.5888907,38.596273 22.5648018,38.620362 L22.5394107,38.6457531 C22.5270407,38.6581231 22.5120665,38.663006 22.4944881,38.6604017 C22.4717012,38.6564954 22.4560759,38.6467296 22.4476123,38.6311044 C22.4397996,38.6167812 22.4277551,38.6096196 22.4114788,38.6096196 L21.528651,38.6115728 C21.5026089,38.6115728 21.4824263,38.6223152 21.4681031,38.6437999 C21.4622436,38.6516125 21.455082,38.6584486 21.4466183,38.6643081 C21.4316441,38.6747249 21.417972,38.6734228 21.405602,38.6604017 L21.3675154,38.6223152 C21.3421243,38.5975751 21.3167333,38.5975751 21.2913422,38.6223152 C21.226888,38.6861183 21.1529935,38.6919778 21.0696587,38.6398936 C21.042305,38.6220294 21.0060883,38.6252487 20.9817665,38.6477062 C20.9524691,38.6743994 20.9215441,38.6727718 20.8889915,38.6428233 C20.8757538,38.6308709 20.8588148,38.623957 20.8411391,38.6232917 L20.379217,38.6008304 C20.3447112,38.5995283 20.3176925,38.6128749 20.2981609,38.6408702 C20.2923015,38.6486828 20.2854654,38.6555189 20.2776528,38.6613783 C20.2600743,38.6724462 20.243798,38.6708186 20.2288238,38.6564954 L20.1956201,38.6223152 C20.169578,38.5969241 20.1441869,38.5969241 20.1194469,38.6223152 C20.0478311,38.6958841 19.9755642,38.6952331 19.9026463,38.620362 C19.8923436,38.6098106 19.8778946,38.6043674 19.863191,38.6054984 C19.8484873,38.6066295 19.8350408,38.6142185 19.8264731,38.6262215 C19.7919673,38.6763525 19.7555083,38.6796078 19.7170962,38.6359873 C19.6930072,38.6092941 19.6630588,38.5959475 19.6272509,38.5959475 L16.8420463,38.6154791 C16.8140511,38.6161301 16.7912642,38.6268725 16.7736858,38.6477062 C16.7684774,38.6542167 16.7616413,38.6594252 16.7531776,38.6633315 C16.7421097,38.6685399 16.7313673,38.6678889 16.7209505,38.6613783 C16.7079294,38.6535657 16.6981636,38.6437999 16.6916531,38.6320809 C16.6688663,38.5910646 16.6411965,38.5871583 16.6086439,38.620362 C16.5337728,38.6952331 16.4598783,38.6955586 16.3869603,38.6213386 C16.3628714,38.5965986 16.3387824,38.596273 16.3146934,38.620362 L16.2893024,38.6457531 C16.2769324,38.6581231 16.2619582,38.663006 16.2443797,38.6604017 C16.2215929,38.6564954 16.2059676,38.6467296 16.1975039,38.6311044 C16.1896913,38.6167812 16.1776468,38.6096196 16.1613705,38.6096196 L15.2678003,38.6115728 C15.2469666,38.6115728 15.2316669,38.6206875 15.2219011,38.638917 C15.2166926,38.6473807 15.2105076,38.6551933 15.2033461,38.6623549 C15.1896528,38.6747278 15.1689027,38.6742955 15.1564702,38.6613783 L15.1164305,38.6213386 C15.0916905,38.5972496 15.0669505,38.5972496 15.0422105,38.6213386 C14.9771052,38.6864439 14.9028851,38.6926289 14.8195503,38.6398936 C14.7921967,38.6220294 14.75598,38.6252487 14.7316582,38.6477062 C14.7023608,38.6743994 14.6714358,38.6727718 14.6388832,38.6428233 C14.6256455,38.6308709 14.6087064,38.623957 14.5910308,38.6232917 L14.1291087,38.6008304 C14.0946029,38.5995283 14.0675842,38.6132004 14.0480526,38.6418467 C14.0421931,38.6509615 14.0350315,38.6594252 14.0265679,38.6672378 C14.016289,38.6768981 13.9999363,38.6764678 13.9894578,38.6662612 L13.9435586,38.6213386 C13.9194696,38.5965986 13.8953807,38.5965986 13.8712917,38.6213386 C13.7964206,38.6975118 13.720573,38.6949076 13.6437487,38.6135259 C13.6340375,38.6028533 13.6196383,38.5977641 13.6052178,38.5999077 C13.5907972,38.6020513 13.57819,38.6111549 13.5714818,38.6242683 C13.5434866,38.6776547 13.5102829,38.6828631 13.4718707,38.6398936 C13.4458286,38.6112473 13.413276,38.5969241 13.3742128,38.5969241 L10.5870551,38.6154791 C10.5642683,38.6154791 10.5453877,38.6239428 10.5304135,38.6408702 L10.5099053,38.6604017 L10.5099053,38.6604017 C10.4949311,38.6734228 10.4802824,38.6730973 10.4659593,38.6594252 L10.4376385,38.6301278 C10.4083411,38.6008304 10.3787182,38.6005049 10.3487697,38.6291512 C10.2771539,38.6955586 10.2065147,38.6929544 10.136852,38.6213386 C10.112763,38.5965986 10.0886741,38.596273 10.0645851,38.620362 L10.032358,38.6525891 C10.0121754,38.6727718 9.99199271,38.6727718 9.97181007,38.6525891 L9.93958295,38.620362 C9.92265557,38.6040857 9.90247293,38.5969241 9.87903503,38.5988772 C9.62252016,38.6268725 9.35103108,38.6262215 9.06456778,38.5969241 C9.03396829,38.5936688 9.00760065,38.6031091 8.98546485,38.6252449 L8.9639801,38.6467296 C8.93989114,38.6708186 8.91580218,38.6708186 8.89171322,38.6467296 L8.86729874,38.6223152 C8.84190767,38.5969241 8.81619108,38.5972496 8.79014896,38.6232917 C8.72504367,38.688397 8.65375337,38.6929544 8.57627807,38.6369638 C8.54828279,38.6174323 8.5212641,38.6184088 8.49522198,38.6398936 C8.46266933,38.6678889 8.42816352,38.6711441 8.39170456,38.6496594 C8.36240718,38.632732 8.33083111,38.6232917 8.29697635,38.6213386 L7.85751561,38.5998538 C7.8327756,38.5985517 7.81487164,38.6089686 7.80380374,38.6311044 C7.79729321,38.6434744 7.78817847,38.6538912 7.77645952,38.6623549 C7.76197829,38.6719849 7.7426914,38.6699331 7.73056029,38.657472 L7.69345027,38.6213386 C7.66936131,38.5965986 7.64527235,38.5965986 7.62118339,38.6213386 C7.5463123,38.6975118 7.47046463,38.6949076 7.39364038,38.6135259 C7.3837041,38.6030325 7.36932632,38.5979599 7.3550051,38.5998952 C7.34068388,38.6018305 7.32816818,38.6105373 7.32137351,38.6232917 C7.29988876,38.6638198 7.27565738,38.6768815 7.24867937,38.662477 L7.22078583,38.638917 C7.19474371,38.6102707 7.16251659,38.5959475 7.12410446,38.5959475 L4.35452521,38.6154791 C4.32457677,38.6161301 4.2978836,38.6258959 4.27444569,38.6447765 C4.23603357,38.675376 4.20250434,38.6675633 4.17385801,38.6213386 C4.1677363,38.6113608 4.15736629,38.6047524 4.14573659,38.6034178 C4.13410688,38.6020833 4.12250947,38.6061708 4.11428667,38.6145025 C4.0335561,38.6984883 3.95217448,38.6962097 3.87014181,38.6076665 C3.86242395,38.5990465 3.85086923,38.5949161 3.83943589,38.5966903 C3.82800255,38.5984644 3.81824288,38.6059022 3.8135002,38.6164557 C3.80829178,38.6288257 3.80080467,38.6392425 3.79103888,38.6477062 C3.76564781,38.6717952 3.74025675,38.6714696 3.71486568,38.6467296 L3.69435751,38.6262215 C3.68459172,38.6158046 3.67254724,38.6105962 3.65822408,38.6105962 L2.78027917,38.6105962 C2.75810774,38.6105741 2.73688565,38.6210053 2.72266098,38.638917 C2.70833782,38.6564954 2.68978281,38.6672378 2.66699596,38.6711441 L2.64844095,38.6711441 L2.64844095,38.6711441 C2.63151357,38.6665868 2.62304988,38.6561699 2.62304988,38.6398936 C2.623514,38.6261018 2.61550668,38.6135371 2.60272302,38.6079975 C2.58993936,38.6024579 2.57486457,38.6050204 2.56445512,38.6145025 C2.49609456,38.6809099 2.42382768,38.6916523 2.34765448,38.6467296 C2.34245695,38.6434825 2.3368841,38.6408599 2.33105263,38.638917 C2.2900363,38.6258959 2.2581347,38.627198 2.23534785,38.6428233 C2.22558206,38.6499849 2.21451416,38.6529146 2.20214415,38.6516125 L1.63670466,38.5930178 C1.59829254,38.5891115 1.56899515,38.6031091 1.54881251,38.6350107 C1.52732777,38.6682144 1.49737933,38.6809099 1.45896721,38.6730973 C1.43357614,38.6678889 1.42641456,38.6532402 1.43748246,38.6291512 C1.44529509,38.6122238 1.43585483,38.6011559 1.40916165,38.5959475 C1.3929778,38.5930487 1.37668709,38.6013927 1.3691219,38.6164557 C1.33656925,38.6893736 1.28969344,38.7040223 1.22849446,38.6604017 C1.2044055,38.6428233 1.19366313,38.6190599 1.19626734,38.5891115 C1.20603313,38.4807111 1.17380601,38.3937956 1.18650155,38.2922313 C1.23207525,37.9328501 1.30206344,37.5796538 1.39646612,37.2326426 L1.77049604,36.2834074 C2.06281882,35.675975 2.44563795,35.1401584 2.91895345,34.6759577 C3.42481937,34.1557664 4.00130108,33.7420222 4.6483986,33.4347252 L4.67921277,33.4640226 C4.70039751,33.4842053 4.69782966,33.5014582 4.67150923,33.5157813 L4.65349449,33.5211247 L4.67548736,33.5221291 C4.68280288,33.5211525 4.68971197,33.5190366 4.69621465,33.5157813 C4.72287563,33.5014582 4.7254767,33.4842053 4.70401786,33.4640226 L4.67280501,33.4347252 C5.31071769,33.1319856 5.9795181,32.9441568 6.67920622,32.8712389 C6.7663421,32.8621242 6.95296895,32.8487776 7.23908677,32.8311991 C7.44587193,32.817527 7.61169021,32.7257286 7.80286893,32.6534617 L7.82140156,32.731588 C7.82889771,32.7626095 7.84503524,32.7770964 7.86981415,32.7750487 C7.84719717,32.7754504 7.83238032,32.7609009 7.82528849,32.731588 L7.80673348,32.6534617 C8.79503186,32.2667362 9.76249655,31.8328094 10.7091275,31.3516813 C11.120593,31.1322765 11.3868737,30.9776514 11.5079695,30.8878061 C12.1473035,30.4138395 12.7091622,29.8597935 13.1935456,29.2256679 C13.395372,28.9756636 13.5841774,28.7178466 13.7599617,28.452217 C13.8849638,28.2627606 14.0002002,28.0596321 13.9962939,27.8272062 C13.9917365,27.4964713 13.9917365,27.1660619 13.9962939,26.835978 C13.9975488,26.7900379 13.976431,26.7463458 13.9396523,26.7187885 C13.5503226,26.4219084 13.191918,26.0732695 12.8644383,25.6728719 C12.2316149,24.8955147 11.8185218,24.0204996 11.625159,23.0478264 C11.5821895,22.8036816 11.550288,22.5719067 11.5294543,22.3525019 C11.5089461,22.1317949 11.372225,21.9530809 11.144682,21.9189006 C10.6954554,21.8515167 10.2960344,21.6044421 10.0587256,21.2216229 C9.96822928,21.074485 9.89270714,20.7935556 9.83215921,20.3788349 C9.78463235,20.0526573 9.73547785,19.7251777 9.68469572,19.396396 C9.61633516,18.9849305 9.55025328,18.5702098 9.4864501,18.1522338 C9.44282955,17.8683747 9.45161876,17.6655717 9.51281774,17.5438248 C9.65539834,17.2567104 9.88814977,17.0991556 10.211072,17.0711604 C10.2462289,17.0679051 10.2638073,17.0490246 10.2638073,17.0145187 L10.2725965,15.4910548 L10.2725965,12.3679538 C10.2608776,11.4499692 10.4031327,10.5612819 10.6993617,9.701892 C10.9988461,8.78130313 11.4724871,7.98376326 12.1202848,7.3092724 C12.2973712,7.10353967 12.4952913,6.94663591 12.7140451,6.83856112 C13.1271382,6.63347944 13.7091795,6.76727082 14.0294976,6.38738142 C14.2124435,6.16992974 14.3901809,5.95898858 14.56271,5.75455796 C14.9396696,5.30826116 16.0314854,5.31216747 16.5559086,5.36099645 Z" id="形状结合" fill="#FFFFFF" fill-rule="nonzero" mask="url(#mask-2)"></path>
                </g>
            </g>
        </g>
    </g>
</svg>