<?xml version="1.0" encoding="UTF-8"?>
<svg width="25px" height="25px" viewBox="0 0 25 25" version="1.1" xmlns="http://www.w3.org/2000/svg" xmlns:xlink="http://www.w3.org/1999/xlink">
    <title>ic_shzx_guanbi</title>
    <defs>
        <path d="M12.410113,19.4934464 C12.410113,19.8386243 12.130291,20.1184464 11.785113,20.1184464 C11.4399351,20.1184464 11.160113,19.8386243 11.160113,19.4934464 L11.1597797,12.4097797 L4.07677969,12.410113 C3.73160172,12.410113 3.45177969,12.130291 3.45177969,11.785113 C3.45177969,11.4399351 3.73160172,11.160113 4.07677969,11.160113 L11.1597797,11.1597797 L11.160113,4.07677969 C11.160113,3.73160172 11.4399351,3.45177969 11.785113,3.45177969 C12.130291,3.45177969 12.410113,3.73160172 12.410113,4.07677969 L12.410113,19.4934464 Z M19.4934464,11.160113 C19.8386243,11.160113 20.1184464,11.4399351 20.1184464,11.785113 C20.1184464,12.130291 19.8386243,12.410113 19.4934464,12.410113 L13.2427797,12.410113 L13.2427797,11.160113 L19.4934464,11.160113 Z" id="path-1"></path>
    </defs>
    <g id="页面-1" stroke="none" stroke-width="1" fill="none" fill-rule="evenodd">
        <g id="守护中心切图二" transform="translate(-516.000000, -1724.000000)">
            <g id="ic_shzx_guanbi" transform="translate(516.858404, 1724.870786)">
                <mask id="mask-2" fill="white">
                    <use xlink:href="#path-1"></use>
                </mask>
                <use id="形状结合" fill="#444F57" transform="translate(11.785113, 11.785113) scale(-1, 1) rotate(-315.000000) translate(-11.785113, -11.785113) " xlink:href="#path-1"></use>
            </g>
        </g>
    </g>
</svg>