<?xml version="1.0" encoding="UTF-8"?>
<svg width="18px" height="18px" viewBox="0 0 18 18" version="1.1" xmlns="http://www.w3.org/2000/svg" xmlns:xlink="http://www.w3.org/1999/xlink">
    <title>ic_aqsm_cmm</title>
    <g id="个人信息" stroke="none" stroke-width="1" fill="none" fill-rule="evenodd">
        <g id="安全扫码切图" transform="translate(-278.000000, -33.000000)" fill="#89939C" fill-rule="nonzero">
            <g id="ic_aqsm_cmm-2" transform="translate(278.000000, 33.000000)">
                <g id="ic_aqsm_cmm" transform="translate(0.644531, 1.221407)">
                    <path d="M16.2109375,14.5571863 C16.4870799,14.5571863 16.7109375,14.7810439 16.7109375,15.0571863 C16.7109375,15.3026462 16.5340623,15.5067946 16.3008131,15.5491306 L16.2109375,15.5571863 L0.5,15.5571863 C0.223857625,15.5571863 0,15.3333286 0,15.0571863 C0,14.8117264 0.176875161,14.6075779 0.410124368,14.5652419 L0.5,14.5571863 L16.2109375,14.5571863 Z" id="路径-43"></path>
                    <path d="M13.2317731,0.142897596 L4.10225649,9.09002208 C4.02088024,9.16977257 3.96918289,9.27492471 3.95572482,9.38806672 L3.60333071,12.3506445 C3.56318177,12.6881768 3.86427581,12.9665273 4.19762274,12.9000459 L6.95422979,12.3502794 C7.04682285,12.331813 7.13229506,12.2875072 7.20075695,12.2224883 L16.5552568,3.33843603 C16.7634374,3.14072503 16.7627345,2.80870444 16.5537186,2.61187664 L13.9245225,0.135993156 C13.7291656,-0.0479721145 13.4234244,-0.044924877 13.2317731,0.142897596 Z M13.588,1.19300014 L15.483,2.97700014 L6.617,11.3970001 L4.677,11.7840001 L4.927,9.68100014 L13.588,1.19300014 Z" id="路径-44"></path>
                    <polygon id="路径-45" points="3.71106451 12.0952809 4.48859674 12.724124 3.30868799 14.1830206 2.53115576 13.5541775"></polygon>
                </g>
            </g>
        </g>
    </g>
</svg>