<?xml version="1.0" encoding="UTF-8"?>
<svg width="85px" height="85px" viewBox="0 0 85 85" version="1.1" xmlns="http://www.w3.org/2000/svg" xmlns:xlink="http://www.w3.org/1999/xlink">
    <title>ic_yskj_xjxc</title>
    <g id="页面-1" stroke="none" stroke-width="1" fill="none" fill-rule="evenodd">
        <g id="隐私空间切图" transform="translate(-17.000000, -75.000000)">
            <g id="ic_yskj_xjxc" transform="translate(17.316716, 75.500000)">
                <rect id="矩形" fill="#EDEDED" x="0" y="0" width="84" height="84"></rect>
                <path d="M25.000026,50.9757604 C25.0266761,41.7397971 25.0355506,35.4991363 25.0266761,32.253778 C25.0200202,29.9313722 26.0195104,28.3355231 28.0251467,27.4662307 C28.8194141,27.1206601 29.9930663,26.9671924 31.5461033,27.0058277 C33.3964358,27.0509021 35.3477158,27.0551949 37.3999432,27.0187061 C38.2219434,27.0058277 38.8575793,27.4114974 39.3001948,28.0682961 C40.0678388,29.2101814 40.7955475,30.2705035 41.483321,31.2492624 C41.5310214,31.3178131 41.6108919,31.358863 41.6963089,31.3587288 C44.9887472,31.3930712 48.514141,31.3909248 52.2724904,31.3522896 C54.0362966,31.3351184 55.2543213,31.4757077 55.9265644,31.7740574 C58.2927271,32.8300867 59.0215451,34.7167731 58.9915937,37.1218154 C58.9383467,41.7043815 58.9405654,46.2311411 58.9982496,50.7020943 C59.0182172,52.1916966 58.8673508,53.2992395 58.5456503,54.024723 C57.4441034,56.5070357 55.2742889,57.0157327 52.6452192,56.9996347 C45.2904801,56.9502675 38.0189393,56.9459747 30.830597,56.9867563 C28.37458,57.0028543 26.3478668,56.2172716 25.4093888,53.9506721 C25.1342794,53.2831414 24.997834,52.2915042 25.000026,50.9757604 Z M40.6080737,35.2415682 C39.8426484,35.2447878 39.2269802,34.9324864 38.7976764,34.3239817 C38.0500001,33.2679525 37.3156355,32.1979716 36.5945826,31.1140391 C36.5036308,30.9758679 36.3455416,30.8921135 36.1752626,30.8918866 L30.0119246,30.8918866 C29.4605341,30.8918866 29.0135438,31.324326 29.0135438,31.857767 L29.0135438,52.1412561 C29.0135438,52.6764753 29.4605341,53.1103562 30.0119246,53.1103562 L53.8898674,53.1103562 C54.4872072,53.1103562 54.9714467,52.6404387 54.9714467,52.0607661 L54.9714467,36.0657861 C54.9710444,35.7230907 54.7256004,35.4256062 54.379074,35.347815 C54.0751225,35.283423 53.7678431,35.2501538 53.4572357,35.2480074 C49.4282142,35.2372754 45.1451602,35.235129 40.6080737,35.2415682 Z" id="形状" fill="#DBDBDB" fill-rule="nonzero"></path>
            </g>
        </g>
    </g>
</svg>