<?xml version="1.0" encoding="UTF-8"?>
<svg width="22px" height="22px" viewBox="0 0 22 22" version="1.1" xmlns="http://www.w3.org/2000/svg" xmlns:xlink="http://www.w3.org/1999/xlink">
    <title>ic_shzx_shanc</title>
    <g id="页面-1" stroke="none" stroke-width="1" fill="none" fill-rule="evenodd">
        <g id="守护中心切图二" transform="translate(-743.000000, -1577.000000)" fill="#29283C" fill-rule="nonzero">
            <g id="ic_shzx_shanc-2" transform="translate(743.000000, 1577.000000)">
                <g id="ic_shzx_shanc" transform="translate(2.000000, 2.006736)">
                    <path d="M12.9676315,3.43857185 C14.1779607,3.43457076 15.5053216,3.43457076 16.9497144,3.43857185 C17.5058656,3.44057239 17.8519597,3.69564175 17.9879967,4.20377993 C17.9959989,4.23778918 18,4.27179843 18,4.30580767 C17.9739929,4.82794966 17.7119217,5.13503316 17.2137862,5.22705819 C16.9377111,5.27907233 16.6546342,5.28607424 16.3645553,5.2480639 C16.2225166,5.22805846 16.1504971,5.29007533 16.1484965,5.43411449 C16.1324922,8.15485434 16.1364933,10.9976274 16.1604998,13.9624336 C16.1755039,16.0720073 15.2662566,17.9865279 12.9586291,17.9865279 C10.0318332,17.9865279 7.36610833,17.9825268 4.96145443,17.9745246 C2.74085058,17.968523 1.91262536,15.831942 1.93063026,13.9444287 C1.95663733,11.0736481 1.96063842,8.24287828 1.94263352,5.45211939 C1.94263352,5.3160824 1.87461503,5.2480639 1.73857803,5.2480639 L1.06339443,5.25106472 C0.481236126,5.25106472 0.130140652,4.96698747 0.0101080118,4.39883297 C-0.00589634023,4.31681067 -0.00289552422,4.23778918 0.0191104599,4.1617685 C0.163149628,3.67563631 0.48823803,3.43257021 0.994375664,3.43257021 L5.3305548,3.43257021 C5.4485869,3.43257021 5.51460485,3.37455444 5.52860866,3.25852289 C6.0987637,-1.07765625 12.2174275,-1.0866587 12.7365687,3.23451636 C12.7525731,3.37055335 12.829594,3.43857185 12.9676315,3.43857185 Z M7.34710316,3.4295694 L10.9450816,3.43557103 C10.9559371,3.4364086 10.9666488,3.43267139 10.9746274,3.42526274 C10.9826059,3.41785409 10.987095,3.40744822 10.987095,3.39656042 L10.987095,3.38155634 C10.9878161,2.94021395 10.7971768,2.51666768 10.4571901,2.20426262 C10.1172033,1.89185756 9.65577537,1.71623614 9.17460011,1.71610338 L9.12058542,1.71610338 C8.12063642,1.71582521 7.30959577,2.45838395 7.30809255,3.37555471 L7.30809255,3.39055879 C7.30809255,3.41210375 7.3255582,3.4295694 7.34710316,3.4295694 L7.34710316,3.4295694 Z M14.3240004,5.26006717 L3.76112803,5.26006717 C3.71472349,5.26006717 3.67710518,5.29768548 3.67710518,5.34409001 L3.67710518,14.559596 C3.67710518,15.5158609 4.33542561,16.2910668 5.14750502,16.2910668 L12.9376234,16.2910668 C13.3275977,16.2910668 13.7015996,16.1086445 13.9773531,15.7839308 C14.2531066,15.459217 14.4080232,15.0188106 14.4080232,14.559596 L14.4080232,5.34409001 C14.4080232,5.29768548 14.3704049,5.26006717 14.3240004,5.26006717 Z" id="形状"></path>
                    <path d="M6.85196852,7.39364735 C7.32098581,7.39364735 7.70119945,7.77386099 7.70119945,8.24287828 L7.70119945,13.1342084 C7.70119945,13.6032257 7.32098581,13.9834393 6.85196852,13.9834393 C6.38295123,13.9834393 6.00273759,13.6032257 6.00273759,13.1342084 L6.00273759,8.24287828 C6.00273759,7.77386099 6.38295123,7.39364735 6.85196852,7.39364735 Z" id="矩形" transform="translate(6.851969, 10.688543) rotate(0.100000) translate(-6.851969, -10.688543) "></path>
                    <rect id="矩形" x="10.2999061" y="7.39364735" width="1.69846186" height="6.58379033" rx="0.849230931"></rect>
                </g>
            </g>
        </g>
    </g>
</svg>