<?xml version="1.0" encoding="UTF-8"?>
<svg width="84px" height="85px" viewBox="0 0 84 85" version="1.1" xmlns="http://www.w3.org/2000/svg" xmlns:xlink="http://www.w3.org/1999/xlink">
    <title>ic_yskj_kxc</title>
    <g id="页面-1" stroke="none" stroke-width="1" fill="none" fill-rule="evenodd">
        <g id="隐私空间切图" transform="translate(-143.000000, -75.000000)">
            <g id="ic_yskj_kxc" transform="translate(143.000000, 75.500000)">
                <rect id="矩形备份-27" fill="#EDEDED" x="0" y="0" width="84" height="84"></rect>
                <g id="编组-2" transform="translate(23.777370, 29.701960)" fill="#DBDBDB">
                    <circle id="椭圆形" cx="8.17213683" cy="4" r="4"></circle>
                    <path d="M23.961357,10.5551261 C24.5203296,9.96667203 25.3908869,9.94598283 25.9717149,10.4814807 L26.0838392,10.5959926 L36.0252353,21.8286927 C36.6001558,22.4782906 36.5826991,23.5124847 35.9862446,24.13863 C35.4270686,24.7256412 34.5575221,24.7456195 33.9772932,24.2105717 L33.8652827,24.0961653 L24.9651368,14.0403608 L16.4494805,23.0073815 C15.9779081,23.5038258 15.270375,23.6051097 14.7016421,23.2746256 L14.5730305,23.1906789 L8.72413683,18.9293256 L2.32929149,23.5504773 C1.67953529,24.0198561 0.816741159,23.8656727 0.335717371,23.2190648 L0.250144499,23.0920872 C-0.180834526,22.3844385 -0.0392648778,21.4447704 0.554444235,20.920888 L0.671033806,20.8276907 L7.89908912,15.6062004 C8.36132753,15.272283 8.95094082,15.2456141 9.43341177,15.5257011 L9.56216214,15.6096936 L15.2341368,19.7417933 L23.961357,10.5551261 Z" id="路径-42" fill-rule="nonzero"></path>
                </g>
            </g>
        </g>
    </g>
</svg>