<?xml version="1.0" encoding="UTF-8"?>
<svg width="21px" height="21px" viewBox="0 0 21 21" version="1.1" xmlns="http://www.w3.org/2000/svg" xmlns:xlink="http://www.w3.org/1999/xlink">
    <title>ic_yskj_shezhi</title>
    <g id="页面-1" stroke="none" stroke-width="1" fill="none" fill-rule="evenodd">
        <g id="隐私空间切图" transform="translate(-39.000000, -240.000000)" fill="#0C273D" fill-rule="nonzero">
            <g id="ic_yskj_shezhi-2" transform="translate(39.316716, 240.517899)">
                <g id="ic_yskj_shezhi" transform="translate(0.461567, 1.592748)">
                    <path d="M13.8452171,0 C14.0754429,0 14.290603,0.10552785 14.4315973,0.28236689 L14.4956404,0.376570599 L18.9772898,8.18251519 C19.0860966,8.37203031 19.1059961,8.59779877 19.0356995,8.80104126 L18.993029,8.90051322 L15.1092704,16.4090734 C14.9965581,16.6269828 14.7857286,16.7739591 14.5469488,16.8072984 L14.4431079,16.8145048 L12.5452171,16.8145048 C12.1310036,16.8145048 11.7952171,16.4787183 11.7952171,16.0645048 C11.7952171,15.684809 12.077371,15.3710138 12.4434466,15.3213514 L12.5452171,15.3145048 L13.9862138,15.3139446 L17.4722138,8.57394459 L13.4102138,1.49994459 L5.54221376,1.49994459 L1.59721376,8.43294459 L4.96521376,15.3139446 L9.79057344,15.3145048 C10.1702692,15.3145048 10.4840644,15.5966587 10.5337268,15.9627342 L10.5405734,16.0645048 C10.5405734,16.4442005 10.2584196,16.7579957 9.892344,16.8076582 L9.79057344,16.8145048 L4.49757799,16.8145048 C4.24699737,16.8145048 4.01555494,16.6896449 3.87727361,16.4861101 L3.82392974,16.3941986 L0.0763520755,8.73694625 C-0.0170960815,8.54600794 -0.0244585734,8.32605502 0.0525781207,8.13136021 L0.0981219255,8.0363689 L4.45468363,0.379116515 C4.57135833,0.174044782 4.77649972,0.0375874999 5.00660313,0.00667742526 L5.10656202,0 L13.8452171,0 Z" id="路径-48"></path>
                    <path d="M9.53843339,4.1115934 C11.9929808,4.1115934 13.9827846,6.1013972 13.9827846,8.55594459 C13.9827846,11.010492 11.9929808,13.0002958 9.53843339,13.0002958 C7.08388601,13.0002958 5.0940822,11.010492 5.0940822,8.55594459 C5.0940822,6.1013972 7.08388601,4.1115934 9.53843339,4.1115934 Z M9.53843339,5.6115934 C7.91231313,5.6115934 6.5940822,6.92982433 6.5940822,8.55594459 C6.5940822,10.1820649 7.91231313,11.5002958 9.53843339,11.5002958 C11.1645537,11.5002958 12.4827846,10.1820649 12.4827846,8.55594459 C12.4827846,6.92982433 11.1645537,5.6115934 9.53843339,5.6115934 Z" id="椭圆形"></path>
                </g>
            </g>
        </g>
    </g>
</svg>