<?xml version="1.0" encoding="UTF-8"?>
<svg width="22px" height="22px" viewBox="0 0 22 22" version="1.1" xmlns="http://www.w3.org/2000/svg" xmlns:xlink="http://www.w3.org/1999/xlink">
    <title>ic_yskj_lysc</title>
    <g id="页面-1" stroke="none" stroke-width="1" fill="none" fill-rule="evenodd">
        <g id="隐私空间切图" transform="translate(-461.000000, -240.000000)" fill="#A6B6C4">
            <g id="ic_yskj_lysc-2" transform="translate(461.000000, 240.000000)">
                <g id="ic_yskj_lysc" transform="translate(1.000000, 1.000000)">
                    <path d="M10,0 C15.5228475,0 20,4.4771525 20,10 C20,15.5228475 15.5228475,20 10,20 C4.4771525,20 0,15.5228475 0,10 C0,4.4771525 4.4771525,0 10,0 Z M10,1 C5.02943725,1 1,5.02943725 1,10 C1,14.9705627 5.02943725,19 10,19 C14.9705627,19 19,14.9705627 19,10 C19,5.02943725 14.9705627,1 10,1 Z" id="椭圆形" fill-rule="nonzero"></path>
                    <path d="M7.75549316,5.80153528 L7.75549316,14.8024495 C7.75549316,15.0785919 7.97935079,15.3024495 8.25549316,15.3024495 C8.36543214,15.3024495 8.47230638,15.2662152 8.5595769,15.1993539 L14.433785,10.6988968 C14.6529893,10.530956 14.6945465,10.2171129 14.5266057,9.99790868 C14.499879,9.9630238 14.4686699,9.93181469 14.433785,9.90508804 L8.5595769,5.40463091 C8.34037266,5.2366901 8.0265296,5.27824732 7.85858879,5.49745155 C7.79172748,5.58472207 7.75549316,5.69159631 7.75549316,5.80153528 Z" id="路径-51"></path>
                </g>
            </g>
        </g>
    </g>
</svg>