<?xml version="1.0" encoding="UTF-8"?>
<svg width="75px" height="75px" viewBox="0 0 75 75" version="1.1" xmlns="http://www.w3.org/2000/svg" xmlns:xlink="http://www.w3.org/1999/xlink">
    <title>ic_yskj_dccg</title>
    <g id="页面-1" stroke="none" stroke-width="1" fill="none" fill-rule="evenodd">
        <g id="隐私空间切图" transform="translate(-47.000000, -767.000000)" fill="#FFFFFF" fill-rule="nonzero">
            <g id="ic_yskj_dccg-2" transform="translate(47.503784, 767.575733)">
                <g id="ic_yskj_dccg" transform="translate(0.999721, 1.000000)">
                    <path d="M36.0036898,72 C35.9733417,72 35.9396948,72 35.9093466,72 C16.0624802,71.9494472 -0.0468629263,55.7592032 0.000102432141,35.9089555 C0.0238944716,26.2938695 3.79176586,17.2619132 10.6095441,10.4777818 C17.4037365,3.72061737 26.4155706,0 35.9969274,0 C36.0272756,0 36.0609224,0 36.0912706,0 C45.7063567,0.0235858261 54.738313,3.78807608 61.5224443,10.6058543 C68.3031945,17.423715 72.0238119,26.4725771 72.000448,36.090962 C71.9766403,45.7060481 68.2121501,54.7380044 61.3943719,61.5187546 C54.6001794,68.2793826 45.5850466,72 36.0036898,72 Z M35.9969274,5.17642156 C27.7939375,5.17642156 20.0762705,8.36132809 14.2594041,14.1478464 C8.422333,19.9546518 5.19701725,27.6891422 5.17663592,35.9223978 C5.13640342,52.9181049 18.9303805,66.7795407 35.9227889,66.823331 C35.9497558,66.823331 35.9767228,66.823331 36.0036898,66.823331 C44.2066797,66.823331 51.9243467,63.6385069 57.7412131,57.8486075 C63.5782843,52.0418021 66.8036,44.3106929 66.8239949,36.0774373 L66.8239949,36.0774373 C66.8440092,27.8441817 63.6592676,20.0927855 57.8524622,14.259013 C52.0456568,8.42194192 44.3111664,5.19662617 36.0779108,5.17642156 C36.0508614,5.17642156 36.0238944,5.17642156 35.9969274,5.17642156 Z" id="形状"></path>
                    <path d="M31.7471141,50.3703446 C31.1303374,50.3703446 30.510262,50.1513101 30.0148779,49.7063963 C28.9532698,48.7492749 28.865689,47.1147631 29.8228104,46.0497739 L51.0446626,22.455323 C52.005165,21.3970962 53.6396769,21.3094329 54.701285,22.2632555 C55.762893,23.2203769 55.8504738,24.8548888 54.8933525,25.9198779 L33.6715003,49.5143288 C33.1592103,50.0804702 32.4548528,50.3703446 31.7471141,50.3703446 Z" id="路径"></path>
                    <path d="M31.5382232,50.4006927 C30.8506891,50.4006927 30.1632376,50.1277243 29.6543287,49.5884673 L17.147674,36.3100789 C16.1669669,35.2686755 16.2175196,33.6307825 17.2555419,32.6500754 C18.3003265,31.6693683 19.9382196,31.719921 20.9155454,32.7579432 L33.4222002,46.0363316 C34.4029073,47.0777351 34.3523546,48.7156281 33.3143323,49.6963352 C32.8121033,50.1681335 32.175122,50.4006927 31.5382232,50.4006927 Z" id="路径"></path>
                </g>
            </g>
        </g>
    </g>
</svg>