<?xml version="1.0" encoding="UTF-8"?>
<svg width="19px" height="19px" viewBox="0 0 19 19" version="1.1" xmlns="http://www.w3.org/2000/svg" xmlns:xlink="http://www.w3.org/1999/xlink">
    <title>ic_shzx_yybfy</title>
    <g id="个人信息" stroke="none" stroke-width="1" fill="none" fill-rule="evenodd">
        <g id="守护中心切图二" transform="translate(-101.000000, -1982.000000)" fill="#FFFFFF">
            <g id="ic_shzx_yybfy" transform="translate(101.530431, 1982.090515)">
                <g transform="translate(2.103428, 0.109827)">
                    <path d="M10.8602401,12.8574601 C12.3976283,8.69952367 11.6651227,4.92468646 8.66272329,1.53294842 C8.62279113,1.48802474 8.62403901,1.44310106 8.66646693,1.39817738 L10.0328956,0.0354923394 C10.0564622,0.0121591552 10.0883617,-0.000681565173 10.1209979,0 C10.153634,0.000737397487 10.1840862,0.01493359 10.2051031,0.0392359796 C14.8958842,5.23915224 15.0980408,12.7077145 10.1564357,17.7466542 C10.1115121,17.7915779 10.0665884,17.7915779 10.0216647,17.7466542 L8.65523601,16.3802255 C8.60050608,16.3239552 8.60050608,16.2351635 8.65523601,16.1818126 C9.68598495,15.1460721 10.4209863,14.0379546 10.8602401,12.8574601 Z" id="路径" fill-rule="nonzero"></path>
                    <path d="M4.66082054,13.1644719 C6.82090094,10.7011567 7.06423755,7.0922875 4.6945133,4.66640865 C4.60965745,4.5815528 4.60965745,4.49669696 4.6945133,4.41184111 L6.04222378,3.060387 C6.1220881,2.98052267 6.20070454,2.98177055 6.27807311,3.06413064 C9.42273089,6.47084323 9.37031992,11.2814209 6.25561127,14.7330572 C6.20070454,14.7929554 6.14454994,14.7942033 6.08714746,14.7368008 L4.66456418,13.3179612 C4.61464897,13.268046 4.61340109,13.2168829 4.66082054,13.1644719 Z" id="路径" fill-rule="nonzero"></path>
                    <circle id="椭圆形" cx="1.56710355" cy="8.81660335" r="1.56710355"></circle>
                </g>
            </g>
        </g>
    </g>
</svg>