<?xml version="1.0" encoding="UTF-8"?>
<svg width="21px" height="21px" viewBox="0 0 21 21" version="1.1" xmlns="http://www.w3.org/2000/svg" xmlns:xlink="http://www.w3.org/1999/xlink">
    <title>ic_yskj_shezhi</title>
    <g id="页面-1" stroke="none" stroke-width="1" fill="none" fill-rule="evenodd">
        <g id="隐私空间切图" transform="translate(-116.000000, -240.000000)" fill="#0C273D" fill-rule="nonzero">
            <g id="ic_yskj_shezhi-2" transform="translate(116.816716, 240.517899)">
                <g id="ic_yskj_paizhao" transform="translate(0.792681, 1.743074)">
                    <rect id="矩形" x="3.5151708" y="0" width="5.42734874" height="1.48259283" rx="0.741296413"></rect>
                    <path d="M16.0510227,3.66015104 C15.9240792,3.61201819 15.7895198,3.58734897 15.6538996,3.58734514 L8.61820236,3.58734514 C8.12841723,3.58734514 7.8515342,3.3435557 7.78755326,2.85597681 C7.77431582,2.76993347 7.79086262,2.68609638 7.83719364,2.60446552 C8.02472398,2.26249843 8.31374134,2.09372112 8.7042457,2.0981336 C10.5552805,2.11357727 12.5916394,2.10475232 14.8133224,2.07165873 C17.344982,2.03525578 18.4503079,3.08432258 18.4105956,5.64576643 C18.3730895,8.02188619 18.3741927,10.5226585 18.413905,13.1480833 C18.4469986,15.3388789 17.3582195,16.5170107 15.1740425,16.5037733 C11.4697667,16.4817109 7.54707317,16.4850202 3.40596196,16.5137014 C1.52293669,16.5269388 -0.0159152379,15.6698148 0.010559634,13.5849186 C0.0414469846,11.1227556 0.0381376256,8.45210286 0.000631557059,5.57296054 C-0.0324620328,3.12403489 1.23502246,1.78705385 3.80308503,2.13453655 C4.21123931,2.18969253 4.41090397,2.4235539 4.40207901,2.83612065 L4.39876965,2.98504181 C4.39435717,3.33142138 4.21896115,3.52115796 3.87258157,3.55425155 C2.88970195,3.65022296 1.51962733,3.40863976 1.51631797,4.92101682 C1.50969926,8.02519555 1.51080238,10.9716282 1.51962733,13.7603147 C1.52145162,14.448068 2.07949989,15.0046361 2.76725567,15.0046337 L15.6406621,15.0046337 C16.3320733,15.0046361 16.8930849,14.4451047 16.8949092,13.753696 C16.9059404,10.6781983 16.9059404,7.72073452 16.8949092,4.88130451 C16.8904967,4.28120741 16.6092012,3.87415626 16.0510227,3.66015104 Z" id="路径"></path>
                    <circle id="椭圆形" cx="14.6677106" cy="5.82116246" r="1"></circle>
                    <path d="M10.9314443,9.54419132 C10.9314443,10.5939164 10.5144426,11.6006475 9.77217488,12.3429153 C9.02990715,13.085183 8.02317605,13.5021847 6.97345095,13.5021847 C5.92372584,13.5021847 4.91699475,13.085183 4.17472701,12.3429153 C3.43245927,11.6006475 3.0154576,10.5939164 3.0154576,9.54419132 C3.0154576,7.35825196 4.78751158,5.58619797 6.97345095,5.58619797 C9.15939031,5.58619797 10.9314443,7.35825196 10.9314443,9.54419132 L10.9314443,9.54419132 Z M9.44885147,9.54419132 C9.44885147,8.17706536 8.3405769,7.0687908 6.97345095,7.0687908 C6.31693391,7.0687908 5.6873061,7.32959118 5.22307845,7.79381883 C4.7588508,8.25804648 4.49805042,8.88767429 4.49805042,9.54419132 C4.49805042,10.9113173 5.60632499,12.0195918 6.97345095,12.0195918 C8.3405769,12.0195918 9.44885147,10.9113173 9.44885147,9.54419132 Z" id="形状"></path>
                </g>
            </g>
        </g>
    </g>
</svg>