<?xml version="1.0" encoding="UTF-8"?>
<svg width="22px" height="22px" viewBox="0 0 22 22" version="1.1" xmlns="http://www.w3.org/2000/svg" xmlns:xlink="http://www.w3.org/1999/xlink">
    <title>ic_shzx_cmm</title>
    <g id="页面-1" stroke="none" stroke-width="1" fill="none" fill-rule="evenodd">
        <g id="守护中心切图二" transform="translate(-600.000000, -1577.000000)" fill="#29283C" fill-rule="nonzero">
            <g id="ic_shzx_cmm-2" transform="translate(600.000000, 1577.000000)">
                <g id="ic_shzx_cmm" transform="translate(2.000000, 1.995316)">
                    <path d="M1.76154116,13.6676222 C1.76154116,14.9146225 2.74768935,16.2284264 4.11875346,16.2347886 C7.39743113,16.2559961 10.5340186,16.261298 13.5285159,16.2506942 C15.3353939,16.244332 16.292912,15.032324 16.2706442,13.3336042 C16.2473159,11.3146514 16.2441348,9.29994 16.2611008,7.28947012 C16.2611008,7.20039867 16.3056365,7.15586295 16.394708,7.15586295 L17.8389379,7.15586295 C17.9470961,7.15586295 18,7.20994204 17.9979941,7.31810023 C17.9640621,8.87897136 17.9630017,10.4409029 17.9948129,12.0038947 C18.0287449,13.7195805 17.8961981,14.8700868 17.5971725,15.4554134 C16.6110243,17.3990797 15.0109194,18.0321232 12.936827,17.9971309 C10.6951955,17.9589574 8.297689,17.9621385 5.74430743,18.0066742 C4.24493802,18.0321232 3.15275238,17.8773086 2.46775051,17.5422303 C0.35230357,16.5083652 -0.0548802017,14.6092347 0.00556113948,12.3347315 C0.0649421062,10.2097412 0.0660024806,8.08475093 0.0087422627,5.95976062 C-0.0580613249,3.36078295 0.314130092,1.35985644 2.76677609,0.329172519 C3.39451774,0.0640789169 4.7136235,-0.0408981493 6.72409338,0.0142413198 C8.14075359,0.0545355473 9.52772331,0.0524147985 10.8850026,0.0078790734 C10.999523,0.00363757578 11.0567832,0.0587770449 11.0567832,0.173297481 L11.0536021,1.62070855 C11.0536021,1.70341775 11.0122475,1.74477235 10.9295383,1.74477235 C9.02298509,1.76810059 6.97858324,1.76597984 4.79633271,1.7384101 C3.04671494,1.71614224 1.75836003,2.59095113 1.75836003,4.46145158 C1.75623928,7.46231115 1.75729966,10.5310347 1.76154116,13.6676222 Z" id="路径"></path>
                    <path d="M14.820052,2.07879029 C14.7955756,2.05432843 14.7818236,2.0211423 14.7818236,1.98653772 C14.7818236,1.95193313 14.7955756,1.918747 14.820052,1.89428514 L15.4849067,1.22943039 C15.5744535,1.13998016 15.6911263,1.08503355 15.8092522,1.07668122 C15.927378,1.06832889 16.0372779,1.10725519 16.1147691,1.18489466 L16.8782387,1.94836424 C16.9558782,2.02585545 16.9948045,2.13575536 16.9864521,2.25388121 C16.9780998,2.37200706 16.9231532,2.4886799 16.833703,2.57822663 L16.1688482,3.24308139 C16.1443864,3.2675578 16.1112002,3.28130973 16.0765956,3.28130973 C16.0419911,3.28130973 16.0088049,3.2675578 15.9843431,3.24308139 L14.820052,2.07879029 Z" id="路径"></path>
                    <path d="M15.4785445,3.78387233 C15.4985555,3.80360057 15.5098217,3.8305281 15.5098217,3.85862873 C15.5098217,3.88672936 15.4985555,3.9136569 15.4785445,3.93338513 L7.88838448,11.5235451 C7.6510926,11.7615646 7.35211884,11.9187816 7.05734637,11.960551 C6.76257391,12.0023203 6.49619483,11.9252141 6.31690961,11.7462238 L6.31690961,11.7462238 C6.13791925,11.5669385 6.06081302,11.3005595 6.1025824,11.005787 C6.14435178,10.7110145 6.30156873,10.4120408 6.53958823,10.1747489 L14.1297482,2.58458888 C14.1494765,2.56457783 14.176404,2.55331165 14.2045046,2.55331165 C14.2326053,2.55331165 14.2595328,2.56457783 14.279261,2.58458888 L15.4785445,3.78387233 Z" id="路径"></path>
                </g>
            </g>
        </g>
    </g>
</svg>