<?xml version="1.0" encoding="UTF-8"?>
<svg width="22px" height="22px" viewBox="0 0 22 22" version="1.1" xmlns="http://www.w3.org/2000/svg" xmlns:xlink="http://www.w3.org/1999/xlink">
    <title>ic_shzx_lylz</title>
    <g id="页面-1" stroke="none" stroke-width="1" fill="none" fill-rule="evenodd">
        <g id="守护中心切图二" transform="translate(-677.000000, -1577.000000)" fill="#29283C" fill-rule="nonzero">
            <g id="ic_shzx_lylz-2" transform="translate(677.000000, 1577.000000)">
                <g id="ic_shzx_lylz" transform="translate(0.889351, 1.896629)">
                    <path d="M1.88844161,14.1261043 C-0.167990205,11.3568602 -0.54489757,8.51349631 0.757719516,5.59601252 C4.05053365,-1.77497085 15.7598943,-1.85066772 19.3271096,5.28849396 C21.7683338,10.1662114 18.9438941,15.2852127 14.0898319,17.1113999 C11.2638152,18.1711562 8.46303075,18.1064984 5.68747861,16.9174266 C5.53608485,16.8543459 5.38626812,16.8527689 5.2380284,16.9126956 L2.18649806,18.161694 C1.97870976,18.2470234 1.74067787,18.2093227 1.56942786,18.0639593 C1.39817786,17.9185959 1.32231287,17.6898493 1.37275664,17.47096 L2.01618009,14.7316793 C2.06664467,14.5108968 2.02406518,14.3090384 1.88844161,14.1261043 Z M4.07891998,14.2112633 L3.87548462,15.0770463 C3.81240389,15.3482935 3.90860201,15.4302984 4.16407897,15.3230612 L5.32318739,14.8263004 C5.48088922,14.7600656 5.63543701,14.7663737 5.78683076,14.8452246 C8.27536558,16.1856902 10.8664066,16.3370839 13.5599538,15.2994059 C20.0225746,12.8156021 19.800215,4.83904375 13.3896358,2.46405425 C11.2827394,1.68185319 9.17584301,1.6566209 7.06894661,2.38835737 C2.4656303,3.98272284 0.156875558,8.90775087 3.42130336,13.0048443 C3.60739152,13.235089 3.78874862,13.4637566 3.96537466,13.6908473 C4.08838209,13.8453951 4.12623053,14.0188671 4.07891998,14.2112633 Z" id="形状"></path>
                    <circle id="椭圆形" cx="6.66680695" cy="7.99938835" r="1.40039222"></circle>
                    <circle id="椭圆形" cx="13.2902837" cy="7.99938835" r="1.40039222"></circle>
                </g>
            </g>
        </g>
    </g>
</svg>