<?xml version="1.0" encoding="UTF-8"?>
<svg width="129px" height="120px" viewBox="0 0 129 120" version="1.1" xmlns="http://www.w3.org/2000/svg" xmlns:xlink="http://www.w3.org/1999/xlink">
    <title>ic_yskj_zpjmz</title>
    <g id="页面-1" stroke="none" stroke-width="1" fill="none" fill-rule="evenodd">
        <g id="隐私空间切图" transform="translate(-339.000000, -682.000000)">
            <g id="ic_yskj_zpjmz" transform="translate(339.010516, 682.000000)">
                <path d="M0,111.573899 L0,5.39351123 C0.384865787,2.92816761 1.56832808,1.30522081 3.55038688,0.524670842 C4.44413076,0.17278356 5.69708271,-0.00209375634 7.30924273,1.92682407e-05 C44.7096446,0.0512224985 82.5911287,0.0512224985 120.953695,1.92682407e-05 C122.512402,-0.00209375634 123.681966,0.169584584 124.462388,0.515073916 C126.871007,1.58033269 128.006361,3.78442666 127.999973,6.38839255 C127.948631,42.1252118 127.93794,77.021767 127.967874,111.078058 C127.971081,114.542548 125.536805,117.072938 121.976797,117.101728 C119.342604,117.125188 116.59509,117.126254 113.734254,117.104927 C113.597413,117.104927 113.528993,117.174238 113.528993,117.312861 C113.538614,118.515675 113.650867,119.990403 111.970286,119.990403 C106.639895,119.994668 101.318056,119.997867 96.0047705,120 C94.2279734,120 94.2311806,118.621242 94.3049466,117.303264 C94.311361,117.177437 94.251493,117.114524 94.1253425,117.114524 L33.8457387,117.114524 C33.7495563,117.114508 33.6710907,117.19135 33.6693419,117.287269 C33.6500986,118.573257 33.8585676,119.987204 31.9919685,119.990403 C26.9138783,120 21.7235355,119.997867 16.4209402,119.987204 C14.5030257,119.984005 14.3073856,118.982726 14.4517103,117.338453 C14.4645391,117.204096 14.4036021,117.135851 14.268899,117.133718 C12.1328939,117.0868 9.96160944,117.089999 7.7550456,117.143315 C5.97397226,117.185968 4.60235336,117.026019 3.6401889,116.663469 C1.54267036,115.874388 0.329274062,114.177865 0,111.573899 Z M126.043545,5.8253729 C126.043545,4.79878349 125.634684,3.81424051 124.906906,3.08833218 C124.179128,2.36242385 123.192049,1.9546128 122.162815,1.9546128 L5.81147338,1.9546128 C3.66820537,1.9546128 1.93074336,3.68761112 1.93074336,5.8253729 L1.93074336,111.327578 C1.93074336,113.46534 3.66820537,115.198338 5.81147338,115.198338 L122.162815,115.198338 C123.192049,115.198338 124.179128,114.790527 124.906906,114.064619 C125.634684,113.33871 126.043545,112.354167 126.043545,111.327578 L126.043545,5.8253729 Z" id="形状" fill-opacity="0.5" fill="#FFFFFF" fill-rule="nonzero"></path>
                <path d="M8.46063287,7.62959496 C8.44756571,7.61502296 8.44756571,7.59298336 8.46063287,7.57841136 L8.4670473,7.56881443 C8.80542339,7.22941767 9.29529186,7.06806 9.8288307,7.12025688 C10.3623695,7.17245375 10.8958486,7.43392699 11.3118469,7.84712528 L11.3535407,7.88871196 C12.2183052,8.74853111 12.3489104,10.0168708 11.6453973,10.7230041 L11.6357756,10.732601 C11.6285542,10.7398289 11.6187447,10.7438917 11.6085143,10.7438917 C11.5982839,10.7438917 11.5884744,10.7398289 11.581253,10.732601 L8.46063287,7.62959496 Z" id="路径" fill-opacity="0.702" fill="#FFFFFF" fill-rule="nonzero"></path>
                <path d="M117.451416,10.7358 C117.438945,10.7479926 117.418986,10.7479926 117.406515,10.7358 L117.390479,10.7166061 C116.691802,10.0194376 116.823899,8.75770889 117.685543,7.89830889 L117.733651,7.85032426 C118.595265,6.99089404 119.860243,6.85913576 120.559208,7.55601853 L120.578451,7.57201341 C120.590675,7.58445241 120.590675,7.60436005 120.578451,7.61679906 L117.451416,10.7358 Z" id="路径" fill-opacity="0.702" fill="#FFFFFF" fill-rule="nonzero"></path>
                <path d="M10.8917018,11.4203807 C10.8986053,11.4264534 10.9025602,11.4351919 10.9025602,11.444373 C10.9025602,11.4535541 10.8986053,11.4622926 10.8917018,11.4683653 L10.8724585,11.4843602 C10.1725382,12.1791132 8.90810273,12.0445484 8.04690215,11.1836565 L7.99558672,11.1324729 C7.13612768,10.2707712 7.00555771,9.00992924 7.70373016,8.31417567 L7.72297345,8.29498182 C7.7354445,8.28278916 7.75540341,8.28278916 7.76787446,8.29498182 L10.8917018,11.4203807 Z" id="路径" fill-opacity="0.702" fill="#FFFFFF" fill-rule="nonzero"></path>
                <path d="M121.277624,8.30457875 C121.291173,8.2919822 121.312182,8.2919822 121.325732,8.30457875 L121.335354,8.31417567 C121.673323,8.65062315 121.832462,9.13802955 121.77772,9.66904286 C121.722978,10.2000562 121.458845,10.7311208 121.043497,11.1452688 L120.998596,11.1900545 C120.583381,11.6043357 120.050949,11.8677901 119.518568,11.9223915 C118.986187,11.9769929 118.497525,11.8182626 118.160211,11.4811612 L118.150589,11.4715643 C118.13796,11.4580495 118.13796,11.4370945 118.150589,11.4235797 L121.277624,8.30457875 Z" id="路径" fill-opacity="0.702" fill="#FFFFFF" fill-rule="nonzero"></path>
                <path d="M114.978654,100.758164 C114.978654,102.637981 113.450836,104.161873 111.566177,104.161873 L16.4016969,104.161873 C14.5170381,104.161873 12.9892203,102.637981 12.9892203,100.758164 L12.9892203,16.3947873 C12.9892203,14.5149703 14.5170381,12.9910775 16.4016969,12.9910775 L111.566177,12.9910775 C113.450836,12.9910775 114.978654,14.5149703 114.978654,16.3947873 L114.978654,100.758164 Z M112.09216,16.3787924 C112.09216,16.0978799 111.863849,15.8701553 111.582213,15.8701553 L16.3856609,15.8701553 C16.1040248,15.8701553 15.8757137,16.0978799 15.8757137,16.3787924 L15.8757137,100.774159 C15.8757137,101.055071 16.1040248,101.282796 16.3856609,101.282796 L111.582213,101.282796 C111.863849,101.282796 112.09216,101.055071 112.09216,100.774159 L112.09216,16.3787924 Z" id="形状" fill-opacity="0.702" fill="#FFFFFF" fill-rule="nonzero"></path>
                <path d="M88.0188054,59.536168 C88.0188054,72.5111453 77.4734161,83.0294426 64.4650192,83.0294426 C51.4566224,83.0294426 40.9112331,72.5111453 40.9112331,59.536168 C40.9112331,46.5611908 51.4566224,36.0428935 64.4650192,36.0428935 C77.4734161,36.0428935 88.0188054,46.5611908 88.0188054,59.536168 Z M85.1419336,59.536168 C85.1419336,54.0663979 82.9634793,48.8206552 79.0858056,44.9529437 C75.208132,41.0852321 69.9488779,38.9123743 64.4650192,38.9123743 C53.0454748,38.9123743 43.7881049,48.1459613 43.7881049,59.536168 C43.7881049,70.9263748 53.0454748,80.1599617 64.4650192,80.1599617 C69.9488779,80.1599617 75.208132,77.987104 79.0858056,74.1193924 C82.9634793,70.2516808 85.1419336,65.0059382 85.1419336,59.536168 Z" id="形状" fill-opacity="0.5" fill="#F9F9F9" fill-rule="nonzero"></path>
                <path d="M7.77108167,109.57454 C7.7631969,109.582959 7.75216381,109.587738 7.74061313,109.587738 C7.72906246,109.587738 7.71802937,109.582959 7.71014459,109.57454 L7.70373016,109.564943 C7.00609915,108.869722 7.13817286,107.609654 7.99879393,106.749844 L8.05010937,106.698661 C8.91213352,105.840251 10.1754473,105.708516 10.8724585,106.404355 L10.8820801,106.410753 C10.890521,106.418617 10.8953127,106.429622 10.8953127,106.441143 C10.8953127,106.452664 10.890521,106.463669 10.8820801,106.471533 L7.77108167,109.57454 Z" id="路径" fill-opacity="0.702" fill="#FFFFFF" fill-rule="nonzero"></path>
                <path d="M118.144175,106.474732 C118.136928,106.46753 118.132855,106.457745 118.132855,106.447541 C118.132855,106.437337 118.136928,106.427553 118.144175,106.42035 L118.157004,106.407554 C118.86235,105.704458 120.134548,105.833356 120.998596,106.695462 L121.043497,106.740247 C121.907824,107.602076 122.037054,108.871005 121.332146,109.57454 L121.319318,109.587335 C121.312096,109.594563 121.302287,109.598626 121.292056,109.598626 C121.281826,109.598626 121.272016,109.594563 121.264795,109.587335 L118.144175,106.474732 Z" id="路径" fill-opacity="0.702" fill="#FFFFFF" fill-rule="nonzero"></path>
                <path d="M11.5876674,107.146517 C11.5943325,107.139473 11.6036141,107.13548 11.6133251,107.13548 C11.6230361,107.13548 11.6323177,107.139473 11.6389828,107.146517 L11.6453973,107.152915 C12.3497674,107.854096 12.2205557,109.122845 11.3567479,109.987207 L11.3118469,110.031993 C10.8970122,110.44748 10.3645415,110.712256 9.83161501,110.768052 C9.29868849,110.823847 8.80897837,110.66609 8.47025452,110.329498 L8.46384009,110.3231 C8.45677754,110.316452 8.45277467,110.307194 8.45277467,110.297508 C8.45277467,110.287822 8.45677754,110.278564 8.46384009,110.271916 L11.5876674,107.146517 Z" id="路径" fill-opacity="0.702" fill="#FFFFFF" fill-rule="nonzero"></path>
                <path d="M120.578451,110.268717 C120.585354,110.27479 120.589309,110.283528 120.589309,110.292709 C120.589309,110.301891 120.585354,110.310629 120.578451,110.316702 L120.562415,110.332697 C119.860543,111.028494 118.594442,110.893905 117.733651,110.031993 L117.682336,109.980809 C116.822422,109.118654 116.693252,107.85604 117.393687,107.159313 L117.409723,107.143318 C117.422194,107.131126 117.442153,107.131126 117.454624,107.143318 L120.578451,110.268717 Z" id="路径" fill-opacity="0.702" fill="#FFFFFF" fill-rule="nonzero"></path>
                <polyline id="路径-43" stroke="#FFFFFF" stroke-width="2.5" stroke-linecap="round" stroke-linejoin="round" points="54.3105582 58.9671252 61.848152 66.4071124 73.605728 50.7458385"></polyline>
            </g>
        </g>
    </g>
</svg>