<?xml version="1.0" encoding="UTF-8"?>
<svg width="31px" height="31px" viewBox="0 0 31 31" version="1.1" xmlns="http://www.w3.org/2000/svg" xmlns:xlink="http://www.w3.org/1999/xlink">
    <title>ic_yskj_luyin</title>
    <g id="页面-1" stroke="none" stroke-width="1" fill="none" fill-rule="evenodd">
        <g id="隐私空间切图" transform="translate(-31.000000, -318.000000)" fill="#0C273D" fill-rule="nonzero">
            <g id="ic_yskj_luyin-2" transform="translate(31.316716, 318.517899)">
                <g id="ic_yskj_luyin" transform="translate(5.391311, 0.500000)">
                    <path d="M14.2249982,14.6696094 C14.2249982,17.1015637 12.2535096,19.0730523 9.82155521,19.0730523 L9.39913191,19.0730523 C6.96717752,19.0730523 4.99568896,17.1015637 4.99568896,14.6696094 L4.99568896,4.40344295 C4.99568896,1.97148856 6.96717752,0 9.39913191,0 L9.82155521,0 C10.9894209,0 12.1094538,0.463932836 12.9352596,1.28973858 C13.7610653,2.11554432 14.2249982,3.23557727 14.2249982,4.40344295 L14.2249982,14.6696094 Z M12.3464945,4.5186493 C12.3464945,3.06230453 11.1658938,1.88170382 9.70954903,1.88170382 L9.51113809,1.88170382 C8.05479331,1.88170382 6.8741926,3.06230453 6.8741926,4.5186493 L6.8741926,14.554403 C6.8741926,16.0107478 8.05479331,17.1913485 9.51113809,17.1913485 L9.70954903,17.1913485 C11.1658938,17.1913485 12.3464945,16.0107478 12.3464945,14.554403 L12.3464945,4.5186493 Z" id="形状"></path>
                    <path d="M10.6344001,27.0990951 L14.404208,27.0958949 C14.8927683,27.0958949 15.236254,27.3188406 15.4346649,27.7647318 C15.4922681,27.8906055 15.5040021,28.020746 15.4698668,28.1551534 C15.3269256,28.7183845 14.9653057,29 14.385007,29 L4.82287942,29 C4.22978003,29 3.86922681,28.7098507 3.74121975,28.129552 C3.71775178,28.0228794 3.72628559,27.9162069 3.76682116,27.8095343 C3.94603105,27.3316413 4.29165011,27.0937615 4.80367836,27.0958949 L8.58628706,27.1022953 C8.62682263,27.1022953 8.64709041,27.0809608 8.64709041,27.0382918 L8.65029059,24.1581329 C8.65029059,24.0983962 8.62042228,24.0631943 8.56068565,24.052527 C4.11030678,23.2674171 1.32508644,20.7179431 0.205024645,16.4041051 C0.00661369823,15.6403296 -0.0477893033,14.2066505 0.0418156404,12.1030678 C0.0588832487,11.655043 0.266894725,11.3296918 0.66585007,11.1270139 C0.778922975,11.0694107 0.893062606,11.0480762 1.00826896,11.0630104 C1.58216729,11.1440815 1.88298389,11.4747664 1.91071875,12.0550651 C1.94272052,12.7249687 1.94698742,13.4162069 1.92351946,14.1287795 C1.77311116,18.8874421 5.80533363,22.5964467 10.4679909,22.0780181 C13.7609726,21.7099978 16.2571103,19.412271 17.0891562,16.1800927 C17.4219745,14.8840212 17.2555654,13.4087398 17.303568,12.0678658 C17.3249025,11.491834 17.6203855,11.1579489 18.1900169,11.0662105 C18.318024,11.044876 18.4438976,11.0662105 18.5676378,11.1302141 C18.9516589,11.3264916 19.1522033,11.6401089 19.1692709,12.071066 C19.2610093,14.2066505 19.2215405,15.6093945 19.0508644,16.2792982 C17.9436033,20.667807 15.146649,23.2588832 10.6600015,24.052527 C10.6002648,24.0631943 10.5703965,24.0983962 10.5703965,24.1581329 L10.5703965,27.0382918 C10.5703965,27.0788273 10.591731,27.0990951 10.6344001,27.0990951 Z" id="路径"></path>
                </g>
            </g>
        </g>
    </g>
</svg>