<?xml version="1.0" encoding="UTF-8"?>
<svg width="41px" height="59px" viewBox="0 0 41 59" version="1.1" xmlns="http://www.w3.org/2000/svg" xmlns:xlink="http://www.w3.org/1999/xlink">
    <title>ic_yskj_zzly</title>
    <g id="页面-1" stroke="none" stroke-width="1" fill="none" fill-rule="evenodd">
        <g id="隐私空间切图" transform="translate(-462.000000, -413.000000)">
            <g id="ic_yskj_zzly-2" transform="translate(462.933594, 413.368729)">
                <g id="ic_yskj_zzly" transform="translate(1.996799, 2.000000)">
                    <g id="编组" transform="translate(13.387805, 4.346135)" stroke="#8CE0AA">
                        <path d="M9.20737102,4.44559849 C9.20737102,1.99036224 7.21700878,0 4.76177253,0 L4.44559849,0 C1.99036224,0 0,1.99036224 0,4.44559849 L0,22.7645302 C0,25.2197665 1.99036224,27.2101287 4.44559849,27.2101287 L4.76177253,27.2101287 C7.21700878,27.2101287 9.20737102,25.2197665 9.20737102,22.7645302 L9.20737102,4.44559849" id="路径"></path>
                    </g>
                    <path d="M21.8670181,0.930496881 C25.2235727,2.57843425 26.9066405,5.46551833 26.9162215,9.59174912 C26.9201666,11.6682028 26.9224873,13.8610765 26.9231835,16.1703703 L26.9231835,19.2036121 C26.9224873,21.6126944 26.9201666,24.1381968 26.9162215,26.7801192 C26.90185,34.6988415 17.7711272,38.8713806 11.8596309,33.4293548 C9.96897409,31.6856072 9.03482355,29.3158988 9.05717929,26.3202297 C9.08911606,22.2259356 9.07474451,17.6446059 9.01406465,12.5762404 C8.97254684,9.10151969 9.1945074,6.80207219 9.67994632,5.67789786 C11.7686111,0.863429662 17.0812929,-1.41685577 21.8670181,0.930496881 Z" id="形状结合" fill="#FFFFFF" fill-rule="nonzero"></path>
                    <path d="M20.5017211,49.7027364 C22.6063543,49.6644123 24.6678729,49.6628154 26.6862768,49.6979459 C28.3374078,49.726689 29.1278429,50.4452663 29.057582,51.8536779 C29.057582,51.892002 29.0559852,51.9191483 29.0527915,51.9351167 C28.9857243,53.2828484 28.2783248,53.9615048 26.9305931,53.9710858 C21.1308755,54.0126036 15.1650867,54.0094099 9.03322671,53.9615048 C6.22119404,53.9375522 6.0870596,49.8560329 8.8463966,49.7506416 C11.3598205,49.6516376 13.6496869,49.627685 15.715996,49.6787838 C15.7485807,49.6800883 15.7802883,49.6680487 15.8037953,49.6454458 C15.8273022,49.622843 15.8405755,49.5916317 15.8405494,49.5590209 L15.8357589,44.9218018 C15.8357589,44.8291852 15.7894506,44.7780863 15.6968339,44.7685053 C8.6020803,43.9397461 3.03550115,38.9480288 0.851026032,32.3083742 C-0.145401217,29.2903493 -0.0256383267,25.8363876 0.0462194076,22.6459042 C0.113286626,19.5512311 4.28103521,19.6662035 4.30019728,22.5021887 C4.30977831,24.0255727 4.33053721,25.5505535 4.36247398,27.0771311 C4.50618945,33.8461297 9.47395415,39.7480449 16.2381622,40.4953654 C20.7093101,40.9903853 24.4874301,39.7065271 27.5725222,36.6437908 C30.1530132,34.0792681 31.4927608,31.0404844 31.5917648,27.5274396 C31.6364762,25.9433758 31.6636225,24.3241815 31.6732035,22.6698568 C31.6795909,21.1911843 32.3662315,20.4406702 33.7331252,20.4183144 C33.7522873,20.4151207 33.7778367,20.4135239 33.8097735,20.4135239 C35.1287621,20.3911682 35.8297742,21.1017613 35.9128098,22.5453034 C36.1667072,26.9382062 36.0229917,31.3071564 33.953489,35.1826836 C31.0983417,40.53848 26.5904665,43.743335 20.4298634,44.7972484 C20.2414364,44.8291852 20.1472229,44.9409639 20.1472229,45.1325845 L20.1472229,49.3530288 C20.1472229,49.5893609 20.265389,49.7059301 20.5017211,49.7027364 Z" id="路径" fill="#FFFFFF" fill-rule="nonzero"></path>
                </g>
            </g>
        </g>
    </g>
</svg>