<?xml version="1.0" encoding="UTF-8"?>
<svg width="33px" height="33px" viewBox="0 0 33 33" version="1.1" xmlns="http://www.w3.org/2000/svg" xmlns:xlink="http://www.w3.org/1999/xlink">
    <title>ic_tjjg_srlj</title>
    <defs>
        <linearGradient x1="66.042742%" y1="-24.4830121%" x2="66.042742%" y2="77.3669979%" id="linearGradient-1">
            <stop stop-color="#1661F8" stop-opacity="0.986910413" offset="0%"></stop>
            <stop stop-color="#6095FF" offset="100%"></stop>
        </linearGradient>
        <linearGradient x1="66.042742%" y1="-24.4830121%" x2="66.042742%" y2="77.3669979%" id="linearGradient-2">
            <stop stop-color="#1661F8" stop-opacity="0.986910413" offset="0%"></stop>
            <stop stop-color="#6095FF" offset="100%"></stop>
        </linearGradient>
    </defs>
    <g id="页面-1" stroke="none" stroke-width="1" fill="none" fill-rule="evenodd">
        <g id="体检结果切图" transform="translate(-82.000000, -86.000000)">
            <g id="ic_tjjg_srlj" transform="translate(82.458388, 86.365858)">
                <g transform="translate(5.711050, 5.799482)">
                    <path d="M9.82653819,12.4265749 L10.5986454,13.041688 C10.9181928,13.2962611 11.3146607,13.4348816 11.7232167,13.4348816 C12.1353542,13.4348816 12.5389604,13.3174529 12.8867677,13.0963478 L13.302621,12.8319851 C13.8779183,12.466262 14.6158531,12.4787404 15.1784564,12.8637052 L19.9357939,16.118943 L19.9357939,16.118943 C20.1641293,16.727602 19.7834451,17.4212113 18.7937414,18.199771 C18.7937414,18.199771 18.7937414,18.199771 18.7937414,18.199771 C17.2011428,19.4526037 15.0581569,19.7529719 13.1824925,18.9862626 C9.82388713,17.6133866 7.09120688,15.8621958 4.9844481,13.732699 C2.41963558,11.1402048 0.805035071,8.20485124 0.140646571,4.92663847 L0.140646571,4.92663847 C-0.202611412,2.74012001 0.0824397881,1.30218616 0.995800172,0.612836935 C1.90916056,-0.0765122912 2.85638858,-0.184300997 3.83748425,0.289470817 L6.12739335,4.14604413 C6.4646242,4.71399484 6.393897,5.43516002 5.95275105,5.92677258 C5.51998684,6.40904454 5.48178939,7.12771139 5.8609939,7.65313983 L7.46264241,9.87239529 C7.55224859,9.99655426 7.64890991,10.1154657 7.75214913,10.2285426" id="路径-23" stroke="#0C273D" stroke-linejoin="round"></path>
                    <path d="M10.7169505,0.694603111 C16.2810439,0.928195866 19.1568404,4.05084327 19.1568404,9.83161245 C19.1568404,10.1983373 18.8595512,10.4956265 18.4928264,10.4956265 C18.1261016,10.4956265 17.8288124,10.1983373 17.8288124,9.83161245 C17.8288124,4.75109868 15.5021235,2.22469294 10.661246,2.02146236 C10.294844,2.00608001 10.0102863,1.69658258 10.0256686,1.33018052 C10.041051,0.963778452 10.3505484,0.679220754 10.7169505,0.694603111 Z" id="路径-25" fill="url(#linearGradient-1)" fill-rule="nonzero"></path>
                    <path d="M10.7043082,3.7654988 C14.1652692,3.84479673 15.9961007,5.78068661 15.9961007,9.33875515 C15.9961007,9.70547996 15.6988115,10.0027692 15.3320867,10.0027692 C14.9653619,10.0027692 14.6680727,9.70547996 14.6680727,9.33875515 C14.6680727,6.49277585 13.4035785,5.15572136 10.6738883,5.09317839 C10.3072597,5.08477816 10.0168582,4.78075722 10.0252585,4.41412862 C10.0336587,4.04750003 10.3376796,3.75709857 10.7043082,3.7654988 Z" id="路径-24" fill="#6095FF" fill-rule="nonzero"></path>
                    <path d="M10.7043082,3.7654988 C14.1652692,3.84479673 15.9961007,5.78068661 15.9961007,9.33875515 C15.9961007,9.70547996 15.6988115,10.0027692 15.3320867,10.0027692 C14.9653619,10.0027692 14.6680727,9.70547996 14.6680727,9.33875515 C14.6680727,6.49277585 13.4035785,5.15572136 10.6738883,5.09317839 C10.3072597,5.08477816 10.0168582,4.78075722 10.0252585,4.41412862 C10.0336587,4.04750003 10.3376796,3.75709857 10.7043082,3.7654988 Z" id="路径-24" fill="url(#linearGradient-2)" fill-rule="nonzero"></path>
                    <line x1="17.7126196" y1="2.37281891" x2="2.52586157" y2="17.5465553" id="路径-26" stroke="#0C273D" stroke-linecap="round" stroke-linejoin="round"></line>
                </g>
            </g>
        </g>
    </g>
</svg>