<?xml version="1.0" encoding="UTF-8"?>
<svg xmlns="http://www.w3.org/2000/svg" xmlns:xlink="http://www.w3.org/1999/xlink" width="21px" height="20px" viewBox="0 0 21 20" version="1.1">
  <title>ic_tab_shzx</title>
  <g id="页面-1" stroke="none" stroke-width="1" fill="none" fill-rule="evenodd">
    <g id="UI规范一" transform="translate(-226.000000, -1867.000000)">
      <g id="ic_tab_shzx" transform="translate(226.250000, 1867.000000)">
        <g transform="translate(0.500000, 1.212508)">
          <path d="M12.9686922,0 C16.6442319,0 19,2.94740981 19,6.91411686 C19,9.99235938 16.2145948,13.3824317 10.7266791,17.1916987 C9.98873304,17.7027448 9.01126696,17.7027448 8.27332088,17.1916987 C2.78540525,13.3824317 0,9.99235938 0,6.9140946 C0,2.94738754 2.35576808,0 6.03130779,0 C7.35869425,0 8.25907089,0.463837138 9.5,1.51619882 C10.741174,0.464082059 11.6412835,0 12.9686922,0 L12.9686922,0 Z M13.0585297,1.24877637 C12.1119458,1.24877637 11.4535857,1.59575054 10.3868971,2.50601525 C10.3374207,2.54815925 10.0579683,2.78864273 9.97706094,2.8573523 C9.70173911,3.09047298 9.29826089,3.09047298 9.02293906,2.8573523 C8.94203172,2.78841431 8.66257931,2.54815925 8.61310294,2.50601525 C7.54641433,1.59575054 6.88805424,1.24877637 5.94147032,1.24877637 C3.06274962,1.24877637 1.21586022,3.55079812 1.21586022,6.87297877 C1.21586022,9.40621004 3.80905246,12.5502895 9.08043307,16.1955513 C9.33301972,16.3697588 9.66698028,16.3697588 9.91956693,16.1955513 C15.1909475,12.5505179 17.7841398,9.40621004 17.7841398,6.87297877 C17.7841398,3.55079812 15.9372504,1.24877637 13.0585297,1.24877637 Z" id="形状" fill="#2F4251" fill-rule="nonzero"></path>
          <path d="M14.7490983,6.02931041 C15.1461184,7.95408119 14.1006042,9.79286868 11.6125557,11.5456729" id="路径-11" stroke="#0C273D" stroke-width="1.2" stroke-linecap="round"></path>
        </g>
      </g>
    </g>
  </g>
</svg>
