<svg xmlns="http://www.w3.org/2000/svg" viewBox="0 0 33 33" class="design-iconfont">
  <defs>
    <linearGradient x1="68.6183233%" y1="-8.32689218%" x2="59.5779819%" y2="70.337157%" id="vm4o9wrsv__p750n1iu5a">
      <stop stop-color="#0A59F7" offset="0%"/>
      <stop stop-color="#6094FF" offset="100%"/>
    </linearGradient>
  </defs>
  <g transform="translate(8.942506 4.031912)" fill="none" fill-rule="evenodd">
    <path d="M3.08647728,11.7493839 L3.08647728,21.920023 C3.08647728,22.4723077 3.53419253,22.920023 4.08647728,22.920023 L13.4063271,22.920023 C13.9586119,22.920023 14.4063271,22.4723077 14.4063271,21.920023 L14.4063271,13.244183 L14.4063271,13.244183 C14.0184242,12.2476503 13.1364117,11.7493839 11.7602897,11.7493839 C10.5602146,11.7493839 9.64266226,12.1283188 9.0076326,12.8861885 C8.81888171,13.1133164 8.53874255,13.2440111 8.24342613,13.244183 L5.60715232,13.244183 C5.40778878,13.244183 5.21297561,13.1845928 5.04772701,13.0730638 L3.08647728,11.7493839 L3.08647728,11.7493839 Z" fill="url(#vm4o9wrsv__p750n1iu5a)"/>
    <path stroke="#0C273D" stroke-linecap="round" stroke-linejoin="round" d="M9.35374755 15.3805535L7.92788749 17.3152887 9.86798213 18.0064846 7.92788749 20.0826767"/>
    <rect stroke="#0C273D" x=".5" y="3.26577919" width="16.3414059" height="22.0640472" rx="3"/>
    <rect stroke="#0C273D" fill="#D8D8D8" x="4.20425606" y=".5" width="8.86511612" height="1" rx=".5"/>
  </g>
</svg>
