<?xml version="1.0" encoding="UTF-8"?>
<svg width="33px" height="33px" viewBox="0 0 33 33" version="1.1" xmlns="http://www.w3.org/2000/svg">
    <title>ic_home_ rlql</title>
    <defs>
        <linearGradient x1="66.042742%" y1="-24.4830121%" x2="66.042742%" y2="77.3669979%" id="linearGradient-1">
            <stop stop-color="#1661F8" stop-opacity="0.986910413" offset="0%" />
            <stop stop-color="#6095FF" offset="100%" />
        </linearGradient>
    </defs>
    <g id="页面-1" stroke="none" stroke-width="1" fill="none" fill-rule="evenodd">
        <g id="首页切图" transform="translate(-638.000000, -440.000000)" fill-rule="nonzero">
            <g id="ic_home_-zpql" transform="translate(638.726418, 440.421423)">
                <g id="rlql" transform="translate(4.899008, 4.355682)">
                    <path d="M19.5,1.28863602 C21.1568542,1.28863602 22.5,2.63178177 22.5,4.28863602 L22.5,20.288636 C22.5,21.9454903 21.1568542,23.288636 19.5,23.288636 L3,23.288636 C1.34314575,23.288636 0,21.9454903 0,20.288636 L0,4.28863602 C0,2.63178177 1.34314575,1.28863602 3,1.28863602 L19.5,1.28863602 Z M19.5,2.28863602 L3,2.28863602 C1.9456382,2.28863602 1.08183488,3.10451381 1.00548574,4.13937367 L1,4.28863602 L1,20.288636 C1,21.3429978 1.81587779,22.2068011 2.85073766,22.2831503 L3,22.288636 L19.5,22.288636 C20.5543618,22.288636 21.4181651,21.4727582 21.4945143,20.4378984 L21.5,20.288636 L21.5,4.28863602 C21.5,3.23427422 20.6841222,2.37047089 19.6492623,2.29412175 L19.5,2.28863602 Z" id="矩形" fill="#0C273D" />
                    <path d="M7.20550919,0 C7.48165156,0 7.70550919,0.223857625 7.70550919,0.5 L7.70550919,3.1 C7.70550919,3.37614237 7.48165156,3.6 7.20550919,3.6 C6.92936681,3.6 6.70550919,3.37614237 6.70550919,3.1 L6.70550919,0.5 C6.70550919,0.223857625 6.92936681,0 7.20550919,0 Z" id="矩形" fill="#0C273D" />
                    <path d="M15.7703819,0 C16.0465243,0 16.2703819,0.223857625 16.2703819,0.5 L16.2703819,3.1 C16.2703819,3.37614237 16.0465243,3.6 15.7703819,3.6 C15.4942396,3.6 15.2703819,3.37614237 15.2703819,3.1 L15.2703819,0.5 C15.2703819,0.223857625 15.4942396,0 15.7703819,0 Z" id="矩形备份-9" fill="#0C273D" />
                    <polygon id="矩形" fill="#0C273D" points="21.7612381 6.25561867 21.7612381 7.48212471 0.673088074 7.48212471 0.673088074 6.25561867" />
                    <path d="M15.2339846,10.2220709 C15.6963561,9.74567532 16.4573772,9.73430657 16.9337728,10.1966781 C17.3784087,10.6282248 17.4179545,11.3199285 17.0453259,11.797565 L16.9591656,11.8964663 L11.3586495,17.6668501 C10.9342936,18.104077 10.2566362,18.1505995 9.77866946,17.7942977 L9.67946959,17.7117772 L6.56272646,14.8265853 C6.07554239,14.3755955 6.04620118,13.6150552 6.49719104,13.1278711 C6.91811491,12.673166 7.60869155,12.6172929 8.09499635,12.9785355 L8.1959052,13.0623357 L10.4503449,15.1499302 L15.2339846,10.2220709 Z" id="路径-20" fill="url(#linearGradient-1)" />
                </g>
            </g>
        </g>
    </g>
</svg>