<?xml version="1.0" encoding="UTF-8"?>
<svg xmlns="http://www.w3.org/2000/svg" xmlns:xlink="http://www.w3.org/1999/xlink" width="20px" height="21px" viewBox="0 0 20 21" version="1.1">
  <title>ic_tab_wode_filled  </title>
  <defs>
    <linearGradient x1="50%" y1="0%" x2="50%" y2="116.812611%" id="linearGradient-1">
      <stop stop-color="#67D2FF" offset="0%"></stop>
      <stop stop-color="#135FF7" offset="100%"></stop>
    </linearGradient>
    <path d="M15.5574673,12.1040986 C17.4587256,12.1040986 19,13.645373 19,15.5466313 C19,17.4478896 17.4587256,18.989164 15.5574673,18.989164 L3.44253271,18.989164 C1.5412744,18.989164 2.32836991e-16,17.4478896 0,15.5466313 C-2.32836991e-16,13.645373 1.5412744,12.1040986 3.44253271,12.1040986 L15.5574673,12.1040986 Z M9.5,0 C12.6703272,0 15.2403851,2.57005797 15.2403851,5.74038514 C15.2403851,8.91071231 12.6703272,11.4807703 9.5,11.4807703 C6.32967283,11.4807703 3.75961486,8.91071231 3.75961486,5.74038514 C3.75961486,2.57005797 6.32967283,0 9.5,0 Z M12.1719847,7.08581683 C11.9182621,6.87267014 11.5397898,6.90556337 11.3266431,7.15928591 C10.9058072,7.66023468 10.3540005,7.90504485 9.62259021,7.90504485 C8.86954848,7.90504485 8.21034182,7.6423564 7.61845613,7.10207875 C7.3737148,6.87867705 6.99420989,6.89597623 6.77080818,7.14071756 C6.54740648,7.38545889 6.56470566,7.76496381 6.80944699,7.98836551 C7.61956964,8.72785148 8.56612207,9.10504485 9.62259021,9.10504485 C10.7006898,9.10504485 11.5911886,8.7099732 12.2454537,7.93115836 C12.4586004,7.67743582 12.4257072,7.29896352 12.1719847,7.08581683 Z" id="path-2"></path>
  </defs>
  <g id="页面-1" stroke="none" stroke-width="1" fill="none" fill-rule="evenodd">
    <g id="UI规范一" transform="translate(-717.000000, -1866.000000)">
      <g id="ic_tab_wode_filled--" transform="translate(717.000000, 1866.500000)">
        <g transform="translate(0.500000, 0.505418)" id="形状结合">
          <use fill="#D8D8D8" xlink:href="#path-2"></use>
          <use fill="url(#linearGradient-1)" xlink:href="#path-2"></use>
        </g>
      </g>
    </g>
  </g>
</svg>
