<svg xmlns="http://www.w3.org/2000/svg" xmlns:xlink="http://www.w3.org/1999/xlink" viewBox="0 0 33 33" class="design-iconfont">
  <defs>
    <linearGradient x1="68.6183233%" y1="36.7451468%" x2="59.5779819%" y2="54.6216423%" id="llyuc007m__1sm0k6070b">
      <stop stop-color="#0A59F7" offset="0%"/>
      <stop stop-color="#6094FF" offset="100%"/>
    </linearGradient>
    <path d="M2.97806702,15.7185892 L6.65758663,11.2103623 C6.72742943,11.1247894 6.85341874,11.1120376 6.93899165,11.1818804 C6.940493,11.1831057 6.94197647,11.1843529 6.94344157,11.1856214 L8.9019239,12.8812807 C8.99280478,12.9599656 9.10899178,13.0032745 9.22920263,13.0032745 L9.73857042,13.0032745 C9.8885143,13.0032745 10.0305429,12.9359814 10.125508,12.8199436 L13.9322692,8.16846542 C14.0022258,8.08298552 14.128232,8.07040139 14.2137119,8.14035798 C14.2269209,8.15116825 14.2386918,8.16362498 14.2487375,8.17742446 L19.7480731,15.7317187 C19.845586,15.8656697 19.8160472,16.0533084 19.6820961,16.1508213 C19.6307991,16.1881643 19.5689831,16.2082815 19.5055333,16.2082815 L3.21048219,16.2082815 C3.04479677,16.2082815 2.91048219,16.073967 2.91048219,15.9082815 C2.91048219,15.8391525 2.9343562,15.7721446 2.97806702,15.7185892 Z" id="llyuc007m__070vsrk13a"/>
  </defs>
  <g transform="translate(5.822889 7.215612)" fill="none" fill-rule="evenodd">
    <rect stroke="#0C273D" x=".5" y=".5" width="21.6733893" height="19" rx="3"/>
    <path stroke="#0C273D" d="M7.86318698 4.79722856A1.53574331 1.53574331 0 1 0 7.86318698 7.86871518A1.53574331 1.53574331 0 1 0 7.86318698 4.79722856Z"/>
    <use fill="#D8D8D8" xlink:href="#llyuc007m__070vsrk13a"/>
    <use fill="url(#llyuc007m__1sm0k6070b)" xlink:href="#llyuc007m__070vsrk13a"/>
  </g>
</svg>
