<svg xmlns="http://www.w3.org/2000/svg" viewBox="0 0 33 33" class="design-iconfont">
  <defs>
    <linearGradient x1="59.0409386%" y1="-9.89549153%" x2="54.6510067%" y2="70.8840891%" id="jw14fv5te__2ar1ufra7a">
      <stop stop-color="#0A59F7" offset="0%"/>
      <stop stop-color="#6094FF" offset="100%"/>
    </linearGradient>
  </defs>
  <g transform="translate(5.452037 7.215612)" fill="none" fill-rule="evenodd">
    <rect stroke="#0C273D" x=".5" y=".5" width="21.6733893" height="19" rx="3"/>
    <path d="M11.107678,15.6602845 L17.4662096,11.3880568 C17.69542,11.2340528 17.7563868,10.9233963 17.6023829,10.6941859 C17.5718902,10.6488024 17.5341602,10.6087276 17.4906953,10.5755574 L11.1321637,5.72304817 C10.9126431,5.55552114 10.598879,5.59767029 10.431352,5.81719092 C10.3648513,5.9043307 10.3288292,6.01090936 10.3288292,6.12052543 L10.3288292,15.2452624 C10.3288292,15.5214048 10.5526869,15.7452624 10.8288292,15.7452624 C10.9281561,15.7452624 11.0252323,15.7156789 11.107678,15.6602845 Z" fill="url(#jw14fv5te__2ar1ufra7a)"/>
    <path d="M8.08761217,14.9269467 L14.3470851,11.3339919 C14.5865778,11.1965225 14.669284,10.8909342 14.5318145,10.6514415 C14.4924736,10.5829037 14.4374473,10.5246671 14.3712479,10.4815072 L8.11177491,6.4005341 C7.88045328,6.24971992 7.57067101,6.31498409 7.41985682,6.54630571 C7.36689802,6.62753492 7.33870167,6.72241082 7.33870167,6.81937895 L7.33870167,14.4933068 C7.33870167,14.7694492 7.56255929,14.9933068 7.83870167,14.9933068 C7.92604373,14.9933068 8.01186217,14.9704274 8.08761217,14.9269467 Z" stroke="#0C273D"/>
  </g>
</svg>
