<?xml version="1.0" encoding="UTF-8"?>
<svg xmlns="http://www.w3.org/2000/svg" xmlns:xlink="http://www.w3.org/1999/xlink" width="20px" height="21px" viewBox="0 0 20 21" version="1.1">
  <title>ic_tab_shouye_filled</title>
  <defs>
    <linearGradient x1="50%" y1="0%" x2="50%" y2="91.5496613%" id="linearGradient-1">
      <stop stop-color="#67D2FF" offset="0%"></stop>
      <stop stop-color="#135FF7" offset="100%"></stop>
    </linearGradient>
  </defs>
  <g id="页面-1" stroke="none" stroke-width="1" fill="none" fill-rule="evenodd">
    <g id="UI规范一" transform="translate(-506.000000, -1866.000000)" fill="url(#linearGradient-1)">
      <g id="ic_tab_shouye_filled" transform="translate(506.000000, 1866.500000)">
        <g transform="translate(0.667879, 0.790734)" id="形状结合">
          <path d="M8.1755213,0.281420423 C8.8683799,-0.209714745 9.79586201,-0.209714745 10.4887206,0.281420423 L10.4887206,0.281420423 L17.8208416,5.47881922 C18.3498612,5.85381661 18.6642419,6.46201981 18.6642419,7.11046785 L18.6642419,7.11046785 L18.6642419,16.418532 C18.6642419,17.5231015 17.7688114,18.418532 16.6642419,18.418532 L16.6642419,18.418532 L2,18.418532 C0.8954305,18.418532 1.3527075e-16,17.5231015 0,16.418532 L0,16.418532 L0,7.11046785 C-1.47760378e-15,6.46201981 0.314380672,5.85381661 0.843400342,5.47881922 L0.843400342,5.47881922 Z M13.502091,13.7163059 L5.16181424,13.7163059 C4.83044339,13.7163059 4.56181424,13.984935 4.56181424,14.3163059 L4.56181424,14.3163059 L4.56181424,14.5473474 C4.56181424,14.8787183 4.83044339,15.1473474 5.16181424,15.1473474 L5.16181424,15.1473474 L13.502091,15.1473474 C13.8334619,15.1473474 14.102091,14.8787183 14.102091,14.5473474 L14.102091,14.5473474 L14.102091,14.3163059 C14.102091,13.984935 13.8334619,13.7163059 13.502091,13.7163059 L13.502091,13.7163059 Z"></path>
        </g>
      </g>
    </g>
  </g>
</svg>
