<?xml version="1.0" encoding="UTF-8"?>
<svg xmlns="http://www.w3.org/2000/svg" xmlns:xlink="http://www.w3.org/1999/xlink" width="20px" height="20px" viewBox="0 0 20 20" version="1.1">
  <title>ic_tab_shouye</title>
  <g id="页面-1" stroke="none" stroke-width="1" fill="none" fill-rule="evenodd">
    <g id="UI规范一" transform="translate(-121.000000, -1867.000000)">
      <g id="ic_tab_shouye" transform="translate(121.000000, 1867.000000)">
        <g transform="translate(0.667879, 0.747269)">
          <path d="M9.33212096,0.6 C9.61568058,0.6 9.89924021,0.685948655 10.1417407,0.857845964 L10.1417407,0.857845964 L17.4738617,6.05524476 C17.8441754,6.31774293 18.0642419,6.74348518 18.0642419,7.1973988 L18.0642419,7.1973988 L18.0642419,16.505463 C18.0642419,16.8920623 17.9075416,17.2420623 17.6541914,17.4954124 C17.4008412,17.7487626 17.0508412,17.905463 16.6642419,17.905463 L16.6642419,17.905463 L2,17.905463 C1.61340068,17.905463 1.26340068,17.7487626 1.01005051,17.4954124 C0.756700338,17.2420623 0.6,16.8920623 0.6,16.505463 L0.6,16.505463 L0.6,7.1973988 C0.6,6.74348518 0.820066471,6.31774293 1.19038024,6.05524476 L1.19038024,6.05524476 L8.5225012,0.857845964 C8.76500171,0.685948655 9.04856133,0.6 9.33212096,0.6 Z" id="形状结合" stroke="#0C273D" stroke-width="1.2"></path>
          <rect id="矩形" fill="#0C273D" x="4.56181424" y="13.8032368" width="9.5402768" height="1.43104152" rx="0.6"></rect>
        </g>
      </g>
    </g>
  </g>
</svg>
