<svg xmlns="http://www.w3.org/2000/svg" xmlns:xlink="http://www.w3.org/1999/xlink" viewBox="0 0 33 33" class="design-iconfont">
  <defs>
    <linearGradient x1="60.0789227%" y1="-9.89549153%" x2="55.1849857%" y2="70.8840891%" id="pmox0aa4v__icwrs4hejb">
      <stop stop-color="#0A59F7" offset="0%"/>
      <stop stop-color="#6094FF" offset="100%"/>
    </linearGradient>
    <path d="M12.242945,13.9142028 L19.9920976,4.74792784 C20.0634093,4.66357509 20.1896002,4.65300321 20.2739529,4.72431487 C20.3409998,4.78099619 20.3632417,4.87477617 20.3287903,4.95552989 L15.859545,15.4314071 L15.859545,15.4314071 L12.242945,13.9142028 Z" id="pmox0aa4v__px6tmyqi4a"/>
  </defs>
  <g fill="none" fill-rule="evenodd">
    <path d="M23.6391054,21.9763713 C25.5892395,19.6514167 26.7635372,16.6537286 26.7635372,13.3817686 C26.7635372,5.99122188 20.7723153,0 13.3817686,0 C5.99122188,0 0,5.99122188 0,13.3817686 C0,16.583292 1.12428294,19.522225 2.99957075,21.8252896" stroke="#0C273D" stroke-linecap="round" transform="translate(3.07028 5.433237)"/>
    <g transform="translate(3.07028 5.433237)">
      <use fill="#D8D8D8" xlink:href="#pmox0aa4v__px6tmyqi4a"/>
      <use fill="url(#pmox0aa4v__icwrs4hejb)" xlink:href="#pmox0aa4v__px6tmyqi4a"/>
    </g>
    <path d="M19.4631711,18.816222 C20.6193728,17.4377955 21.3155942,15.6605167 21.3155942,13.7206266 C21.3155942,9.33889573 17.7634995,5.78680101 13.3817686,5.78680101 C9.00003773,5.78680101 5.44794301,9.33889573 5.44794301,13.7206266 C5.44794301,15.618756 6.11451146,17.3612 7.22633807,18.7266482" stroke="#0C273D" stroke-linecap="round" transform="translate(3.07028 5.433237)"/>
    <path stroke="#0C273D" d="M13.3947782 14.076040249999998A2.34059715 2.34059715 0 1 0 13.3947782 18.75723455A2.34059715 2.34059715 0 1 0 13.3947782 14.076040249999998Z" transform="translate(3.07028 5.433237)"/>
  </g>
</svg>
