<?xml version="1.0" encoding="UTF-8"?>
<svg width="32px" height="33px" viewBox="0 0 32 33" version="1.1" xmlns="http://www.w3.org/2000/svg" xmlns:xlink="http://www.w3.org/1999/xlink">
    <title>ic_gjx_ dcgj</title>
    <defs>
        <linearGradient x1="68.6183233%" y1="36.7451468%" x2="59.5779819%" y2="54.6216423%" id="linearGradient-1">
            <stop stop-color="#0A59F7" offset="0%"></stop>
            <stop stop-color="#6094FF" offset="100%"></stop>
        </linearGradient>
        <path d="M2.97806702,17.7185892 L6.65758663,13.2103623 C6.72742943,13.1247894 6.85341874,13.1120376 6.93899165,13.1818804 C6.940493,13.1831057 6.94197647,13.1843529 6.94344157,13.1856214 L8.9019239,14.8812807 C8.99280478,14.9599656 9.10899178,15.0032745 9.22920263,15.0032745 L9.73857042,15.0032745 C9.8885143,15.0032745 10.0305429,14.9359814 10.125508,14.8199436 L13.9322692,10.1684654 C14.0022258,10.0829855 14.128232,10.0704014 14.2137119,10.140358 C14.2269209,10.1511682 14.2386918,10.163625 14.2487375,10.1774245 L19.7480731,17.7317187 C19.845586,17.8656697 19.8160472,18.0533084 19.6820961,18.1508213 C19.6307991,18.1881643 19.5689831,18.2082815 19.5055333,18.2082815 L3.21048219,18.2082815 C3.04479677,18.2082815 2.91048219,18.073967 2.91048219,17.9082815 C2.91048219,17.8391525 2.9343562,17.7721446 2.97806702,17.7185892 Z" id="path-2"></path>
    </defs>
    <g id="个人信息" stroke="none" stroke-width="1" fill="none" fill-rule="evenodd">
        <g id="工具箱切图" transform="translate(-49.000000, -164.000000)">
            <g id="ic_gjx_-dcgj-2" transform="translate(49.000000, 164.863717)">
                <g id="ic_gjx_-dcgj" transform="translate(3.663305, 5.000000)">
                    <rect id="矩形" stroke="#0C273D" x="0.5" y="2.5" width="21.6733893" height="19" rx="3"></rect>
                    <path d="M2,3 C2,1.34314575 3.34314575,0 5,0 L21.6733893,0 C23.3302435,0 24.6733893,1.34314575 24.6733893,3 L24.6733893,17 C24.6733893,18.6568542 23.3302435,20 21.6733893,20" id="路径" stroke="#0C273D"></path>
                    <circle id="椭圆形" stroke="#0C273D" cx="7.86318698" cy="8.33297187" r="1.53574331"></circle>
                    <g id="路径-18">
                        <use fill="#D8D8D8" xlink:href="#path-2"></use>
                        <use fill="url(#linearGradient-1)" xlink:href="#path-2"></use>
                    </g>
                </g>
            </g>
        </g>
    </g>
</svg>