<svg xmlns="http://www.w3.org/2000/svg" xmlns:xlink="http://www.w3.org/1999/xlink" viewBox="0 0 33 33" class="design-iconfont">
  <defs>
    <linearGradient x1="68.6183233%" y1="28.3146392%" x2="59.5779819%" y2="57.5611535%" id="lvo816tve__gua7bugomb">
      <stop stop-color="#0A59F7" offset="0%"/>
      <stop stop-color="#6094FF" offset="100%"/>
    </linearGradient>
    <path d="M9.91912476,19.1075003 C9.39572875,17.5323415 9.69543387,16.8266676 10.8182401,16.9904785 L10.8182346,16.9905164 C10.9431771,17.0087778 11.0635308,17.0505368 11.1729333,17.113586 C12.7450372,18.0241024 14.3396937,18.1484123 15.9561437,17.4878327 C18.4552551,16.466544 23.4117266,13.4472872 24.7370404,17.4878327 C26.0623541,21.5283783 19.4098547,25.2859328 15.9561437,24.5103356 C12.5024327,23.7347384 10.7509264,21.6108048 9.91912476,19.1075003 Z" id="lvo816tve__e8jb81vvla"/>
  </defs>
  <g fill="none" fill-rule="evenodd">
    <path d="M17.1938233,1.18453526 L25.3490654,12.1292546 C26.701086,14.46557 27.0049075,17.0677536 26.4123295,19.4170469 C25.8139557,21.7893175 24.301751,23.9023551 22.0383274,25.2191181 C20.596263,26.0580496 18.9576975,26.5 17.2893618,26.5 C14.561813,26.4999805 12.1533143,25.4692059 10.421001,23.7944619 C8.67151157,22.1031126 7.61334297,19.756165 7.61334297,17.1621603 C7.61334297,15.4962659 8.05896309,13.8629438 8.90116727,12.4307302 C10.5900162,9.78191777 13.179624,6.20382233 16.8649763,1.37680737 C16.9479794,1.26714203 17.0675997,1.20172995 17.1938233,1.18453526 L17.1938233,1.18453526 Z" stroke="#0C273D" transform="translate(-.676149 3.008266)"/>
    <g transform="translate(-.676149 3.008266)">
      <use fill="#D8D8D8" xlink:href="#lvo816tve__e8jb81vvla"/>
      <use fill="url(#lvo816tve__gua7bugomb)" xlink:href="#lvo816tve__e8jb81vvla"/>
    </g>
    <path stroke="#0C273D" stroke-linecap="round" stroke-linejoin="round" d="M17.9106022 11.3496287L15.9672451 14.7180132 18.6114714 15.921389 15.9672451 19.5360506" transform="translate(-.676149 3.008266)"/>
  </g>
</svg>
