<?xml version="1.0" encoding="UTF-8"?>
<svg xmlns="http://www.w3.org/2000/svg" xmlns:xlink="http://www.w3.org/1999/xlink" width="21px" height="21px" viewBox="0 0 21 21" version="1.1">
  <title>ic_tab_shzx_filled </title>
  <defs>
    <linearGradient x1="50%" y1="0%" x2="50%" y2="91.5496613%" id="linearGradient-1">
      <stop stop-color="#67D2FF" offset="0%"></stop>
      <stop stop-color="#135FF7" offset="100%"></stop>
    </linearGradient>
    <path d="M12.9686922,0 C16.6442319,0 19,2.94740981 19,6.91411686 C19,9.99235938 16.2145948,13.3824317 10.7266791,17.1916987 C9.98873304,17.7027448 9.01126696,17.7027448 8.27332088,17.1916987 C2.78540525,13.3824317 0,9.99235938 0,6.9140946 C0,2.94738754 2.35576808,0 6.03130779,0 C7.35869425,0 8.25907089,0.463837138 9.5,1.51619882 C10.741174,0.464082059 11.6412835,0 12.9686922,0 Z M14.7247916,5.42971133 L14.6278887,5.44168108 C14.30335,5.50862328 14.0945267,5.82598128 14.1614689,6.15052 C14.5023102,7.80293301 13.5793826,9.42612242 11.2670019,11.0551705 C10.9961049,11.2460146 10.9312093,11.6203297 11.1220534,11.8912267 C11.3128975,12.1621237 11.6872125,12.2270193 11.9581095,12.0361752 C14.6218258,10.1596149 15.7899266,8.10522938 15.3367276,5.90810082 C15.2697854,5.5835621 14.9524274,5.37473887 14.6278887,5.44168108 Z" id="path-2"></path>
  </defs>
  <g id="页面-1" stroke="none" stroke-width="1" fill="none" fill-rule="evenodd">
    <g id="UI规范一" transform="translate(-611.000000, -1866.000000)" fill-rule="nonzero">
      <g id="ic_tab_shzx_filled-" transform="translate(611.932352, 1866.500000)">
        <g transform="translate(0.500000, 1.212508)" id="形状结合">
          <use fill="#2F4251" xlink:href="#path-2"></use>
          <use fill="url(#linearGradient-1)" xlink:href="#path-2"></use>
        </g>
      </g>
    </g>
  </g>
</svg>
