<?xml version="1.0" encoding="UTF-8"?>
<svg width="33px" height="33px" viewBox="0 0 33 33" version="1.1" xmlns="http://www.w3.org/2000/svg" xmlns:xlink="http://www.w3.org/1999/xlink">
    <title>ic_tjjg_wlcs</title>
    <defs>
        <linearGradient x1="54.5220452%" y1="49.5439619%" x2="51.4483589%" y2="50.3280999%" id="linearGradient-1">
            <stop stop-color="#1661F8" stop-opacity="0.986910413" offset="0%"></stop>
            <stop stop-color="#6095FF" offset="100%"></stop>
        </linearGradient>
    </defs>
    <g id="页面-1" stroke="none" stroke-width="1" fill="none" fill-rule="evenodd">
        <g id="体检结果切图" transform="translate(-599.000000, -86.000000)" fill-rule="nonzero">
            <g id="ic_tjjg_wlcs-2" transform="translate(599.500000, 86.365858)">
                <g id="ic_tjjg_wlcs" transform="translate(4.402038, 4.504413)">
                    <path d="M21.9285991,14.1661386 C22.2025796,14.1661386 22.4304486,14.3635653 22.4777037,14.6239163 L22.4866954,14.7242348 L22.4866954,17.1867245 C22.4866954,20.319814 19.8716595,22.8612333 16.6106926,22.9863461 L16.3586082,22.9911735 L13.9230716,22.9911735 C13.6148435,22.9911735 13.3649753,22.7413053 13.3649753,22.4330772 C13.3649753,22.1590967 13.5624021,21.9312277 13.8227531,21.8839727 L13.9230716,21.874981 L16.3586082,21.874981 C19.0521987,21.874981 21.2384676,19.8903629 21.3647415,17.4132333 L21.3705029,17.1867245 L21.3705029,14.7242348 C21.3705029,14.4160068 21.6203711,14.1661386 21.9285991,14.1661386 Z M1.21492922,13.6905938 C1.4889097,13.6905938 1.7167787,13.8880205 1.76403378,14.1483715 L1.77302546,14.24869 L1.77302546,17.1867245 C1.77302546,19.6923331 3.8800711,21.7506455 6.54148907,21.8695552 L6.78492015,21.874981 L9.12077533,21.874981 C9.42900338,21.874981 9.67887157,22.1248492 9.67887157,22.4330772 C9.67887157,22.7070577 9.48144485,22.9349267 9.22109384,22.9821818 L9.12077533,22.9911735 L6.78492015,22.9911735 C3.49212321,22.9911735 0.794767434,20.5280814 0.661957643,17.4265336 L0.656832976,17.1867245 L0.656832976,14.24869 C0.656832976,13.940462 0.906701174,13.6905938 1.21492922,13.6905938 Z M9.31614912,0 C9.62437716,0 9.87424536,0.249868198 9.87424536,0.55809624 C9.87424536,0.832076722 9.67681864,1.05994572 9.41646763,1.1072008 L9.31614912,1.11619248 L6.78492015,1.11619248 C4.09448592,1.11619248 1.90524641,3.15910257 1.77879498,5.71680953 L1.77302546,5.950704 L1.77302546,8.74248343 C1.77302546,9.05071147 1.52315726,9.30057967 1.21492922,9.30057967 C0.940948734,9.30057967 0.713079735,9.10315294 0.665824654,8.84280193 L0.656832976,8.74248343 L0.656832976,5.950704 C0.656832976,2.74036516 3.27204546,0.130136371 6.53872812,0.00471791626 L6.78492015,0 L9.31614912,0 Z M16.3586082,0 C19.656637,0 22.3522892,2.53192784 22.4818225,5.71108324 L22.4866954,5.950704 L22.4866954,8.72918931 C22.4866954,9.03741735 22.2368272,9.28728555 21.9285991,9.28728555 C21.6546186,9.28728555 21.4267496,9.08985883 21.3794946,8.82950782 L21.3705029,8.72918931 L21.3705029,5.950704 C21.3705029,3.36320045 19.2603938,1.24418732 16.601769,1.12177781 L16.3586082,1.11619248 L14.1215369,1.11619248 C13.8133089,1.11619248 13.5634407,0.866324282 13.5634407,0.55809624 C13.5634407,0.284115758 13.7608674,0.0562467581 14.0212184,0.00899167762 L14.1215369,0 L16.3586082,0 Z" id="形状" fill="#0C273D"></path>
                    <path d="M22.6399167,11.1376445 C22.9469905,11.1376445 23.195923,11.386577 23.195923,11.6936508 C23.195923,12.0007246 22.9469905,12.2496571 22.6399167,12.2496571 L0.556006326,12.2496571 C0.248932511,12.2496571 0,12.0007246 0,11.6936508 C0,11.386577 0.248932511,11.1376445 0.556006326,11.1376445 L22.6399167,11.1376445 Z" id="矩形" fill="url(#linearGradient-1)"></path>
                </g>
            </g>
        </g>
    </g>
</svg>