<svg xmlns="http://www.w3.org/2000/svg" viewBox="0 0 29 29" class="design-iconfont">
  <g transform="translate(1.86572 2.636219)" fill="none" fill-rule="evenodd">
    <path stroke="#0C273D" stroke-width="1.5" d="M12.5926684 4.533605219999999A7.77312398 7.77312398 0 1 0 12.5926684 20.07985318A7.77312398 7.77312398 0 1 0 12.5926684 4.533605219999999Z"/>
    <rect fill="#FFCE2C" x="11.622609" width="1.74610688" height="2.91017814" rx=".87305344"/>
    <path d="M21.1157924,3.35407696 C21.5979665,3.35407696 21.9888458,3.7449563 21.9888458,4.2271304 L21.9888458,5.39120166 C21.9888458,5.87337576 21.5979665,6.2642551 21.1157924,6.2642551 C20.6336183,6.2642551 20.242739,5.87337576 20.242739,5.39120166 L20.242739,4.2271304 C20.242739,3.7449563 20.6336183,3.35407696 21.1157924,3.35407696 Z" fill="#0C273D" transform="rotate(53 21.115792 4.809166)"/>
    <path d="M23.7006651,10.517505 C24.1828392,10.517505 24.5737185,10.9083843 24.5737185,11.3905584 L24.5737185,12.5546297 C24.5737185,13.0368038 24.1828392,13.4276831 23.7006651,13.4276831 C23.218491,13.4276831 22.8276116,13.0368038 22.8276116,12.5546297 L22.8276116,11.3905584 C22.8276116,10.9083843 23.218491,10.517505 23.7006651,10.517505 Z" fill="#FFCE2C" transform="rotate(88 23.700665 11.972594)"/>
    <path d="M1.48467179,10.517505 C1.9668459,10.517505 2.35772524,10.9083843 2.35772524,11.3905584 L2.35772524,12.5546297 C2.35772524,13.0368038 1.9668459,13.4276831 1.48467179,13.4276831 C1.00249769,13.4276831 0.611618353,13.0368038 0.611618353,12.5546297 L0.611618353,11.3905584 C0.611618353,10.9083843 1.00249769,10.517505 1.48467179,10.517505 Z" fill="#FFCE2C" transform="rotate(88 1.484672 11.972594)"/>
    <path d="M4.06954445,3.27384554 C4.55171855,3.27384554 4.94259789,3.66472488 4.94259789,4.14689898 L4.94259789,5.31097024 C4.94259789,5.79314434 4.55171855,6.18402368 4.06954445,6.18402368 C3.58737034,6.18402368 3.196491,5.79314434 3.196491,5.31097024 L3.196491,4.14689898 C3.196491,3.66472488 3.58737034,3.27384554 4.06954445,3.27384554 Z" fill="#0C273D" transform="rotate(136 4.069544 4.728935)"/>
    <path d="M20.9668276,18.2793418 C21.4490017,18.2793418 21.839881,18.6702211 21.839881,19.1523953 L21.839881,20.3164665 C21.839881,20.7986406 21.4490017,21.1895199 20.9668276,21.1895199 C20.4846535,21.1895199 20.0937741,20.7986406 20.0937741,20.3164665 L20.0937741,19.1523953 C20.0937741,18.6702211 20.4846535,18.2793418 20.9668276,18.2793418 Z" fill="#0C273D" transform="rotate(142 20.966828 19.734431)"/>
    <path d="M12.8005352,21.6476042 C13.2827093,21.6476042 13.6735886,22.0384836 13.6735886,22.5206577 L13.6735886,23.6847289 C13.6735886,24.166903 13.2827093,24.5577824 12.8005352,24.5577824 C12.3183611,24.5577824 11.9274818,24.166903 11.9274818,23.6847289 L11.9274818,22.5206577 C11.9274818,22.0384836 12.3183611,21.6476042 12.8005352,21.6476042 Z" fill="#FFCE2C" transform="rotate(178 12.800535 23.102693)"/>
    <path d="M4.39438393,18.2979443 C4.87655803,18.2979443 5.26743737,18.6888237 5.26743737,19.1709978 L5.26743737,20.335069 C5.26743737,20.8172431 4.87655803,21.2081225 4.39438393,21.2081225 C3.91220983,21.2081225 3.52133049,20.8172431 3.52133049,20.335069 L3.52133049,19.1709978 C3.52133049,18.6888237 3.91220983,18.2979443 4.39438393,18.2979443 Z" fill="#0C273D" transform="rotate(-138 4.394384 19.753033)"/>
  </g>
</svg>
