<svg xmlns="http://www.w3.org/2000/svg" viewBox="0 0 28 29" class="design-iconfont">
  <g stroke-width="1.5" fill="none" fill-rule="evenodd">
    <path d="M20.8892167,8.5 C21.0025732,7.99861359 21.0624629,7.47649342 21.0624629,6.94016395 C21.0624629,3.10721724 18.0036397,0 14.23039,0 C11.8704019,0 9.78989071,1.21551459 8.56246292,3.06386232" stroke="#FFCE2C" transform="translate(1.743448 5.819448)"/>
    <path d="M14.9341174,12.2435806 L14.9906748,11.1867509 C15.206126,7.16083517 12.1171343,3.7225279 8.09121858,3.50707665 C7.96129843,3.50012383 7.83121563,3.49664556 7.70110957,3.49664556 L7.3069043,3.49664556 C3.27141249,3.49664556 -4.94205213e-16,6.76805804 0,10.8035499 C4.94205213e-16,14.8390417 3.27141249,18.1104542 7.3069043,18.1104542 L17.3559201,18.1104542 L17.3559201,18.1104542 C20.2041545,18.1104542 22.5131047,15.801504 22.5131047,12.9532696 L22.5131047,12.7436466 C22.5131047,9.92681484 20.2296114,7.64332156 17.4127797,7.64332156 C17.3262276,7.64332156 17.2396896,7.64552473 17.1532497,7.64992893 L14.1782273,7.80150929 L14.1782273,7.80150929" stroke="#0C273D" transform="translate(1.743448 5.819448)"/>
  </g>
</svg>
