<?xml version="1.0" encoding="UTF-8"?>
<svg width="20px" height="21px" viewBox="0 0 20 21" version="1.1" xmlns="http://www.w3.org/2000/svg" xmlns:xlink="http://www.w3.org/1999/xlink">
    <title>ic_shzx_xcfx</title>
    <defs>
        <linearGradient x1="50%" y1="3.1463623%" x2="50.725777%" y2="96.1050679%" id="linearGradient-1">
            <stop stop-color="#60D3FF" offset="0%"></stop>
            <stop stop-color="#0A59F7" offset="100%"></stop>
        </linearGradient>
        <linearGradient x1="21.237832%" y1="50%" x2="79.5747461%" y2="38.6481934%" id="linearGradient-2">
            <stop stop-color="#FFD4A9" offset="0%"></stop>
            <stop stop-color="#F3BD90" offset="100%"></stop>
        </linearGradient>
        <path d="M6.52794184,15.1252607 C7.2648925,13.9103055 8.16844108,12.9468366 9.23858758,12.234854 C10.3087341,11.5228715 11.4384687,11.0576421 12.6277915,10.8391657 L12.6277915,8.1485486 C11.5765978,8.28094783 10.4468631,8.57542405 9.23858758,9.03197727 C8.03031201,9.48853049 7.12676343,9.87614731 6.52794184,10.1948277 L6.52794184,15.1252607 Z" id="path-3"></path>
    </defs>
    <g id="页面-1" stroke="none" stroke-width="1" fill="none" fill-rule="evenodd">
        <g id="守护中心切图" transform="translate(-562.000000, -192.000000)">
            <g id="ic_shzx_xcfx-2" transform="translate(562.000000, 192.068071)">
                <g id="ic_shzx_xcfx" transform="translate(3.686104, 1.226004)">
                    <path d="M4.77788215,0.10932635 C4.83439212,0.149082813 4.88361054,0.198301241 4.92336701,0.254811204 L8.75601008,5.70254234 C8.94668036,5.97356169 8.88154457,6.34783508 8.61052523,6.53850536 C8.50944626,6.60961745 8.38887371,6.64778142 8.26528615,6.64778142 L6.003,6.647 L6.00375392,16.5479918 C6.00375392,17.1002765 5.55603867,17.5479918 5.00375392,17.5479918 L3.86153223,17.5479918 C3.30924748,17.5479918 2.86153223,17.1002765 2.86153223,16.5479918 L2.861,6.647 L0.6,6.64778142 C0.26862915,6.64778142 -4.30544489e-13,6.37915227 -4.30433467e-13,6.04778142 C-4.30433467e-13,5.92419386 0.0381639706,5.80362131 0.109276067,5.70254234 L3.94191914,0.254811204 C4.13258942,-0.0162081405 4.50686281,-0.0813439281 4.77788215,0.10932635 Z" id="形状结合" fill="url(#linearGradient-1)"></path>
                    <g id="路径-36" opacity="0.441631499">
                        <use fill="url(#linearGradient-2)" xlink:href="#path-3"></use>
                        <use fill="#AEE3FF" xlink:href="#path-3"></use>
                    </g>
                </g>
            </g>
        </g>
    </g>
</svg>