<?xml version="1.0" encoding="UTF-8"?>
<svg width="238px" height="238px" viewBox="0 0 238 238" version="1.1" xmlns="http://www.w3.org/2000/svg" xmlns:xlink="http://www.w3.org/1999/xlink">
    <title>ic_wlcs_csyb</title>
    <defs>
        <linearGradient x1="0%" y1="40.1347201%" x2="106.161301%" y2="43.209549%" id="linearGradient-1">
            <stop stop-color="#0A59F7" stop-opacity="0.0985576923" offset="0%"></stop>
            <stop stop-color="#125CF1" stop-opacity="0.0410890379" offset="100%"></stop>
        </linearGradient>
    </defs>
    <g id="个人信息" stroke="none" stroke-width="1" fill="none" fill-rule="evenodd">
        <g id="切图" transform="translate(-26.000000, -36.000000)" fill-rule="nonzero">
            <g id="ic_wlcs_csyb" transform="translate(26.000000, 35.811064)">
                <g transform="translate(1.000000, 0.000000)">
                    <g id="编组-7">
                        <path d="M118,0 C183.1696,0 236,52.8303995 236,118 C236,142.557203 228.470197,166.008412 214.669145,185.684977 L214.179447,186.377872 L197.888056,174.776554 C209.607737,158.31895 216,138.652965 216,118 C216,63.8760945 172.123905,20 118,20 C63.8760945,20 20,63.8760945 20,118 C20,138.010627 25.9999574,157.097091 37.0420333,173.243485 L37.5183494,173.933667 L21.1061823,185.363487 C7.44318807,165.744686 0,142.416795 0,118 C0,52.8303995 52.8303995,0 118,0 Z" id="路径" fill="url(#linearGradient-1)"></path>
                        <path d="M118,28.2886065 C167.580455,28.2886065 207.773354,68.4815064 207.773354,118.061961 C207.773354,136.693591 202.083881,154.471417 191.646931,169.41158 L191.176436,170.078639 L190.361866,169.498574 C200.978566,154.589853 206.773354,136.762018 206.773354,118.061961 C206.773354,69.0337911 167.02817,29.2886065 118,29.2886065 C68.9718301,29.2886065 29.2266456,69.0337911 29.2266456,118.061961 C29.2266456,136.160629 34.6540436,153.445002 44.636603,168.062493 L45.1005678,168.735246 L44.2799595,169.306737 C33.885854,154.381759 28.2266456,136.645085 28.2266456,118.061961 C28.2266456,68.4815064 68.4195454,28.2886065 118,28.2886065 Z" id="路径" fill="#EEEEEE"></path>
                    </g>
                    <polygon id="路径-10" fill="#EEEEEE" points="118.5 28.5915985 118.5 34.5915985 117.5 34.5915985 117.5 28.5915985"></polygon>
                    <polygon id="路径-10备份" fill="#EEEEEE" points="180.235328 54.7599971 181.001372 55.4027847 177.144647 59.9990514 176.378602 59.3562638"></polygon>
                    <polygon id="路径-10备份-2" fill="#EEEEEE" transform="translate(57.016693, 57.379524) scale(-1, 1) translate(-57.016693, -57.379524) " points="58.5620337 54.7599971 59.3280782 55.4027847 55.4713525 59.9990514 54.7053081 59.3562638"></polygon>
                    <polygon id="路径-10备份-3" fill="#EEEEEE" points="28.7225937 113.916283 34.6778706 114.647499 34.5560013 115.640045 28.6007244 114.908829"></polygon>
                    <polygon id="路径-10备份-4" fill="#EEEEEE" points="206.654629 114.058754 206.759158 115.053276 200.792026 115.680447 200.687498 114.685925"></polygon>
                    <polygon id="路径-10备份-5" fill="#EEEEEE" points="186.121236 166.731269 191.26424 169.821498 190.749202 170.678665 185.606198 167.588437"></polygon>
                    <polygon id="路径-10备份-6" fill="#EEEEEE" transform="translate(46.459145, 167.159853) scale(-1, 1) translate(-46.459145, -167.159853) " points="44.1451617 165.186155 49.2881655 168.276384 48.7731275 169.133551 43.6301237 166.043322"></polygon>
                    <g id="标题备份-2" transform="translate(104.328000, 39.651599)" fill="#89939C">
                        <path d="M2.652,3.336 C3.172,3.336 3.636,3.458 4.044,3.702 C4.452,3.946 4.768,4.282 4.992,4.71 C5.216,5.138 5.328,5.624 5.328,6.168 C5.328,6.736 5.204,7.24 4.956,7.68 C4.708,8.12 4.368,8.462 3.936,8.706 C3.504,8.95 3.024,9.072 2.496,9.072 C1.912,9.072 1.394,8.926 0.942,8.634 C0.49,8.342 0.176,7.916 0,7.356 L0.864,6.864 C1.008,7.272 1.218,7.58 1.494,7.788 C1.77,7.996 2.104,8.1 2.496,8.1 C3.024,8.1 3.44,7.924 3.744,7.572 C4.048,7.22 4.2,6.768 4.2,6.216 C4.2,5.68 4.054,5.228 3.762,4.86 C3.47,4.492 3.048,4.308 2.496,4.308 C1.8,4.308 1.256,4.624 0.864,5.256 L0.18,4.908 L0.78,0.132 L4.932,0.132 L4.932,1.068 L1.716,1.068 L1.368,3.672 C1.72,3.448 2.148,3.336 2.652,3.336 Z" id="路径"></path>
                        <polygon id="路径" points="7.2 2.736 7.2 1.632 9.756 0.144 10.572 0.144 10.572 8.94 9.492 8.94 9.492 1.428"></polygon>
                        <path d="M15.084,7.992 L19.056,7.992 L19.056,8.94 L13.452,8.94 L13.452,8.256 L16.296,5.088 C16.832,4.496 17.2,4.03 17.4,3.69 C17.6,3.35 17.7,2.98 17.7,2.58 C17.7,2.068 17.56,1.672 17.28,1.392 C17,1.112 16.648,0.972 16.224,0.972 C15.792,0.972 15.412,1.118 15.084,1.41 C14.756,1.702 14.52,2.088 14.376,2.568 L13.512,2.076 C13.688,1.42 14.036,0.91 14.556,0.546 C15.076,0.182 15.656,0 16.296,0 C16.76,0 17.184,0.098 17.568,0.294 C17.952,0.49 18.258,0.778 18.486,1.158 C18.714,1.538 18.828,1.996 18.828,2.532 C18.828,3.052 18.7,3.544 18.444,4.008 C18.188,4.472 17.74,5.056 17.1,5.76 L15.084,7.992 Z" id="路径"></path>
                        <polygon id="路径" points="23.928 3.9 27.792 8.94 26.424 8.94 23.184 4.692 21.804 6.144 21.804 8.94 20.736 8.94 20.736 0.156 21.804 0.156 21.804 4.824 26.1 0.156 27.492 0.156"></polygon>
                    </g>
                    <g id="标题备份-6" transform="translate(58.616693, 61.141391)" fill="#89939C">
                        <path d="M1.632,7.992 L5.604,7.992 L5.604,8.94 L0,8.94 L0,8.256 L2.844,5.088 C3.38,4.496 3.748,4.03 3.948,3.69 C4.148,3.35 4.248,2.98 4.248,2.58 C4.248,2.068 4.108,1.672 3.828,1.392 C3.548,1.112 3.196,0.972 2.772,0.972 C2.34,0.972 1.96,1.118 1.632,1.41 C1.304,1.702 1.068,2.088 0.924,2.568 L0.06,2.076 C0.236,1.42 0.584,0.91 1.104,0.546 C1.624,0.182 2.204,0 2.844,0 C3.308,0 3.732,0.098 4.116,0.294 C4.5,0.49 4.806,0.778 5.034,1.158 C5.262,1.538 5.376,1.996 5.376,2.532 C5.376,3.052 5.248,3.544 4.992,4.008 C4.736,4.472 4.288,5.056 3.648,5.76 L1.632,7.992 Z" id="路径"></path>
                        <path d="M9.72,3.336 C10.24,3.336 10.704,3.458 11.112,3.702 C11.52,3.946 11.836,4.282 12.06,4.71 C12.284,5.138 12.396,5.624 12.396,6.168 C12.396,6.736 12.272,7.24 12.024,7.68 C11.776,8.12 11.436,8.462 11.004,8.706 C10.572,8.95 10.092,9.072 9.564,9.072 C8.98,9.072 8.462,8.926 8.01,8.634 C7.558,8.342 7.244,7.916 7.068,7.356 L7.932,6.864 C8.076,7.272 8.286,7.58 8.562,7.788 C8.838,7.996 9.172,8.1 9.564,8.1 C10.092,8.1 10.508,7.924 10.812,7.572 C11.116,7.22 11.268,6.768 11.268,6.216 C11.268,5.68 11.122,5.228 10.83,4.86 C10.538,4.492 10.116,4.308 9.564,4.308 C8.868,4.308 8.324,4.624 7.932,5.256 L7.248,4.908 L7.848,0.132 L12,0.132 L12,1.068 L8.784,1.068 L8.436,3.672 C8.788,3.448 9.216,3.336 9.72,3.336 Z" id="路径"></path>
                        <path d="M16.74,3.468 C17.26,3.468 17.724,3.592 18.132,3.84 C18.54,4.088 18.858,4.424 19.086,4.848 C19.314,5.272 19.428,5.74 19.428,6.252 C19.428,6.78 19.306,7.26 19.062,7.692 C18.818,8.124 18.478,8.462 18.042,8.706 C17.606,8.95 17.12,9.072 16.584,9.072 C16.032,9.072 15.54,8.952 15.108,8.712 C14.676,8.472 14.34,8.136 14.1,7.704 C13.86,7.272 13.74,6.78 13.74,6.228 C13.74,5.796 13.818,5.398 13.974,5.034 C14.13,4.67 14.388,4.192 14.748,3.6 L16.848,0.144 L18.06,0.144 L16.248,3.096 C16.136,3.272 16.024,3.436 15.912,3.588 C16.16,3.508 16.436,3.468 16.74,3.468 Z M16.584,8.1 C17.096,8.1 17.506,7.932 17.814,7.596 C18.122,7.26 18.276,6.824 18.276,6.288 C18.276,5.744 18.124,5.302 17.82,4.962 C17.516,4.622 17.104,4.452 16.584,4.452 C16.064,4.452 15.65,4.622 15.342,4.962 C15.034,5.302 14.88,5.744 14.88,6.288 C14.88,6.832 15.034,7.27 15.342,7.602 C15.65,7.934 16.064,8.1 16.584,8.1 Z" id="形状"></path>
                        <polygon id="路径" points="24.156 3.9 28.02 8.94 26.652 8.94 23.412 4.692 22.032 6.144 22.032 8.94 20.964 8.94 20.964 0.156 22.032 0.156 22.032 4.824 26.328 0.156 27.72 0.156"></polygon>
                    </g>
                    <g id="标题备份-8" transform="translate(37.545056, 110.743186)" fill="#89939C">
                        <path d="M1.632,7.992 L5.604,7.992 L5.604,8.94 L0,8.94 L0,8.256 L2.844,5.088 C3.38,4.496 3.748,4.03 3.948,3.69 C4.148,3.35 4.248,2.98 4.248,2.58 C4.248,2.068 4.108,1.672 3.828,1.392 C3.548,1.112 3.196,0.972 2.772,0.972 C2.34,0.972 1.96,1.118 1.632,1.41 C1.304,1.702 1.068,2.088 0.924,2.568 L0.06,2.076 C0.236,1.42 0.584,0.91 1.104,0.546 C1.624,0.182 2.204,0 2.844,0 C3.308,0 3.732,0.098 4.116,0.294 C4.5,0.49 4.806,0.778 5.034,1.158 C5.262,1.538 5.376,1.996 5.376,2.532 C5.376,3.052 5.248,3.544 4.992,4.008 C4.736,4.472 4.288,5.056 3.648,5.76 L1.632,7.992 Z" id="路径"></path>
                        <path d="M11.04,4.164 C11.496,4.372 11.854,4.676 12.114,5.076 C12.374,5.476 12.504,5.936 12.504,6.456 C12.504,6.952 12.386,7.398 12.15,7.794 C11.914,8.19 11.582,8.502 11.154,8.73 C10.726,8.958 10.236,9.072 9.684,9.072 C9.116,9.072 8.616,8.96 8.184,8.736 C7.752,8.512 7.416,8.2 7.176,7.8 C6.936,7.4 6.816,6.952 6.816,6.456 C6.816,5.936 6.946,5.476 7.206,5.076 C7.466,4.676 7.828,4.372 8.292,4.164 C7.924,3.972 7.636,3.714 7.428,3.39 C7.22,3.066 7.116,2.7 7.116,2.292 C7.116,1.876 7.224,1.492 7.44,1.14 C7.656,0.788 7.96,0.51 8.352,0.306 C8.744,0.102 9.188,0 9.684,0 C10.172,0 10.606,0.102 10.986,0.306 C11.366,0.51 11.66,0.786 11.868,1.134 C12.076,1.482 12.18,1.868 12.18,2.292 C12.18,2.7 12.08,3.066 11.88,3.39 C11.68,3.714 11.4,3.972 11.04,4.164 Z M9.684,0.936 C9.236,0.936 8.882,1.064 8.622,1.32 C8.362,1.576 8.232,1.912 8.232,2.328 C8.232,2.736 8.362,3.068 8.622,3.324 C8.882,3.58 9.236,3.708 9.684,3.708 C10.124,3.708 10.472,3.578 10.728,3.318 C10.984,3.058 11.112,2.728 11.112,2.328 C11.112,1.92 10.984,1.586 10.728,1.326 C10.472,1.066 10.124,0.936 9.684,0.936 Z M9.684,8.112 C10.196,8.112 10.608,7.96 10.92,7.656 C11.232,7.352 11.388,6.94 11.388,6.42 C11.388,5.892 11.236,5.472 10.932,5.16 C10.628,4.848 10.212,4.692 9.684,4.692 C9.148,4.692 8.726,4.848 8.418,5.16 C8.11,5.472 7.956,5.892 7.956,6.42 C7.956,6.948 8.112,7.362 8.424,7.662 C8.736,7.962 9.156,8.112 9.684,8.112 Z" id="形状"></path>
                        <polygon id="路径" points="17.316 3.9 21.18 8.94 19.812 8.94 16.572 4.692 15.192 6.144 15.192 8.94 14.124 8.94 14.124 0.156 15.192 0.156 15.192 4.824 19.488 0.156 20.88 0.156"></polygon>
                    </g>
                    <g id="标题备份-9" transform="translate(52.021056, 158.219853)" fill="#89939C">
                        <path d="M5.7,4.548 C5.7,6.036 5.454,7.162 4.962,7.926 C4.47,8.69 3.764,9.072 2.844,9.072 C1.932,9.072 1.23,8.688 0.738,7.92 C0.246,7.152 0,6.028 0,4.548 C0,3.06 0.246,1.93 0.738,1.158 C1.23,0.386 1.932,0 2.844,0 C3.764,0 4.47,0.384 4.962,1.152 C5.454,1.92 5.7,3.052 5.7,4.548 Z M1.14,4.548 C1.14,5.74 1.278,6.628 1.554,7.212 C1.83,7.796 2.26,8.088 2.844,8.088 C3.428,8.088 3.86,7.798 4.14,7.218 C4.42,6.638 4.56,5.748 4.56,4.548 C4.56,3.34 4.42,2.442 4.14,1.854 C3.86,1.266 3.428,0.972 2.844,0.972 C2.26,0.972 1.83,1.266 1.554,1.854 C1.278,2.442 1.14,3.34 1.14,4.548 Z" id="形状"></path>
                        <polygon id="路径" points="10.5 3.9 14.364 8.94 12.996 8.94 9.756 4.692 8.376 6.144 8.376 8.94 7.308 8.94 7.308 0.156 8.376 0.156 8.376 4.824 12.672 0.156 14.064 0.156"></polygon>
                    </g>
                    <g id="标题备份-10" transform="translate(160.496773, 158.219853)" fill="#89939C">
                        <polygon id="路径" points="0 2.736 0 1.632 2.556 0.144 3.372 0.144 3.372 8.94 2.292 8.94 2.292 1.428"></polygon>
                        <path d="M11.928,4.548 C11.928,6.036 11.682,7.162 11.19,7.926 C10.698,8.69 9.992,9.072 9.072,9.072 C8.16,9.072 7.458,8.688 6.966,7.92 C6.474,7.152 6.228,6.028 6.228,4.548 C6.228,3.06 6.474,1.93 6.966,1.158 C7.458,0.386 8.16,0 9.072,0 C9.992,0 10.698,0.384 11.19,1.152 C11.682,1.92 11.928,3.052 11.928,4.548 Z M7.368,4.548 C7.368,5.74 7.506,6.628 7.782,7.212 C8.058,7.796 8.488,8.088 9.072,8.088 C9.656,8.088 10.088,7.798 10.368,7.218 C10.648,6.638 10.788,5.748 10.788,4.548 C10.788,3.34 10.648,2.442 10.368,1.854 C10.088,1.266 9.656,0.972 9.072,0.972 C8.488,0.972 8.058,1.266 7.782,1.854 C7.506,2.442 7.368,3.34 7.368,4.548 Z" id="形状"></path>
                        <polygon id="路径" points="20.94 0.156 21.816 0.156 21.816 8.94 20.772 8.94 20.772 2.244 18 6.672 17.364 6.672 14.568 2.22 14.568 8.94 13.536 8.94 13.536 0.156 14.472 0.156 17.712 5.376"></polygon>
                    </g>
                    <g id="标题备份-11" transform="translate(182.012818, 110.875186)" fill="#89939C">
                        <path d="M2.652,3.204 C3.172,3.204 3.636,3.326 4.044,3.57 C4.452,3.814 4.768,4.15 4.992,4.578 C5.216,5.006 5.328,5.492 5.328,6.036 C5.328,6.604 5.204,7.108 4.956,7.548 C4.708,7.988 4.368,8.33 3.936,8.574 C3.504,8.818 3.024,8.94 2.496,8.94 C1.912,8.94 1.394,8.794 0.942,8.502 C0.49,8.21 0.176,7.784 0,7.224 L0.864,6.732 C1.008,7.14 1.218,7.448 1.494,7.656 C1.77,7.864 2.104,7.968 2.496,7.968 C3.024,7.968 3.44,7.792 3.744,7.44 C4.048,7.088 4.2,6.636 4.2,6.084 C4.2,5.548 4.054,5.096 3.762,4.728 C3.47,4.36 3.048,4.176 2.496,4.176 C1.8,4.176 1.256,4.492 0.864,5.124 L0.18,4.776 L0.78,0 L4.932,0 L4.932,0.936 L1.716,0.936 L1.368,3.54 C1.72,3.316 2.148,3.204 2.652,3.204 Z" id="路径"></path>
                        <polygon id="路径" points="14.46 0.024 15.336 0.024 15.336 8.808 14.292 8.808 14.292 2.112 11.52 6.54 10.884 6.54 8.088 2.088 8.088 8.808 7.056 8.808 7.056 0.024 7.992 0.024 11.232 5.244"></polygon>
                    </g>
                    <g id="标题备份-7" transform="translate(169.051717, 60.295599)" fill="#89939C">
                        <polygon id="路径" points="0 2.592 0 1.488 2.556 0 3.372 0 3.372 8.796 2.292 8.796 2.292 1.284"></polygon>
                        <polygon id="路径" points="14.1 0.012 14.976 0.012 14.976 8.796 13.932 8.796 13.932 2.1 11.16 6.528 10.524 6.528 7.728 2.076 7.728 8.796 6.696 8.796 6.696 0.012 7.632 0.012 10.872 5.232"></polygon>
                    </g>
                </g>
            </g>
        </g>
    </g>
</svg>